<?xml version="1.0" encoding="UTF-8" standalone="no"?><svg xmlns="http://www.w3.org/2000/svg" xmlns:xlink="http://www.w3.org/1999/xlink" clip-rule="evenodd" stroke-miterlimit="4.00" viewBox="0 0 105 35"><desc>SVG generated by Keynote</desc><defs></defs><g transform="matrix(1.00, 0.00, -0.00, -1.00, 0.0, 35.0)"><text xml:space="preserve" font-family="CircularStd-Book" font-size="16.0" fill="#52575F" transform="matrix(1.00, 0.00, -0.00, -1.00, 1.0, 22.0)">M</text><text xml:space="preserve" font-family="CircularStd-Book" font-size="16.0" fill="#52575F" transform="matrix(1.00, 0.00, -0.00, -1.00, 16.1, 22.0)">i</text><text xml:space="preserve" font-family="CircularStd-Book" font-size="16.0" fill="#52575F" transform="matrix(1.00, 0.00, -0.00, -1.00, 20.2, 22.0)">z</text><text xml:space="preserve" font-family="CircularStd-Book" font-size="16.0" fill="#52575F" transform="matrix(1.00, 0.00, -0.00, -1.00, 27.6, 22.0)">i</text><text xml:space="preserve" font-family="CircularStd-Book" font-size="16.0" fill="#52575F" transform="matrix(1.00, 0.00, -0.00, -1.00, 31.7, 22.0)">k</text><text xml:space="preserve" font-family="CircularStd-Book" font-size="16.0" fill="#52575F" transform="matrix(1.00, 0.00, -0.00, -1.00, 39.7, 22.0)">e</text><text xml:space="preserve" font-family="CircularStd-Book" font-size="16.0" fill="#52575F" transform="matrix(1.00, 0.00, -0.00, -1.00, 48.4, 22.0)">r</text><text xml:space="preserve" font-family="CircularStd-Book" font-size="16.0" fill="#52575F" transform="matrix(1.00, 0.00, -0.00, -1.00, 54.2, 22.0)"> </text><text xml:space="preserve" font-family="CircularStd-Book" font-size="16.0" fill="#52575F" transform="matrix(1.00, 0.00, -0.00, -1.00, 1.0, 2.0)">E</text><text xml:space="preserve" font-family="CircularStd-Book" font-size="16.0" fill="#52575F" transform="matrix(1.00, 0.00, -0.00, -1.00, 10.1, 2.0)">n</text><text xml:space="preserve" font-family="CircularStd-Book" font-size="16.0" fill="#52575F" transform="matrix(1.00, 0.00, -0.00, -1.00, 19.0, 2.0)">t</text><text xml:space="preserve" font-family="CircularStd-Book" font-size="16.0" fill="#52575F" transform="matrix(1.00, 0.00, -0.00, -1.00, 24.6, 2.0)">e</text><text xml:space="preserve" font-family="CircularStd-Book" font-size="16.0" fill="#52575F" transform="matrix(1.00, 0.00, -0.00, -1.00, 33.3, 2.0)">r</text><text xml:space="preserve" font-family="CircularStd-Book" font-size="16.0" fill="#52575F" transform="matrix(1.00, 0.00, -0.00, -1.00, 39.6, 2.0)">t</text><text xml:space="preserve" font-family="CircularStd-Book" font-size="16.0" fill="#52575F" transform="matrix(1.00, 0.00, -0.00, -1.00, 45.3, 2.0)">a</text><text xml:space="preserve" font-family="CircularStd-Book" font-size="16.0" fill="#52575F" transform="matrix(1.00, 0.00, -0.00, -1.00, 53.6, 2.0)">i</text><text xml:space="preserve" font-family="CircularStd-Book" font-size="16.0" fill="#52575F" transform="matrix(1.00, 0.00, -0.00, -1.00, 57.7, 2.0)">n</text><text xml:space="preserve" font-family="CircularStd-Book" font-size="16.0" fill="#52575F" transform="matrix(1.00, 0.00, -0.00, -1.00, 66.7, 2.0)">m</text><text xml:space="preserve" font-family="CircularStd-Book" font-size="16.0" fill="#52575F" transform="matrix(1.00, 0.00, -0.00, -1.00, 80.4, 2.0)">e</text><text xml:space="preserve" font-family="CircularStd-Book" font-size="16.0" fill="#52575F" transform="matrix(1.00, 0.00, -0.00, -1.00, 89.1, 2.0)">n</text><text xml:space="preserve" font-family="CircularStd-Book" font-size="16.0" fill="#52575F" transform="matrix(1.00, 0.00, -0.00, -1.00, 98.1, 2.0)">t</text></g></svg>