<?xml version="1.0" encoding="UTF-8" standalone="no"?><svg xmlns="http://www.w3.org/2000/svg" xmlns:xlink="http://www.w3.org/1999/xlink" clip-rule="evenodd" stroke-miterlimit="4.00" viewBox="0 0 1024 768"><desc>SVG generated by Keynote</desc><defs></defs><g transform="matrix(1.00, 0.00, -0.00, -1.00, 0.0, 768.0)"><path d="M 0.0 768.0 L 1024.0 768.0 L 1024.0 0.0 L 0.0 0.0 Z M 0.0 768.0 " fill="#F4F4F4"></path><g><clipPath id="clip-126"><path d="M 202.0 -1532.0 L 793.0 -1532.0 L 793.0 578.0 L 202.0 578.0 Z M 202.0 -1532.0 "></path></clipPath><g clip-path="url(#clip-126)"><image xlink:href="F09224B7D84201778986118B24C9FA5D.png" width="800.00" height="2857.00" transform="matrix(0.74, 0.00, -0.00, -0.74, 202.0, 578.0)"></image></g></g><path d="M -12.3 199.6 L 974.9 199.6 L 974.9 -2.0 L -12.3 -2.0 Z M -12.3 199.6 " fill="#F4F4F4"></path><path d="M 35.9 778.0 L 1023.1 778.0 L 1023.1 584.5 L 35.9 584.5 Z M 35.9 778.0 " fill="#F4F4F4"></path><image xlink:href="../../615F7CD4-E262-41F7-8138-806EC6AB1FAB/assets/93D2A96739FFD88A3F4D5D3647EA3BF6.png" width="36.00" height="40.00" transform="matrix(1.00, 0.00, -0.00, -1.00, 64.0, 704.0)"></image><path d="M 470.9 161.6 L 529.5 161.6 L 529.5 136.2 L 470.9 136.2 Z M 470.9 161.6 " fill="#F7F9FA"></path><text xml:space="preserve" font-family="CircularStd-Book" font-size="18.0" fill="#A6AAA8" transform="matrix(1.00, 0.00, -0.00, -1.00, 766.1, 677.6)">P</text><text xml:space="preserve" font-family="CircularStd-Book" font-size="18.0" fill="#A6AAA8" transform="matrix(1.00, 0.00, -0.00, -1.00, 776.7, 677.6)">l</text><text xml:space="preserve" font-family="CircularStd-Book" font-size="18.0" fill="#A6AAA8" transform="matrix(1.00, 0.00, -0.00, -1.00, 781.3, 677.6)">e</text><text xml:space="preserve" font-family="CircularStd-Book" font-size="18.0" fill="#A6AAA8" transform="matrix(1.00, 0.00, -0.00, -1.00, 791.0, 677.6)">a</text><text xml:space="preserve" font-family="CircularStd-Book" font-size="18.0" fill="#A6AAA8" transform="matrix(1.00, 0.00, -0.00, -1.00, 800.4, 677.6)">s</text><text xml:space="preserve" font-family="CircularStd-Book" font-size="18.0" fill="#A6AAA8" transform="matrix(1.00, 0.00, -0.00, -1.00, 808.5, 677.6)">e</text><text xml:space="preserve" font-family="CircularStd-Book" font-size="18.0" fill="#A6AAA8" transform="matrix(1.00, 0.00, -0.00, -1.00, 818.2, 677.6)"> </text><text xml:space="preserve" font-family="CircularStd-Book" font-size="18.0" fill="#A6AAA8" transform="matrix(1.00, 0.00, -0.00, -1.00, 822.7, 677.6)">d</text><text xml:space="preserve" font-family="CircularStd-Book" font-size="18.0" fill="#A6AAA8" transform="matrix(1.00, 0.00, -0.00, -1.00, 833.3, 677.6)">o</text><text xml:space="preserve" font-family="CircularStd-Book" font-size="18.0" fill="#A6AAA8" transform="matrix(1.00, 0.00, -0.00, -1.00, 843.6, 677.6)"> </text><text xml:space="preserve" font-family="CircularStd-Book" font-size="18.0" fill="#A6AAA8" transform="matrix(1.00, 0.00, -0.00, -1.00, 848.1, 677.6)">n</text><text xml:space="preserve" font-family="CircularStd-Book" font-size="18.0" fill="#A6AAA8" transform="matrix(1.00, 0.00, -0.00, -1.00, 858.2, 677.6)">o</text><text xml:space="preserve" font-family="CircularStd-Book" font-size="18.0" fill="#A6AAA8" transform="matrix(1.00, 0.00, -0.00, -1.00, 868.4, 677.6)">t</text><text xml:space="preserve" font-family="CircularStd-Book" font-size="18.0" fill="#A6AAA8" transform="matrix(1.00, 0.00, -0.00, -1.00, 874.8, 677.6)"> </text><text xml:space="preserve" font-family="CircularStd-Book" font-size="18.0" fill="#A6AAA8" transform="matrix(1.00, 0.00, -0.00, -1.00, 879.3, 677.6)">d</text><text xml:space="preserve" font-family="CircularStd-Book" font-size="18.0" fill="#A6AAA8" transform="matrix(1.00, 0.00, -0.00, -1.00, 889.9, 677.6)">i</text><text xml:space="preserve" font-family="CircularStd-Book" font-size="18.0" fill="#A6AAA8" transform="matrix(1.00, 0.00, -0.00, -1.00, 894.5, 677.6)">s</text><text xml:space="preserve" font-family="CircularStd-Book" font-size="18.0" fill="#A6AAA8" transform="matrix(1.00, 0.00, -0.00, -1.00, 902.6, 677.6)">t</text><text xml:space="preserve" font-family="CircularStd-Book" font-size="18.0" fill="#A6AAA8" transform="matrix(1.00, 0.00, -0.00, -1.00, 908.8, 677.6)">r</text><text xml:space="preserve" font-family="CircularStd-Book" font-size="18.0" fill="#A6AAA8" transform="matrix(1.00, 0.00, -0.00, -1.00, 915.4, 677.6)">i</text><text xml:space="preserve" font-family="CircularStd-Book" font-size="18.0" fill="#A6AAA8" transform="matrix(1.00, 0.00, -0.00, -1.00, 920.0, 677.6)">b</text><text xml:space="preserve" font-family="CircularStd-Book" font-size="18.0" fill="#A6AAA8" transform="matrix(1.00, 0.00, -0.00, -1.00, 930.5, 677.6)">u</text><text xml:space="preserve" font-family="CircularStd-Book" font-size="18.0" fill="#A6AAA8" transform="matrix(1.00, 0.00, -0.00, -1.00, 940.7, 677.6)">t</text><text xml:space="preserve" font-family="CircularStd-Book" font-size="18.0" fill="#A6AAA8" transform="matrix(1.00, 0.00, -0.00, -1.00, 947.0, 677.6)">e</text><text xml:space="preserve" font-family="CircularStd-Book" font-size="18.0" fill="#A6AAA8" transform="matrix(1.00, 0.00, -0.00, -1.00, 956.5, 677.6)">.</text><text xml:space="preserve" font-family="CircularStd-Book" font-size="18.0" fill="#52575F" transform="matrix(1.00, 0.00, -0.00, -1.00, 107.0, 675.0)">M</text><text xml:space="preserve" font-family="CircularStd-Book" font-size="18.0" fill="#52575F" transform="matrix(1.00, 0.00, -0.00, -1.00, 124.0, 675.0)">i</text><text xml:space="preserve" font-family="CircularStd-Book" font-size="18.0" fill="#52575F" transform="matrix(1.00, 0.00, -0.00, -1.00, 128.6, 675.0)">c</text><text xml:space="preserve" font-family="CircularStd-Book" font-size="18.0" fill="#52575F" transform="matrix(1.00, 0.00, -0.00, -1.00, 138.1, 675.0)">h</text><text xml:space="preserve" font-family="CircularStd-Book" font-size="18.0" fill="#52575F" transform="matrix(1.00, 0.00, -0.00, -1.00, 148.2, 675.0)">a</text><text xml:space="preserve" font-family="CircularStd-Book" font-size="18.0" fill="#52575F" transform="matrix(1.00, 0.00, -0.00, -1.00, 157.7, 675.0)">e</text><text xml:space="preserve" font-family="CircularStd-Book" font-size="18.0" fill="#52575F" transform="matrix(1.00, 0.00, -0.00, -1.00, 167.4, 675.0)">l</text><text xml:space="preserve" font-family="CircularStd-Book" font-size="18.0" fill="#52575F" transform="matrix(1.00, 0.00, -0.00, -1.00, 172.0, 675.0)"> </text><text xml:space="preserve" font-family="CircularStd-Book" font-size="18.0" fill="#52575F" transform="matrix(1.00, 0.00, -0.00, -1.00, 176.5, 675.0)">S</text><text xml:space="preserve" font-family="CircularStd-Book" font-size="18.0" fill="#52575F" transform="matrix(1.00, 0.00, -0.00, -1.00, 186.7, 675.0)">u</text><text xml:space="preserve" font-family="CircularStd-Book" font-size="18.0" fill="#52575F" transform="matrix(1.00, 0.00, -0.00, -1.00, 196.8, 675.0)">e</text><text xml:space="preserve" font-family="CircularStd-Book" font-size="18.0" fill="#52575F" transform="matrix(1.00, 0.00, -0.00, -1.00, 206.6, 675.0)">n</text><g><clipPath id="clip-127"><path d="M 59.0 651.0 L 942.0 651.0 L 942.0 99.0 L 59.0 99.0 Z M 58.6 650.9 "></path></clipPath><g clip-path="url(#clip-127)"><image xlink:href="736775127E128457E50D130A0CBECF5D.png" width="864.00" height="540.00" transform="matrix(1.02, 0.00, -0.00, -1.02, 59.0, 651.0)"></image></g></g><g><clipPath id="clip-128"><path d="M 51.9 79.0 L 139.1 80.5 L 139.4 67.5 L 52.1 66.0 Z M 51.9 79.0 "></path></clipPath><g clip-path="url(#clip-128)"><path d="M 126.3 76.1 C 126.4 76.2 127.1 76.3 127.1 76.1 C 126.8 76.1 126.3 76.0 126.3 76.1 C 126.3 76.1 126.3 76.1 126.3 76.1 Z M 124.9 76.2 C 125.2 76.3 125.7 76.2 125.9 76.2 C 125.6 76.2 125.0 76.1 124.9 76.2 C 124.9 76.2 124.9 76.2 124.9 76.2 Z M 127.0 75.8 C 127.3 75.8 128.0 75.9 128.1 75.8 C 127.8 75.8 127.1 75.7 127.0 75.8 C 127.0 75.8 127.0 75.8 127.0 75.8 Z M 108.4 78.0 C 108.5 78.0 109.2 78.1 109.2 77.9 C 108.9 78.0 108.4 77.8 108.4 78.0 C 108.4 78.0 108.4 78.0 108.4 78.0 Z M 112.0 77.7 C 112.3 77.8 112.8 77.7 113.0 77.7 C 112.7 77.7 112.1 77.6 112.0 77.7 C 112.0 77.7 112.0 77.7 112.0 77.7 Z M 114.2 77.8 C 114.7 77.8 115.2 77.8 115.1 77.6 C 114.9 77.8 114.2 77.6 114.2 77.8 C 114.2 77.8 114.2 77.8 114.2 77.8 Z M 126.6 69.8 C 126.1 69.9 125.7 69.8 125.4 69.8 C 123.6 69.8 126.3 70.1 126.6 69.8 C 126.6 69.8 126.6 69.8 126.6 69.8 Z M 117.9 77.4 C 117.6 77.4 117.3 77.4 117.1 77.5 C 117.4 77.5 117.9 77.5 117.9 77.4 C 117.9 77.4 117.9 77.4 117.9 77.4 Z M 121.0 77.3 C 121.1 77.4 122.9 77.4 123.9 77.3 C 123.1 77.2 120.9 77.2 121.0 77.3 C 121.0 77.3 121.0 77.3 121.0 77.3 Z M 122.4 69.7 C 121.2 69.8 119.3 69.8 118.4 69.8 C 117.5 69.9 119.9 70.0 122.1 70.0 C 124.3 70.0 122.5 69.7 123.4 69.6 C 124.3 69.6 122.5 69.5 121.7 69.5 C 120.8 69.6 122.2 69.6 122.4 69.7 C 122.4 69.7 122.4 69.7 122.4 69.7 Z M 122.4 69.2 C 122.8 69.2 123.2 69.2 123.5 69.1 C 123.0 69.0 122.6 69.0 122.4 69.2 C 122.4 69.2 122.4 69.2 122.4 69.2 Z M 58.8 71.8 C 58.9 73.3 59.9 74.5 61.0 75.4 C 61.3 75.6 61.6 75.8 61.9 76.0 C 63.9 76.7 66.0 77.1 68.1 77.3 C 68.5 77.3 68.9 77.3 69.3 77.4 C 70.6 77.5 71.9 77.6 73.2 77.6 C 73.6 77.6 74.1 77.6 74.5 77.6 C 76.1 77.9 77.5 77.7 79.1 77.7 C 79.8 77.8 80.6 77.8 81.4 78.1 C 81.8 78.2 83.5 78.2 84.1 78.0 C 83.5 78.3 86.3 78.3 86.2 78.3 C 86.5 78.2 86.8 78.1 87.1 78.1 C 87.5 78.0 87.1 78.0 86.7 77.9 C 87.0 77.9 87.4 77.9 87.8 77.9 C 88.1 77.9 88.5 77.9 88.9 77.9 C 90.2 78.1 91.6 78.0 92.9 77.9 C 96.2 77.9 105.3 78.0 103.6 77.9 C 101.8 77.8 102.7 77.6 103.2 77.6 C 103.5 77.6 103.9 77.6 104.4 77.6 C 104.3 77.7 104.3 77.7 104.2 77.8 C 105.1 77.8 106.2 78.0 107.4 77.9 C 107.2 77.8 106.9 77.8 106.8 77.7 C 107.4 77.8 106.9 77.6 107.3 77.6 C 108.3 77.5 108.9 77.5 107.6 77.5 C 108.8 77.4 109.5 77.1 110.6 77.0 C 111.0 77.0 110.8 77.0 110.7 77.1 C 111.4 77.1 113.1 77.1 113.3 77.2 C 113.4 77.3 108.7 77.2 109.5 77.3 C 109.9 77.3 110.6 77.3 110.9 77.4 C 110.2 77.4 109.5 77.4 109.1 77.4 C 109.5 77.5 110.1 77.5 110.5 77.5 C 110.0 77.5 109.8 77.5 109.6 77.6 C 110.2 77.6 110.7 77.7 111.4 77.7 C 111.7 77.6 111.1 77.5 111.8 77.5 C 111.9 77.5 111.3 77.5 111.4 77.4 C 111.9 77.4 113.0 77.4 113.3 77.4 C 113.5 77.3 112.6 77.4 112.6 77.3 C 114.7 77.3 117.0 77.3 117.8 77.3 C 118.5 77.3 117.8 77.3 117.5 77.2 C 118.3 77.2 119.0 77.2 120.0 77.2 C 120.7 77.2 120.4 77.1 120.2 77.1 C 120.3 77.1 120.5 77.1 120.6 77.1 C 120.7 77.1 120.8 77.1 121.0 77.0 C 120.6 77.0 119.8 77.0 119.5 76.9 C 120.1 76.9 121.5 77.0 122.0 76.9 C 121.2 76.8 120.3 76.8 119.4 76.7 C 121.2 76.7 123.0 77.0 124.5 76.8 C 124.2 76.8 124.1 76.7 123.9 76.6 C 124.5 76.7 125.3 76.8 125.8 76.6 C 126.0 76.6 126.6 76.6 127.1 76.6 C 126.2 76.5 125.6 76.5 124.9 76.5 C 124.9 76.5 125.0 76.4 125.1 76.4 C 123.6 76.2 122.8 76.6 121.7 76.6 C 121.6 76.6 121.6 76.6 121.5 76.6 C 121.1 76.5 122.3 76.5 122.4 76.4 C 120.9 76.3 119.2 76.4 118.4 76.3 C 120.3 76.2 121.9 76.3 123.3 76.2 C 122.9 76.1 121.6 76.1 120.9 76.0 C 123.9 75.9 124.2 75.9 124.5 75.9 C 124.2 75.9 124.0 75.9 123.8 75.9 C 123.8 75.8 123.9 75.8 123.9 75.8 C 125.3 75.8 126.8 75.8 126.7 75.8 C 126.7 75.7 125.5 75.7 124.2 75.7 C 124.3 75.6 124.5 75.5 124.6 75.5 C 126.1 75.5 127.8 75.2 129.3 75.4 C 129.1 75.2 129.2 75.2 129.5 75.2 C 129.0 75.1 128.4 75.0 127.9 75.0 C 128.0 74.9 128.3 75.0 128.4 74.9 C 128.2 74.8 127.8 74.9 127.7 74.8 C 128.4 74.7 129.1 74.7 129.9 74.7 C 130.0 74.5 129.6 74.6 129.6 74.6 C 130.3 74.5 131.3 74.6 131.8 74.5 C 131.2 74.4 130.1 74.4 129.7 74.4 C 129.9 74.3 130.2 74.3 130.4 74.2 C 130.9 74.2 131.1 74.2 130.6 74.1 C 130.3 74.1 130.3 74.1 130.4 74.1 C 130.7 74.0 131.9 74.0 131.8 73.8 C 131.5 73.8 130.4 73.8 130.1 73.7 C 130.3 73.5 130.9 73.6 131.0 73.5 C 129.7 73.5 129.7 73.5 129.4 73.6 C 129.6 73.6 129.9 73.5 129.9 73.6 C 129.1 73.6 128.3 73.6 127.5 73.6 C 127.5 73.6 127.5 73.6 127.5 73.6 C 127.5 73.6 127.5 73.6 127.5 73.6 C 127.5 73.6 127.5 73.6 127.5 73.6 C 127.6 73.5 127.6 73.4 127.5 73.3 C 127.8 73.3 128.2 73.2 128.8 73.3 C 128.7 73.1 128.1 73.1 127.5 73.1 C 127.6 73.1 127.6 73.1 127.6 73.1 C 128.4 73.1 129.8 73.0 130.7 72.9 C 130.3 72.9 128.8 72.9 127.7 72.9 C 127.8 72.8 127.8 72.8 127.8 72.8 C 126.5 72.8 125.0 72.6 123.5 72.6 C 124.3 72.4 125.1 72.6 126.0 72.6 C 126.4 72.6 126.8 72.5 127.2 72.4 C 128.3 72.5 131.8 72.6 132.2 72.5 C 132.6 72.4 129.1 72.3 129.1 72.3 C 129.1 72.2 130.7 72.2 129.9 72.2 C 129.5 72.2 128.7 72.2 128.0 72.2 C 128.0 72.1 128.0 72.0 128.0 71.9 C 128.5 71.9 129.2 71.8 129.2 72.0 C 129.5 72.0 130.1 72.1 130.1 72.0 C 130.0 72.0 129.9 72.0 129.9 72.0 C 130.0 71.9 130.2 72.0 130.3 71.9 C 129.6 71.9 128.7 71.8 128.0 71.8 C 127.9 71.7 127.8 71.7 127.8 71.6 C 127.8 71.6 128.3 71.6 128.8 71.5 C 129.3 71.5 128.3 71.4 127.4 71.4 C 127.3 71.4 127.2 71.3 127.0 71.3 C 127.3 71.3 127.7 71.3 128.1 71.3 C 128.5 71.2 128.5 71.1 129.0 71.0 C 128.1 71.0 127.1 70.9 126.3 71.0 C 126.0 70.8 125.7 70.7 125.4 70.6 C 126.1 70.6 126.7 70.5 127.1 70.4 C 127.4 70.4 127.7 70.5 127.8 70.4 C 127.5 70.3 128.3 70.3 128.2 70.2 C 127.7 70.3 126.9 70.2 126.6 70.4 C 126.0 70.4 125.3 70.4 124.7 70.4 C 124.6 70.4 124.5 70.3 124.5 70.3 C 125.0 70.3 125.5 70.3 126.0 70.2 C 125.8 70.0 124.3 70.0 123.1 70.1 C 120.9 69.9 118.6 70.6 116.3 70.7 C 116.2 70.7 116.1 70.6 115.9 70.6 C 115.8 70.6 115.6 70.5 115.4 70.4 C 116.0 70.4 116.5 70.4 116.9 70.4 C 115.3 70.2 119.2 70.3 119.4 70.2 C 116.8 69.9 111.9 70.0 108.9 69.8 C 109.7 69.7 109.9 69.7 109.1 69.7 C 108.9 69.7 108.7 69.6 108.5 69.6 C 111.5 69.5 114.7 69.9 117.2 69.6 C 115.7 69.6 113.5 69.7 112.9 69.5 C 113.3 69.5 114.0 69.5 114.0 69.4 C 113.3 69.3 110.8 69.4 110.1 69.3 C 113.7 69.2 118.5 69.4 121.1 69.2 C 117.1 69.2 111.8 69.0 108.4 69.1 C 109.0 69.2 109.0 69.2 108.7 69.3 C 107.6 69.3 106.6 69.3 105.5 69.3 C 105.3 69.3 105.3 69.3 105.9 69.3 C 106.3 69.2 106.5 69.2 106.7 69.2 C 106.4 69.1 103.0 69.1 105.7 69.1 C 108.4 69.1 113.0 69.1 110.3 69.0 C 107.6 68.9 106.5 68.7 108.0 68.7 C 109.5 68.7 114.1 68.6 112.6 68.5 C 111.0 68.5 107.7 68.3 105.9 68.3 C 104.0 68.3 107.1 68.8 104.4 68.8 C 101.7 68.8 103.9 68.6 103.4 68.6 C 102.6 68.6 101.1 68.6 99.6 68.6 C 98.6 68.5 97.3 68.5 96.6 68.4 C 96.7 68.3 99.8 68.4 98.6 68.3 C 95.6 68.3 92.2 68.2 93.6 68.4 C 91.7 68.3 90.4 68.3 89.2 68.4 C 87.4 68.1 85.3 68.1 85.1 68.1 C 84.8 68.0 79.9 68.3 78.0 67.7 C 77.9 67.7 74.6 67.8 74.3 68.0 C 71.1 67.7 71.6 67.6 68.5 67.6 C 65.9 67.6 65.1 67.7 64.6 67.7 C 61.9 67.8 61.9 67.6 60.6 68.3 C 60.2 68.5 59.5 68.5 59.3 68.9 C 58.9 69.6 58.7 70.6 58.8 71.8 C 58.8 71.8 58.8 71.8 58.8 71.8 Z M 127.2 73.8 C 127.6 73.9 128.5 73.9 129.0 74.0 C 128.4 74.1 127.7 74.0 127.0 74.0 C 127.0 73.9 127.1 73.9 127.2 73.8 C 127.2 73.8 127.2 73.8 127.2 73.8 Z M 123.5 71.5 C 123.8 71.5 124.2 71.6 124.5 71.6 C 124.9 71.6 125.2 71.6 125.8 71.5 C 125.7 71.4 124.9 71.4 124.2 71.4 C 124.2 71.3 124.2 71.3 124.2 71.2 C 124.5 71.2 124.9 71.1 125.4 71.1 C 125.5 71.2 125.7 71.2 125.8 71.2 C 125.8 71.3 125.6 71.3 125.5 71.3 C 125.6 71.4 126.0 71.5 126.6 71.5 C 126.6 71.5 126.7 71.6 126.7 71.6 C 126.8 71.7 126.4 71.8 126.9 71.8 C 126.5 71.9 125.7 71.8 125.2 71.8 C 125.8 71.5 123.7 71.7 123.1 71.5 C 123.3 71.5 123.4 71.5 123.5 71.5 Z M 119.3 76.7 C 119.0 76.7 118.7 76.7 118.4 76.7 C 118.9 76.7 119.2 76.7 119.5 76.6 C 119.4 76.7 119.4 76.7 119.3 76.7 Z M 95.4 77.5 C 97.2 77.2 100.8 77.5 101.0 77.4 C 101.4 77.4 101.8 77.4 102.2 77.4 C 99.8 77.4 97.2 77.4 95.4 77.5 C 95.4 77.5 95.4 77.5 95.4 77.5 Z M 101.7 69.2 C 101.8 69.2 101.8 69.2 101.4 69.2 C 99.6 69.3 98.5 69.4 99.6 69.4 C 100.6 69.4 102.8 69.5 102.2 69.5 C 101.3 69.5 100.5 69.5 99.6 69.6 C 98.9 69.5 98.3 69.3 97.6 69.2 C 99.1 69.2 100.4 69.2 101.7 69.2 C 101.7 69.2 101.7 69.2 101.7 69.2 Z M 96.8 68.9 C 97.3 68.9 97.9 69.0 98.6 69.0 C 98.0 69.0 97.5 69.0 96.9 69.0 C 96.9 69.0 96.8 69.0 96.8 68.9 Z M 96.1 68.7 C 97.2 68.8 98.2 68.8 97.2 68.8 C 96.9 68.8 96.7 68.8 96.5 68.8 C 96.4 68.8 96.3 68.8 96.1 68.7 Z M 95.5 68.6 C 95.5 68.7 95.7 68.7 96.0 68.8 C 95.3 68.8 93.9 68.8 94.0 68.7 C 94.4 68.7 95.0 68.6 95.5 68.6 C 95.5 68.6 95.5 68.6 95.5 68.6 Z M 94.3 77.7 C 94.7 77.7 95.1 77.7 94.4 77.8 C 94.1 77.8 93.8 77.8 93.5 77.8 C 93.8 77.7 94.0 77.7 94.3 77.7 Z M 118.7 69.5 C 118.5 69.5 117.8 69.5 117.3 69.5 C 117.3 69.9 119.0 69.7 118.7 69.5 C 118.7 69.5 118.7 69.5 118.7 69.5 Z M 121.6 69.4 C 121.4 69.4 120.6 69.4 120.2 69.4 C 120.1 69.8 121.8 69.6 121.6 69.4 C 121.6 69.4 121.6 69.4 121.6 69.4 Z M 78.0 67.7 C 78.0 67.7 78.0 67.7 78.0 67.7 C 78.0 67.7 78.0 67.7 78.0 67.7 C 78.0 67.7 78.0 67.7 78.0 67.7 Z M 78.0 67.7 " fill="#1BFFE6"></path></g></g><g><clipPath id="clip-129"><path d="M 493.4 27.5 L 962.4 27.5 L 962.4 106.5 L 493.4 106.5 Z M 493.4 27.5 "></path></clipPath><g clip-path="url(#clip-129)"><text xml:space="preserve" font-family="CircularStd-Book" font-size="14.0" fill="#52575F" transform="matrix(1.00, 0.00, -0.00, -1.00, 498.0, 88.0)">W</text><text xml:space="preserve" font-family="CircularStd-Book" font-size="14.0" fill="#52575F" transform="matrix(1.00, 0.00, -0.00, -1.00, 511.6, 88.0)">e</text><text xml:space="preserve" font-family="CircularStd-Book" font-size="14.0" fill="#52575F" transform="matrix(1.00, 0.00, -0.00, -1.00, 519.2, 88.0)">b</text><text xml:space="preserve" font-family="CircularStd-Book" font-size="14.0" fill="#52575F" transform="matrix(1.00, 0.00, -0.00, -1.00, 527.5, 88.0)"> </text><text xml:space="preserve" font-family="CircularStd-Book" font-size="14.0" fill="#52575F" transform="matrix(1.00, 0.00, -0.00, -1.00, 531.0, 88.0)">d</text><text xml:space="preserve" font-family="CircularStd-Book" font-size="14.0" fill="#52575F" transform="matrix(1.00, 0.00, -0.00, -1.00, 539.2, 88.0)">e</text><text xml:space="preserve" font-family="CircularStd-Book" font-size="14.0" fill="#52575F" transform="matrix(1.00, 0.00, -0.00, -1.00, 546.8, 88.0)">s</text><text xml:space="preserve" font-family="CircularStd-Book" font-size="14.0" fill="#52575F" transform="matrix(1.00, 0.00, -0.00, -1.00, 553.1, 88.0)">i</text><text xml:space="preserve" font-family="CircularStd-Book" font-size="14.0" fill="#52575F" transform="matrix(1.00, 0.00, -0.00, -1.00, 556.6, 88.0)">g</text><text xml:space="preserve" font-family="CircularStd-Book" font-size="14.0" fill="#52575F" transform="matrix(1.00, 0.00, -0.00, -1.00, 564.7, 88.0)">n</text><text xml:space="preserve" font-family="CircularStd-Book" font-size="14.0" fill="#52575F" transform="matrix(1.00, 0.00, -0.00, -1.00, 572.6, 88.0)"> </text><text xml:space="preserve" font-family="CircularStd-Book" font-size="14.0" fill="#52575F" transform="matrix(1.00, 0.00, -0.00, -1.00, 576.1, 88.0)">a</text><text xml:space="preserve" font-family="CircularStd-Book" font-size="14.0" fill="#52575F" transform="matrix(1.00, 0.00, -0.00, -1.00, 583.4, 88.0)">n</text><text xml:space="preserve" font-family="CircularStd-Book" font-size="14.0" fill="#52575F" transform="matrix(1.00, 0.00, -0.00, -1.00, 591.3, 88.0)">d</text><text xml:space="preserve" font-family="CircularStd-Book" font-size="14.0" fill="#52575F" transform="matrix(1.00, 0.00, -0.00, -1.00, 599.5, 88.0)"> </text><text xml:space="preserve" font-family="CircularStd-Book" font-size="14.0" fill="#52575F" transform="matrix(1.00, 0.00, -0.00, -1.00, 603.0, 88.0)">f</text><text xml:space="preserve" font-family="CircularStd-Book" font-size="14.0" fill="#52575F" transform="matrix(1.00, 0.00, -0.00, -1.00, 607.8, 88.0)">r</text><text xml:space="preserve" font-family="CircularStd-Book" font-size="14.0" fill="#52575F" transform="matrix(1.00, 0.00, -0.00, -1.00, 612.9, 88.0)">o</text><text xml:space="preserve" font-family="CircularStd-Book" font-size="14.0" fill="#52575F" transform="matrix(1.00, 0.00, -0.00, -1.00, 620.9, 88.0)">n</text><text xml:space="preserve" font-family="CircularStd-Book" font-size="14.0" fill="#52575F" transform="matrix(1.00, 0.00, -0.00, -1.00, 628.8, 88.0)">t</text><text xml:space="preserve" font-family="CircularStd-Book" font-size="14.0" fill="#52575F" transform="matrix(1.00, 0.00, -0.00, -1.00, 633.7, 88.0)">-</text><text xml:space="preserve" font-family="CircularStd-Book" font-size="14.0" fill="#52575F" transform="matrix(1.00, 0.00, -0.00, -1.00, 638.8, 88.0)">e</text><text xml:space="preserve" font-family="CircularStd-Book" font-size="14.0" fill="#52575F" transform="matrix(1.00, 0.00, -0.00, -1.00, 646.4, 88.0)">n</text><text xml:space="preserve" font-family="CircularStd-Book" font-size="14.0" fill="#52575F" transform="matrix(1.00, 0.00, -0.00, -1.00, 654.3, 88.0)">d</text><text xml:space="preserve" font-family="CircularStd-Book" font-size="14.0" fill="#52575F" transform="matrix(1.00, 0.00, -0.00, -1.00, 662.5, 88.0)"> </text><text xml:space="preserve" font-family="CircularStd-Book" font-size="14.0" fill="#52575F" transform="matrix(1.00, 0.00, -0.00, -1.00, 666.0, 88.0)">d</text><text xml:space="preserve" font-family="CircularStd-Book" font-size="14.0" fill="#52575F" transform="matrix(1.00, 0.00, -0.00, -1.00, 674.2, 88.0)">e</text><text xml:space="preserve" font-family="CircularStd-Book" font-size="14.0" fill="#52575F" transform="matrix(1.00, 0.00, -0.00, -1.00, 681.7, 88.0)">v</text><text xml:space="preserve" font-family="CircularStd-Book" font-size="14.0" fill="#52575F" transform="matrix(1.00, 0.00, -0.00, -1.00, 688.5, 88.0)">e</text><text xml:space="preserve" font-family="CircularStd-Book" font-size="14.0" fill="#52575F" transform="matrix(1.00, 0.00, -0.00, -1.00, 696.1, 88.0)">l</text><text xml:space="preserve" font-family="CircularStd-Book" font-size="14.0" fill="#52575F" transform="matrix(1.00, 0.00, -0.00, -1.00, 699.6, 88.0)">o</text><text xml:space="preserve" font-family="CircularStd-Book" font-size="14.0" fill="#52575F" transform="matrix(1.00, 0.00, -0.00, -1.00, 707.6, 88.0)">p</text><text xml:space="preserve" font-family="CircularStd-Book" font-size="14.0" fill="#52575F" transform="matrix(1.00, 0.00, -0.00, -1.00, 715.9, 88.0)">m</text><text xml:space="preserve" font-family="CircularStd-Book" font-size="14.0" fill="#52575F" transform="matrix(1.00, 0.00, -0.00, -1.00, 727.9, 88.0)">e</text><text xml:space="preserve" font-family="CircularStd-Book" font-size="14.0" fill="#52575F" transform="matrix(1.00, 0.00, -0.00, -1.00, 735.5, 88.0)">n</text><text xml:space="preserve" font-family="CircularStd-Book" font-size="14.0" fill="#52575F" transform="matrix(1.00, 0.00, -0.00, -1.00, 743.4, 88.0)">t</text><text xml:space="preserve" font-family="CircularStd-Book" font-size="14.0" fill="#52575F" transform="matrix(1.00, 0.00, -0.00, -1.00, 748.4, 88.0)"> </text><text xml:space="preserve" font-family="CircularStd-Book" font-size="14.0" fill="#52575F" transform="matrix(1.00, 0.00, -0.00, -1.00, 751.9, 88.0)">f</text><text xml:space="preserve" font-family="CircularStd-Book" font-size="14.0" fill="#52575F" transform="matrix(1.00, 0.00, -0.00, -1.00, 756.4, 88.0)">o</text><text xml:space="preserve" font-family="CircularStd-Book" font-size="14.0" fill="#52575F" transform="matrix(1.00, 0.00, -0.00, -1.00, 764.4, 88.0)">r</text><text xml:space="preserve" font-family="CircularStd-Book" font-size="14.0" fill="#52575F" transform="matrix(1.00, 0.00, -0.00, -1.00, 769.5, 88.0)"> </text><text xml:space="preserve" font-family="CircularStd-Book" font-size="14.0" fill="#52575F" transform="matrix(1.00, 0.00, -0.00, -1.00, 773.0, 88.0)">t</text><text xml:space="preserve" font-family="CircularStd-Book" font-size="14.0" fill="#52575F" transform="matrix(1.00, 0.00, -0.00, -1.00, 778.0, 88.0)">h</text><text xml:space="preserve" font-family="CircularStd-Book" font-size="14.0" fill="#52575F" transform="matrix(1.00, 0.00, -0.00, -1.00, 785.9, 88.0)">e</text><text xml:space="preserve" font-family="CircularStd-Book" font-size="14.0" fill="#52575F" transform="matrix(1.00, 0.00, -0.00, -1.00, 793.5, 88.0)"> </text><text xml:space="preserve" font-family="CircularStd-Book" font-size="14.0" fill="#52575F" transform="matrix(1.00, 0.00, -0.00, -1.00, 797.0, 88.0)">w</text><text xml:space="preserve" font-family="CircularStd-Book" font-size="14.0" fill="#52575F" transform="matrix(1.00, 0.00, -0.00, -1.00, 807.9, 88.0)">o</text><text xml:space="preserve" font-family="CircularStd-Book" font-size="14.0" fill="#52575F" transform="matrix(1.00, 0.00, -0.00, -1.00, 815.9, 88.0)">r</text><text xml:space="preserve" font-family="CircularStd-Book" font-size="14.0" fill="#52575F" transform="matrix(1.00, 0.00, -0.00, -1.00, 821.1, 88.0)">l</text><text xml:space="preserve" font-family="CircularStd-Book" font-size="14.0" fill="#52575F" transform="matrix(1.00, 0.00, -0.00, -1.00, 824.6, 88.0)">d</text><text xml:space="preserve" font-family="CircularStd-Book" font-size="14.0" fill="#52575F" transform="matrix(1.00, 0.00, -0.00, -1.00, 832.9, 88.0)">’</text><text xml:space="preserve" font-family="CircularStd-Book" font-size="14.0" fill="#52575F" transform="matrix(1.00, 0.00, -0.00, -1.00, 835.2, 88.0)">s</text><text xml:space="preserve" font-family="CircularStd-Book" font-size="14.0" fill="#52575F" transform="matrix(1.00, 0.00, -0.00, -1.00, 841.5, 88.0)"> </text><text xml:space="preserve" font-family="CircularStd-Book" font-size="14.0" fill="#52575F" transform="matrix(1.00, 0.00, -0.00, -1.00, 845.0, 88.0)">f</text><text xml:space="preserve" font-family="CircularStd-Book" font-size="14.0" fill="#52575F" transform="matrix(1.00, 0.00, -0.00, -1.00, 849.8, 88.0)">i</text><text xml:space="preserve" font-family="CircularStd-Book" font-size="14.0" fill="#52575F" transform="matrix(1.00, 0.00, -0.00, -1.00, 853.4, 88.0)">r</text><text xml:space="preserve" font-family="CircularStd-Book" font-size="14.0" fill="#52575F" transform="matrix(1.00, 0.00, -0.00, -1.00, 858.5, 88.0)">s</text><text xml:space="preserve" font-family="CircularStd-Book" font-size="14.0" fill="#52575F" transform="matrix(1.00, 0.00, -0.00, -1.00, 864.9, 88.0)">t</text><text xml:space="preserve" font-family="CircularStd-Book" font-size="14.0" fill="#52575F" transform="matrix(1.00, 0.00, -0.00, -1.00, 869.8, 88.0)"> </text><text xml:space="preserve" font-family="CircularStd-Book" font-size="14.0" fill="#52575F" transform="matrix(1.00, 0.00, -0.00, -1.00, 873.3, 88.0)">p</text><text xml:space="preserve" font-family="CircularStd-Book" font-size="14.0" fill="#52575F" transform="matrix(1.00, 0.00, -0.00, -1.00, 881.6, 88.0)">e</text><text xml:space="preserve" font-family="CircularStd-Book" font-size="14.0" fill="#52575F" transform="matrix(1.00, 0.00, -0.00, -1.00, 889.2, 88.0)">r</text><text xml:space="preserve" font-family="CircularStd-Book" font-size="14.0" fill="#52575F" transform="matrix(1.00, 0.00, -0.00, -1.00, 894.4, 88.0)">s</text><text xml:space="preserve" font-family="CircularStd-Book" font-size="14.0" fill="#52575F" transform="matrix(1.00, 0.00, -0.00, -1.00, 900.6, 88.0)">o</text><text xml:space="preserve" font-family="CircularStd-Book" font-size="14.0" fill="#52575F" transform="matrix(1.00, 0.00, -0.00, -1.00, 908.6, 88.0)">n</text><text xml:space="preserve" font-family="CircularStd-Book" font-size="14.0" fill="#52575F" transform="matrix(1.00, 0.00, -0.00, -1.00, 916.5, 88.0)">a</text><text xml:space="preserve" font-family="CircularStd-Book" font-size="14.0" fill="#52575F" transform="matrix(1.00, 0.00, -0.00, -1.00, 923.8, 88.0)">l</text><text xml:space="preserve" font-family="CircularStd-Book" font-size="14.0" fill="#52575F" transform="matrix(1.00, 0.00, -0.00, -1.00, 927.4, 88.0)">i</text><text xml:space="preserve" font-family="CircularStd-Book" font-size="14.0" fill="#52575F" transform="matrix(1.00, 0.00, -0.00, -1.00, 930.9, 88.0)">z</text><text xml:space="preserve" font-family="CircularStd-Book" font-size="14.0" fill="#52575F" transform="matrix(1.00, 0.00, -0.00, -1.00, 937.4, 88.0)">e</text><text xml:space="preserve" font-family="CircularStd-Book" font-size="14.0" fill="#52575F" transform="matrix(1.00, 0.00, -0.00, -1.00, 945.0, 88.0)">d</text><text xml:space="preserve" font-family="CircularStd-Book" font-size="14.0" fill="#52575F" transform="matrix(1.00, 0.00, -0.00, -1.00, 953.3, 88.0)"> </text><text xml:space="preserve" font-family="CircularStd-Book" font-size="14.0" fill="#52575F" transform="matrix(1.00, 0.00, -0.00, -1.00, 498.0, 64.0)">d</text><text xml:space="preserve" font-family="CircularStd-Book" font-size="14.0" fill="#52575F" transform="matrix(1.00, 0.00, -0.00, -1.00, 506.2, 64.0)">i</text><text xml:space="preserve" font-family="CircularStd-Book" font-size="14.0" fill="#52575F" transform="matrix(1.00, 0.00, -0.00, -1.00, 509.8, 64.0)">g</text><text xml:space="preserve" font-family="CircularStd-Book" font-size="14.0" fill="#52575F" transform="matrix(1.00, 0.00, -0.00, -1.00, 517.9, 64.0)">i</text><text xml:space="preserve" font-family="CircularStd-Book" font-size="14.0" fill="#52575F" transform="matrix(1.00, 0.00, -0.00, -1.00, 521.4, 64.0)">t</text><text xml:space="preserve" font-family="CircularStd-Book" font-size="14.0" fill="#52575F" transform="matrix(1.00, 0.00, -0.00, -1.00, 526.4, 64.0)">a</text><text xml:space="preserve" font-family="CircularStd-Book" font-size="14.0" fill="#52575F" transform="matrix(1.00, 0.00, -0.00, -1.00, 533.7, 64.0)">l</text><text xml:space="preserve" font-family="CircularStd-Book" font-size="14.0" fill="#52575F" transform="matrix(1.00, 0.00, -0.00, -1.00, 537.3, 64.0)"> </text><text xml:space="preserve" font-family="CircularStd-Book" font-size="14.0" fill="#52575F" transform="matrix(1.00, 0.00, -0.00, -1.00, 540.8, 64.0)">v</text><text xml:space="preserve" font-family="CircularStd-Book" font-size="14.0" fill="#52575F" transform="matrix(1.00, 0.00, -0.00, -1.00, 547.6, 64.0)">o</text><text xml:space="preserve" font-family="CircularStd-Book" font-size="14.0" fill="#52575F" transform="matrix(1.00, 0.00, -0.00, -1.00, 555.6, 64.0)">i</text><text xml:space="preserve" font-family="CircularStd-Book" font-size="14.0" fill="#52575F" transform="matrix(1.00, 0.00, -0.00, -1.00, 559.1, 64.0)">c</text><text xml:space="preserve" font-family="CircularStd-Book" font-size="14.0" fill="#52575F" transform="matrix(1.00, 0.00, -0.00, -1.00, 566.5, 64.0)">e</text><text xml:space="preserve" font-family="CircularStd-Book" font-size="14.0" fill="#52575F" transform="matrix(1.00, 0.00, -0.00, -1.00, 574.1, 64.0)">s</text><text xml:space="preserve" font-family="CircularStd-Book" font-size="14.0" fill="#52575F" transform="matrix(1.00, 0.00, -0.00, -1.00, 580.4, 64.0)">.</text><text xml:space="preserve" font-family="CircularStd-Book" font-size="14.0" fill="#52575F" transform="matrix(1.00, 0.00, -0.00, -1.00, 584.3, 64.0)"> </text><text xml:space="preserve" font-family="CircularStd-Book" font-size="14.0" fill="#52575F" transform="matrix(1.00, 0.00, -0.00, -1.00, 587.8, 64.0)">D</text><text xml:space="preserve" font-family="CircularStd-Book" font-size="14.0" fill="#52575F" transform="matrix(1.00, 0.00, -0.00, -1.00, 597.9, 64.0)">e</text><text xml:space="preserve" font-family="CircularStd-Book" font-size="14.0" fill="#52575F" transform="matrix(1.00, 0.00, -0.00, -1.00, 605.5, 64.0)">s</text><text xml:space="preserve" font-family="CircularStd-Book" font-size="14.0" fill="#52575F" transform="matrix(1.00, 0.00, -0.00, -1.00, 611.8, 64.0)">i</text><text xml:space="preserve" font-family="CircularStd-Book" font-size="14.0" fill="#52575F" transform="matrix(1.00, 0.00, -0.00, -1.00, 615.3, 64.0)">g</text><text xml:space="preserve" font-family="CircularStd-Book" font-size="14.0" fill="#52575F" transform="matrix(1.00, 0.00, -0.00, -1.00, 623.4, 64.0)">n</text><text xml:space="preserve" font-family="CircularStd-Book" font-size="14.0" fill="#52575F" transform="matrix(1.00, 0.00, -0.00, -1.00, 631.3, 64.0)">e</text><text xml:space="preserve" font-family="CircularStd-Book" font-size="14.0" fill="#52575F" transform="matrix(1.00, 0.00, -0.00, -1.00, 638.9, 64.0)">d</text><text xml:space="preserve" font-family="CircularStd-Book" font-size="14.0" fill="#52575F" transform="matrix(1.00, 0.00, -0.00, -1.00, 647.1, 64.0)"> </text><text xml:space="preserve" font-family="CircularStd-Book" font-size="14.0" fill="#52575F" transform="matrix(1.00, 0.00, -0.00, -1.00, 650.6, 64.0)">s</text><text xml:space="preserve" font-family="CircularStd-Book" font-size="14.0" fill="#52575F" transform="matrix(1.00, 0.00, -0.00, -1.00, 656.9, 64.0)">p</text><text xml:space="preserve" font-family="CircularStd-Book" font-size="14.0" fill="#52575F" transform="matrix(1.00, 0.00, -0.00, -1.00, 665.2, 64.0)">e</text><text xml:space="preserve" font-family="CircularStd-Book" font-size="14.0" fill="#52575F" transform="matrix(1.00, 0.00, -0.00, -1.00, 672.8, 64.0)">e</text><text xml:space="preserve" font-family="CircularStd-Book" font-size="14.0" fill="#52575F" transform="matrix(1.00, 0.00, -0.00, -1.00, 680.4, 64.0)">c</text><text xml:space="preserve" font-family="CircularStd-Book" font-size="14.0" fill="#52575F" transform="matrix(1.00, 0.00, -0.00, -1.00, 687.8, 64.0)">h</text><text xml:space="preserve" font-family="CircularStd-Book" font-size="14.0" fill="#52575F" transform="matrix(1.00, 0.00, -0.00, -1.00, 695.7, 64.0)"> </text><text xml:space="preserve" font-family="CircularStd-Book" font-size="14.0" fill="#52575F" transform="matrix(1.00, 0.00, -0.00, -1.00, 699.2, 64.0)">r</text><text xml:space="preserve" font-family="CircularStd-Book" font-size="14.0" fill="#52575F" transform="matrix(1.00, 0.00, -0.00, -1.00, 704.3, 64.0)">e</text><text xml:space="preserve" font-family="CircularStd-Book" font-size="14.0" fill="#52575F" transform="matrix(1.00, 0.00, -0.00, -1.00, 711.9, 64.0)">c</text><text xml:space="preserve" font-family="CircularStd-Book" font-size="14.0" fill="#52575F" transform="matrix(1.00, 0.00, -0.00, -1.00, 719.2, 64.0)">o</text><text xml:space="preserve" font-family="CircularStd-Book" font-size="14.0" fill="#52575F" transform="matrix(1.00, 0.00, -0.00, -1.00, 727.2, 64.0)">r</text><text xml:space="preserve" font-family="CircularStd-Book" font-size="14.0" fill="#52575F" transform="matrix(1.00, 0.00, -0.00, -1.00, 732.3, 64.0)">d</text><text xml:space="preserve" font-family="CircularStd-Book" font-size="14.0" fill="#52575F" transform="matrix(1.00, 0.00, -0.00, -1.00, 740.5, 64.0)">i</text><text xml:space="preserve" font-family="CircularStd-Book" font-size="14.0" fill="#52575F" transform="matrix(1.00, 0.00, -0.00, -1.00, 744.1, 64.0)">n</text><text xml:space="preserve" font-family="CircularStd-Book" font-size="14.0" fill="#52575F" transform="matrix(1.00, 0.00, -0.00, -1.00, 751.9, 64.0)">g</text><text xml:space="preserve" font-family="CircularStd-Book" font-size="14.0" fill="#52575F" transform="matrix(1.00, 0.00, -0.00, -1.00, 760.0, 64.0)"> </text><text xml:space="preserve" font-family="CircularStd-Book" font-size="14.0" fill="#52575F" transform="matrix(1.00, 0.00, -0.00, -1.00, 763.5, 64.0)">a</text><text xml:space="preserve" font-family="CircularStd-Book" font-size="14.0" fill="#52575F" transform="matrix(1.00, 0.00, -0.00, -1.00, 770.8, 64.0)">n</text><text xml:space="preserve" font-family="CircularStd-Book" font-size="14.0" fill="#52575F" transform="matrix(1.00, 0.00, -0.00, -1.00, 778.7, 64.0)">d</text><text xml:space="preserve" font-family="CircularStd-Book" font-size="14.0" fill="#52575F" transform="matrix(1.00, 0.00, -0.00, -1.00, 786.9, 64.0)"> </text><text xml:space="preserve" font-family="CircularStd-Book" font-size="14.0" fill="#52575F" transform="matrix(1.00, 0.00, -0.00, -1.00, 790.4, 64.0)">d</text><text xml:space="preserve" font-family="CircularStd-Book" font-size="14.0" fill="#52575F" transform="matrix(1.00, 0.00, -0.00, -1.00, 798.7, 64.0)">o</text><text xml:space="preserve" font-family="CircularStd-Book" font-size="14.0" fill="#52575F" transform="matrix(1.00, 0.00, -0.00, -1.00, 806.7, 64.0)">n</text><text xml:space="preserve" font-family="CircularStd-Book" font-size="14.0" fill="#52575F" transform="matrix(1.00, 0.00, -0.00, -1.00, 814.6, 64.0)">o</text><text xml:space="preserve" font-family="CircularStd-Book" font-size="14.0" fill="#52575F" transform="matrix(1.00, 0.00, -0.00, -1.00, 822.6, 64.0)">r</text><text xml:space="preserve" font-family="CircularStd-Book" font-size="14.0" fill="#52575F" transform="matrix(1.00, 0.00, -0.00, -1.00, 827.7, 64.0)"> </text><text xml:space="preserve" font-family="CircularStd-Book" font-size="14.0" fill="#52575F" transform="matrix(1.00, 0.00, -0.00, -1.00, 831.2, 64.0)">m</text><text xml:space="preserve" font-family="CircularStd-Book" font-size="14.0" fill="#52575F" transform="matrix(1.00, 0.00, -0.00, -1.00, 843.2, 64.0)">a</text><text xml:space="preserve" font-family="CircularStd-Book" font-size="14.0" fill="#52575F" transform="matrix(1.00, 0.00, -0.00, -1.00, 850.5, 64.0)">t</text><text xml:space="preserve" font-family="CircularStd-Book" font-size="14.0" fill="#52575F" transform="matrix(1.00, 0.00, -0.00, -1.00, 855.4, 64.0)">c</text><text xml:space="preserve" font-family="CircularStd-Book" font-size="14.0" fill="#52575F" transform="matrix(1.00, 0.00, -0.00, -1.00, 862.8, 64.0)">h</text><text xml:space="preserve" font-family="CircularStd-Book" font-size="14.0" fill="#52575F" transform="matrix(1.00, 0.00, -0.00, -1.00, 870.7, 64.0)">i</text><text xml:space="preserve" font-family="CircularStd-Book" font-size="14.0" fill="#52575F" transform="matrix(1.00, 0.00, -0.00, -1.00, 874.2, 64.0)">n</text><text xml:space="preserve" font-family="CircularStd-Book" font-size="14.0" fill="#52575F" transform="matrix(1.00, 0.00, -0.00, -1.00, 882.1, 64.0)">g</text><text xml:space="preserve" font-family="CircularStd-Book" font-size="14.0" fill="#52575F" transform="matrix(1.00, 0.00, -0.00, -1.00, 890.2, 64.0)"> </text><text xml:space="preserve" font-family="CircularStd-Book" font-size="14.0" fill="#52575F" transform="matrix(1.00, 0.00, -0.00, -1.00, 893.7, 64.0)">p</text><text xml:space="preserve" font-family="CircularStd-Book" font-size="14.0" fill="#52575F" transform="matrix(1.00, 0.00, -0.00, -1.00, 902.0, 64.0)">l</text><text xml:space="preserve" font-family="CircularStd-Book" font-size="14.0" fill="#52575F" transform="matrix(1.00, 0.00, -0.00, -1.00, 905.6, 64.0)">a</text><text xml:space="preserve" font-family="CircularStd-Book" font-size="14.0" fill="#52575F" transform="matrix(1.00, 0.00, -0.00, -1.00, 912.9, 64.0)">t</text><text xml:space="preserve" font-family="CircularStd-Book" font-size="14.0" fill="#52575F" transform="matrix(1.00, 0.00, -0.00, -1.00, 917.9, 64.0)">f</text><text xml:space="preserve" font-family="CircularStd-Book" font-size="14.0" fill="#52575F" transform="matrix(1.00, 0.00, -0.00, -1.00, 922.4, 64.0)">o</text><text xml:space="preserve" font-family="CircularStd-Book" font-size="14.0" fill="#52575F" transform="matrix(1.00, 0.00, -0.00, -1.00, 930.4, 64.0)">r</text><text xml:space="preserve" font-family="CircularStd-Book" font-size="14.0" fill="#52575F" transform="matrix(1.00, 0.00, -0.00, -1.00, 935.5, 64.0)">m</text><text xml:space="preserve" font-family="CircularStd-Book" font-size="14.0" fill="#52575F" transform="matrix(1.00, 0.00, -0.00, -1.00, 947.5, 64.0)">.</text><text xml:space="preserve" font-family="CircularStd-Book" font-size="14.0" fill="#52575F" transform="matrix(1.00, 0.00, -0.00, -1.00, 951.4, 64.0)"> </text><text xml:space="preserve" font-family="CircularStd-Book" font-size="14.0" fill="#52575F" transform="matrix(1.00, 0.00, -0.00, -1.00, 498.0, 41.0)">A</text><text xml:space="preserve" font-family="CircularStd-Book" font-size="14.0" fill="#52575F" transform="matrix(1.00, 0.00, -0.00, -1.00, 507.8, 41.0)">s</text><text xml:space="preserve" font-family="CircularStd-Book" font-size="14.0" fill="#52575F" transform="matrix(1.00, 0.00, -0.00, -1.00, 514.1, 41.0)"> </text><text xml:space="preserve" font-family="CircularStd-Book" font-size="14.0" fill="#52575F" transform="matrix(1.00, 0.00, -0.00, -1.00, 517.6, 41.0)">s</text><text xml:space="preserve" font-family="CircularStd-Book" font-size="14.0" fill="#52575F" transform="matrix(1.00, 0.00, -0.00, -1.00, 523.8, 41.0)">e</text><text xml:space="preserve" font-family="CircularStd-Book" font-size="14.0" fill="#52575F" transform="matrix(1.00, 0.00, -0.00, -1.00, 531.4, 41.0)">e</text><text xml:space="preserve" font-family="CircularStd-Book" font-size="14.0" fill="#52575F" transform="matrix(1.00, 0.00, -0.00, -1.00, 539.0, 41.0)">n</text><text xml:space="preserve" font-family="CircularStd-Book" font-size="14.0" fill="#52575F" transform="matrix(1.00, 0.00, -0.00, -1.00, 546.9, 41.0)"> </text><text xml:space="preserve" font-family="CircularStd-Book" font-size="14.0" fill="#52575F" transform="matrix(1.00, 0.00, -0.00, -1.00, 550.4, 41.0)">o</text><text xml:space="preserve" font-family="CircularStd-Book" font-size="14.0" fill="#52575F" transform="matrix(1.00, 0.00, -0.00, -1.00, 558.4, 41.0)">n</text><text xml:space="preserve" font-family="CircularStd-Book" font-size="14.0" fill="#52575F" transform="matrix(1.00, 0.00, -0.00, -1.00, 566.3, 41.0)"> </text><text xml:space="preserve" font-family="CircularStd-Book" font-size="14.0" fill="#52575F" transform="matrix(1.00, 0.00, -0.00, -1.00, 569.8, 41.0)">T</text><text xml:space="preserve" font-family="CircularStd-Book" font-size="14.0" fill="#52575F" transform="matrix(1.00, 0.00, -0.00, -1.00, 578.1, 41.0)">E</text><text xml:space="preserve" font-family="CircularStd-Book" font-size="14.0" fill="#52575F" transform="matrix(1.00, 0.00, -0.00, -1.00, 586.2, 41.0)">D</text><text xml:space="preserve" font-family="CircularStd-Book" font-size="14.0" fill="#52575F" transform="matrix(1.00, 0.00, -0.00, -1.00, 595.8, 41.0)">,</text><text xml:space="preserve" font-family="CircularStd-Book" font-size="14.0" fill="#52575F" transform="matrix(1.00, 0.00, -0.00, -1.00, 600.0, 41.0)"> </text><text xml:space="preserve" font-family="CircularStd-Book" font-size="14.0" fill="#52575F" transform="matrix(1.00, 0.00, -0.00, -1.00, 603.5, 41.0)">B</text><text xml:space="preserve" font-family="CircularStd-Book" font-size="14.0" fill="#52575F" transform="matrix(1.00, 0.00, -0.00, -1.00, 611.6, 41.0)">u</text><text xml:space="preserve" font-family="CircularStd-Book" font-size="14.0" fill="#52575F" transform="matrix(1.00, 0.00, -0.00, -1.00, 619.5, 41.0)">z</text><text xml:space="preserve" font-family="CircularStd-Book" font-size="14.0" fill="#52575F" transform="matrix(1.00, 0.00, -0.00, -1.00, 626.1, 41.0)">z</text><text xml:space="preserve" font-family="CircularStd-Book" font-size="14.0" fill="#52575F" transform="matrix(1.00, 0.00, -0.00, -1.00, 632.6, 41.0)">F</text><text xml:space="preserve" font-family="CircularStd-Book" font-size="14.0" fill="#52575F" transform="matrix(1.00, 0.00, -0.00, -1.00, 639.8, 41.0)">e</text><text xml:space="preserve" font-family="CircularStd-Book" font-size="14.0" fill="#52575F" transform="matrix(1.00, 0.00, -0.00, -1.00, 647.4, 41.0)">e</text><text xml:space="preserve" font-family="CircularStd-Book" font-size="14.0" fill="#52575F" transform="matrix(1.00, 0.00, -0.00, -1.00, 655.0, 41.0)">d</text><text xml:space="preserve" font-family="CircularStd-Book" font-size="14.0" fill="#52575F" transform="matrix(1.00, 0.00, -0.00, -1.00, 663.2, 41.0)">,</text><text xml:space="preserve" font-family="CircularStd-Book" font-size="14.0" fill="#52575F" transform="matrix(1.00, 0.00, -0.00, -1.00, 667.3, 41.0)"> </text><text xml:space="preserve" font-family="CircularStd-Book" font-size="14.0" fill="#52575F" transform="matrix(1.00, 0.00, -0.00, -1.00, 670.8, 41.0)">W</text><text xml:space="preserve" font-family="CircularStd-Book" font-size="14.0" fill="#52575F" transform="matrix(1.00, 0.00, -0.00, -1.00, 684.9, 41.0)">i</text><text xml:space="preserve" font-family="CircularStd-Book" font-size="14.0" fill="#52575F" transform="matrix(1.00, 0.00, -0.00, -1.00, 688.4, 41.0)">r</text><text xml:space="preserve" font-family="CircularStd-Book" font-size="14.0" fill="#52575F" transform="matrix(1.00, 0.00, -0.00, -1.00, 693.5, 41.0)">e</text><text xml:space="preserve" font-family="CircularStd-Book" font-size="14.0" fill="#52575F" transform="matrix(1.00, 0.00, -0.00, -1.00, 701.1, 41.0)">d</text><text xml:space="preserve" font-family="CircularStd-Book" font-size="14.0" fill="#52575F" transform="matrix(1.00, 0.00, -0.00, -1.00, 709.3, 41.0)">,</text><text xml:space="preserve" font-family="CircularStd-Book" font-size="14.0" fill="#52575F" transform="matrix(1.00, 0.00, -0.00, -1.00, 713.4, 41.0)"> </text><text xml:space="preserve" font-family="CircularStd-Book" font-size="14.0" fill="#52575F" transform="matrix(1.00, 0.00, -0.00, -1.00, 716.9, 41.0)">a</text><text xml:space="preserve" font-family="CircularStd-Book" font-size="14.0" fill="#52575F" transform="matrix(1.00, 0.00, -0.00, -1.00, 724.3, 41.0)">n</text><text xml:space="preserve" font-family="CircularStd-Book" font-size="14.0" fill="#52575F" transform="matrix(1.00, 0.00, -0.00, -1.00, 732.1, 41.0)">d</text><text xml:space="preserve" font-family="CircularStd-Book" font-size="14.0" fill="#52575F" transform="matrix(1.00, 0.00, -0.00, -1.00, 740.4, 41.0)"> </text><text xml:space="preserve" font-family="CircularStd-Book" font-size="14.0" fill="#52575F" transform="matrix(1.00, 0.00, -0.00, -1.00, 743.9, 41.0)">N</text><text xml:space="preserve" font-family="CircularStd-Book" font-size="14.0" fill="#52575F" transform="matrix(1.00, 0.00, -0.00, -1.00, 754.5, 41.0)">P</text><text xml:space="preserve" font-family="CircularStd-Book" font-size="14.0" fill="#52575F" transform="matrix(1.00, 0.00, -0.00, -1.00, 762.9, 41.0)">R</text><text xml:space="preserve" font-family="CircularStd-Book" font-size="14.0" fill="#52575F" transform="matrix(1.00, 0.00, -0.00, -1.00, 771.5, 41.0)">.</text><text xml:space="preserve" font-family="CircularStd-Book" font-size="14.0" fill="#52575F" transform="matrix(1.00, 0.00, -0.00, -1.00, 775.4, 41.0)"> </text><text xml:space="preserve" font-family="CircularStd-Bold" font-weight="bold" font-size="14.0" fill="#0000FF" transform="matrix(1.00, 0.00, -0.00, -1.00, 778.9, 41.0)">V</text><text xml:space="preserve" font-family="CircularStd-Bold" font-weight="bold" font-size="14.0" fill="#0000FF" transform="matrix(1.00, 0.00, -0.00, -1.00, 788.5, 41.0)">i</text><text xml:space="preserve" font-family="CircularStd-Bold" font-weight="bold" font-size="14.0" fill="#0000FF" transform="matrix(1.00, 0.00, -0.00, -1.00, 792.4, 41.0)">s</text><text xml:space="preserve" font-family="CircularStd-Bold" font-weight="bold" font-size="14.0" fill="#0000FF" transform="matrix(1.00, 0.00, -0.00, -1.00, 798.8, 41.0)">i</text><text xml:space="preserve" font-family="CircularStd-Bold" font-weight="bold" font-size="14.0" fill="#0000FF" transform="matrix(1.00, 0.00, -0.00, -1.00, 802.7, 41.0)">t</text><text xml:space="preserve" font-family="CircularStd-Bold" font-weight="bold" font-size="14.0" fill="#0000FF" transform="matrix(1.00, 0.00, -0.00, -1.00, 807.9, 41.0)"> </text><text xml:space="preserve" font-family="CircularStd-Bold" font-weight="bold" font-size="14.0" fill="#0000FF" transform="matrix(1.00, 0.00, -0.00, -1.00, 811.3, 41.0)">v</text><text xml:space="preserve" font-family="CircularStd-Bold" font-weight="bold" font-size="14.0" fill="#0000FF" transform="matrix(1.00, 0.00, -0.00, -1.00, 818.8, 41.0)">o</text><text xml:space="preserve" font-family="CircularStd-Bold" font-weight="bold" font-size="14.0" fill="#0000FF" transform="matrix(1.00, 0.00, -0.00, -1.00, 826.9, 41.0)">c</text><text xml:space="preserve" font-family="CircularStd-Bold" font-weight="bold" font-size="14.0" fill="#0000FF" transform="matrix(1.00, 0.00, -0.00, -1.00, 834.6, 41.0)">a</text><text xml:space="preserve" font-family="CircularStd-Bold" font-weight="bold" font-size="14.0" fill="#0000FF" transform="matrix(1.00, 0.00, -0.00, -1.00, 842.2, 41.0)">l</text><text xml:space="preserve" font-family="CircularStd-Bold" font-weight="bold" font-size="14.0" fill="#0000FF" transform="matrix(1.00, 0.00, -0.00, -1.00, 846.0, 41.0)">i</text><text xml:space="preserve" font-family="CircularStd-Bold" font-weight="bold" font-size="14.0" fill="#0000FF" transform="matrix(1.00, 0.00, -0.00, -1.00, 849.9, 41.0)">d</text><text xml:space="preserve" font-family="CircularStd-Bold" font-weight="bold" font-size="14.0" fill="#0000FF" transform="matrix(1.00, 0.00, -0.00, -1.00, 858.4, 41.0)">.</text><text xml:space="preserve" font-family="CircularStd-Bold" font-weight="bold" font-size="14.0" fill="#0000FF" transform="matrix(1.00, 0.00, -0.00, -1.00, 862.5, 41.0)">c</text><text xml:space="preserve" font-family="CircularStd-Bold" font-weight="bold" font-size="14.0" fill="#0000FF" transform="matrix(1.00, 0.00, -0.00, -1.00, 870.1, 41.0)">o</text><text xml:space="preserve" font-family="CircularStd-Bold" font-weight="bold" font-size="14.0" fill="#0000FF" transform="matrix(1.00, 0.00, -0.00, -1.00, 878.3, 41.0)"> </text><text xml:space="preserve" font-family="CircularStd-Bold" font-weight="bold" font-size="14.0" fill="#0000FF" transform="matrix(1.00, 0.00, -0.00, -1.00, 881.7, 41.0)">→</text><path d="M 317.3 67.2 L 384.3 67.2 " fill="none" stroke="#0000FF" stroke-width="1.12" stroke-miterlimit="0.00" transform="matrix(1.00, 0.00, 0.00, -1.00, 493.8, 106.1)"></path></g></g><g><clipPath id="clip-130"><path d="M 60.7 76.8 L 119.3 76.8 L 119.3 104.1 L 60.7 104.1 Z M 60.7 76.8 "></path></clipPath><g clip-path="url(#clip-130)"><text xml:space="preserve" font-family="CircularStd-Bold" font-weight="bold" font-size="12.0" fill="#52575F" transform="matrix(1.00, 0.00, -0.00, -1.00, 65.0, 88.0)">C</text><text xml:space="preserve" font-family="CircularStd-Bold" font-weight="bold" font-size="12.0" fill="#52575F" transform="matrix(1.00, 0.00, -0.00, -1.00, 74.2, 88.0)">L</text><text xml:space="preserve" font-family="CircularStd-Bold" font-weight="bold" font-size="12.0" fill="#52575F" transform="matrix(1.00, 0.00, -0.00, -1.00, 80.9, 88.0)">I</text><text xml:space="preserve" font-family="CircularStd-Bold" font-weight="bold" font-size="12.0" fill="#52575F" transform="matrix(1.00, 0.00, -0.00, -1.00, 84.5, 88.0)">E</text><text xml:space="preserve" font-family="CircularStd-Bold" font-weight="bold" font-size="12.0" fill="#52575F" transform="matrix(1.00, 0.00, -0.00, -1.00, 91.5, 88.0)">N</text><text xml:space="preserve" font-family="CircularStd-Bold" font-weight="bold" font-size="12.0" fill="#52575F" transform="matrix(1.00, 0.00, -0.00, -1.00, 100.7, 88.0)">T</text></g></g><g><clipPath id="clip-131"><path d="M 235.7 76.8 L 305.3 76.8 L 305.3 104.1 L 235.7 104.1 Z M 235.7 76.8 "></path></clipPath><g clip-path="url(#clip-131)"><text xml:space="preserve" font-family="CircularStd-Bold" font-weight="bold" font-size="12.0" fill="#52575F" transform="matrix(1.00, 0.00, -0.00, -1.00, 240.0, 88.0)">S</text><text xml:space="preserve" font-family="CircularStd-Bold" font-weight="bold" font-size="12.0" fill="#52575F" transform="matrix(1.00, 0.00, -0.00, -1.00, 247.2, 88.0)">E</text><text xml:space="preserve" font-family="CircularStd-Bold" font-weight="bold" font-size="12.0" fill="#52575F" transform="matrix(1.00, 0.00, -0.00, -1.00, 254.2, 88.0)">R</text><text xml:space="preserve" font-family="CircularStd-Bold" font-weight="bold" font-size="12.0" fill="#52575F" transform="matrix(1.00, 0.00, -0.00, -1.00, 261.7, 88.0)">V</text><text xml:space="preserve" font-family="CircularStd-Bold" font-weight="bold" font-size="12.0" fill="#52575F" transform="matrix(1.00, 0.00, -0.00, -1.00, 269.9, 88.0)">I</text><text xml:space="preserve" font-family="CircularStd-Bold" font-weight="bold" font-size="12.0" fill="#52575F" transform="matrix(1.00, 0.00, -0.00, -1.00, 273.5, 88.0)">C</text><text xml:space="preserve" font-family="CircularStd-Bold" font-weight="bold" font-size="12.0" fill="#52575F" transform="matrix(1.00, 0.00, -0.00, -1.00, 282.7, 88.0)">E</text><text xml:space="preserve" font-family="CircularStd-Bold" font-weight="bold" font-size="12.0" fill="#52575F" transform="matrix(1.00, 0.00, -0.00, -1.00, 289.7, 88.0)">S</text></g></g><g><clipPath id="clip-132"><path d="M 59.7 51.5 L 184.4 51.5 L 184.4 87.7 L 59.7 87.7 Z M 59.7 51.5 "></path></clipPath><g clip-path="url(#clip-132)"><text xml:space="preserve" font-family="CircularStd-Book" font-size="16.0" fill="#52575F" transform="matrix(1.00, 0.00, -0.00, -1.00, 65.0, 67.0)">V</text><text xml:space="preserve" font-family="CircularStd-Book" font-size="16.0" fill="#52575F" transform="matrix(1.00, 0.00, -0.00, -1.00, 74.6, 67.0)">o</text><text xml:space="preserve" font-family="CircularStd-Book" font-size="16.0" fill="#52575F" transform="matrix(1.00, 0.00, -0.00, -1.00, 83.8, 67.0)">c</text><text xml:space="preserve" font-family="CircularStd-Book" font-size="16.0" fill="#52575F" transform="matrix(1.00, 0.00, -0.00, -1.00, 92.2, 67.0)">a</text><text xml:space="preserve" font-family="CircularStd-Book" font-size="16.0" fill="#52575F" transform="matrix(1.00, 0.00, -0.00, -1.00, 100.6, 67.0)">l</text><text xml:space="preserve" font-family="CircularStd-Book" font-size="16.0" fill="#52575F" transform="matrix(1.00, 0.00, -0.00, -1.00, 104.6, 67.0)">i</text><text xml:space="preserve" font-family="CircularStd-Book" font-size="16.0" fill="#52575F" transform="matrix(1.00, 0.00, -0.00, -1.00, 108.7, 67.0)">D</text></g></g><g><clipPath id="clip-133"><path d="M 234.7 38.0 L 457.8 38.0 L 457.8 88.2 L 234.7 88.2 Z M 234.7 38.0 "></path></clipPath><g clip-path="url(#clip-133)"><text xml:space="preserve" font-family="CircularStd-Book" font-size="16.0" fill="#52575F" transform="matrix(1.00, 0.00, -0.00, -1.00, 240.0, 67.0)">U</text><text xml:space="preserve" font-family="CircularStd-Book" font-size="16.0" fill="#52575F" transform="matrix(1.00, 0.00, -0.00, -1.00, 250.7, 67.0)">I</text><text xml:space="preserve" font-family="CircularStd-Book" font-size="16.0" fill="#52575F" transform="matrix(1.00, 0.00, -0.00, -1.00, 255.2, 67.0)">/</text><text xml:space="preserve" font-family="CircularStd-Book" font-size="16.0" fill="#52575F" transform="matrix(1.00, 0.00, -0.00, -1.00, 262.1, 67.0)">U</text><text xml:space="preserve" font-family="CircularStd-Book" font-size="16.0" fill="#52575F" transform="matrix(1.00, 0.00, -0.00, -1.00, 272.9, 67.0)">X</text><text xml:space="preserve" font-family="CircularStd-Book" font-size="16.0" fill="#52575F" transform="matrix(1.00, 0.00, -0.00, -1.00, 282.7, 67.0)"> </text><text xml:space="preserve" font-family="CircularStd-Book" font-size="16.0" fill="#52575F" transform="matrix(1.00, 0.00, -0.00, -1.00, 286.7, 67.0)">D</text><text xml:space="preserve" font-family="CircularStd-Book" font-size="16.0" fill="#52575F" transform="matrix(1.00, 0.00, -0.00, -1.00, 298.3, 67.0)">e</text><text xml:space="preserve" font-family="CircularStd-Book" font-size="16.0" fill="#52575F" transform="matrix(1.00, 0.00, -0.00, -1.00, 306.9, 67.0)">s</text><text xml:space="preserve" font-family="CircularStd-Book" font-size="16.0" fill="#52575F" transform="matrix(1.00, 0.00, -0.00, -1.00, 314.2, 67.0)">i</text><text xml:space="preserve" font-family="CircularStd-Book" font-size="16.0" fill="#52575F" transform="matrix(1.00, 0.00, -0.00, -1.00, 318.2, 67.0)">g</text><text xml:space="preserve" font-family="CircularStd-Book" font-size="16.0" fill="#52575F" transform="matrix(1.00, 0.00, -0.00, -1.00, 327.5, 67.0)">n</text><text xml:space="preserve" font-family="CircularStd-Book" font-size="16.0" fill="#52575F" transform="matrix(1.00, 0.00, -0.00, -1.00, 336.4, 67.0)">,</text><text xml:space="preserve" font-family="CircularStd-Book" font-size="16.0" fill="#52575F" transform="matrix(1.00, 0.00, -0.00, -1.00, 341.2, 67.0)"> </text><text xml:space="preserve" font-family="CircularStd-Book" font-size="16.0" fill="#52575F" transform="matrix(1.00, 0.00, -0.00, -1.00, 345.2, 67.0)">I</text><text xml:space="preserve" font-family="CircularStd-Book" font-size="16.0" fill="#52575F" transform="matrix(1.00, 0.00, -0.00, -1.00, 349.6, 67.0)">l</text><text xml:space="preserve" font-family="CircularStd-Book" font-size="16.0" fill="#52575F" transform="matrix(1.00, 0.00, -0.00, -1.00, 353.7, 67.0)">l</text><text xml:space="preserve" font-family="CircularStd-Book" font-size="16.0" fill="#52575F" transform="matrix(1.00, 0.00, -0.00, -1.00, 357.7, 67.0)">u</text><text xml:space="preserve" font-family="CircularStd-Book" font-size="16.0" fill="#52575F" transform="matrix(1.00, 0.00, -0.00, -1.00, 366.7, 67.0)">s</text><text xml:space="preserve" font-family="CircularStd-Book" font-size="16.0" fill="#52575F" transform="matrix(1.00, 0.00, -0.00, -1.00, 374.0, 67.0)">t</text><text xml:space="preserve" font-family="CircularStd-Book" font-size="16.0" fill="#52575F" transform="matrix(1.00, 0.00, -0.00, -1.00, 379.5, 67.0)">r</text><text xml:space="preserve" font-family="CircularStd-Book" font-size="16.0" fill="#52575F" transform="matrix(1.00, 0.00, -0.00, -1.00, 385.4, 67.0)">a</text><text xml:space="preserve" font-family="CircularStd-Book" font-size="16.0" fill="#52575F" transform="matrix(1.00, 0.00, -0.00, -1.00, 393.7, 67.0)">t</text><text xml:space="preserve" font-family="CircularStd-Book" font-size="16.0" fill="#52575F" transform="matrix(1.00, 0.00, -0.00, -1.00, 399.4, 67.0)">i</text><text xml:space="preserve" font-family="CircularStd-Book" font-size="16.0" fill="#52575F" transform="matrix(1.00, 0.00, -0.00, -1.00, 403.5, 67.0)">o</text><text xml:space="preserve" font-family="CircularStd-Book" font-size="16.0" fill="#52575F" transform="matrix(1.00, 0.00, -0.00, -1.00, 412.6, 67.0)">n</text><text xml:space="preserve" font-family="CircularStd-Book" font-size="16.0" fill="#52575F" transform="matrix(1.00, 0.00, -0.00, -1.00, 421.6, 67.0)">,</text><text xml:space="preserve" font-family="CircularStd-Book" font-size="16.0" fill="#52575F" transform="matrix(1.00, 0.00, -0.00, -1.00, 426.3, 67.0)"> </text><text xml:space="preserve" font-family="CircularStd-Book" font-size="16.0" fill="#52575F" transform="matrix(1.00, 0.00, -0.00, -1.00, 240.0, 47.0)">W</text><text xml:space="preserve" font-family="CircularStd-Book" font-size="16.0" fill="#52575F" transform="matrix(1.00, 0.00, -0.00, -1.00, 255.5, 47.0)">e</text><text xml:space="preserve" font-family="CircularStd-Book" font-size="16.0" fill="#52575F" transform="matrix(1.00, 0.00, -0.00, -1.00, 264.2, 47.0)">b</text><text xml:space="preserve" font-family="CircularStd-Book" font-size="16.0" fill="#52575F" transform="matrix(1.00, 0.00, -0.00, -1.00, 273.7, 47.0)"> </text><text xml:space="preserve" font-family="CircularStd-Book" font-size="16.0" fill="#52575F" transform="matrix(1.00, 0.00, -0.00, -1.00, 277.7, 47.0)">D</text><text xml:space="preserve" font-family="CircularStd-Book" font-size="16.0" fill="#52575F" transform="matrix(1.00, 0.00, -0.00, -1.00, 289.2, 47.0)">e</text><text xml:space="preserve" font-family="CircularStd-Book" font-size="16.0" fill="#52575F" transform="matrix(1.00, 0.00, -0.00, -1.00, 297.7, 47.0)">v</text><text xml:space="preserve" font-family="CircularStd-Book" font-size="16.0" fill="#52575F" transform="matrix(1.00, 0.00, -0.00, -1.00, 305.5, 47.0)">e</text><text xml:space="preserve" font-family="CircularStd-Book" font-size="16.0" fill="#52575F" transform="matrix(1.00, 0.00, -0.00, -1.00, 314.2, 47.0)">l</text><text xml:space="preserve" font-family="CircularStd-Book" font-size="16.0" fill="#52575F" transform="matrix(1.00, 0.00, -0.00, -1.00, 318.2, 47.0)">o</text><text xml:space="preserve" font-family="CircularStd-Book" font-size="16.0" fill="#52575F" transform="matrix(1.00, 0.00, -0.00, -1.00, 327.4, 47.0)">p</text><text xml:space="preserve" font-family="CircularStd-Book" font-size="16.0" fill="#52575F" transform="matrix(1.00, 0.00, -0.00, -1.00, 336.9, 47.0)">m</text><text xml:space="preserve" font-family="CircularStd-Book" font-size="16.0" fill="#52575F" transform="matrix(1.00, 0.00, -0.00, -1.00, 350.6, 47.0)">e</text><text xml:space="preserve" font-family="CircularStd-Book" font-size="16.0" fill="#52575F" transform="matrix(1.00, 0.00, -0.00, -1.00, 359.2, 47.0)">n</text><text xml:space="preserve" font-family="CircularStd-Book" font-size="16.0" fill="#52575F" transform="matrix(1.00, 0.00, -0.00, -1.00, 368.2, 47.0)">t</text></g></g></g></svg>