<?xml version="1.0" encoding="utf-8"?>
<!-- Generator: Adobe Illustrator 15.1.0, SVG Export Plug-In . SVG Version: 6.00 Build 0)  -->
<!DOCTYPE svg PUBLIC "-//W3C//DTD SVG 1.1//EN" "http://www.w3.org/Graphics/SVG/1.1/DTD/svg11.dtd">
<svg version="1.1"
	 id="svg2" sodipodi:docname="circle_arrow_down_font_awesome.svg" inkscape:version="0.48.3.1 r9886" xmlns:sodipodi="http://sodipodi.sourceforge.net/DTD/sodipodi-0.dtd" xmlns:inkscape="http://www.inkscape.org/namespaces/inkscape" xmlns:svg="http://www.w3.org/2000/svg" xmlns:rdf="http://www.w3.org/1999/02/22-rdf-syntax-ns#" xmlns:cc="http://creativecommons.org/ns#" xmlns:dc="http://purl.org/dc/elements/1.1/"
	 xmlns="http://www.w3.org/2000/svg" xmlns:xlink="http://www.w3.org/1999/xlink" x="0px" y="0px" width="500px" height="500px"
	 viewBox="0 0 500 500" enable-background="new 0 0 500 500" xml:space="preserve">
<sodipodi:namedview  inkscape:zoom="0.13169643" inkscape:cx="896" inkscape:cy="896" inkscape:window-y="25" inkscape:window-x="0" showgrid="false" inkscape:pageshadow="2" guidetolerance="10" gridtolerance="10" inkscape:window-width="640" inkscape:pageopacity="0" inkscape:window-maximized="0" inkscape:current-layer="svg2" pagecolor="#ffffff" bordercolor="#666666" objecttolerance="10" id="namedview8" borderopacity="1" inkscape:window-height="480">
	</sodipodi:namedview>
<path id="path6" inkscape:connector-curvature="0" fill="#C6361E" d="M393.973,250.279c0-5.022-1.674-9.208-5.021-12.556
	l-25.391-25.391c-3.348-3.349-7.533-5.022-12.557-5.022c-5.021,0-9.207,1.674-12.555,5.022l-52.734,52.734V125
	c0-4.836-1.768-9.021-5.301-12.556c-3.535-3.534-7.721-5.301-12.557-5.301h-35.715c-4.836,0-9.021,1.767-12.556,5.301
	s-5.301,7.72-5.301,12.556v140.067l-52.734-52.734c-3.534-3.535-7.719-5.302-12.556-5.302s-9.021,1.767-12.556,5.302l-25.391,25.391
	c-3.348,3.348-5.022,7.533-5.022,12.556s1.674,9.207,5.022,12.556L212.054,363.84l25.391,25.391
	c3.348,3.348,7.533,5.021,12.556,5.021c5.023,0,9.207-1.674,12.557-5.021l25.391-25.391l101.004-101.005
	C392.299,259.486,393.973,255.302,393.973,250.279z"/>
</svg>
