<?xml version="1.0" encoding="utf-8"?>
<!-- Generator: Adobe Illustrator 15.1.0, SVG Export Plug-In . SVG Version: 6.00 Build 0)  -->
<!DOCTYPE svg PUBLIC "-//W3C//DTD SVG 1.1//EN" "http://www.w3.org/Graphics/SVG/1.1/DTD/svg11.dtd">
<svg version="1.1" id="Layer_1" xmlns="http://www.w3.org/2000/svg" xmlns:xlink="http://www.w3.org/1999/xlink" x="0px" y="0px"
	 width="672.27px" height="239.354px" viewBox="0 0 672.27 239.354" enable-background="new 0 0 672.27 239.354"
	 xml:space="preserve">
<path opacity="0.61" fill="#FFFFFF" d="M460.727,45.771c-0.21-1.138-0.327-2.306-0.323-3.503
	c0.034-10.312,8.324-18.645,18.518-18.61c1.745,0.007,3.426,0.273,5.028,0.737c-0.013-0.24-0.037-0.479-0.036-0.722
	c0.023-7.435,5.153-9.279,12.587-9.256c6.74,0.023,13.36,5.741,14.326,12.207c14.876-5.625,21.195,5.014,24.604,14.613
	c0.43-0.014,8.796-3.9,9.23-3.898c15.648,0.054,28.324,10.549,28.566,23.532c26.408,0.576,26.408,24.101,11.615,24.101
	L463.73,84.834C452.939,84.8,448.133,74.73,448.17,63.939C448.198,55.635,453.411,48.577,460.727,45.771z"/>
<path opacity="0.61" fill="#FFFFFF" d="M229.116,109.508c0.015-4.282,3.808-7.754,8.541-7.913c0.062-4.693,3.89-8.472,8.595-8.457
	c3.19,0.013,5.961,1.769,7.43,4.355c2.438-1.631,5.371-2.577,8.526-2.565c1.104,0.003,2.178,0.128,3.215,0.356
	c-0.114-0.799-0.19-1.608-0.188-2.441c0.031-9.271,7.57-16.761,16.843-16.728c6.411,0.02,11.965,3.636,14.774,8.925
	c1.96-1.339,4.331-2.128,6.887-2.116c6.339,0.02,11.52,4.895,12.052,11.091c1.076-0.405,2.225-0.638,3.426-0.634
	c5.239,0.02,9.56,4.282,10.336,9.838c0.047,0,0.093-0.004,0.142-0.004c7.665,0.027,13.857,6.076,13.834,13.519
	c0,13.742-13.597,13.744-13.726,13.74c0,0-86.594,0.004-87.961,0c-7.102-0.024-12.838-5.803-12.813-12.901
	C229.033,115.907,221.802,112.392,229.116,109.508z"/>
<path opacity="0.61" fill="#FFFFFF" d="M33.411,37.847c-0.774-1.732-1.216-3.596-1.209-5.551c0.029-8.793,8.688-15.892,19.34-15.854
	c7.939,0.025,14.738,4.012,17.678,9.678c1.584-0.668,3.324-1.036,5.151-1.028c7.271,0.024,13.145,5.938,13.12,13.207
	c-0.001,0.273-0.026,0.538-0.043,0.806c3.994,1.883,6.755,5.94,6.74,10.646c-0.018,5.462-3.769,10.026-8.826,11.318
	c-0.76,0.246-1.57,0.383-2.414,0.379c0,0-47.388-0.158-48.906-0.163c-6.481-0.021-11.716-5.294-11.695-11.774
	C22.369,43.269,27.261,38.195,33.411,37.847z"/>
</svg>
