<?xml version="1.0" encoding="utf-8"?>
<!-- Generator: Adobe Illustrator 15.1.0, SVG Export Plug-In . SVG Version: 6.00 Build 0)  -->
<!DOCTYPE svg PUBLIC "-//W3C//DTD SVG 1.1//EN" "http://www.w3.org/Graphics/SVG/1.1/DTD/svg11.dtd">
<svg version="1.1" id="Layer_1" xmlns="http://www.w3.org/2000/svg" xmlns:xlink="http://www.w3.org/1999/xlink" x="0px" y="0px"
	 width="234px" height="304px" viewBox="0 0 234 304" enable-background="new 0 0 234 304" xml:space="preserve">
<g>
	<path fill="#740A0C" d="M144.234,9.405c0,0,188.766,36.595-7.734,242.928l0,0L144.234,9.405z"/>
	<path fill="#C0B920" d="M130.5,7.667c0,0,34.259-1.28,68.009,28.136c0,0,81.491,52.197-62.009,216.531l0,0L130.5,7.667z"/>
	<path fill="#3953A4" d="M130.5,7.667c0,0,175.666,2.333,6,244.667l0,0L130.5,7.667z"/>
	<path fill="#F9A05A" d="M61.24,20.1c0,0-143.74,65.052,40.76,232.234"/>
	<path fill="#007DC3" d="M74.31,15.875c0,0-160.81,49.625,27.69,236.459l0,0L74.31,15.875z"/>
	<path fill="#FFF680" d="M80.199,13.582c0,0-160.699,28.918,21.801,238.752l0,0L80.199,13.582z"/>
	<path fill="#920A0B" d="M134.189,6.959c0,0,22.977,3.041,33.644,9.875c0,0,72.167,27.666-31.333,235.5l-9.266-1.021L134.189,6.959z
		"/>
	<path fill="#C1272D" d="M127.734,6.646c0,0,9.5-0.315,16.5,2.759c0,0,56,38.095-17,241.908h-8.332L127.734,6.646z"/>
	<path fill="#F15B26" d="M93,10c0,0-152,9.5,9,242.334h3.787L93,10z"/>
	<path fill="#C1272D" d="M105.787,252.334C9.5,59.5,63.94,23.118,70.792,17.682C83.5,7.6,98.862,7.6,98.862,7.6l12.47,244.734
		H105.787z"/>
	<path fill="#ED1F24" d="M111.332,252.334C41.849,34.564,85.5,14.5,93,10s18.332-3.524,18.332-3.524L117,252.334H111.332z"/>
	<path fill="#F6EC13" d="M111.332,6.476c0,0-15.665,95.191,5.668,245.858h4.668c0,0,38.732-199.611,8.832-244.667
		C128,3.9,111.332,6.476,111.332,6.476z"/>
</g>
<path fill="#402312" d="M102,252.334l7.75,6.134c0,0,4.309-7.968,14.059-4.468l12.691-1.666C114.5,245.25,102,252.334,102,252.334z"
	/>
<line fill="none" stroke="#000000" stroke-width="0.25" stroke-miterlimit="10" x1="109.75" y1="258.468" x2="117.043" y2="281.625"/>
<path d="M113.396,283"/>
<path d="M102,252.334"/>
<path fill="none" d="M102,252.334"/>
<path fill="#C2C1C1" stroke="#010101" stroke-miterlimit="10" d="M119.781,259.414"/>
<path fill="#C2C1C1" d="M119.875,259.383"/>
<line fill="none" stroke="#000000" stroke-width="0.25" stroke-miterlimit="10" x1="102" y1="252.334" x2="115.462" y2="281.744"/>
<line fill="none" stroke="#000000" stroke-width="0.25" stroke-miterlimit="10" x1="136.5" y1="252.334" x2="128.668" y2="280.75"/>
<line fill="none" stroke="#000000" stroke-width="0.25" stroke-miterlimit="10" x1="131.5" y1="252.99" x2="128.668" y2="280.75"/>
<line fill="none" stroke="#000000" stroke-width="0.25" stroke-miterlimit="10" x1="113.47" y1="249.867" x2="118.271" y2="281.532"/>
<line fill="none" stroke="#000000" stroke-width="0.25" stroke-miterlimit="10" x1="118.021" y1="249.186" x2="120.509" y2="281.364"/>
<line fill="none" stroke="#000000" stroke-width="0.25" stroke-miterlimit="10" x1="125.021" y1="249.867" x2="123.809" y2="281.364"/>
<path fill="#F4A963" d="M123.271,275.359l0.065,4.345l-0.161,6.55l-0.48,0.671l-0.213,0.785c0,0-0.058,0.89,0.22,0.608
	c0.034-0.032-0.017-0.433,0.067-0.578c0.194-0.336,0.106-0.073,0.154-0.092l0.032,0.387c-0.008-0.002-0.013-0.008-0.019-0.012
	c0,0-1.442,0.031,0.076,0.586l0.379-0.111l0.291-0.38l0.109-0.513l0.046-0.513l-0.003-0.026l0.094-0.348h0.01l0.646-5.863
	l0.314-5.754L123.271,275.359z"/>
<path fill="#F4A963" d="M117.783,287.784l-0.141-0.839l0.211-0.504c0.143,0.029,0.223,0.063,0.274,0.162
	c0.459,0.801,0.806,0.444,0.806,0.444l-0.634-1.024l-0.987-0.836l-0.581-6.207l0.401-4.612l-2.277-0.267v5.215l1.48,6.246
	l0.013-0.002l0.188,0.416l0.312,1.135l-0.035,0.75c0,0,0.168,0.887,0.476,1.01c0.063,0.025,0.09-0.238,0.09-0.238l-0.055-0.214
	c0.161,0.235,0.387,0.517,0.577,0.552c0.072,0.012,0.011-0.246,0.011-0.246l-0.365-0.6l0.007-0.092
	c0.199,0.229,0.504,0.537,0.719,0.555c0.072,0.005-0.029-0.246-0.029-0.246L117.783,287.784z"/>
<path fill="#F6EC13" d="M124.193,272.602c-0.215-0.467-3.721-0.769-4.437-0.814v-0.008c0,0,0.029,0.002,0,0.004
	c-0.026-0.002,0-0.004,0-0.004v0.008c-0.712,0.047-4.213,0.349-4.428,0.814l-1.149,3.576c0,0,2.267,1.022,2.267,0.053
	c0-0.613,0.324,1.864,0.324,4.264c0,1.699-0.045,3.598-0.045,4.236c0,2.065,6.473,0.636,6.377-0.135
	c-0.098-0.798-0.838-2.611-0.088-4.238c0.793-1.724,0.336-4.428,0.312-3.918c-0.021,0.451,2.056-0.053,2.056-0.053L124.193,272.602z
	"/>
<rect x="119.082" y="269.839" fill="#F4A963" width="1.4" height="3.069"/>
<path fill="#F4A963" d="M126.484,263.798c-0.234-0.159-0.646-0.157-1.094-0.05c0.016-0.184,0.024-0.364,0.024-0.538
	c0-3.087-2.491-5.937-5.563-5.937c-3.071,0-5.561,3.064-5.561,6.149c0,0.136,0.005,0.272,0.014,0.414
	c-0.563-0.188-1.112-0.235-1.401-0.04c-0.779,0.528-0.649,2.25-0.078,3.105c0.566,0.851,2.188,0.33,2.4,0.215
	c0.998,2.055,2.697,3.792,4.625,3.792c1.856,0,3.5-1.687,4.512-3.7c0.158,0.059,1.984,0.633,2.588-0.63
	C127.396,265.652,127.266,264.326,126.484,263.798z"/>
<path fill="#402312" d="M114.544,263.995l1.327,7.784h0.213c0,0-1.633-11.248,1.279-12.413l-0.33,1.196l3.305-1.051l-0.472,1.567
	l4.796,2.101c0,0,0.271,4.203-0.071,8.192l0.431,0.169l0.008-7.582l0.432-0.242l0.088-2.119l-0.892-2.199l0.101-1.674
	c0,0-0.681-3.476-7.861-2.772c0,0-2.522,0.694-2.774,4.381v2.813l0.094,1.688"/>
<path fill="#EB994E" d="M122.271,266.303c0,1.121-0.363,1.365-0.916,1.365c-0.551,0-1.313-0.045-1.313-1.167
	c0-1.123,0.763-2.408,1.313-2.408C121.908,264.093,122.271,265.18,122.271,266.303z"/>
<path fill="#F47C4B" d="M122.229,268.4h-3.375c0,0.492,0.787,0.89,1.76,0.89C121.506,269.29,122.229,268.893,122.229,268.4z"/>
<path fill="#EB994E" d="M114.238,265.007c0.162,0.704,0.954,1.703-0.459,1.854c-0.557,0.062-1.072-0.473-1.148-1.19
	c-0.077-0.718,0.311-1.351,0.867-1.41C114.054,264.2,114.054,264.2,114.238,265.007z"/>
<path fill="#EB994E" d="M125.342,265.007c-0.16,0.704-0.953,1.703,0.46,1.854c0.558,0.062,1.069-0.473,1.148-1.19
	c0.077-0.718-0.31-1.351-0.867-1.41C125.527,264.2,125.527,264.2,125.342,265.007z"/>
<path fill="#C77939" d="M114.312,265.25c0.086,0.381,0.611,1.166-0.155,1.248c-0.302,0.031-0.62-0.209-0.728-0.598
	c-0.104-0.377-0.108-0.65,0.184-0.891C113.805,264.854,114.211,264.812,114.312,265.25z"/>
<path fill="#C77939" d="M125.23,265.25c-0.086,0.381-0.611,1.166,0.154,1.248c0.303,0.031,0.62-0.209,0.729-0.598
	c0.104-0.377,0.107-0.65-0.184-0.891C125.738,264.854,125.332,264.812,125.23,265.25z"/>
<path fill="#F4A963" d="M118.438,272.689c-0.209-0.276,0.498-0.6,1.375-0.6c0.881,0,1.099,0.319,1.332,0.562
	c1.084,1.125-1.604,1.435-2.062,0.964C117.949,272.455,118.713,273.05,118.438,272.689z"/>
<path fill="#5E3927" d="M119.762,256.755l1.396-0.304c0,0,0.135,0.121,1.646,0.729c1.514,0.605,2.428,0.981,2.428,0.981
	s1.408,4.274,1.019,5.021c-0.263,0.498-1.875,1.445-4.71-1.99c0,0-1.068-0.189-1.777,0.631c0,0-2.917,1.513-3.831,1.135
	c0,0-1.136,0-1.324-0.314c-0.189-0.315-0.25-1.186-0.25-1.186L119.762,256.755z"/>
<polyline fill="#544741" points="114.14,260.729 114.215,263.834 114.792,264.729 115.432,262.927 114.14,260.729 "/>
<path fill="#C59B6C" d="M121.045,257.884c0.523,1.438-0.824,3.248-3.012,4.044c-2.187,0.797-3.295,0.615-3.805-0.769
	c-0.496-1.349,1.055-4.156,1.909-4.438C117.838,256.158,120.521,256.445,121.045,257.884z"/>
<path fill="#33669A" d="M119.844,258.27c0.314,0.862-0.543,1.969-1.914,2.469c-1.373,0.498-3.078,0.246-3.055-0.66
	c0.025-0.941,0.672-2.514,2.097-2.828C118.068,257.006,119.529,257.404,119.844,258.27z"/>
<path fill="#C59B6C" d="M121.561,258.268c-0.188,1.312,0.937,3.193,2.512,4.205c1.574,1.012,2.277,0.963,2.492-0.295
	c0.34-1.978-1.194-4.085-1.808-4.453C123.538,256.992,121.75,256.956,121.561,258.268z"/>
<path fill="#33669A" d="M123.305,258.104c-0.546,0.519-0.332,1.646,0.477,2.521c0.808,0.874,2.134,1.32,2.449,0.646
	c0.328-0.701-0.305-1.418-0.619-2.194C125.249,258.184,123.85,257.586,123.305,258.104z"/>
<circle cx="118.021" cy="264.066" r="0.377"/>
<circle cx="122.661" cy="264.203" r="0.341"/>
<line fill="none" stroke="#000000" stroke-width="0.25" stroke-miterlimit="10" x1="127.854" y1="253.695" x2="126.334" y2="280.75"/>
<g>
	<polygon fill="#C59B6C" points="107.844,281.275 107.844,299.93 127.566,299.93 127.566,278.012 	"/>
	<polygon fill="#544741" points="127.566,278.012 135.49,280.344 135.49,298.529 127.566,299.93 	"/>
</g>
<path fill="#010101" d="M124.757,257.725"/>
</svg>
