<?xml version="1.0" encoding="utf-8"?>
<!-- Generator: Adobe Illustrator 15.1.0, SVG Export Plug-In  -->
<!DOCTYPE svg PUBLIC "-//W3C//DTD SVG 1.1//EN" "http://www.w3.org/Graphics/SVG/1.1/DTD/svg11.dtd" [
	<!ENTITY ns_flows "http://ns.adobe.com/Flows/1.0/">
]>
<svg version="1.1"
	 xmlns="http://www.w3.org/2000/svg" xmlns:xlink="http://www.w3.org/1999/xlink" xmlns:a="http://ns.adobe.com/AdobeSVGViewerExtensions/3.0/"
	 x="0px" y="0px" width="84px" height="280px" viewBox="-0.772 -0.849 84 280"
	 overflow="visible" enable-background="new -0.772 -0.849 84 280" xml:space="preserve">
<defs>
</defs>
<path fill="#F5A962" d="M61.166,116.887l0.363,24.348l-0.896,36.711l-2.691,3.765l-1.204,4.4c0,0-0.312,4.979,1.241,3.415
	c0.189-0.191-0.101-2.429,0.375-3.25c1.087-1.878,0.604-0.41,0.869-0.518l0.177,2.18c-0.036-0.022-0.06-0.046-0.1-0.067
	c0,0-8.094,0.171,0.429,3.28l2.125-0.625l1.625-2.125l0.625-2.875l0.25-2.875l-0.015-0.154l0.522-1.938h0.054l3.624-32.859
	l1.77-32.251L61.166,116.887z"/>
<path fill="#3F1703" d="M58.263,260.505c0,0-4.053-5.916-4.677,1.479c0,0-2.139,4.166-0.473,7.333c1.111,2.111,5,2.833,7.92,5.208
	c2.843,2.312,7.08,2.792,7.08,2.792s5.833,0.5,1-4c0,0-5.166-3.833-7.5-6.333l-2.5-2.334
	C59.114,264.651,58.893,259.54,58.263,260.505z"/>
<path fill="#FF0000" d="M58.346,263.748c-0.106,0.116-2.272,5.755-5.481,1.327L58.346,263.748z"/>
<path fill="#3F1703" d="M29.246,261.338c0,0,4.053-5.916,4.677,1.479c0,0,2.139,4.168,0.473,7.334c-1.111,2.111-5,2.834-7.92,5.209
	c-2.843,2.312-7.08,2.791-7.08,2.791s-5.833,0.5-1-4c0,0,5.166-3.834,7.5-6.334l2.5-2.332
	C28.395,265.485,28.616,260.372,29.246,261.338z"/>
<path fill="#FF0000" d="M28.395,266.985c0.152,0.041,5.014,3.625,5.333-1.834L28.395,266.985z"/>
<path fill="#17354C" d="M53.947,153.95h-5.813c-4.209,0-4.925,0.918-4.925,5.398l0.408,4.602l-0.341,0.104
	c-0.084-3.626-0.944-4.397-4.917-4.397h-5.813c-4.21,0-7.623,3.412-7.623,7.621l1.806,43.711l0.667,53.162
	c0,5.719,10.02,2.061,6.708-2.195l3.576-51.435l3.549-29.12c0.808-0.281,1.407-0.508,2.5,0l7.326,32.084l1.335,49.359
	c-3.312,4.531,7.199,4.395,7.199-1.693l0.706-47l-0.566-53C59.728,156.67,58.157,153.95,53.947,153.95z"/>
<path fill="#6B402B" d="M26.504,160.858c-1.83,9.36-0.346,1.125-1.032,4.639c-2.22,11.365,34.065,10.289,34.387,5.955
	c0.334-4.49-3.038-10.273-1.721-18.694C59.944,141.204,29.08,147.672,26.504,160.858z"/>
<path fill="#F5A962" d="M26.728,186.526l-0.606-4.699l0.907-2.824c0.623,0.166,0.958,0.356,1.199,0.898c2,4.5,3.5,2.5,3.5,2.5
	l-2.75-5.75l-4.298-4.678l-2.521-34.785l1.741-25.86l-9.907-1.49v29.229l6.449,35.009l0.052-0.004l0.814,2.325l1.361,6.35
	l-0.162,4.213c0,0,0.736,4.963,2.075,5.652c0.278,0.143,0.388-1.326,0.388-1.326l-0.238-1.208c0.695,1.325,1.68,2.897,2.512,3.089
	c0.305,0.07,0.049-1.379,0.049-1.379l-1.594-3.352l0.031-0.516c0.865,1.286,2.189,3.012,3.123,3.105
	c0.311,0.031-0.125-1.375-0.125-1.375L26.728,186.526z"/>
<path fill="#FF003D" d="M66.333,101.429c-1.204-2.613-20.853-4.308-24.853-4.574v-0.038c0,0,0.153,0.006,0,0.019
	c-0.154-0.012,0-0.019,0-0.019v0.038c-4,0.266-23.619,1.961-24.823,4.574l-6.445,20.037c0,0,12.701,5.732,12.701,0.293
	c0-3.433,1.815,10.457,1.815,23.892c0,9.537-0.25,20.17-0.25,23.75c0,11.58,36.278,3.566,35.75-0.75
	c-0.547-4.471-0.704-13.721-0.5-23.75c0.237-11.691,1.886-24.811,1.752-21.968c-0.119,2.533,11.516-0.293,11.516-0.293
	L66.333,101.429z"/>
<rect x="37.679" y="85.949" fill="#F5A962" width="7.849" height="17.202"/>
<path fill="#F5A962" d="M79.174,52.091c-1.323-0.896-3.616-0.89-6.137-0.28c0.088-1.029,0.135-2.038,0.135-3.018
	c0-17.297-13.954-33.266-31.167-33.266c-17.214,0-31.168,17.168-31.168,34.464c0,0.76,0.029,1.535,0.082,2.32
	c-3.165-1.06-6.239-1.319-7.86-0.221C-1.311,55.05-0.58,64.694,2.621,69.498c3.175,4.765,12.266,1.854,13.456,1.196
	c5.59,11.523,15.115,21.255,25.929,21.255c10.402,0,19.614-9.446,25.275-20.738c0.885,0.33,11.129,3.545,14.508-3.526
	C84.277,62.476,83.542,55.05,79.174,52.091z"/>
<circle stroke="#000000" stroke-miterlimit="10" cx="28.368" cy="56.367" r="1.179"/>
<circle stroke="#000000" stroke-miterlimit="10" cx="54.567" cy="56.367" r="1.179"/>
<path stroke="#000000" stroke-miterlimit="10" d="M12.248,53.199l1.395,4.11l2.46-0.942c0,0-4.374-22.588,11.947-29.115
	l-1.853,6.708l18.526-5.889l-2.646,8.79l20.114-8.703c0,0,9.555,5.616,4.702,28.856l2.285,0.182l1.835-4.198l2.418-1.356
	l0.493-11.879l-0.441-13.418l2.156-10.816c0,0-33.739-23.089-46.442-12.028V0.84c0,0-17.909,5.56-19.321,26.229v15.762l0.529,9.456"
	/>
<path fill="#EA984E" d="M46.734,67.302c0,6.292-2.034,7.655-5.131,7.655c-3.096,0-5.131-1.313-5.131-7.604
	c0-6.292,2.035-12.437,5.131-12.437C44.7,54.917,46.734,61.011,46.734,67.302z"/>
<path fill="#FC7C49" d="M51.054,77.883h-18.9c0,2.755,4.408,4.985,9.855,4.985C47.009,82.869,51.054,80.638,51.054,77.883z"/>
<path fill="none" stroke="#C1272D" stroke-width="3" stroke-miterlimit="10" d="M12.891,50.936
	c-0.698,0.234,9.66-1.885,24.789,0.503c0,0-1.595,13.051-7.262,15.95c0,0-13.322,3.986-15.497-5.292L12.891,50.936z"/>
<path fill="#C1272D" d="M12.778,55.575c0-2.199-1.971-3.079-1.971-3.079s0.016-2.052,0-2.491c-0.015-0.44,0.504-0.66,0.504-0.66
	c0.652-0.073,11.602-0.293,11.602-0.293l-10.135,2.053V55.575z"/>
<path fill="#C1272D" d="M15.056,55.835c0,0-0.489-4.415,3.022-4.415c3.54,0-4.824-0.267-4.824-0.267L15.056,55.835z"/>
<path fill="#C1272D" d="M35.292,57.014c0,0,0.375-4.144-1.336-5.063C32.245,51.03,37,51.587,37,51.587L35.292,57.014z"/>
<path fill="none" stroke="#C1272D" stroke-width="3" stroke-miterlimit="10" d="M70.316,50.936
	c0.698,0.234-9.658-1.885-24.788,0.503c0,0,1.595,13.051,7.261,15.95c0,0,13.324,3.986,15.498-5.292L70.316,50.936z"/>
<path fill="#C1272D" d="M70.429,55.575c0-2.199,1.971-3.079,1.971-3.079s-0.016-2.052,0-2.491c0.015-0.44-0.504-0.66-0.504-0.66
	c-0.652-0.073-11.602-0.293-11.602-0.293l10.135,2.053V55.575z"/>
<path fill="#C1272D" d="M68.152,55.835c0,0,0.488-4.415-3.022-4.415c-3.54,0,4.824-0.267,4.824-0.267L68.152,55.835z"/>
<path fill="#C1272D" d="M47.914,57.014c0,0-0.375-4.144,1.337-5.063c1.712-0.921-3.044-0.363-3.044-0.363L47.914,57.014z"/>
<path fill="none" stroke="#C1272D" stroke-width="3" stroke-miterlimit="10" d="M37.679,52.164c0,0,3.893-1.604,7.849,0"/>
<path fill="#EA984E" d="M10.539,58.866c0.904,3.94,5.344,9.544-2.577,10.4c-3.118,0.338-5.999-2.652-6.435-6.679
	s1.739-7.563,4.857-7.901C9.503,54.349,9.503,54.349,10.539,58.866z"/>
<path fill="#EA984E" d="M72.768,58.866c-0.905,3.94-5.344,9.544,2.577,10.4c3.117,0.338,5.999-2.652,6.435-6.679
	s-1.739-7.563-4.858-7.901C73.803,54.349,73.803,54.349,72.768,58.866z"/>
<path fill="#C67939" d="M10.947,60.223c0.49,2.138,3.431,6.538-0.866,7.003c-1.692,0.184-3.471-1.174-4.076-3.35
	c-0.588-2.116-0.604-3.653,1.027-4.993C8.106,58.002,10.385,57.772,10.947,60.223z"/>
<path fill="#C67939" d="M72.149,60.223c-0.49,2.138-3.431,6.538,0.866,7.003c1.691,0.184,3.471-1.174,4.076-3.35
	c0.588-2.116,0.604-3.653-1.027-4.993C74.99,58.002,72.71,57.772,72.149,60.223z"/>
<path fill="#F5A962" d="M34.07,101.922c-1.177-1.544,2.793-3.354,7.715-3.354s8.438,1.535,7.461,3.156
	c-2.702,4.482-5.205,12.17-7.778,9.529C35.123,104.743,35.617,103.943,34.07,101.922z"/>
</svg>
