<?xml version="1.0" encoding="utf-8"?>
<!-- Generator: Adobe Illustrator 16.0.0, SVG Export Plug-In . SVG Version: 6.00 Build 0)  -->
<!DOCTYPE svg PUBLIC "-//W3C//DTD SVG 1.1//EN" "http://www.w3.org/Graphics/SVG/1.1/DTD/svg11.dtd">
<svg version="1.1" id="Layer_1" xmlns="http://www.w3.org/2000/svg" xmlns:xlink="http://www.w3.org/1999/xlink" x="0px" y="0px"
	 width="230px" height="254px" viewBox="0 0 230 254" enable-background="new 0 0 230 254" xml:space="preserve">
<path fill="#F5A962" d="M218.3,142.8c-3.7-2.5-10-2.5-16.899-0.8c0.199-2.8,0.399-5.6,0.399-8.3C201.8,86,163.3,42,115.9,42
	c-47.5,0-86,47.3-86,95c0,2.1,0.1,4.2,0.2,6.4c-8.7-2.9-17.2-3.601-21.7-0.601c-12,8.2-10,34.8-1.2,48C16,203.9,41,195.9,44.3,194.1
	C59.7,225.9,86,252.7,115.8,252.7c28.7,0,54.101-26.101,69.7-57.2c2.4,0.9,30.7,9.8,40-9.7C232.4,171.4,230.4,150.9,218.3,142.8z"/>
<circle stroke="#000000" stroke-miterlimit="10" cx="78.2" cy="154.6" r="3.2"/>
<circle stroke="#000000" stroke-miterlimit="10" cx="150.5" cy="154.6" r="3.2"/>
<path fill="#333333" stroke="#333333" stroke-miterlimit="10" d="M33.8,145.8l3.8,11.3l6.8-2.6c0,0-12.1-62.3,32.9-80.3l-5.1,18.5
	l51.1-16.2l-7.3,24.2l55.5-24c0,0,26.3,15.5,13,79.6l6.3,0.5l5.101-11.6l6.699-3.7l1.4-32.8l-1.2-37l5.9-29.8
	c0,0-93-63.7-128.1-33.2V1.4c0,0-49.4,15.3-53.3,72.3v43.5l1.5,26.1"/>
<path fill="#EA984E" d="M128.9,184.7c0,17.3-5.601,21.1-14.101,21.1s-14.2-3.6-14.2-21c0-17.399,5.6-34.3,14.2-34.3
	C123.3,150.6,128.9,167.4,128.9,184.7z"/>
<path fill="#FC7C49" d="M140.8,213.9H88.7c0,7.6,12.2,13.8,27.2,13.8C129.6,227.6,140.8,221.5,140.8,213.9z"/>
<path fill="none" stroke="#C1272D" stroke-width="7" stroke-miterlimit="10" d="M35.5,139.6c-1.9,0.601,26.6-5.199,68.4,1.4
	c0,0-4.4,36-20,44c0,0-36.7,11-42.7-14.6L35.5,139.6z"/>
<path fill="#C1272D" d="M35.2,152.4c0-6.101-5.4-8.5-5.4-8.5s0-5.7,0-6.9s1.4-1.8,1.4-1.8c1.8-0.2,32-0.8,32-0.8l-28,5.6V152.4z"/>
<path fill="#C1272D" d="M41.5,153.1c0,0-1.3-12.199,8.3-12.199c9.8,0-13.3-0.7-13.3-0.7L41.5,153.1z"/>
<path fill="#C1272D" d="M97.3,156.3c0,0,1-11.399-3.7-14c-4.7-2.5,8.4-1,8.4-1L97.3,156.3z"/>
<path fill="none" stroke="#C1272D" stroke-width="7" stroke-miterlimit="10" d="M193.9,139.6c1.899,0.601-26.601-5.199-68.4,1.4
	c0,0,4.4,36,20,44c0,0,36.7,11,42.7-14.6L193.9,139.6z"/>
<path fill="#C1272D" d="M194.2,152.4c0-6.101,5.399-8.5,5.399-8.5s0-5.7,0-6.9s-1.399-1.8-1.399-1.8c-1.8-0.2-32-0.8-32-0.8
	L194.1,140.1V152.4H194.2z"/>
<path fill="#C1272D" d="M187.9,153.1c0,0,1.3-12.199-8.301-12.199c-9.8,0,13.301-0.7,13.301-0.7L187.9,153.1z"/>
<path fill="#C1272D" d="M132.1,156.3c0,0-1-11.399,3.7-14c4.7-2.5-8.399-1-8.399-1L132.1,156.3z"/>
<path fill="none" stroke="#C1272D" stroke-width="8" stroke-miterlimit="10" d="M103.9,143c0,0,10.7-4.4,21.6,0"/>
<path fill="#EA984E" d="M29.1,161.5c2.5,10.9,14.7,26.3-7.1,28.7c-8.6,0.899-16.5-7.3-17.7-18.4C3,160.6,9,150.9,17.6,149.9
	C26.2,149,26.2,149,29.1,161.5z"/>
<path fill="#EA984E" d="M200.7,161.5c-2.5,10.9-14.7,26.3,7.1,28.7c8.601,0.899,16.5-7.3,17.7-18.4c1.2-11.1-4.8-20.899-13.4-21.8
	C203.5,149.1,203.5,149,200.7,161.5z"/>
<path fill="#C67939" d="M30.2,165.2c1.4,5.899,9.5,18-2.4,19.3c-4.7,0.5-9.6-3.2-11.2-9.2c-1.6-5.8-1.7-10.1,2.8-13.8
	C22.4,159.1,28.6,158.4,30.2,165.2z"/>
<path fill="#C67939" d="M199,165.2c-1.4,5.899-9.5,18,2.4,19.3c4.699,0.5,9.6-3.2,11.199-9.2c1.601-5.8,1.7-10.1-2.8-13.8
	C206.8,159.1,200.5,158.4,199,165.2z"/>
</svg>
