<?xml version="1.0" encoding="utf-8"?>
<!-- Generator: Adobe Illustrator 15.1.0, SVG Export Plug-In  -->
<!DOCTYPE svg PUBLIC "-//W3C//DTD SVG 1.1//EN" "http://www.w3.org/Graphics/SVG/1.1/DTD/svg11.dtd" [
	<!ENTITY ns_flows "http://ns.adobe.com/Flows/1.0/">
]>
<svg version="1.1"
	 xmlns="http://www.w3.org/2000/svg" xmlns:xlink="http://www.w3.org/1999/xlink" xmlns:a="http://ns.adobe.com/AdobeSVGViewerExtensions/3.0/"
	 x="0px" y="0px" width="230px" height="254px" viewBox="-0.1 -0.9 230 254"
	 overflow="visible" enable-background="new -0.1 -0.9 230 254" xml:space="preserve">
<defs>
</defs>
<path fill="#F5A962" d="M218.3,142.8c-3.7-2.5-10-2.5-16.9-0.8c0.2-2.8,0.4-5.6,0.4-8.3c0-47.7-38.5-91.7-85.9-91.7
	c-47.5,0-86,47.3-86,95c0,2.1,0.1,4.2,0.2,6.4c-8.7-2.9-17.2-3.6-21.7-0.6c-12,8.2-10,34.8-1.2,48c8.8,13.1,33.8,5.1,37.1,3.3
	c15.4,31.8,41.7,58.6,71.5,58.6c28.7,0,54.1-26.1,69.7-57.2c2.4,0.9,30.7,9.8,40-9.7C232.4,171.4,230.4,150.9,218.3,142.8z"/>
<circle stroke="#000000" stroke-miterlimit="10" cx="78.2" cy="154.6" r="3.2"/>
<circle stroke="#000000" stroke-miterlimit="10" cx="150.5" cy="154.6" r="3.2"/>
<path stroke="#000000" stroke-miterlimit="10" d="M33.8,145.8l3.8,11.3l6.8-2.6c0,0-12.1-62.3,32.9-80.3l-5.1,18.5l51.1-16.2
	l-7.3,24.2l55.5-24c0,0,26.3,15.5,13,79.6l6.3,0.5l5.1-11.6l6.7-3.7l1.4-32.8l-1.2-37l5.9-29.8c0,0-93-63.7-128.1-33.2V1.4
	c0,0-49.4,15.3-53.3,72.3v43.5l1.5,26.1"/>
<path fill="#EA984E" d="M128.9,184.7c0,17.3-5.6,21.1-14.1,21.1c-8.5,0-14.2-3.6-14.2-21s5.6-34.3,14.2-34.3
	C123.3,150.6,128.9,167.4,128.9,184.7z"/>
<path fill="#FC7C49" d="M140.8,213.9H88.7c0,7.6,12.2,13.8,27.2,13.8C129.6,227.6,140.8,221.5,140.8,213.9z"/>
<path fill="none" stroke="#C1272D" stroke-width="7" stroke-miterlimit="10" d="M35.5,139.6c-1.9,0.6,26.6-5.2,68.4,1.4
	c0,0-4.4,36-20,44c0,0-36.7,11-42.7-14.6L35.5,139.6z"/>
<path fill="#C1272D" d="M35.2,152.4c0-6.1-5.4-8.5-5.4-8.5s0-5.7,0-6.9c0-1.2,1.4-1.8,1.4-1.8c1.8-0.2,32-0.8,32-0.8L35.2,140V152.4
	z"/>
<path fill="#C1272D" d="M41.5,153.1c0,0-1.3-12.2,8.3-12.2c9.8,0-13.3-0.7-13.3-0.7L41.5,153.1z"/>
<path fill="#C1272D" d="M97.3,156.3c0,0,1-11.4-3.7-14c-4.7-2.5,8.4-1,8.4-1L97.3,156.3z"/>
<path fill="none" stroke="#C1272D" stroke-width="7" stroke-miterlimit="10" d="M193.9,139.6c1.9,0.6-26.6-5.2-68.4,1.4
	c0,0,4.4,36,20,44c0,0,36.7,11,42.7-14.6L193.9,139.6z"/>
<path fill="#C1272D" d="M194.2,152.4c0-6.1,5.4-8.5,5.4-8.5s0-5.7,0-6.9s-1.4-1.8-1.4-1.8c-1.8-0.2-32-0.8-32-0.8l27.9,5.7V152.4z"
	/>
<path fill="#C1272D" d="M187.9,153.1c0,0,1.3-12.2-8.3-12.2c-9.8,0,13.3-0.7,13.3-0.7L187.9,153.1z"/>
<path fill="#C1272D" d="M132.1,156.3c0,0-1-11.4,3.7-14c4.7-2.5-8.4-1-8.4-1L132.1,156.3z"/>
<path fill="none" stroke="#C1272D" stroke-width="8" stroke-miterlimit="10" d="M103.9,143c0,0,10.7-4.4,21.6,0"/>
<path fill="#EA984E" d="M29.1,161.5c2.5,10.9,14.7,26.3-7.1,28.7c-8.6,0.9-16.5-7.3-17.7-18.4C3,160.6,9,150.9,17.6,149.9
	C26.2,149,26.2,149,29.1,161.5z"/>
<path fill="#EA984E" d="M200.7,161.5c-2.5,10.9-14.7,26.3,7.1,28.7c8.6,0.9,16.5-7.3,17.7-18.4s-4.8-20.9-13.4-21.8
	S203.5,149,200.7,161.5z"/>
<path fill="#C67939" d="M30.2,165.2c1.4,5.9,9.5,18-2.4,19.3c-4.7,0.5-9.6-3.2-11.2-9.2c-1.6-5.8-1.7-10.1,2.8-13.8
	C22.4,159.1,28.6,158.4,30.2,165.2z"/>
<path fill="#C67939" d="M199,165.2c-1.4,5.9-9.5,18,2.4,19.3c4.7,0.5,9.6-3.2,11.2-9.2c1.6-5.8,1.7-10.1-2.8-13.8
	C206.8,159.1,200.5,158.4,199,165.2z"/>
</svg>
