<?xml version="1.0" encoding="utf-8"?>
<!-- Generator: Adobe Illustrator 15.1.0, SVG Export Plug-In  -->
<!DOCTYPE svg PUBLIC "-//W3C//DTD SVG 1.1//EN" "http://www.w3.org/Graphics/SVG/1.1/DTD/svg11.dtd" [
	<!ENTITY ns_flows "http://ns.adobe.com/Flows/1.0/">
]>
<svg version="1.1"
	 xmlns="http://www.w3.org/2000/svg" xmlns:xlink="http://www.w3.org/1999/xlink" xmlns:a="http://ns.adobe.com/AdobeSVGViewerExtensions/3.0/"
	 x="0px" y="0px" width="193px" height="691px" viewBox="-0.668 -0.926 193 691"
	 overflow="visible" enable-background="new -0.668 -0.926 193 691" xml:space="preserve">
<defs>
</defs>
<path fill="#F5A962" d="M80.903,364.156c-3.979-12.733-2.912-65.849-2.912-65.849l24.915-5.714l-5.82,73.338
	C97.085,365.931,84.883,376.891,80.903,364.156z"/>
<path fill="#2B2B2B" d="M93.229,241.698c-31.31-19.797-20.473,68.671-20.473,68.671s29.433,1.79,32.438-5.732
	C105.194,304.637,113.335,254.412,93.229,241.698z"/>
<path fill="#F5A962" d="M91.869,451.033c0,0-13.049-89.251-10.306-98.996c2.743-9.746,9.66-13.514,15.129-4.035
	c0.406,0.704,6.543,99.127,6.543,99.127L91.869,451.033z"/>
<path fill="#933D1F" d="M85.998,661.626c0,0-6.239,14.616-1.41,20.609c4.636,5.755,20,4.592,30.522,5.786
	c14.577,1.653,27.221-1.22,27.221-1.22s3.859-5.675-8.694-9.192c0,0-18.642-7.231-26.912-12.614l-8.2-4.877"/>
<path fill="#FF0000" d="M99.982,662.32c-2.195,2.403-9.407,17.588-15.554,2.184"/>
<path fill="#0E313F" d="M82.305,518.831l2.913,141.099c-7.223,12.953,15.704,12.562,15.704-4.839l3.536-133.567"/>
<path fill="#0E313F" d="M77.352,392.583c0,0-0.001-22.593,13.923-21.316h11.988c8.68,0,11.92,7.354,11.92,19.461
	c0,0-10.231,127.83-10.085,128.596c1.347,7.062-2.332,18.305-2.425,18.183c-0.538-0.707-19.936,5.473-22.629-6.53
	C77.351,518.97,77.352,392.583,77.352,392.583z"/>
<path fill="#B24A1D" d="M72.998,662.959c0,0-6.239,14.616-1.41,20.609c4.636,5.755,20,4.592,30.522,5.786
	c14.577,1.653,27.221-1.22,27.221-1.22s3.859-5.675-8.694-9.192c0,0-18.642-7.231-26.912-12.614l-8.2-4.877"/>
<path fill="#FF0000" d="M86.983,663.653c-0.34,0.372-8.596,19.619-15.555,2.184"/>
<path fill="#144963" d="M67.731,522.886l2.912,141.1c-0.578,8.646,15.705,12.562,15.705-4.84l4.994-128.602"/>
<path fill="#144963" d="M65.883,388.474c0,0-0.001-22.594,13.923-21.316h11.988c8.68,0,9.495,3.045,11.112,21.049
	c0,0-9.423,126.242-9.277,127.008c1.347,7.062-2.332,18.304-2.424,18.182c-0.54-0.706-19.936,5.474-22.629-6.53
	C65.882,514.862,65.883,388.474,65.883,388.474z"/>
<path fill="#EA984E" d="M170.754,150.526c0,16.054-5.189,19.533-13.091,19.533c-7.899,0-13.092-3.351-13.092-19.404
	c0-16.054,5.192-31.731,13.092-31.731C165.564,118.923,170.754,134.474,170.754,150.526z"/>
<rect x="69.232" y="194.103" fill="#F5A962" width="20.026" height="43.892"/>
<path fill="#F5A962" d="M162.332,116.031c7.5-33.128-28.142-96.609-72.061-96.609c-43.922,0-79.528,42.682-79.528,85.68
	c0,1.889,0.074,3.817,0.208,5.769l0.988-0.007c1.02,18.274,12.174,45.707,12.174,45.707c14.263,28.648,38.567,52.842,66.158,52.842
	c25.522,0,55.561-17.381,64.49-51.558c-0.197,1.42,3.07-14.054,4.57-33.054C159.332,124.8,161.794,118.409,162.332,116.031z"/>
<circle stroke="#000000" stroke-miterlimit="10" cx="149.207" cy="122.198" r="3.008"/>
<path stroke="#000000" stroke-miterlimit="10" d="M11.332,136.574l11.5,31l18.5-3c0,0-23.173-45.5-1.333-56.833
	c26.334-13.667,33.333,21.833,33.333,21.833h7l5-25.5l11.5,15.5l16.5-36l8.5,13.5l14.5-29.5c0,0,15.862-4.124,19.667,7.833
	c4.666,14.667,6,20.333,6,20.333l17.833-16.667l-3.5-12l14.5-10l-20.5-17.5l14-2.5c0,0-80.666-66.333-143.333-20.333L40.332,6.074
	c0,0-41.333,30.667-39.333,82c0,0-2.667,36.5,4.333,50.5"/>
<path fill="#FC7C49" d="M145.582,172.78l-41.5-0.308c0,5.25,10.11,9.5,22.604,9.5C143.395,183.609,141.275,179.856,145.582,172.78z"
	/>
<g>
	<path fill="#F5A962" d="M66,112.407c-2.667-7-18.668-11.667-27.334-4.667c-10.475,8.46-10.783,31.03,1,43
		c10.248,10.412,23.297,8.679,26.334,7"/>
	<path fill="#C67939" d="M65.814,112.483c-1.055-1.942-2.905-3.165-4.777-4.114c-1.913-0.915-3.968-1.507-6.034-1.852
		c-4.127-0.624-8.434-0.302-11.827,1.419c-0.837,0.433-1.633,0.903-2.333,1.478c-0.163,0.126-0.381,0.319-0.478,0.41
		c-0.19,0.184-0.442,0.407-0.555,0.543c-0.276,0.285-0.611,0.68-0.895,1.032c-1.153,1.481-2.045,3.191-2.771,4.994
		c-0.705,1.816-1.185,3.751-1.453,5.729c-0.259,1.978-0.43,3.987-0.351,6.005c0.063,2.016,0.31,4.029,0.733,5.996
		c0.392,1.973,0.935,3.914,1.675,5.769c0.731,1.858,1.664,3.618,2.741,5.264c1.061,1.673,2.297,3.154,3.726,4.575
		c1.438,1.37,2.958,2.674,4.656,3.752c0.847,0.543,1.735,1.022,2.647,1.47c0.907,0.463,1.849,0.875,2.82,1.225
		c1.946,0.675,3.993,1.23,6.112,1.485c1.058,0.129,2.136,0.24,3.217,0.23c1.076-0.013,2.192-0.018,3.233-0.327l0.193,0.35
		c-1.034,0.543-2.144,0.797-3.252,1.001c-1.112,0.194-2.237,0.292-3.363,0.319c-2.252,0.05-4.509-0.195-6.703-0.709
		c-4.395-1.018-8.51-3.186-11.89-6.176c-3.411-2.97-6.024-6.806-7.747-10.972c-1.747-4.167-2.631-8.674-2.69-13.182
		c-0.059-4.501,0.677-9.056,2.497-13.205c0.915-2.066,2.116-4.021,3.646-5.701c1.53-1.684,3.41-3.052,5.523-3.906
		c4.233-1.712,8.971-1.694,13.322-0.606c2.182,0.555,4.302,1.397,6.219,2.597c1.889,1.195,3.68,2.797,4.526,4.954L65.814,112.483z"
		/>
</g>
<path fill="#EA984E" d="M63.316,123.583c2.308,10.054,13.635,24.352-6.576,26.537c-7.954,0.862-15.307-6.768-16.417-17.041
	c-1.112-10.274,4.438-19.299,12.394-20.161C60.673,112.059,60.673,112.059,63.316,123.583z"/>
<path fill="#C67939" d="M64.359,127.047c1.25,5.454,8.754,16.682-2.21,17.868c-4.316,0.468-8.856-2.996-10.399-8.547
	c-1.5-5.399-1.543-9.321,2.621-12.74C57.109,121.381,62.925,120.792,64.359,127.047z"/>
<path fill="#C1272D" d="M163.582,106.199l-113-2.125c-1.519,0,11.75,0,15.75,8.5l91.038,0.833l-2.288,36.667
	c-0.091,1.516,4.91,1.475,5.001-0.042l4.999-41.583L163.582,106.199z"/>
<path fill="#F2F2F2" d="M160.145,150.136c0,0,8.562-20.938,4.938-41.688"/>
<path fill="#333333" d="M59.713,285.594c2.272,64.035,2.775,118.779,1.515,130.703c-1.217,11.515,44.104,14.847,60.437,1.708
	c3.379-2.718,1.334-4.43,1.334-12.407c0-8.624,2.983-31.789,2.983-45.005c0-35.833,1.893-141.667-58.317-129.386
	C58.934,232.988,59.713,285.594,59.713,285.594z"/>
<path fill="#F5A962" d="M84.337,365.468c-4.587-12.527-6.073-65.633-6.073-65.633l24.611-6.905l-2.289,73.533
	C100.586,366.463,88.925,377.998,84.337,365.468z"/>
<path fill="#2B2B2B" d="M90.763,242.559c-32.225-18.27-17.148,69.576-17.148,69.576s29.484,0.373,32.126-7.285
	C105.74,304.85,111.457,254.292,90.763,242.559z"/>
<path fill="#F5A962" d="M97.688,446.189c0,0-15.846-76.869-13.418-85.506c2.427-8.636,9.208-12.315,14.964-4.389
	c0.427,0.589,7.099,88.779,7.099,88.779L97.688,446.189z"/>
<path fill="#F5A962" d="M106.332,443.741l0.723,6.456l0.944,16.21l-2.071,10.889c0,0-0.969,12.764-4.251,14.764
	c-0.682,0.415-1.229-3.304-1.229-3.304l0.388-3.118c-1.528,3.499-3.746,7.68-5.831,8.318c-0.763,0.235-0.374-3.501-0.374-3.501
	l3.443-8.819l-0.172-1.306c-1.969,3.431-5.022,8.062-7.383,8.473c-0.785,0.137,0.069-3.521,0.069-3.521l4.519-8.319l0.688-12.069
	l3.871-8.152c-1.556,0.534-0.15,5.243-0.667,6.667c-4.269,11.817-3.333-0.333-3.333-0.333s-2.666-12.334-1.333-15.667
	s3.334-7.856,3.334-7.856"/>
</svg>
