<?xml version="1.0" encoding="utf-8"?>
<!-- Generator: Adobe Illustrator 15.1.0, SVG Export Plug-In . SVG Version: 6.00 Build 0)  -->
<!DOCTYPE svg PUBLIC "-//W3C//DTD SVG 1.1//EN" "http://www.w3.org/Graphics/SVG/1.1/DTD/svg11.dtd">
<svg version="1.1" id="Layer_1" xmlns="http://www.w3.org/2000/svg" xmlns:xlink="http://www.w3.org/1999/xlink" x="0px" y="0px"
	 width="672.27px" height="239.353px" viewBox="0 0 672.27 239.353" enable-background="new 0 0 672.27 239.353"
	 xml:space="preserve">
<path fill="#FFFFFF" d="M209.27,119.676c13-26.288-6.249-34.921-20.758-34.921c-2.485,0-4.88,0.373-7.161,1.025
	c0.018-0.343,0.124-0.688,0.053-1.025c-1.407-6.725-7.292-13.235-17.875-13.235c-9.593,0-19.047,8.106-20.451,17.308
	c-21.147-8.077-31.809-1.475-35.092,20.685c-4.717-9.659-12.552-5.354-13.122-5.594c-25.095-10.53-40.37,14.881-40.778,33.361
	c-25.317,2.676-23.817,34.633-0.818,34.287l156.568,0.346C225.199,171.913,252.27,139.956,209.27,119.676z"/>
<path fill="#FFFFFF" d="M454.462,107.174c0.758-1.453,1.193-3.069,1.193-4.781c0-6.101-5.384-11.062-12.12-11.307
	c-0.065-6.684-5.497-12.079-12.195-12.079c-4.54,0-8.495,2.485-10.597,6.165c-3.462-2.334-7.635-3.697-12.125-3.697
	c-1.571,0-3.1,0.177-4.577,0.494c0.167-1.138,0.281-2.29,0.281-3.472c-0.002-13.197-10.699-23.895-23.897-23.895
	c-9.126,0-17.048,5.117-21.074,12.636c-2.783-1.918-6.155-3.049-9.793-3.049c-9.022,0-16.42,6.915-17.208,15.732
	c-1.529-0.585-3.165-0.915-4.872-0.915c-7.461,0-13.627,6.05-14.759,13.955c-0.07,0-0.134-0.011-0.204-0.011
	c-10.91,0-24.245,8.312-24.245,18.901c0,20.046,16.5,20.319,21.5,20.319s125.721,0,127.667,0
	C465.77,132.172,455.28,109.25,454.462,107.174z"/>
<path fill="#FFFFFF" d="M570.227,170.512c1.111-2.462,1.748-5.115,1.748-7.896c0-12.515-12.292-22.661-27.455-22.661
	c-11.301,0-20.999,5.639-25.209,13.69c-2.252-0.957-4.729-1.488-7.33-1.488c-10.35,0-18.739,8.389-18.739,18.739
	c0,0.388,0.034,0.763,0.058,1.146c-5.693,2.664-9.646,8.425-9.646,15.123c0,7.772,5.318,14.289,12.509,16.153
	c1.083,0.354,2.235,0.551,3.435,0.551c0,0,67.458,0,69.618,0c9.227,0,16.705-7.479,16.705-16.704
	C585.92,178.281,578.979,171.038,570.227,170.512z"/>
</svg>
