<?xml version="1.0" encoding="UTF-8" standalone="no"?><svg xmlns="http://www.w3.org/2000/svg" xmlns:xlink="http://www.w3.org/1999/xlink" clip-rule="evenodd" stroke-miterlimit="4.00" viewBox="0 0 1024 768"><desc>SVG generated by Keynote</desc><defs></defs><g transform="matrix(1.00, 0.00, -0.00, -1.00, 0.0, 768.0)"><path d="M 0.0 768.0 L 1024.0 768.0 L 1024.0 0.0 L 0.0 0.0 Z M 0.0 768.0 " fill="#F4F4F4"></path><path d="M 916.9 307.7 C 917.7 307.9 921.1 308.0 921.2 307.6 C 919.9 307.7 917.1 307.4 916.9 307.7 C 916.9 307.7 916.9 307.7 916.9 307.7 Z M 909.9 307.9 C 911.1 308.2 913.9 308.0 914.8 307.7 C 913.3 307.8 910.3 307.6 909.9 307.9 C 909.9 307.9 909.9 307.9 909.9 307.9 Z M 920.6 306.8 C 922.4 306.7 925.9 306.9 926.7 306.6 C 924.9 306.7 921.4 306.5 920.6 306.8 C 920.6 306.8 920.6 306.8 920.6 306.8 Z M 822.4 313.3 C 823.2 313.5 826.7 313.6 826.7 313.2 C 825.4 313.3 822.6 313.0 822.4 313.3 C 822.4 313.3 822.4 313.3 822.4 313.3 Z M 841.8 312.4 C 843.0 312.7 845.8 312.5 846.7 312.3 C 845.2 312.4 842.2 312.1 841.8 312.4 C 841.8 312.4 841.8 312.4 841.8 312.4 Z M 853.0 312.6 C 855.7 312.6 858.5 312.6 858.0 312.2 C 857.1 312.5 853.3 312.1 853.0 312.6 C 853.0 312.6 853.0 312.6 853.0 312.6 Z M 918.3 291.1 C 915.5 291.2 913.5 290.9 911.6 290.9 C 902.1 291.0 916.5 291.7 918.3 291.1 C 918.3 291.1 918.3 291.1 918.3 291.1 Z M 872.9 311.4 C 871.0 311.4 869.5 311.4 868.6 311.6 C 870.4 311.6 872.8 311.8 872.9 311.4 C 872.9 311.4 872.9 311.4 872.9 311.4 Z M 889.2 311.0 C 889.7 311.2 899.3 311.1 904.7 310.8 C 900.2 310.7 888.8 310.7 889.2 311.0 C 889.2 311.0 889.2 311.0 889.2 311.0 Z M 895.6 290.9 C 889.3 291.2 879.3 291.2 874.7 291.4 C 870.2 291.5 882.8 291.7 894.4 291.6 C 906.0 291.5 896.4 290.8 901.2 290.7 C 905.9 290.5 896.6 290.3 891.9 290.5 C 887.3 290.7 895.1 290.6 895.6 290.9 C 895.6 290.9 895.6 290.9 895.6 290.9 Z M 895.9 289.5 C 898.2 289.6 900.2 289.5 901.4 289.3 C 899.1 289.2 896.9 289.0 895.9 289.5 C 895.9 289.5 895.9 289.5 895.9 289.5 Z M 559.3 299.4 C 560.1 303.3 565.5 306.5 571.5 308.8 C 573.0 309.3 574.5 309.8 576.1 310.3 C 587.1 312.0 598.1 312.9 609.2 313.3 C 611.4 313.4 613.5 313.5 615.8 313.5 C 622.6 313.8 629.4 313.9 636.2 314.0 C 638.5 314.0 640.8 314.1 643.1 314.1 C 651.3 314.6 659.2 314.1 667.3 314.1 C 671.3 314.1 675.4 314.3 679.6 314.8 C 681.7 315.1 690.7 315.0 693.9 314.7 C 690.8 315.5 705.7 315.2 705.0 315.1 C 706.6 314.8 708.4 314.7 710.1 314.6 C 711.8 314.5 709.6 314.4 707.5 314.3 C 709.4 314.1 711.3 314.0 713.3 314.0 C 715.3 314.0 717.4 314.0 719.5 314.1 C 726.4 314.4 733.9 314.1 740.3 313.8 C 757.9 313.8 806.0 313.5 797.3 313.3 C 787.5 313.1 792.5 312.8 795.2 312.7 C 796.7 312.7 798.8 312.7 801.1 312.6 C 801.0 312.8 800.9 312.9 800.5 313.0 C 804.9 313.1 811.1 313.5 817.1 313.1 C 816.0 313.0 814.5 313.0 814.0 312.8 C 817.1 312.9 814.6 312.4 816.6 312.3 C 822.2 312.2 824.9 312.1 818.4 312.1 C 824.4 311.7 828.3 311.1 834.2 310.6 C 836.4 310.6 835.2 310.6 834.5 310.8 C 838.5 311.0 847.5 310.9 848.3 311.2 C 849.2 311.4 823.9 311.2 828.4 311.5 C 830.2 311.6 834.0 311.6 835.5 311.7 C 832.3 311.8 828.3 311.8 826.3 311.9 C 828.5 312.0 831.6 312.0 833.4 312.1 C 831.2 312.1 829.7 312.2 829.1 312.3 C 832.2 312.3 834.6 312.4 838.3 312.4 C 840.0 312.2 836.9 312.0 840.4 312.0 C 841.0 311.8 838.1 312.0 838.3 311.8 C 841.1 311.7 846.8 311.7 848.2 311.6 C 849.6 311.5 844.8 311.6 844.7 311.5 C 855.6 311.3 868.1 311.2 872.0 311.1 C 875.9 311.0 872.2 311.0 870.6 310.9 C 875.1 310.8 878.5 310.8 883.9 310.7 C 887.3 310.7 886.0 310.6 884.7 310.5 C 885.6 310.5 886.4 310.5 886.9 310.4 C 887.3 310.4 888.3 310.3 889.0 310.3 C 886.8 310.2 882.9 310.3 881.2 310.1 C 884.4 309.9 891.9 310.1 894.6 309.8 C 890.3 309.6 885.6 309.7 880.7 309.5 C 890.2 309.4 900.0 310.2 907.6 309.5 C 906.3 309.4 905.7 309.2 904.5 309.1 C 907.5 309.3 911.8 309.5 914.4 309.1 C 915.8 309.0 918.6 308.8 921.5 308.8 C 916.5 308.6 913.2 308.6 909.7 308.7 C 909.8 308.6 910.1 308.6 910.7 308.5 C 902.9 307.9 898.4 309.0 892.9 309.2 C 892.5 309.2 892.0 309.2 891.6 309.1 C 889.8 308.8 896.1 308.9 896.7 308.6 C 888.5 308.5 879.6 308.8 875.5 308.4 C 885.3 308.2 893.9 308.4 901.2 308.0 C 899.3 307.6 892.0 307.9 888.5 307.7 C 904.4 307.3 906.0 307.2 907.3 307.2 C 906.1 307.1 904.9 307.1 903.6 307.1 C 903.9 307.0 904.3 306.9 904.6 306.8 C 911.6 306.8 919.8 306.8 919.4 306.7 C 919.1 306.6 912.7 306.5 905.9 306.5 C 906.6 306.3 907.3 306.2 908.0 306.0 C 916.0 305.9 925.0 305.2 932.9 305.5 C 931.6 305.1 932.3 305.2 933.9 304.9 C 931.4 304.7 927.9 304.7 925.2 304.5 C 926.1 304.4 927.8 304.5 928.3 304.3 C 927.0 304.2 924.9 304.3 924.2 304.0 C 928.0 303.9 932.0 303.8 936.0 303.7 C 936.8 303.3 934.2 303.6 934.4 303.4 C 938.2 303.2 943.5 303.4 946.2 303.1 C 943.0 302.8 936.9 303.0 934.9 302.8 C 936.2 302.7 937.4 302.6 938.7 302.5 C 941.3 302.5 942.5 302.4 939.6 302.2 C 938.1 302.1 938.1 302.1 938.5 302.1 C 940.3 301.8 946.4 301.9 946.2 301.4 C 944.7 301.4 938.6 301.4 937.0 301.0 C 938.2 300.6 941.3 300.8 941.6 300.5 C 934.8 300.7 935.1 300.5 933.4 300.7 C 934.1 300.8 936.1 300.7 936.0 300.9 C 931.8 300.9 927.6 300.9 923.4 300.9 C 923.4 300.9 923.4 300.9 923.4 300.9 C 923.4 300.9 923.4 300.9 923.4 300.9 C 923.4 300.9 923.4 300.9 923.4 300.9 C 923.7 300.6 923.6 300.3 923.2 300.1 C 925.0 300.1 926.9 300.0 930.3 300.0 C 929.4 299.5 926.3 299.6 923.4 299.7 C 923.4 299.7 923.5 299.6 923.5 299.5 C 928.2 299.5 935.3 299.3 940.1 299.1 C 937.9 299.0 929.8 299.0 924.4 299.0 C 924.5 299.0 924.7 298.9 924.9 298.7 C 918.0 298.9 909.9 298.4 902.2 298.6 C 905.9 298.0 910.3 298.5 915.1 298.3 C 917.3 298.3 919.4 298.1 921.5 297.9 C 927.6 298.0 945.7 298.1 947.8 297.8 C 950.1 297.6 931.7 297.6 931.6 297.4 C 931.5 297.3 940.1 297.1 936.0 297.1 C 933.9 297.2 929.3 297.2 926.0 297.3 C 925.9 297.0 925.8 296.7 925.6 296.3 C 928.5 296.3 932.0 296.2 932.1 296.8 C 933.6 296.7 936.6 296.9 937.0 296.6 C 936.5 296.6 935.8 296.6 935.8 296.5 C 936.5 296.5 937.5 296.5 937.6 296.4 C 934.1 296.3 929.3 296.1 925.5 296.1 C 925.1 296.0 924.8 295.9 924.5 295.7 C 924.5 295.7 927.5 295.5 930.1 295.5 C 932.8 295.4 927.2 295.2 922.7 295.3 C 922.0 295.1 921.3 294.9 920.6 294.8 C 922.1 294.8 923.9 294.8 926.0 294.8 C 928.5 294.6 928.4 294.3 930.9 294.1 C 926.3 294.0 920.9 293.9 916.5 294.0 C 914.9 293.8 913.3 293.5 911.6 293.2 C 915.3 293.0 918.6 292.8 920.6 292.6 C 922.3 292.6 923.9 292.7 924.5 292.5 C 923.0 292.3 927.0 292.3 926.4 291.9 C 924.2 292.3 919.9 292.1 918.4 292.6 C 915.0 292.6 911.3 292.6 908.1 292.6 C 907.7 292.5 907.2 292.5 906.8 292.4 C 909.6 292.4 912.2 292.3 915.2 292.2 C 913.8 291.6 905.7 291.6 899.8 291.9 C 887.8 291.5 875.7 293.5 863.6 293.7 C 863.2 293.7 862.5 293.7 861.7 293.6 C 860.8 293.5 859.9 293.3 859.0 293.2 C 861.9 293.1 864.5 293.1 866.6 292.9 C 858.1 292.6 878.7 292.7 880.1 292.3 C 866.3 291.6 840.6 292.1 824.7 291.7 C 828.5 291.6 829.7 291.6 825.6 291.4 C 824.5 291.4 823.4 291.4 822.2 291.3 C 838.4 291.0 855.2 291.8 868.1 291.0 C 860.5 290.9 848.8 291.2 845.6 290.7 C 847.9 290.7 851.2 290.8 851.6 290.6 C 847.7 290.2 834.5 290.7 830.7 290.3 C 849.5 290.0 875.2 290.4 889.1 289.6 C 868.0 289.9 839.7 289.5 821.7 290.0 C 824.8 290.1 824.8 290.3 823.2 290.5 C 817.6 290.6 812.0 290.7 806.3 290.8 C 805.1 290.7 805.5 290.6 808.3 290.5 C 810.5 290.4 811.9 290.4 812.6 290.2 C 811.1 290.1 793.3 290.1 807.4 290.0 C 821.5 289.9 846.0 289.6 831.7 289.5 C 817.4 289.4 811.7 289.1 819.5 288.9 C 827.4 288.8 852.1 288.3 843.8 288.3 C 835.5 288.2 818.1 287.9 808.3 288.0 C 798.4 288.1 815.0 289.3 800.5 289.4 C 786.0 289.4 798.0 288.9 795.3 288.9 C 790.9 289.0 782.8 288.9 775.2 288.9 C 769.8 288.9 762.9 288.9 759.4 288.7 C 759.6 288.4 776.0 288.6 769.5 288.4 C 753.6 288.4 735.9 288.3 743.2 288.8 C 733.4 288.8 726.1 288.8 720.0 288.9 C 710.4 288.4 699.3 288.5 698.1 288.3 C 696.7 288.2 670.6 289.2 660.8 287.7 C 660.1 287.8 642.6 288.2 641.0 288.6 C 624.3 288.1 626.7 287.8 610.2 287.9 C 596.5 288.1 592.3 288.3 589.9 288.4 C 575.4 288.6 575.5 288.1 568.5 290.1 C 566.3 290.7 563.0 290.7 561.9 291.7 C 559.6 293.7 558.6 296.2 559.3 299.4 C 559.3 299.4 559.3 299.4 559.3 299.4 Z M 921.5 301.6 C 924.0 301.7 928.7 301.6 931.4 301.8 C 928.3 302.2 924.4 302.1 920.5 301.9 C 920.8 301.8 921.1 301.7 921.5 301.6 C 921.5 301.6 921.5 301.6 921.5 301.6 Z M 901.7 295.5 C 903.4 295.5 905.5 295.8 907.4 295.7 C 909.2 295.7 911.1 295.8 913.9 295.6 C 913.6 295.3 909.1 295.1 905.5 295.2 C 905.5 295.1 905.5 295.0 905.5 294.9 C 907.2 294.7 909.3 294.6 911.7 294.6 C 912.5 294.6 913.3 294.6 914.2 294.7 C 914.3 294.9 913.0 295.0 912.5 295.0 C 913.1 295.3 915.2 295.4 918.0 295.5 C 918.4 295.6 918.7 295.6 919.0 295.7 C 919.4 296.0 917.3 296.1 919.7 296.1 C 918.0 296.4 913.7 296.2 911.1 296.3 C 914.1 295.6 902.8 296.0 900.0 295.7 C 900.6 295.6 901.1 295.6 901.7 295.5 Z M 880.1 309.5 C 878.6 309.5 877.1 309.4 875.5 309.4 C 877.8 309.4 879.5 309.4 881.1 309.3 C 880.7 309.4 880.4 309.4 880.1 309.5 Z M 753.8 312.7 C 763.0 311.7 782.3 312.6 783.6 312.1 C 785.6 312.1 787.5 312.2 789.6 312.2 C 776.7 312.3 763.0 312.4 753.8 312.7 C 753.8 312.7 753.8 312.7 753.8 312.7 Z M 786.3 290.5 C 787.1 290.5 786.7 290.6 784.9 290.6 C 775.0 290.9 769.1 291.2 775.4 291.2 C 780.7 291.2 792.3 291.2 788.9 291.4 C 784.4 291.4 779.9 291.5 775.2 291.6 C 771.6 291.4 768.1 291.1 764.6 290.6 C 772.2 290.6 779.6 290.5 786.3 290.5 C 786.3 290.5 786.3 290.5 786.3 290.5 Z M 760.3 290.0 C 763.1 290.1 766.3 290.1 769.6 290.2 C 766.8 290.2 763.9 290.2 760.9 290.2 C 760.7 290.2 760.5 290.1 760.3 290.0 Z M 756.8 289.6 C 762.4 289.6 768.0 289.6 762.3 289.8 C 761.1 289.8 759.8 289.8 758.5 289.8 C 758.0 289.8 757.4 289.7 756.8 289.6 Z M 753.4 289.4 C 753.4 289.5 754.4 289.6 756.2 289.6 C 752.4 289.7 744.9 289.8 745.2 289.5 C 747.7 289.4 750.5 289.4 753.4 289.4 C 753.4 289.4 753.4 289.4 753.4 289.4 Z M 747.7 313.2 C 750.2 313.2 752.3 313.3 748.4 313.4 C 746.9 313.5 745.4 313.5 743.9 313.5 C 745.2 313.4 746.4 313.3 747.7 313.2 Z M 876.4 290.6 C 875.4 290.6 871.4 290.6 869.1 290.7 C 868.8 291.7 877.9 291.0 876.4 290.6 C 876.4 290.6 876.4 290.6 876.4 290.6 Z M 891.4 290.1 C 890.4 290.2 886.4 290.1 884.0 290.3 C 883.8 291.3 892.9 290.6 891.4 290.1 C 891.4 290.1 891.4 290.1 891.4 290.1 Z M 660.8 287.7 C 660.8 287.7 660.8 287.7 660.8 287.7 C 660.8 287.7 660.8 287.7 660.8 287.7 C 660.8 287.7 660.8 287.7 660.8 287.7 Z M 660.8 287.7 " fill="#1BFFE6"></path><path d="M 967.6 380.0 C 968.7 380.2 973.2 380.4 973.2 380.0 C 971.5 380.0 967.9 379.7 967.6 380.0 C 967.6 380.0 967.6 380.0 967.6 380.0 Z M 958.6 380.1 C 960.2 380.3 963.8 380.2 964.9 380.0 C 963.0 380.1 959.2 379.8 958.6 380.1 C 958.6 380.1 958.6 380.1 958.6 380.1 Z M 972.5 379.2 C 974.9 379.1 979.3 379.4 980.4 379.1 C 978.0 379.2 973.5 378.9 972.5 379.2 C 972.5 379.2 972.5 379.2 972.5 379.2 Z M 845.2 383.7 C 846.2 383.9 850.7 384.1 850.7 383.7 C 849.1 383.7 845.5 383.4 845.2 383.7 C 845.2 383.7 845.2 383.7 845.2 383.7 Z M 870.3 383.2 C 872.0 383.5 875.6 383.4 876.7 383.2 C 874.8 383.2 870.9 382.9 870.3 383.2 C 870.3 383.2 870.3 383.2 870.3 383.2 Z M 884.9 383.6 C 888.3 383.6 892.0 383.7 891.3 383.3 C 890.2 383.6 885.3 383.2 884.9 383.6 C 884.9 383.6 884.9 383.6 884.9 383.6 Z M 969.8 363.4 C 966.2 363.5 963.5 363.2 961.1 363.1 C 948.7 363.0 967.4 364.0 969.8 363.4 C 969.8 363.4 969.8 363.4 969.8 363.4 Z M 910.7 382.8 C 908.2 382.7 906.3 382.8 905.1 383.0 C 907.3 383.0 910.5 383.2 910.7 382.8 C 910.7 382.8 910.7 382.8 910.7 382.8 Z M 931.8 382.7 C 932.3 382.9 944.9 383.0 951.8 382.8 C 945.9 382.7 931.3 382.5 931.8 382.7 C 931.8 382.7 931.8 382.7 931.8 382.7 Z M 940.4 362.8 C 932.2 363.0 919.3 362.7 913.3 362.8 C 907.5 362.9 923.8 363.3 938.8 363.5 C 953.8 363.6 941.4 362.7 947.6 362.7 C 953.7 362.6 941.7 362.2 935.6 362.3 C 929.6 362.4 939.7 362.5 940.4 362.8 C 940.4 362.8 940.4 362.8 940.4 362.8 Z M 940.8 361.4 C 943.7 361.5 946.3 361.5 948.0 361.3 C 944.9 361.1 942.0 360.9 940.8 361.4 C 940.8 361.4 940.8 361.4 940.8 361.4 Z M 504.8 364.5 C 505.7 368.4 512.8 371.6 520.5 374.1 C 522.4 374.6 524.4 375.1 526.3 375.7 C 540.5 377.6 554.8 378.7 569.2 379.4 C 572.0 379.5 574.8 379.6 577.7 379.7 C 586.5 380.1 595.3 380.4 604.2 380.6 C 607.1 380.7 610.1 380.7 613.1 380.8 C 623.7 381.5 633.9 381.1 644.4 381.3 C 649.6 381.4 654.9 381.7 660.3 382.3 C 663.1 382.6 674.7 382.7 678.9 382.4 C 674.9 383.2 694.1 383.2 693.2 383.1 C 695.3 382.9 697.6 382.7 699.8 382.7 C 702.0 382.6 699.2 382.4 696.4 382.3 C 698.9 382.2 701.4 382.1 703.9 382.2 C 706.6 382.2 709.3 382.3 712.0 382.4 C 721.0 382.8 730.6 382.7 738.9 382.5 C 761.7 382.9 824.0 383.5 812.7 383.2 C 800.0 382.8 806.6 382.5 810.0 382.5 C 812.0 382.5 814.7 382.6 817.7 382.6 C 817.6 382.7 817.3 382.8 816.9 382.9 C 822.6 383.1 830.6 383.7 838.4 383.4 C 836.9 383.3 835.1 383.3 834.4 383.0 C 838.3 383.1 835.2 382.6 837.8 382.6 C 845.0 382.6 848.5 382.5 840.1 382.4 C 847.9 382.2 852.9 381.6 860.6 381.2 C 863.5 381.3 861.9 381.3 861.0 381.4 C 866.1 381.8 877.8 381.8 878.9 382.1 C 879.9 382.3 847.2 381.7 853.0 382.0 C 855.4 382.2 860.3 382.2 862.2 382.4 C 858.0 382.4 852.9 382.3 850.3 382.4 C 853.2 382.5 857.2 382.6 859.4 382.7 C 856.7 382.7 854.8 382.7 853.9 382.8 C 858.0 382.9 861.0 383.0 865.8 383.1 C 868.0 383.0 864.0 382.7 868.6 382.8 C 869.4 382.6 865.6 382.7 865.8 382.5 C 869.5 382.4 876.8 382.6 878.7 382.5 C 880.4 382.4 874.2 382.4 874.1 382.3 C 888.3 382.4 904.5 382.6 909.5 382.5 C 914.5 382.5 909.8 382.4 907.7 382.3 C 913.5 382.3 917.9 382.3 924.9 382.4 C 929.4 382.4 927.6 382.3 925.9 382.2 C 927.1 382.2 928.1 382.1 928.8 382.1 C 929.3 382.1 930.6 382.1 931.5 382.0 C 928.7 381.9 923.6 381.9 921.4 381.7 C 925.5 381.5 935.2 381.9 938.8 381.7 C 933.1 381.4 927.1 381.3 920.8 381.1 C 933.1 381.1 945.7 382.2 955.6 381.6 C 953.9 381.5 953.1 381.3 951.6 381.1 C 955.4 381.4 961.0 381.7 964.4 381.3 C 966.2 381.3 969.9 381.2 973.6 381.2 C 967.2 380.9 962.8 380.8 958.3 380.9 C 958.4 380.8 958.8 380.7 959.6 380.7 C 949.5 380.0 943.7 380.9 936.6 381.0 C 936.0 381.0 935.4 381.0 934.9 380.9 C 932.6 380.5 940.7 380.8 941.6 380.5 C 930.9 380.2 919.3 380.3 914.1 379.8 C 926.8 379.9 937.9 380.2 947.4 380.0 C 944.9 379.6 935.4 379.7 930.9 379.4 C 951.5 379.3 953.6 379.3 955.3 379.3 C 953.7 379.2 952.1 379.2 950.5 379.1 C 950.9 379.0 951.3 379.0 951.7 378.9 C 960.8 379.0 971.5 379.2 971.0 379.0 C 970.5 378.9 962.2 378.7 953.5 378.6 C 954.4 378.4 955.3 378.3 956.2 378.1 C 966.5 378.2 978.2 377.7 988.4 378.1 C 986.7 377.7 987.6 377.8 989.8 377.6 C 986.5 377.3 981.9 377.2 978.5 377.0 C 979.7 376.9 981.8 377.0 982.5 376.8 C 980.8 376.7 978.0 376.7 977.2 376.4 C 982.0 376.4 987.3 376.4 992.4 376.4 C 993.5 376.0 990.2 376.3 990.5 376.0 C 995.3 376.0 1002.1 376.3 1005.7 376.0 C 1001.6 375.6 993.6 375.7 991.1 375.5 C 992.7 375.4 994.3 375.3 996.0 375.2 C 999.3 375.3 1000.9 375.2 997.2 375.0 C 995.2 374.9 995.2 374.9 995.7 374.8 C 998.0 374.6 1005.9 374.8 1005.7 374.3 C 1003.7 374.2 995.8 374.1 993.8 373.7 C 995.3 373.4 999.4 373.6 999.8 373.3 C 991.0 373.3 991.3 373.1 989.1 373.4 C 990.1 373.4 992.6 373.4 992.5 373.6 C 987.1 373.5 981.7 373.4 976.1 373.3 C 976.1 373.3 976.1 373.3 976.1 373.3 C 976.1 373.3 976.1 373.3 976.1 373.3 C 976.1 373.3 976.1 373.3 976.1 373.3 C 976.6 373.1 976.5 372.7 976.0 372.5 C 978.3 372.5 980.8 372.5 985.2 372.6 C 984.0 372.1 980.0 372.1 976.2 372.2 C 976.3 372.1 976.3 372.0 976.3 371.9 C 982.4 372.1 991.6 372.0 997.8 371.8 C 995.0 371.7 984.6 371.5 977.5 371.5 C 977.7 371.4 977.9 371.3 978.2 371.2 C 969.3 371.2 958.8 370.6 948.8 370.6 C 953.6 370.0 959.3 370.7 965.5 370.6 C 968.4 370.6 971.0 370.4 973.8 370.3 C 981.7 370.5 1005.2 370.9 1007.9 370.7 C 1010.8 370.5 987.0 370.2 986.9 370.0 C 986.7 369.9 997.8 369.9 992.6 369.8 C 989.9 369.8 983.9 369.8 979.6 369.8 C 979.5 369.5 979.3 369.1 979.2 368.8 C 982.9 368.9 987.4 368.8 987.6 369.4 C 989.4 369.3 993.3 369.6 993.9 369.4 C 993.3 369.3 992.3 369.3 992.3 369.2 C 993.2 369.2 994.6 369.2 994.7 369.1 C 990.2 369.0 983.9 368.7 978.9 368.6 C 978.5 368.5 978.1 368.3 977.7 368.2 C 977.8 368.1 981.6 368.1 984.9 368.0 C 988.4 368.0 981.2 367.7 975.4 367.7 C 974.5 367.5 973.6 367.3 972.6 367.2 C 974.6 367.2 977.0 367.3 979.7 367.3 C 982.9 367.1 982.8 366.8 986.0 366.7 C 980.1 366.5 973.0 366.3 967.3 366.3 C 965.3 366.0 963.2 365.7 961.1 365.4 C 965.8 365.3 970.2 365.1 972.8 365.0 C 974.9 365.0 977.0 365.1 977.8 364.9 C 975.9 364.8 981.0 364.8 980.2 364.4 C 977.4 364.7 971.9 364.5 969.9 364.9 C 965.5 364.9 960.7 364.8 956.5 364.7 C 956.0 364.7 955.4 364.6 954.9 364.5 C 958.5 364.6 961.9 364.5 965.7 364.4 C 964.0 363.9 953.4 363.7 945.8 363.9 C 930.2 363.3 914.5 364.9 898.9 365.0 C 898.3 364.9 897.4 364.9 896.4 364.8 C 895.3 364.6 894.2 364.5 893.0 364.3 C 896.7 364.3 900.0 364.3 902.8 364.2 C 891.8 363.7 918.5 364.2 920.2 363.8 C 902.4 362.9 869.1 362.8 848.5 362.1 C 853.4 362.1 855.0 362.1 849.7 361.9 C 848.3 361.8 846.8 361.8 845.4 361.7 C 866.3 361.7 888.1 362.8 904.8 362.3 C 894.9 362.1 879.8 362.1 875.7 361.6 C 878.6 361.6 882.8 361.7 883.4 361.6 C 878.3 361.1 861.3 361.3 856.3 360.9 C 880.7 361.0 913.9 361.8 931.9 361.4 C 904.7 361.2 868.0 360.2 844.6 360.4 C 848.7 360.6 848.7 360.7 846.6 360.9 C 839.4 360.8 832.1 360.8 824.7 360.8 C 823.2 360.7 823.7 360.7 827.3 360.6 C 830.2 360.5 832.0 360.6 832.9 360.4 C 830.9 360.3 807.9 359.9 826.2 360.1 C 844.5 360.2 876.1 360.5 857.6 360.1 C 839.1 359.7 831.8 359.2 841.9 359.3 C 852.0 359.3 884.0 359.3 873.3 359.1 C 862.6 358.8 840.1 358.2 827.4 358.1 C 814.6 358.0 836.0 359.6 817.2 359.3 C 798.4 359.0 814.1 358.8 810.5 358.8 C 804.8 358.7 794.4 358.5 784.5 358.3 C 777.5 358.2 768.5 358.0 764.0 357.8 C 764.4 357.5 785.5 358.0 777.2 357.7 C 756.6 357.4 733.6 356.9 743.1 357.6 C 730.3 357.3 721.0 357.2 713.0 357.2 C 700.7 356.5 686.3 356.3 684.7 356.2 C 682.8 356.0 649.1 356.5 636.5 354.8 C 635.5 354.9 612.8 354.9 610.8 355.3 C 589.2 354.5 592.2 354.2 570.9 354.0 C 553.1 353.9 547.6 354.0 544.6 354.0 C 525.9 354.0 526.0 353.5 516.8 355.3 C 514.0 355.9 509.7 355.8 508.3 356.8 C 505.3 358.7 503.9 361.2 504.8 364.5 C 504.8 364.5 504.8 364.5 504.8 364.5 Z M 973.7 374.0 C 977.0 374.2 983.0 374.2 986.5 374.4 C 982.5 374.7 977.5 374.5 972.5 374.3 C 972.9 374.2 973.3 374.1 973.7 374.0 C 973.7 374.0 973.7 374.0 973.7 374.0 Z M 948.1 367.5 C 950.4 367.5 953.0 367.9 955.5 367.8 C 957.9 367.8 960.4 367.9 963.9 367.8 C 963.6 367.6 957.7 367.3 953.1 367.3 C 953.1 367.2 953.1 367.0 953.1 366.9 C 955.4 366.8 958.0 366.7 961.1 366.8 C 962.2 366.8 963.3 366.9 964.4 366.9 C 964.5 367.1 962.8 367.2 962.1 367.2 C 963.0 367.5 965.7 367.7 969.3 367.8 C 969.7 367.9 970.2 368.0 970.6 368.0 C 971.1 368.4 968.4 368.5 971.4 368.5 C 969.3 368.8 963.8 368.4 960.3 368.4 C 964.2 367.8 949.6 368.0 946.0 367.7 C 946.7 367.6 947.4 367.5 948.1 367.5 Z M 920.0 381.0 C 918.0 381.0 916.1 380.9 914.1 380.9 C 917.0 380.9 919.2 380.9 921.2 380.9 C 920.8 381.0 920.4 381.0 920.0 381.0 Z M 756.4 381.6 C 768.4 380.9 793.4 382.1 795.0 381.7 C 797.5 381.8 800.1 381.9 802.7 382.0 C 786.1 381.8 768.4 381.6 756.4 381.6 C 756.4 381.6 756.4 381.6 756.4 381.6 Z M 798.8 360.1 C 799.8 360.2 799.4 360.2 797.0 360.2 C 784.2 360.3 776.6 360.5 784.7 360.6 C 791.6 360.7 806.6 361.0 802.2 361.1 C 796.4 361.0 790.5 361.0 784.5 361.0 C 779.8 360.8 775.3 360.4 770.7 359.8 C 780.7 359.9 790.2 360.0 798.8 360.1 C 798.8 360.1 798.8 360.1 798.8 360.1 Z M 765.2 359.2 C 768.8 359.2 773.0 359.4 777.3 359.5 C 773.5 359.4 769.8 359.4 766.0 359.4 C 765.8 359.3 765.5 359.2 765.2 359.2 Z M 760.7 358.6 C 767.9 358.7 775.1 358.9 767.8 358.9 C 766.2 358.9 764.6 358.9 762.9 358.9 C 762.2 358.8 761.4 358.7 760.7 358.6 Z M 756.2 358.4 C 756.3 358.5 757.5 358.6 759.9 358.7 C 755.0 358.6 745.2 358.6 745.7 358.3 C 748.9 358.3 752.5 358.3 756.2 358.4 C 756.2 358.4 756.2 358.4 756.2 358.4 Z M 748.5 382.1 C 751.7 382.2 754.5 382.3 749.4 382.3 C 747.5 382.3 745.6 382.3 743.6 382.3 C 745.2 382.2 746.9 382.1 748.5 382.1 Z M 915.5 362.0 C 914.2 362.1 909.0 362.0 906.0 362.0 C 905.7 363.1 917.4 362.5 915.5 362.0 C 915.5 362.0 915.5 362.0 915.5 362.0 Z M 934.9 361.9 C 933.6 361.9 928.4 361.8 925.4 361.9 C 925.1 362.9 936.9 362.4 934.9 361.9 C 934.9 361.9 934.9 361.9 934.9 361.9 Z M 636.4 354.8 C 636.4 354.8 636.4 354.8 636.5 354.8 C 636.4 354.8 636.4 354.8 636.4 354.8 C 636.4 354.8 636.4 354.8 636.4 354.8 Z M 636.4 354.8 " fill="#1BFFE6"></path><text xml:space="preserve" font-family="CircularStd-Bold" font-weight="bold" font-size="108.0" fill="#333333" transform="matrix(1.00, 0.00, -0.00, -1.00, 63.0, 461.0)">G</text><text xml:space="preserve" font-family="CircularStd-Bold" font-weight="bold" font-size="108.0" fill="#333333" transform="matrix(1.00, 0.00, -0.00, -1.00, 147.3, 461.0)">e</text><text xml:space="preserve" font-family="CircularStd-Bold" font-weight="bold" font-size="108.0" fill="#333333" transform="matrix(1.00, 0.00, -0.00, -1.00, 207.1, 461.0)">t</text><text xml:space="preserve" font-family="CircularStd-Bold" font-weight="bold" font-size="108.0" fill="#333333" transform="matrix(1.00, 0.00, -0.00, -1.00, 247.4, 461.0)">t</text><text xml:space="preserve" font-family="CircularStd-Bold" font-weight="bold" font-size="108.0" fill="#333333" transform="matrix(1.00, 0.00, -0.00, -1.00, 288.0, 461.0)">i</text><text xml:space="preserve" font-family="CircularStd-Bold" font-weight="bold" font-size="108.0" fill="#333333" transform="matrix(1.00, 0.00, -0.00, -1.00, 317.7, 461.0)">n</text><text xml:space="preserve" font-family="CircularStd-Bold" font-weight="bold" font-size="108.0" fill="#333333" transform="matrix(1.00, 0.00, -0.00, -1.00, 380.7, 461.0)">g</text><text xml:space="preserve" font-family="CircularStd-Bold" font-weight="bold" font-size="108.0" fill="#333333" transform="matrix(1.00, 0.00, -0.00, -1.00, 445.2, 461.0)"> </text><text xml:space="preserve" font-family="CircularStd-Bold" font-weight="bold" font-size="108.0" fill="#333333" transform="matrix(1.00, 0.00, -0.00, -1.00, 63.0, 338.0)">S</text><text xml:space="preserve" font-family="CircularStd-Bold" font-weight="bold" font-size="108.0" fill="#333333" transform="matrix(1.00, 0.00, -0.00, -1.00, 128.8, 338.0)">t</text><text xml:space="preserve" font-family="CircularStd-Bold" font-weight="bold" font-size="108.0" fill="#333333" transform="matrix(1.00, 0.00, -0.00, -1.00, 169.7, 338.0)">a</text><text xml:space="preserve" font-family="CircularStd-Bold" font-weight="bold" font-size="108.0" fill="#333333" transform="matrix(1.00, 0.00, -0.00, -1.00, 227.9, 338.0)">r</text><text xml:space="preserve" font-family="CircularStd-Bold" font-weight="bold" font-size="108.0" fill="#333333" transform="matrix(1.00, 0.00, -0.00, -1.00, 272.5, 338.0)">t</text><text xml:space="preserve" font-family="CircularStd-Bold" font-weight="bold" font-size="108.0" fill="#333333" transform="matrix(1.00, 0.00, -0.00, -1.00, 312.6, 338.0)">e</text><text xml:space="preserve" font-family="CircularStd-Bold" font-weight="bold" font-size="108.0" fill="#333333" transform="matrix(1.00, 0.00, -0.00, -1.00, 372.3, 338.0)">d</text><text xml:space="preserve" font-family="CircularStd-Book" font-size="18.0" fill="#52575F" transform="matrix(1.00, 0.00, -0.00, -1.00, 107.0, 675.0)">M</text><text xml:space="preserve" font-family="CircularStd-Book" font-size="18.0" fill="#52575F" transform="matrix(1.00, 0.00, -0.00, -1.00, 124.0, 675.0)">i</text><text xml:space="preserve" font-family="CircularStd-Book" font-size="18.0" fill="#52575F" transform="matrix(1.00, 0.00, -0.00, -1.00, 128.6, 675.0)">c</text><text xml:space="preserve" font-family="CircularStd-Book" font-size="18.0" fill="#52575F" transform="matrix(1.00, 0.00, -0.00, -1.00, 138.1, 675.0)">h</text><text xml:space="preserve" font-family="CircularStd-Book" font-size="18.0" fill="#52575F" transform="matrix(1.00, 0.00, -0.00, -1.00, 148.2, 675.0)">a</text><text xml:space="preserve" font-family="CircularStd-Book" font-size="18.0" fill="#52575F" transform="matrix(1.00, 0.00, -0.00, -1.00, 157.7, 675.0)">e</text><text xml:space="preserve" font-family="CircularStd-Book" font-size="18.0" fill="#52575F" transform="matrix(1.00, 0.00, -0.00, -1.00, 167.4, 675.0)">l</text><text xml:space="preserve" font-family="CircularStd-Book" font-size="18.0" fill="#52575F" transform="matrix(1.00, 0.00, -0.00, -1.00, 172.0, 675.0)"> </text><text xml:space="preserve" font-family="CircularStd-Book" font-size="18.0" fill="#52575F" transform="matrix(1.00, 0.00, -0.00, -1.00, 176.5, 675.0)">S</text><text xml:space="preserve" font-family="CircularStd-Book" font-size="18.0" fill="#52575F" transform="matrix(1.00, 0.00, -0.00, -1.00, 186.7, 675.0)">u</text><text xml:space="preserve" font-family="CircularStd-Book" font-size="18.0" fill="#52575F" transform="matrix(1.00, 0.00, -0.00, -1.00, 196.8, 675.0)">e</text><text xml:space="preserve" font-family="CircularStd-Book" font-size="18.0" fill="#52575F" transform="matrix(1.00, 0.00, -0.00, -1.00, 206.6, 675.0)">n</text><image xlink:href="93D2A96739FFD88A3F4D5D3647EA3BF6.png" width="36.00" height="40.00" transform="matrix(1.00, 0.00, -0.00, -1.00, 64.0, 704.0)"></image><text xml:space="preserve" font-family="CircularStd-Bold" font-weight="bold" font-size="50.6" fill="#333333" transform="matrix(1.00, 0.00, -0.00, -1.00, 517.0, 481.0)">I</text><text xml:space="preserve" font-family="CircularStd-Bold" font-weight="bold" font-size="50.6" fill="#333333" transform="matrix(1.00, 0.00, -0.00, -1.00, 532.3, 481.0)"> </text><text xml:space="preserve" font-family="CircularStd-Bold" font-weight="bold" font-size="50.6" fill="#333333" transform="matrix(1.00, 0.00, -0.00, -1.00, 544.8, 481.0)">h</text><text xml:space="preserve" font-family="CircularStd-Bold" font-weight="bold" font-size="50.6" fill="#333333" transform="matrix(1.00, 0.00, -0.00, -1.00, 574.3, 481.0)">e</text><text xml:space="preserve" font-family="CircularStd-Bold" font-weight="bold" font-size="50.6" fill="#333333" transform="matrix(1.00, 0.00, -0.00, -1.00, 602.2, 481.0)">l</text><text xml:space="preserve" font-family="CircularStd-Bold" font-weight="bold" font-size="50.6" fill="#333333" transform="matrix(1.00, 0.00, -0.00, -1.00, 616.1, 481.0)">p</text><text xml:space="preserve" font-family="CircularStd-Bold" font-weight="bold" font-size="50.6" fill="#333333" transform="matrix(1.00, 0.00, -0.00, -1.00, 647.1, 481.0)"> </text><text xml:space="preserve" font-family="CircularStd-Bold" font-weight="bold" font-size="50.6" fill="#333333" transform="matrix(1.00, 0.00, -0.00, -1.00, 659.6, 481.0)">c</text><text xml:space="preserve" font-family="CircularStd-Bold" font-weight="bold" font-size="50.6" fill="#333333" transform="matrix(1.00, 0.00, -0.00, -1.00, 687.4, 481.0)">r</text><text xml:space="preserve" font-family="CircularStd-Bold" font-weight="bold" font-size="50.6" fill="#333333" transform="matrix(1.00, 0.00, -0.00, -1.00, 707.1, 481.0)">e</text><text xml:space="preserve" font-family="CircularStd-Bold" font-weight="bold" font-size="50.6" fill="#333333" transform="matrix(1.00, 0.00, -0.00, -1.00, 735.0, 481.0)">a</text><text xml:space="preserve" font-family="CircularStd-Bold" font-weight="bold" font-size="50.6" fill="#333333" transform="matrix(1.00, 0.00, -0.00, -1.00, 762.1, 481.0)">t</text><text xml:space="preserve" font-family="CircularStd-Bold" font-weight="bold" font-size="50.6" fill="#333333" transform="matrix(1.00, 0.00, -0.00, -1.00, 781.1, 481.0)">i</text><text xml:space="preserve" font-family="CircularStd-Bold" font-weight="bold" font-size="50.6" fill="#333333" transform="matrix(1.00, 0.00, -0.00, -1.00, 795.0, 481.0)">v</text><text xml:space="preserve" font-family="CircularStd-Bold" font-weight="bold" font-size="50.6" fill="#333333" transform="matrix(1.00, 0.00, -0.00, -1.00, 821.8, 481.0)">e</text><text xml:space="preserve" font-family="CircularStd-Bold" font-weight="bold" font-size="50.6" fill="#333333" transform="matrix(1.00, 0.00, -0.00, -1.00, 849.8, 481.0)"> </text><text xml:space="preserve" font-family="CircularStd-Bold" font-weight="bold" font-size="50.6" fill="#333333" transform="matrix(1.00, 0.00, -0.00, -1.00, 517.0, 417.0)">c</text><text xml:space="preserve" font-family="CircularStd-Bold" font-weight="bold" font-size="50.6" fill="#333333" transform="matrix(1.00, 0.00, -0.00, -1.00, 544.8, 417.0)">l</text><text xml:space="preserve" font-family="CircularStd-Bold" font-weight="bold" font-size="50.6" fill="#333333" transform="matrix(1.00, 0.00, -0.00, -1.00, 558.7, 417.0)">i</text><text xml:space="preserve" font-family="CircularStd-Bold" font-weight="bold" font-size="50.6" fill="#333333" transform="matrix(1.00, 0.00, -0.00, -1.00, 572.6, 417.0)">e</text><text xml:space="preserve" font-family="CircularStd-Bold" font-weight="bold" font-size="50.6" fill="#333333" transform="matrix(1.00, 0.00, -0.00, -1.00, 600.6, 417.0)">n</text><text xml:space="preserve" font-family="CircularStd-Bold" font-weight="bold" font-size="50.6" fill="#333333" transform="matrix(1.00, 0.00, -0.00, -1.00, 630.1, 417.0)">t</text><text xml:space="preserve" font-family="CircularStd-Bold" font-weight="bold" font-size="50.6" fill="#333333" transform="matrix(1.00, 0.00, -0.00, -1.00, 649.7, 417.0)">s</text><text xml:space="preserve" font-family="CircularStd-Bold" font-weight="bold" font-size="50.6" fill="#333333" transform="matrix(1.00, 0.00, -0.00, -1.00, 673.0, 417.0)"> </text><text xml:space="preserve" font-family="CircularStd-Bold" font-weight="bold" font-size="50.6" fill="#333333" transform="matrix(1.00, 0.00, -0.00, -1.00, 685.5, 417.0)">d</text><text xml:space="preserve" font-family="CircularStd-Bold" font-weight="bold" font-size="50.6" fill="#333333" transform="matrix(1.00, 0.00, -0.00, -1.00, 716.5, 417.0)">e</text><text xml:space="preserve" font-family="CircularStd-Bold" font-weight="bold" font-size="50.6" fill="#333333" transform="matrix(1.00, 0.00, -0.00, -1.00, 744.4, 417.0)">s</text><text xml:space="preserve" font-family="CircularStd-Bold" font-weight="bold" font-size="50.6" fill="#333333" transform="matrix(1.00, 0.00, -0.00, -1.00, 767.7, 417.0)">i</text><text xml:space="preserve" font-family="CircularStd-Bold" font-weight="bold" font-size="50.6" fill="#333333" transform="matrix(1.00, 0.00, -0.00, -1.00, 781.6, 417.0)">g</text><text xml:space="preserve" font-family="CircularStd-Bold" font-weight="bold" font-size="50.6" fill="#333333" transform="matrix(1.00, 0.00, -0.00, -1.00, 811.8, 417.0)">n</text><text xml:space="preserve" font-family="CircularStd-Bold" font-weight="bold" font-size="50.6" fill="#333333" transform="matrix(1.00, 0.00, -0.00, -1.00, 841.3, 417.0)"> </text><text xml:space="preserve" font-family="CircularStd-Bold" font-weight="bold" font-size="50.6" fill="#333333" transform="matrix(1.00, 0.00, -0.00, -1.00, 517.0, 353.0)">m</text><text xml:space="preserve" font-family="CircularStd-Bold" font-weight="bold" font-size="50.6" fill="#333333" transform="matrix(1.00, 0.00, -0.00, -1.00, 561.8, 353.0)">e</text><text xml:space="preserve" font-family="CircularStd-Bold" font-weight="bold" font-size="50.6" fill="#333333" transform="matrix(1.00, 0.00, -0.00, -1.00, 589.8, 353.0)">m</text><text xml:space="preserve" font-family="CircularStd-Bold" font-weight="bold" font-size="50.6" fill="#333333" transform="matrix(1.00, 0.00, -0.00, -1.00, 634.6, 353.0)">o</text><text xml:space="preserve" font-family="CircularStd-Bold" font-weight="bold" font-size="50.6" fill="#333333" transform="matrix(1.00, 0.00, -0.00, -1.00, 664.1, 353.0)">r</text><text xml:space="preserve" font-family="CircularStd-Bold" font-weight="bold" font-size="50.6" fill="#333333" transform="matrix(1.00, 0.00, -0.00, -1.00, 684.2, 353.0)">a</text><text xml:space="preserve" font-family="CircularStd-Bold" font-weight="bold" font-size="50.6" fill="#333333" transform="matrix(1.00, 0.00, -0.00, -1.00, 711.4, 353.0)">b</text><text xml:space="preserve" font-family="CircularStd-Bold" font-weight="bold" font-size="50.6" fill="#333333" transform="matrix(1.00, 0.00, -0.00, -1.00, 742.3, 353.0)">l</text><text xml:space="preserve" font-family="CircularStd-Bold" font-weight="bold" font-size="50.6" fill="#333333" transform="matrix(1.00, 0.00, -0.00, -1.00, 756.2, 353.0)">e</text><text xml:space="preserve" font-family="CircularStd-Bold" font-weight="bold" font-size="50.6" fill="#333333" transform="matrix(1.00, 0.00, -0.00, -1.00, 784.2, 353.0)"> </text><text xml:space="preserve" font-family="CircularStd-Bold" font-weight="bold" font-size="50.6" fill="#333333" transform="matrix(1.00, 0.00, -0.00, -1.00, 796.7, 353.0)">b</text><text xml:space="preserve" font-family="CircularStd-Bold" font-weight="bold" font-size="50.6" fill="#333333" transform="matrix(1.00, 0.00, -0.00, -1.00, 827.6, 353.0)">r</text><text xml:space="preserve" font-family="CircularStd-Bold" font-weight="bold" font-size="50.6" fill="#333333" transform="matrix(1.00, 0.00, -0.00, -1.00, 847.7, 353.0)">a</text><text xml:space="preserve" font-family="CircularStd-Bold" font-weight="bold" font-size="50.6" fill="#333333" transform="matrix(1.00, 0.00, -0.00, -1.00, 875.0, 353.0)">n</text><text xml:space="preserve" font-family="CircularStd-Bold" font-weight="bold" font-size="50.6" fill="#333333" transform="matrix(1.00, 0.00, -0.00, -1.00, 904.5, 353.0)">d</text><text xml:space="preserve" font-family="CircularStd-Bold" font-weight="bold" font-size="50.6" fill="#333333" transform="matrix(1.00, 0.00, -0.00, -1.00, 935.5, 353.0)">s</text><text xml:space="preserve" font-family="CircularStd-Bold" font-weight="bold" font-size="50.6" fill="#333333" transform="matrix(1.00, 0.00, -0.00, -1.00, 958.8, 353.0)"> </text><text xml:space="preserve" font-family="CircularStd-Bold" font-weight="bold" font-size="50.6" fill="#333333" transform="matrix(1.00, 0.00, -0.00, -1.00, 517.0, 289.0)">&amp;</text><text xml:space="preserve" font-family="CircularStd-Bold" font-weight="bold" font-size="50.6" fill="#333333" transform="matrix(1.00, 0.00, -0.00, -1.00, 551.2, 289.0)"> </text><text xml:space="preserve" font-family="CircularStd-Bold" font-weight="bold" font-size="50.6" fill="#333333" transform="matrix(1.00, 0.00, -0.00, -1.00, 563.7, 289.0)">d</text><text xml:space="preserve" font-family="CircularStd-Bold" font-weight="bold" font-size="50.6" fill="#333333" transform="matrix(1.00, 0.00, -0.00, -1.00, 594.7, 289.0)">i</text><text xml:space="preserve" font-family="CircularStd-Bold" font-weight="bold" font-size="50.6" fill="#333333" transform="matrix(1.00, 0.00, -0.00, -1.00, 608.6, 289.0)">g</text><text xml:space="preserve" font-family="CircularStd-Bold" font-weight="bold" font-size="50.6" fill="#333333" transform="matrix(1.00, 0.00, -0.00, -1.00, 638.8, 289.0)">i</text><text xml:space="preserve" font-family="CircularStd-Bold" font-weight="bold" font-size="50.6" fill="#333333" transform="matrix(1.00, 0.00, -0.00, -1.00, 652.7, 289.0)">t</text><text xml:space="preserve" font-family="CircularStd-Bold" font-weight="bold" font-size="50.6" fill="#333333" transform="matrix(1.00, 0.00, -0.00, -1.00, 671.9, 289.0)">a</text><text xml:space="preserve" font-family="CircularStd-Bold" font-weight="bold" font-size="50.6" fill="#333333" transform="matrix(1.00, 0.00, -0.00, -1.00, 699.1, 289.0)">l</text><text xml:space="preserve" font-family="CircularStd-Bold" font-weight="bold" font-size="50.6" fill="#333333" transform="matrix(1.00, 0.00, -0.00, -1.00, 713.0, 289.0)"> </text><text xml:space="preserve" font-family="CircularStd-Bold" font-weight="bold" font-size="50.6" fill="#333333" transform="matrix(1.00, 0.00, -0.00, -1.00, 725.5, 289.0)">p</text><text xml:space="preserve" font-family="CircularStd-Bold" font-weight="bold" font-size="50.6" fill="#333333" transform="matrix(1.00, 0.00, -0.00, -1.00, 756.5, 289.0)">r</text><text xml:space="preserve" font-family="CircularStd-Bold" font-weight="bold" font-size="50.6" fill="#333333" transform="matrix(1.00, 0.00, -0.00, -1.00, 776.1, 289.0)">o</text><text xml:space="preserve" font-family="CircularStd-Bold" font-weight="bold" font-size="50.6" fill="#333333" transform="matrix(1.00, 0.00, -0.00, -1.00, 805.6, 289.0)">d</text><text xml:space="preserve" font-family="CircularStd-Bold" font-weight="bold" font-size="50.6" fill="#333333" transform="matrix(1.00, 0.00, -0.00, -1.00, 836.5, 289.0)">u</text><text xml:space="preserve" font-family="CircularStd-Bold" font-weight="bold" font-size="50.6" fill="#333333" transform="matrix(1.00, 0.00, -0.00, -1.00, 866.1, 289.0)">c</text><text xml:space="preserve" font-family="CircularStd-Bold" font-weight="bold" font-size="50.6" fill="#333333" transform="matrix(1.00, 0.00, -0.00, -1.00, 893.9, 289.0)">t</text><text xml:space="preserve" font-family="CircularStd-Bold" font-weight="bold" font-size="50.6" fill="#333333" transform="matrix(1.00, 0.00, -0.00, -1.00, 913.4, 289.0)">s</text><text xml:space="preserve" font-family="CircularStd-Bold" font-weight="bold" font-size="50.6" fill="#333333" transform="matrix(1.00, 0.00, -0.00, -1.00, 936.7, 289.0)"> </text><text xml:space="preserve" font-family="CircularStd-Bold" font-weight="bold" font-size="50.6" fill="#333333" transform="matrix(1.00, 0.00, -0.00, -1.00, 517.0, 225.0)">t</text><text xml:space="preserve" font-family="CircularStd-Bold" font-weight="bold" font-size="50.6" fill="#333333" transform="matrix(1.00, 0.00, -0.00, -1.00, 534.8, 225.0)">h</text><text xml:space="preserve" font-family="CircularStd-Bold" font-weight="bold" font-size="50.6" fill="#333333" transform="matrix(1.00, 0.00, -0.00, -1.00, 564.3, 225.0)">e</text><text xml:space="preserve" font-family="CircularStd-Bold" font-weight="bold" font-size="50.6" fill="#333333" transform="matrix(1.00, 0.00, -0.00, -1.00, 592.3, 225.0)">i</text><text xml:space="preserve" font-family="CircularStd-Bold" font-weight="bold" font-size="50.6" fill="#333333" transform="matrix(1.00, 0.00, -0.00, -1.00, 606.2, 225.0)">r</text><text xml:space="preserve" font-family="CircularStd-Bold" font-weight="bold" font-size="50.6" fill="#333333" transform="matrix(1.00, 0.00, -0.00, -1.00, 626.0, 225.0)"> </text><text xml:space="preserve" font-family="CircularStd-Bold" font-weight="bold" font-size="50.6" fill="#333333" transform="matrix(1.00, 0.00, -0.00, -1.00, 638.4, 225.0)">t</text><text xml:space="preserve" font-family="CircularStd-Bold" font-weight="bold" font-size="50.6" fill="#333333" transform="matrix(1.00, 0.00, -0.00, -1.00, 657.1, 225.0)">r</text><text xml:space="preserve" font-family="CircularStd-Bold" font-weight="bold" font-size="50.6" fill="#333333" transform="matrix(1.00, 0.00, -0.00, -1.00, 677.0, 225.0)">i</text><text xml:space="preserve" font-family="CircularStd-Bold" font-weight="bold" font-size="50.6" fill="#333333" transform="matrix(1.00, 0.00, -0.00, -1.00, 690.9, 225.0)">b</text><text xml:space="preserve" font-family="CircularStd-Bold" font-weight="bold" font-size="50.6" fill="#333333" transform="matrix(1.00, 0.00, -0.00, -1.00, 721.9, 225.0)">e</text><text xml:space="preserve" font-family="CircularStd-Bold" font-weight="bold" font-size="50.6" fill="#333333" transform="matrix(1.00, 0.00, -0.00, -1.00, 749.8, 225.0)"> </text><text xml:space="preserve" font-family="CircularStd-Bold" font-weight="bold" font-size="50.6" fill="#333333" transform="matrix(1.00, 0.00, -0.00, -1.00, 762.3, 225.0)">w</text><text xml:space="preserve" font-family="CircularStd-Bold" font-weight="bold" font-size="50.6" fill="#333333" transform="matrix(1.00, 0.00, -0.00, -1.00, 804.3, 225.0)">i</text><text xml:space="preserve" font-family="CircularStd-Bold" font-weight="bold" font-size="50.6" fill="#333333" transform="matrix(1.00, 0.00, -0.00, -1.00, 818.2, 225.0)">l</text><text xml:space="preserve" font-family="CircularStd-Bold" font-weight="bold" font-size="50.6" fill="#333333" transform="matrix(1.00, 0.00, -0.00, -1.00, 832.1, 225.0)">l</text><text xml:space="preserve" font-family="CircularStd-Bold" font-weight="bold" font-size="50.6" fill="#DCDDE0" transform="matrix(1.00, 0.00, -0.00, -1.00, 846.0, 225.0)"> </text><text xml:space="preserve" font-family="ZapfDingbatsITC" font-size="50.6" fill="#FF3B30" transform="matrix(1.00, 0.00, -0.00, -1.00, 858.5, 225.0)">❤</text><text xml:space="preserve" font-family="CircularStd-Book" font-size="18.0" fill="#A6AAA8" transform="matrix(1.00, 0.00, -0.00, -1.00, 766.1, 677.6)">P</text><text xml:space="preserve" font-family="CircularStd-Book" font-size="18.0" fill="#A6AAA8" transform="matrix(1.00, 0.00, -0.00, -1.00, 776.7, 677.6)">l</text><text xml:space="preserve" font-family="CircularStd-Book" font-size="18.0" fill="#A6AAA8" transform="matrix(1.00, 0.00, -0.00, -1.00, 781.3, 677.6)">e</text><text xml:space="preserve" font-family="CircularStd-Book" font-size="18.0" fill="#A6AAA8" transform="matrix(1.00, 0.00, -0.00, -1.00, 791.0, 677.6)">a</text><text xml:space="preserve" font-family="CircularStd-Book" font-size="18.0" fill="#A6AAA8" transform="matrix(1.00, 0.00, -0.00, -1.00, 800.4, 677.6)">s</text><text xml:space="preserve" font-family="CircularStd-Book" font-size="18.0" fill="#A6AAA8" transform="matrix(1.00, 0.00, -0.00, -1.00, 808.5, 677.6)">e</text><text xml:space="preserve" font-family="CircularStd-Book" font-size="18.0" fill="#A6AAA8" transform="matrix(1.00, 0.00, -0.00, -1.00, 818.2, 677.6)"> </text><text xml:space="preserve" font-family="CircularStd-Book" font-size="18.0" fill="#A6AAA8" transform="matrix(1.00, 0.00, -0.00, -1.00, 822.7, 677.6)">d</text><text xml:space="preserve" font-family="CircularStd-Book" font-size="18.0" fill="#A6AAA8" transform="matrix(1.00, 0.00, -0.00, -1.00, 833.3, 677.6)">o</text><text xml:space="preserve" font-family="CircularStd-Book" font-size="18.0" fill="#A6AAA8" transform="matrix(1.00, 0.00, -0.00, -1.00, 843.6, 677.6)"> </text><text xml:space="preserve" font-family="CircularStd-Book" font-size="18.0" fill="#A6AAA8" transform="matrix(1.00, 0.00, -0.00, -1.00, 848.1, 677.6)">n</text><text xml:space="preserve" font-family="CircularStd-Book" font-size="18.0" fill="#A6AAA8" transform="matrix(1.00, 0.00, -0.00, -1.00, 858.2, 677.6)">o</text><text xml:space="preserve" font-family="CircularStd-Book" font-size="18.0" fill="#A6AAA8" transform="matrix(1.00, 0.00, -0.00, -1.00, 868.4, 677.6)">t</text><text xml:space="preserve" font-family="CircularStd-Book" font-size="18.0" fill="#A6AAA8" transform="matrix(1.00, 0.00, -0.00, -1.00, 874.8, 677.6)"> </text><text xml:space="preserve" font-family="CircularStd-Book" font-size="18.0" fill="#A6AAA8" transform="matrix(1.00, 0.00, -0.00, -1.00, 879.3, 677.6)">d</text><text xml:space="preserve" font-family="CircularStd-Book" font-size="18.0" fill="#A6AAA8" transform="matrix(1.00, 0.00, -0.00, -1.00, 889.9, 677.6)">i</text><text xml:space="preserve" font-family="CircularStd-Book" font-size="18.0" fill="#A6AAA8" transform="matrix(1.00, 0.00, -0.00, -1.00, 894.5, 677.6)">s</text><text xml:space="preserve" font-family="CircularStd-Book" font-size="18.0" fill="#A6AAA8" transform="matrix(1.00, 0.00, -0.00, -1.00, 902.6, 677.6)">t</text><text xml:space="preserve" font-family="CircularStd-Book" font-size="18.0" fill="#A6AAA8" transform="matrix(1.00, 0.00, -0.00, -1.00, 908.8, 677.6)">r</text><text xml:space="preserve" font-family="CircularStd-Book" font-size="18.0" fill="#A6AAA8" transform="matrix(1.00, 0.00, -0.00, -1.00, 915.4, 677.6)">i</text><text xml:space="preserve" font-family="CircularStd-Book" font-size="18.0" fill="#A6AAA8" transform="matrix(1.00, 0.00, -0.00, -1.00, 920.0, 677.6)">b</text><text xml:space="preserve" font-family="CircularStd-Book" font-size="18.0" fill="#A6AAA8" transform="matrix(1.00, 0.00, -0.00, -1.00, 930.5, 677.6)">u</text><text xml:space="preserve" font-family="CircularStd-Book" font-size="18.0" fill="#A6AAA8" transform="matrix(1.00, 0.00, -0.00, -1.00, 940.7, 677.6)">t</text><text xml:space="preserve" font-family="CircularStd-Book" font-size="18.0" fill="#A6AAA8" transform="matrix(1.00, 0.00, -0.00, -1.00, 947.0, 677.6)">e</text><text xml:space="preserve" font-family="CircularStd-Book" font-size="18.0" fill="#A6AAA8" transform="matrix(1.00, 0.00, -0.00, -1.00, 956.5, 677.6)">.</text></g></svg>