<?xml version="1.0" encoding="UTF-8" standalone="no"?><svg xmlns="http://www.w3.org/2000/svg" xmlns:xlink="http://www.w3.org/1999/xlink" clip-rule="evenodd" stroke-miterlimit="4.00" viewBox="0 0 459 69"><desc>SVG generated by Keynote</desc><defs></defs><g transform="matrix(1.00, 0.00, -0.00, -1.00, 0.0, 69.0)"><text xml:space="preserve" font-family="CircularStd-Book" font-size="14.0" fill="#52575F" transform="matrix(1.00, 0.00, -0.00, -1.00, 2.0, 57.0)">B</text><text xml:space="preserve" font-family="CircularStd-Book" font-size="14.0" fill="#52575F" transform="matrix(1.00, 0.00, -0.00, -1.00, 10.1, 57.0)">u</text><text xml:space="preserve" font-family="CircularStd-Book" font-size="14.0" fill="#52575F" transform="matrix(1.00, 0.00, -0.00, -1.00, 18.1, 57.0)">i</text><text xml:space="preserve" font-family="CircularStd-Book" font-size="14.0" fill="#52575F" transform="matrix(1.00, 0.00, -0.00, -1.00, 21.6, 57.0)">l</text><text xml:space="preserve" font-family="CircularStd-Book" font-size="14.0" fill="#52575F" transform="matrix(1.00, 0.00, -0.00, -1.00, 25.2, 57.0)">t</text><text xml:space="preserve" font-family="CircularStd-Book" font-size="14.0" fill="#52575F" transform="matrix(1.00, 0.00, -0.00, -1.00, 30.1, 57.0)"> </text><text xml:space="preserve" font-family="CircularStd-Book" font-size="14.0" fill="#52575F" transform="matrix(1.00, 0.00, -0.00, -1.00, 33.6, 57.0)">a</text><text xml:space="preserve" font-family="CircularStd-Book" font-size="14.0" fill="#52575F" transform="matrix(1.00, 0.00, -0.00, -1.00, 41.0, 57.0)">n</text><text xml:space="preserve" font-family="CircularStd-Book" font-size="14.0" fill="#52575F" transform="matrix(1.00, 0.00, -0.00, -1.00, 48.8, 57.0)">d</text><text xml:space="preserve" font-family="CircularStd-Book" font-size="14.0" fill="#52575F" transform="matrix(1.00, 0.00, -0.00, -1.00, 57.1, 57.0)"> </text><text xml:space="preserve" font-family="CircularStd-Book" font-size="14.0" fill="#52575F" transform="matrix(1.00, 0.00, -0.00, -1.00, 60.6, 57.0)">m</text><text xml:space="preserve" font-family="CircularStd-Book" font-size="14.0" fill="#52575F" transform="matrix(1.00, 0.00, -0.00, -1.00, 72.6, 57.0)">a</text><text xml:space="preserve" font-family="CircularStd-Book" font-size="14.0" fill="#52575F" transform="matrix(1.00, 0.00, -0.00, -1.00, 79.9, 57.0)">n</text><text xml:space="preserve" font-family="CircularStd-Book" font-size="14.0" fill="#52575F" transform="matrix(1.00, 0.00, -0.00, -1.00, 87.8, 57.0)">a</text><text xml:space="preserve" font-family="CircularStd-Book" font-size="14.0" fill="#52575F" transform="matrix(1.00, 0.00, -0.00, -1.00, 95.1, 57.0)">g</text><text xml:space="preserve" font-family="CircularStd-Book" font-size="14.0" fill="#52575F" transform="matrix(1.00, 0.00, -0.00, -1.00, 103.2, 57.0)">e</text><text xml:space="preserve" font-family="CircularStd-Book" font-size="14.0" fill="#52575F" transform="matrix(1.00, 0.00, -0.00, -1.00, 110.8, 57.0)">d</text><text xml:space="preserve" font-family="CircularStd-Book" font-size="14.0" fill="#52575F" transform="matrix(1.00, 0.00, -0.00, -1.00, 119.0, 57.0)"> </text><text xml:space="preserve" font-family="CircularStd-Book" font-size="14.0" fill="#52575F" transform="matrix(1.00, 0.00, -0.00, -1.00, 122.5, 57.0)">w</text><text xml:space="preserve" font-family="CircularStd-Book" font-size="14.0" fill="#52575F" transform="matrix(1.00, 0.00, -0.00, -1.00, 133.4, 57.0)">e</text><text xml:space="preserve" font-family="CircularStd-Book" font-size="14.0" fill="#52575F" transform="matrix(1.00, 0.00, -0.00, -1.00, 141.0, 57.0)">b</text><text xml:space="preserve" font-family="CircularStd-Book" font-size="14.0" fill="#52575F" transform="matrix(1.00, 0.00, -0.00, -1.00, 149.3, 57.0)">s</text><text xml:space="preserve" font-family="CircularStd-Book" font-size="14.0" fill="#52575F" transform="matrix(1.00, 0.00, -0.00, -1.00, 155.7, 57.0)">i</text><text xml:space="preserve" font-family="CircularStd-Book" font-size="14.0" fill="#52575F" transform="matrix(1.00, 0.00, -0.00, -1.00, 159.2, 57.0)">t</text><text xml:space="preserve" font-family="CircularStd-Book" font-size="14.0" fill="#52575F" transform="matrix(1.00, 0.00, -0.00, -1.00, 164.1, 57.0)">e</text><text xml:space="preserve" font-family="CircularStd-Book" font-size="14.0" fill="#52575F" transform="matrix(1.00, 0.00, -0.00, -1.00, 171.7, 57.0)">s</text><text xml:space="preserve" font-family="CircularStd-Book" font-size="14.0" fill="#52575F" transform="matrix(1.00, 0.00, -0.00, -1.00, 178.0, 57.0)"> </text><text xml:space="preserve" font-family="CircularStd-Book" font-size="14.0" fill="#52575F" transform="matrix(1.00, 0.00, -0.00, -1.00, 181.5, 57.0)">a</text><text xml:space="preserve" font-family="CircularStd-Book" font-size="14.0" fill="#52575F" transform="matrix(1.00, 0.00, -0.00, -1.00, 188.8, 57.0)">n</text><text xml:space="preserve" font-family="CircularStd-Book" font-size="14.0" fill="#52575F" transform="matrix(1.00, 0.00, -0.00, -1.00, 196.7, 57.0)">d</text><text xml:space="preserve" font-family="CircularStd-Book" font-size="14.0" fill="#52575F" transform="matrix(1.00, 0.00, -0.00, -1.00, 204.9, 57.0)"> </text><text xml:space="preserve" font-family="CircularStd-Book" font-size="14.0" fill="#52575F" transform="matrix(1.00, 0.00, -0.00, -1.00, 208.4, 57.0)">i</text><text xml:space="preserve" font-family="CircularStd-Book" font-size="14.0" fill="#52575F" transform="matrix(1.00, 0.00, -0.00, -1.00, 212.0, 57.0)">n</text><text xml:space="preserve" font-family="CircularStd-Book" font-size="14.0" fill="#52575F" transform="matrix(1.00, 0.00, -0.00, -1.00, 219.9, 57.0)">b</text><text xml:space="preserve" font-family="CircularStd-Book" font-size="14.0" fill="#52575F" transform="matrix(1.00, 0.00, -0.00, -1.00, 228.2, 57.0)">o</text><text xml:space="preserve" font-family="CircularStd-Book" font-size="14.0" fill="#52575F" transform="matrix(1.00, 0.00, -0.00, -1.00, 236.1, 57.0)">u</text><text xml:space="preserve" font-family="CircularStd-Book" font-size="14.0" fill="#52575F" transform="matrix(1.00, 0.00, -0.00, -1.00, 244.0, 57.0)">n</text><text xml:space="preserve" font-family="CircularStd-Book" font-size="14.0" fill="#52575F" transform="matrix(1.00, 0.00, -0.00, -1.00, 251.9, 57.0)">d</text><text xml:space="preserve" font-family="CircularStd-Book" font-size="14.0" fill="#52575F" transform="matrix(1.00, 0.00, -0.00, -1.00, 260.1, 57.0)"> </text><text xml:space="preserve" font-family="CircularStd-Book" font-size="14.0" fill="#52575F" transform="matrix(1.00, 0.00, -0.00, -1.00, 263.6, 57.0)">m</text><text xml:space="preserve" font-family="CircularStd-Book" font-size="14.0" fill="#52575F" transform="matrix(1.00, 0.00, -0.00, -1.00, 275.6, 57.0)">a</text><text xml:space="preserve" font-family="CircularStd-Book" font-size="14.0" fill="#52575F" transform="matrix(1.00, 0.00, -0.00, -1.00, 282.9, 57.0)">r</text><text xml:space="preserve" font-family="CircularStd-Book" font-size="14.0" fill="#52575F" transform="matrix(1.00, 0.00, -0.00, -1.00, 288.1, 57.0)">k</text><text xml:space="preserve" font-family="CircularStd-Book" font-size="14.0" fill="#52575F" transform="matrix(1.00, 0.00, -0.00, -1.00, 295.1, 57.0)">e</text><text xml:space="preserve" font-family="CircularStd-Book" font-size="14.0" fill="#52575F" transform="matrix(1.00, 0.00, -0.00, -1.00, 302.7, 57.0)">t</text><text xml:space="preserve" font-family="CircularStd-Book" font-size="14.0" fill="#52575F" transform="matrix(1.00, 0.00, -0.00, -1.00, 307.6, 57.0)">i</text><text xml:space="preserve" font-family="CircularStd-Book" font-size="14.0" fill="#52575F" transform="matrix(1.00, 0.00, -0.00, -1.00, 311.2, 57.0)">n</text><text xml:space="preserve" font-family="CircularStd-Book" font-size="14.0" fill="#52575F" transform="matrix(1.00, 0.00, -0.00, -1.00, 319.0, 57.0)">g</text><text xml:space="preserve" font-family="CircularStd-Book" font-size="14.0" fill="#52575F" transform="matrix(1.00, 0.00, -0.00, -1.00, 327.1, 57.0)"> </text><text xml:space="preserve" font-family="CircularStd-Book" font-size="14.0" fill="#52575F" transform="matrix(1.00, 0.00, -0.00, -1.00, 330.6, 57.0)">s</text><text xml:space="preserve" font-family="CircularStd-Book" font-size="14.0" fill="#52575F" transform="matrix(1.00, 0.00, -0.00, -1.00, 337.0, 57.0)">t</text><text xml:space="preserve" font-family="CircularStd-Book" font-size="14.0" fill="#52575F" transform="matrix(1.00, 0.00, -0.00, -1.00, 341.8, 57.0)">r</text><text xml:space="preserve" font-family="CircularStd-Book" font-size="14.0" fill="#52575F" transform="matrix(1.00, 0.00, -0.00, -1.00, 346.9, 57.0)">a</text><text xml:space="preserve" font-family="CircularStd-Book" font-size="14.0" fill="#52575F" transform="matrix(1.00, 0.00, -0.00, -1.00, 354.3, 57.0)">t</text><text xml:space="preserve" font-family="CircularStd-Book" font-size="14.0" fill="#52575F" transform="matrix(1.00, 0.00, -0.00, -1.00, 359.2, 57.0)">e</text><text xml:space="preserve" font-family="CircularStd-Book" font-size="14.0" fill="#52575F" transform="matrix(1.00, 0.00, -0.00, -1.00, 366.7, 57.0)">g</text><text xml:space="preserve" font-family="CircularStd-Book" font-size="14.0" fill="#52575F" transform="matrix(1.00, 0.00, -0.00, -1.00, 374.8, 57.0)">y</text><text xml:space="preserve" font-family="CircularStd-Book" font-size="14.0" fill="#52575F" transform="matrix(1.00, 0.00, -0.00, -1.00, 382.1, 57.0)"> </text><text xml:space="preserve" font-family="CircularStd-Book" font-size="14.0" fill="#52575F" transform="matrix(1.00, 0.00, -0.00, -1.00, 385.6, 57.0)">a</text><text xml:space="preserve" font-family="CircularStd-Book" font-size="14.0" fill="#52575F" transform="matrix(1.00, 0.00, -0.00, -1.00, 392.9, 57.0)">c</text><text xml:space="preserve" font-family="CircularStd-Book" font-size="14.0" fill="#52575F" transform="matrix(1.00, 0.00, -0.00, -1.00, 400.3, 57.0)">r</text><text xml:space="preserve" font-family="CircularStd-Book" font-size="14.0" fill="#52575F" transform="matrix(1.00, 0.00, -0.00, -1.00, 405.4, 57.0)">o</text><text xml:space="preserve" font-family="CircularStd-Book" font-size="14.0" fill="#52575F" transform="matrix(1.00, 0.00, -0.00, -1.00, 413.4, 57.0)">s</text><text xml:space="preserve" font-family="CircularStd-Book" font-size="14.0" fill="#52575F" transform="matrix(1.00, 0.00, -0.00, -1.00, 419.7, 57.0)">s</text><text xml:space="preserve" font-family="CircularStd-Book" font-size="14.0" fill="#52575F" transform="matrix(1.00, 0.00, -0.00, -1.00, 426.1, 57.0)"> </text><text xml:space="preserve" font-family="CircularStd-Book" font-size="14.0" fill="#52575F" transform="matrix(1.00, 0.00, -0.00, -1.00, 429.6, 57.0)">t</text><text xml:space="preserve" font-family="CircularStd-Book" font-size="14.0" fill="#52575F" transform="matrix(1.00, 0.00, -0.00, -1.00, 434.5, 57.0)">h</text><text xml:space="preserve" font-family="CircularStd-Book" font-size="14.0" fill="#52575F" transform="matrix(1.00, 0.00, -0.00, -1.00, 442.4, 57.0)">e</text><text xml:space="preserve" font-family="CircularStd-Book" font-size="14.0" fill="#52575F" transform="matrix(1.00, 0.00, -0.00, -1.00, 450.0, 57.0)"> </text><text xml:space="preserve" font-family="CircularStd-Book" font-size="14.0" fill="#52575F" transform="matrix(1.00, 0.00, -0.00, -1.00, 2.0, 33.0)">M</text><text xml:space="preserve" font-family="CircularStd-Book" font-size="14.0" fill="#52575F" transform="matrix(1.00, 0.00, -0.00, -1.00, 15.2, 33.0)">I</text><text xml:space="preserve" font-family="CircularStd-Book" font-size="14.0" fill="#52575F" transform="matrix(1.00, 0.00, -0.00, -1.00, 19.2, 33.0)">T</text><text xml:space="preserve" font-family="CircularStd-Book" font-size="14.0" fill="#52575F" transform="matrix(1.00, 0.00, -0.00, -1.00, 27.5, 33.0)"> </text><text xml:space="preserve" font-family="CircularStd-Book" font-size="14.0" fill="#52575F" transform="matrix(1.00, 0.00, -0.00, -1.00, 31.0, 33.0)">e</text><text xml:space="preserve" font-family="CircularStd-Book" font-size="14.0" fill="#52575F" transform="matrix(1.00, 0.00, -0.00, -1.00, 38.5, 33.0)">d</text><text xml:space="preserve" font-family="CircularStd-Book" font-size="14.0" fill="#52575F" transform="matrix(1.00, 0.00, -0.00, -1.00, 46.7, 33.0)">u</text><text xml:space="preserve" font-family="CircularStd-Book" font-size="14.0" fill="#52575F" transform="matrix(1.00, 0.00, -0.00, -1.00, 54.6, 33.0)">c</text><text xml:space="preserve" font-family="CircularStd-Book" font-size="14.0" fill="#52575F" transform="matrix(1.00, 0.00, -0.00, -1.00, 61.9, 33.0)">a</text><text xml:space="preserve" font-family="CircularStd-Book" font-size="14.0" fill="#52575F" transform="matrix(1.00, 0.00, -0.00, -1.00, 69.2, 33.0)">t</text><text xml:space="preserve" font-family="CircularStd-Book" font-size="14.0" fill="#52575F" transform="matrix(1.00, 0.00, -0.00, -1.00, 74.2, 33.0)">i</text><text xml:space="preserve" font-family="CircularStd-Book" font-size="14.0" fill="#52575F" transform="matrix(1.00, 0.00, -0.00, -1.00, 77.7, 33.0)">o</text><text xml:space="preserve" font-family="CircularStd-Book" font-size="14.0" fill="#52575F" transform="matrix(1.00, 0.00, -0.00, -1.00, 85.7, 33.0)">n</text><text xml:space="preserve" font-family="CircularStd-Book" font-size="14.0" fill="#52575F" transform="matrix(1.00, 0.00, -0.00, -1.00, 93.6, 33.0)">a</text><text xml:space="preserve" font-family="CircularStd-Book" font-size="14.0" fill="#52575F" transform="matrix(1.00, 0.00, -0.00, -1.00, 100.9, 33.0)">l</text><text xml:space="preserve" font-family="CircularStd-Book" font-size="14.0" fill="#52575F" transform="matrix(1.00, 0.00, -0.00, -1.00, 104.5, 33.0)"> </text><text xml:space="preserve" font-family="CircularStd-Book" font-size="14.0" fill="#52575F" transform="matrix(1.00, 0.00, -0.00, -1.00, 108.0, 33.0)">g</text><text xml:space="preserve" font-family="CircularStd-Book" font-size="14.0" fill="#52575F" transform="matrix(1.00, 0.00, -0.00, -1.00, 116.0, 33.0)">a</text><text xml:space="preserve" font-family="CircularStd-Book" font-size="14.0" fill="#52575F" transform="matrix(1.00, 0.00, -0.00, -1.00, 123.3, 33.0)">m</text><text xml:space="preserve" font-family="CircularStd-Book" font-size="14.0" fill="#52575F" transform="matrix(1.00, 0.00, -0.00, -1.00, 135.3, 33.0)">e</text><text xml:space="preserve" font-family="CircularStd-Book" font-size="14.0" fill="#52575F" transform="matrix(1.00, 0.00, -0.00, -1.00, 142.9, 33.0)"> </text><text xml:space="preserve" font-family="CircularStd-Book" font-size="14.0" fill="#52575F" transform="matrix(1.00, 0.00, -0.00, -1.00, 146.4, 33.0)">s</text><text xml:space="preserve" font-family="CircularStd-Book" font-size="14.0" fill="#52575F" transform="matrix(1.00, 0.00, -0.00, -1.00, 152.8, 33.0)">t</text><text xml:space="preserve" font-family="CircularStd-Book" font-size="14.0" fill="#52575F" transform="matrix(1.00, 0.00, -0.00, -1.00, 157.7, 33.0)">u</text><text xml:space="preserve" font-family="CircularStd-Book" font-size="14.0" fill="#52575F" transform="matrix(1.00, 0.00, -0.00, -1.00, 165.6, 33.0)">d</text><text xml:space="preserve" font-family="CircularStd-Book" font-size="14.0" fill="#52575F" transform="matrix(1.00, 0.00, -0.00, -1.00, 173.8, 33.0)">i</text><text xml:space="preserve" font-family="CircularStd-Book" font-size="14.0" fill="#52575F" transform="matrix(1.00, 0.00, -0.00, -1.00, 177.3, 33.0)">o</text><text xml:space="preserve" font-family="CircularStd-Book" font-size="14.0" fill="#52575F" transform="matrix(1.00, 0.00, -0.00, -1.00, 185.4, 33.0)"> </text><text xml:space="preserve" font-family="CircularStd-Book" font-size="14.0" fill="#52575F" transform="matrix(1.00, 0.00, -0.00, -1.00, 188.9, 33.0)">f</text><text xml:space="preserve" font-family="CircularStd-Book" font-size="14.0" fill="#52575F" transform="matrix(1.00, 0.00, -0.00, -1.00, 193.4, 33.0)">o</text><text xml:space="preserve" font-family="CircularStd-Book" font-size="14.0" fill="#52575F" transform="matrix(1.00, 0.00, -0.00, -1.00, 201.4, 33.0)">r</text><text xml:space="preserve" font-family="CircularStd-Book" font-size="14.0" fill="#52575F" transform="matrix(1.00, 0.00, -0.00, -1.00, 206.5, 33.0)"> </text><text xml:space="preserve" font-family="CircularStd-Book" font-size="14.0" fill="#52575F" transform="matrix(1.00, 0.00, -0.00, -1.00, 210.0, 33.0)">m</text><text xml:space="preserve" font-family="CircularStd-Book" font-size="14.0" fill="#52575F" transform="matrix(1.00, 0.00, -0.00, -1.00, 221.9, 33.0)">u</text><text xml:space="preserve" font-family="CircularStd-Book" font-size="14.0" fill="#52575F" transform="matrix(1.00, 0.00, -0.00, -1.00, 229.8, 33.0)">l</text><text xml:space="preserve" font-family="CircularStd-Book" font-size="14.0" fill="#52575F" transform="matrix(1.00, 0.00, -0.00, -1.00, 233.4, 33.0)">t</text><text xml:space="preserve" font-family="CircularStd-Book" font-size="14.0" fill="#52575F" transform="matrix(1.00, 0.00, -0.00, -1.00, 238.3, 33.0)">i</text><text xml:space="preserve" font-family="CircularStd-Book" font-size="14.0" fill="#52575F" transform="matrix(1.00, 0.00, -0.00, -1.00, 241.9, 33.0)">p</text><text xml:space="preserve" font-family="CircularStd-Book" font-size="14.0" fill="#52575F" transform="matrix(1.00, 0.00, -0.00, -1.00, 250.2, 33.0)">l</text><text xml:space="preserve" font-family="CircularStd-Book" font-size="14.0" fill="#52575F" transform="matrix(1.00, 0.00, -0.00, -1.00, 253.7, 33.0)">e</text><text xml:space="preserve" font-family="CircularStd-Book" font-size="14.0" fill="#52575F" transform="matrix(1.00, 0.00, -0.00, -1.00, 261.3, 33.0)"> </text><text xml:space="preserve" font-family="CircularStd-Book" font-size="14.0" fill="#52575F" transform="matrix(1.00, 0.00, -0.00, -1.00, 264.8, 33.0)">p</text><text xml:space="preserve" font-family="CircularStd-Book" font-size="14.0" fill="#52575F" transform="matrix(1.00, 0.00, -0.00, -1.00, 273.1, 33.0)">l</text><text xml:space="preserve" font-family="CircularStd-Book" font-size="14.0" fill="#52575F" transform="matrix(1.00, 0.00, -0.00, -1.00, 276.7, 33.0)">a</text><text xml:space="preserve" font-family="CircularStd-Book" font-size="14.0" fill="#52575F" transform="matrix(1.00, 0.00, -0.00, -1.00, 284.0, 33.0)">t</text><text xml:space="preserve" font-family="CircularStd-Book" font-size="14.0" fill="#52575F" transform="matrix(1.00, 0.00, -0.00, -1.00, 289.0, 33.0)">f</text><text xml:space="preserve" font-family="CircularStd-Book" font-size="14.0" fill="#52575F" transform="matrix(1.00, 0.00, -0.00, -1.00, 293.5, 33.0)">o</text><text xml:space="preserve" font-family="CircularStd-Book" font-size="14.0" fill="#52575F" transform="matrix(1.00, 0.00, -0.00, -1.00, 301.5, 33.0)">r</text><text xml:space="preserve" font-family="CircularStd-Book" font-size="14.0" fill="#52575F" transform="matrix(1.00, 0.00, -0.00, -1.00, 306.6, 33.0)">m</text><text xml:space="preserve" font-family="CircularStd-Book" font-size="14.0" fill="#52575F" transform="matrix(1.00, 0.00, -0.00, -1.00, 318.6, 33.0)">s</text><text xml:space="preserve" font-family="CircularStd-Book" font-size="14.0" fill="#52575F" transform="matrix(1.00, 0.00, -0.00, -1.00, 325.0, 33.0)">,</text><text xml:space="preserve" font-family="CircularStd-Book" font-size="14.0" fill="#52575F" transform="matrix(1.00, 0.00, -0.00, -1.00, 329.1, 33.0)"> </text><text xml:space="preserve" font-family="CircularStd-Book" font-size="14.0" fill="#52575F" transform="matrix(1.00, 0.00, -0.00, -1.00, 332.6, 33.0)">i</text><text xml:space="preserve" font-family="CircularStd-Book" font-size="14.0" fill="#52575F" transform="matrix(1.00, 0.00, -0.00, -1.00, 336.1, 33.0)">n</text><text xml:space="preserve" font-family="CircularStd-Book" font-size="14.0" fill="#52575F" transform="matrix(1.00, 0.00, -0.00, -1.00, 344.0, 33.0)">c</text><text xml:space="preserve" font-family="CircularStd-Book" font-size="14.0" fill="#52575F" transform="matrix(1.00, 0.00, -0.00, -1.00, 351.4, 33.0)">l</text><text xml:space="preserve" font-family="CircularStd-Book" font-size="14.0" fill="#52575F" transform="matrix(1.00, 0.00, -0.00, -1.00, 354.9, 33.0)">u</text><text xml:space="preserve" font-family="CircularStd-Book" font-size="14.0" fill="#52575F" transform="matrix(1.00, 0.00, -0.00, -1.00, 362.8, 33.0)">d</text><text xml:space="preserve" font-family="CircularStd-Book" font-size="14.0" fill="#52575F" transform="matrix(1.00, 0.00, -0.00, -1.00, 371.0, 33.0)">i</text><text xml:space="preserve" font-family="CircularStd-Book" font-size="14.0" fill="#52575F" transform="matrix(1.00, 0.00, -0.00, -1.00, 374.5, 33.0)">n</text><text xml:space="preserve" font-family="CircularStd-Book" font-size="14.0" fill="#52575F" transform="matrix(1.00, 0.00, -0.00, -1.00, 382.4, 33.0)">g</text><text xml:space="preserve" font-family="CircularStd-Book" font-size="14.0" fill="#52575F" transform="matrix(1.00, 0.00, -0.00, -1.00, 390.5, 33.0)"> </text><text xml:space="preserve" font-family="CircularStd-Book" font-size="14.0" fill="#52575F" transform="matrix(1.00, 0.00, -0.00, -1.00, 394.0, 33.0)">i</text><text xml:space="preserve" font-family="CircularStd-Book" font-size="14.0" fill="#52575F" transform="matrix(1.00, 0.00, -0.00, -1.00, 397.5, 33.0)">t</text><text xml:space="preserve" font-family="CircularStd-Book" font-size="14.0" fill="#52575F" transform="matrix(1.00, 0.00, -0.00, -1.00, 402.6, 33.0)">s</text><text xml:space="preserve" font-family="CircularStd-Book" font-size="14.0" fill="#52575F" transform="matrix(1.00, 0.00, -0.00, -1.00, 408.9, 33.0)"> </text><text xml:space="preserve" font-family="CircularStd-Book" font-size="14.0" fill="#52575F" transform="matrix(1.00, 0.00, -0.00, -1.00, 412.4, 33.0)">v</text><text xml:space="preserve" font-family="CircularStd-Book" font-size="14.0" fill="#52575F" transform="matrix(1.00, 0.00, -0.00, -1.00, 419.4, 33.0)">a</text><text xml:space="preserve" font-family="CircularStd-Book" font-size="14.0" fill="#52575F" transform="matrix(1.00, 0.00, -0.00, -1.00, 426.7, 33.0)">r</text><text xml:space="preserve" font-family="CircularStd-Book" font-size="14.0" fill="#52575F" transform="matrix(1.00, 0.00, -0.00, -1.00, 431.8, 33.0)">i</text><text xml:space="preserve" font-family="CircularStd-Book" font-size="14.0" fill="#52575F" transform="matrix(1.00, 0.00, -0.00, -1.00, 435.4, 33.0)">o</text><text xml:space="preserve" font-family="CircularStd-Book" font-size="14.0" fill="#52575F" transform="matrix(1.00, 0.00, -0.00, -1.00, 443.3, 33.0)">u</text><text xml:space="preserve" font-family="CircularStd-Book" font-size="14.0" fill="#52575F" transform="matrix(1.00, 0.00, -0.00, -1.00, 451.2, 33.0)">s</text><text xml:space="preserve" font-family="CircularStd-Book" font-size="14.0" fill="#52575F" transform="matrix(1.00, 0.00, -0.00, -1.00, 457.5, 33.0)"> </text><text xml:space="preserve" font-family="CircularStd-Book" font-size="14.0" fill="#52575F" transform="matrix(1.00, 0.00, -0.00, -1.00, 2.0, 10.0)">g</text><text xml:space="preserve" font-family="CircularStd-Book" font-size="14.0" fill="#52575F" transform="matrix(1.00, 0.00, -0.00, -1.00, 10.0, 10.0)">a</text><text xml:space="preserve" font-family="CircularStd-Book" font-size="14.0" fill="#52575F" transform="matrix(1.00, 0.00, -0.00, -1.00, 17.3, 10.0)">m</text><text xml:space="preserve" font-family="CircularStd-Book" font-size="14.0" fill="#52575F" transform="matrix(1.00, 0.00, -0.00, -1.00, 29.3, 10.0)">e</text><text xml:space="preserve" font-family="CircularStd-Book" font-size="14.0" fill="#52575F" transform="matrix(1.00, 0.00, -0.00, -1.00, 36.9, 10.0)"> </text><text xml:space="preserve" font-family="CircularStd-Book" font-size="14.0" fill="#52575F" transform="matrix(1.00, 0.00, -0.00, -1.00, 40.4, 10.0)">p</text><text xml:space="preserve" font-family="CircularStd-Book" font-size="14.0" fill="#52575F" transform="matrix(1.00, 0.00, -0.00, -1.00, 48.7, 10.0)">r</text><text xml:space="preserve" font-family="CircularStd-Book" font-size="14.0" fill="#52575F" transform="matrix(1.00, 0.00, -0.00, -1.00, 53.8, 10.0)">o</text><text xml:space="preserve" font-family="CircularStd-Book" font-size="14.0" fill="#52575F" transform="matrix(1.00, 0.00, -0.00, -1.00, 61.8, 10.0)">p</text><text xml:space="preserve" font-family="CircularStd-Book" font-size="14.0" fill="#52575F" transform="matrix(1.00, 0.00, -0.00, -1.00, 70.1, 10.0)">e</text><text xml:space="preserve" font-family="CircularStd-Book" font-size="14.0" fill="#52575F" transform="matrix(1.00, 0.00, -0.00, -1.00, 77.7, 10.0)">r</text><text xml:space="preserve" font-family="CircularStd-Book" font-size="14.0" fill="#52575F" transform="matrix(1.00, 0.00, -0.00, -1.00, 83.2, 10.0)">t</text><text xml:space="preserve" font-family="CircularStd-Book" font-size="14.0" fill="#52575F" transform="matrix(1.00, 0.00, -0.00, -1.00, 88.2, 10.0)">i</text><text xml:space="preserve" font-family="CircularStd-Book" font-size="14.0" fill="#52575F" transform="matrix(1.00, 0.00, -0.00, -1.00, 91.7, 10.0)">e</text><text xml:space="preserve" font-family="CircularStd-Book" font-size="14.0" fill="#52575F" transform="matrix(1.00, 0.00, -0.00, -1.00, 99.3, 10.0)">s</text><text xml:space="preserve" font-family="CircularStd-Book" font-size="14.0" fill="#52575F" transform="matrix(1.00, 0.00, -0.00, -1.00, 105.6, 10.0)"> </text><text xml:space="preserve" font-family="CircularStd-Book" font-size="14.0" fill="#52575F" transform="matrix(1.00, 0.00, -0.00, -1.00, 109.1, 10.0)">a</text><text xml:space="preserve" font-family="CircularStd-Book" font-size="14.0" fill="#52575F" transform="matrix(1.00, 0.00, -0.00, -1.00, 116.4, 10.0)">n</text><text xml:space="preserve" font-family="CircularStd-Book" font-size="14.0" fill="#52575F" transform="matrix(1.00, 0.00, -0.00, -1.00, 124.3, 10.0)">d</text><text xml:space="preserve" font-family="CircularStd-Book" font-size="14.0" fill="#52575F" transform="matrix(1.00, 0.00, -0.00, -1.00, 132.5, 10.0)"> </text><text xml:space="preserve" font-family="CircularStd-Book" font-size="14.0" fill="#52575F" transform="matrix(1.00, 0.00, -0.00, -1.00, 136.0, 10.0)">e</text><text xml:space="preserve" font-family="CircularStd-Book" font-size="14.0" fill="#52575F" transform="matrix(1.00, 0.00, -0.00, -1.00, 143.6, 10.0)">d</text><text xml:space="preserve" font-family="CircularStd-Book" font-size="14.0" fill="#52575F" transform="matrix(1.00, 0.00, -0.00, -1.00, 151.8, 10.0)">u</text><text xml:space="preserve" font-family="CircularStd-Book" font-size="14.0" fill="#52575F" transform="matrix(1.00, 0.00, -0.00, -1.00, 159.6, 10.0)">c</text><text xml:space="preserve" font-family="CircularStd-Book" font-size="14.0" fill="#52575F" transform="matrix(1.00, 0.00, -0.00, -1.00, 167.0, 10.0)">a</text><text xml:space="preserve" font-family="CircularStd-Book" font-size="14.0" fill="#52575F" transform="matrix(1.00, 0.00, -0.00, -1.00, 174.3, 10.0)">t</text><text xml:space="preserve" font-family="CircularStd-Book" font-size="14.0" fill="#52575F" transform="matrix(1.00, 0.00, -0.00, -1.00, 179.3, 10.0)">i</text><text xml:space="preserve" font-family="CircularStd-Book" font-size="14.0" fill="#52575F" transform="matrix(1.00, 0.00, -0.00, -1.00, 182.8, 10.0)">o</text><text xml:space="preserve" font-family="CircularStd-Book" font-size="14.0" fill="#52575F" transform="matrix(1.00, 0.00, -0.00, -1.00, 190.8, 10.0)">n</text><text xml:space="preserve" font-family="CircularStd-Book" font-size="14.0" fill="#52575F" transform="matrix(1.00, 0.00, -0.00, -1.00, 198.7, 10.0)">a</text><text xml:space="preserve" font-family="CircularStd-Book" font-size="14.0" fill="#52575F" transform="matrix(1.00, 0.00, -0.00, -1.00, 206.0, 10.0)">l</text><text xml:space="preserve" font-family="CircularStd-Book" font-size="14.0" fill="#52575F" transform="matrix(1.00, 0.00, -0.00, -1.00, 209.6, 10.0)"> </text><text xml:space="preserve" font-family="CircularStd-Book" font-size="14.0" fill="#52575F" transform="matrix(1.00, 0.00, -0.00, -1.00, 213.1, 10.0)">i</text><text xml:space="preserve" font-family="CircularStd-Book" font-size="14.0" fill="#52575F" transform="matrix(1.00, 0.00, -0.00, -1.00, 216.6, 10.0)">n</text><text xml:space="preserve" font-family="CircularStd-Book" font-size="14.0" fill="#52575F" transform="matrix(1.00, 0.00, -0.00, -1.00, 224.5, 10.0)">i</text><text xml:space="preserve" font-family="CircularStd-Book" font-size="14.0" fill="#52575F" transform="matrix(1.00, 0.00, -0.00, -1.00, 228.0, 10.0)">t</text><text xml:space="preserve" font-family="CircularStd-Book" font-size="14.0" fill="#52575F" transform="matrix(1.00, 0.00, -0.00, -1.00, 233.0, 10.0)">i</text><text xml:space="preserve" font-family="CircularStd-Book" font-size="14.0" fill="#52575F" transform="matrix(1.00, 0.00, -0.00, -1.00, 236.5, 10.0)">a</text><text xml:space="preserve" font-family="CircularStd-Book" font-size="14.0" fill="#52575F" transform="matrix(1.00, 0.00, -0.00, -1.00, 243.9, 10.0)">t</text><text xml:space="preserve" font-family="CircularStd-Book" font-size="14.0" fill="#52575F" transform="matrix(1.00, 0.00, -0.00, -1.00, 248.8, 10.0)">i</text><text xml:space="preserve" font-family="CircularStd-Book" font-size="14.0" fill="#52575F" transform="matrix(1.00, 0.00, -0.00, -1.00, 252.4, 10.0)">v</text><text xml:space="preserve" font-family="CircularStd-Book" font-size="14.0" fill="#52575F" transform="matrix(1.00, 0.00, -0.00, -1.00, 259.2, 10.0)">e</text><text xml:space="preserve" font-family="CircularStd-Book" font-size="14.0" fill="#52575F" transform="matrix(1.00, 0.00, -0.00, -1.00, 266.8, 10.0)">s</text><text xml:space="preserve" font-family="CircularStd-Book" font-size="14.0" fill="#52575F" transform="matrix(1.00, 0.00, -0.00, -1.00, 273.1, 10.0)">.</text><text xml:space="preserve" font-family="CircularStd-Book" font-size="14.0" fill="#52575F" transform="matrix(1.00, 0.00, -0.00, -1.00, 277.0, 10.0)"> </text><text xml:space="preserve" font-family="CircularStd-Bold" font-weight="bold" font-size="14.0" fill="#0432FF" transform="matrix(1.00, 0.00, -0.00, -1.00, 280.5, 10.0)">S</text><text xml:space="preserve" font-family="CircularStd-Bold" font-weight="bold" font-size="14.0" fill="#0432FF" transform="matrix(1.00, 0.00, -0.00, -1.00, 288.9, 10.0)">e</text><text xml:space="preserve" font-family="CircularStd-Bold" font-weight="bold" font-size="14.0" fill="#0432FF" transform="matrix(1.00, 0.00, -0.00, -1.00, 296.7, 10.0)">e</text><text xml:space="preserve" font-family="CircularStd-Bold" font-weight="bold" font-size="14.0" fill="#0432FF" transform="matrix(1.00, 0.00, -0.00, -1.00, 304.4, 10.0)"> </text><text xml:space="preserve" font-family="CircularStd-Bold" font-weight="bold" font-size="14.0" fill="#0432FF" transform="matrix(1.00, 0.00, -0.00, -1.00, 307.9, 10.0)">m</text><text xml:space="preserve" font-family="CircularStd-Bold" font-weight="bold" font-size="14.0" fill="#0432FF" transform="matrix(1.00, 0.00, -0.00, -1.00, 320.3, 10.0)">o</text><text xml:space="preserve" font-family="CircularStd-Bold" font-weight="bold" font-size="14.0" fill="#0432FF" transform="matrix(1.00, 0.00, -0.00, -1.00, 328.4, 10.0)">r</text><text xml:space="preserve" font-family="CircularStd-Bold" font-weight="bold" font-size="14.0" fill="#0432FF" transform="matrix(1.00, 0.00, -0.00, -1.00, 333.9, 10.0)">e</text><text xml:space="preserve" font-family="CircularStd-Bold" font-weight="bold" font-size="14.0" fill="#0432FF" transform="matrix(1.00, 0.00, -0.00, -1.00, 341.6, 10.0)"> </text><text xml:space="preserve" font-family="CircularStd-Bold" font-weight="bold" font-size="14.0" fill="#0432FF" transform="matrix(1.00, 0.00, -0.00, -1.00, 345.1, 10.0)">e</text><text xml:space="preserve" font-family="CircularStd-Bold" font-weight="bold" font-size="14.0" fill="#0432FF" transform="matrix(1.00, 0.00, -0.00, -1.00, 352.7, 10.0)">x</text><text xml:space="preserve" font-family="CircularStd-Bold" font-weight="bold" font-size="14.0" fill="#0432FF" transform="matrix(1.00, 0.00, -0.00, -1.00, 360.1, 10.0)">a</text><text xml:space="preserve" font-family="CircularStd-Bold" font-weight="bold" font-size="14.0" fill="#0432FF" transform="matrix(1.00, 0.00, -0.00, -1.00, 367.7, 10.0)">m</text><text xml:space="preserve" font-family="CircularStd-Bold" font-weight="bold" font-size="14.0" fill="#0432FF" transform="matrix(1.00, 0.00, -0.00, -1.00, 380.1, 10.0)">p</text><text xml:space="preserve" font-family="CircularStd-Bold" font-weight="bold" font-size="14.0" fill="#0432FF" transform="matrix(1.00, 0.00, -0.00, -1.00, 388.6, 10.0)">l</text><text xml:space="preserve" font-family="CircularStd-Bold" font-weight="bold" font-size="14.0" fill="#0432FF" transform="matrix(1.00, 0.00, -0.00, -1.00, 392.5, 10.0)">e</text><text xml:space="preserve" font-family="CircularStd-Bold" font-weight="bold" font-size="14.0" fill="#0432FF" transform="matrix(1.00, 0.00, -0.00, -1.00, 400.2, 10.0)">s</text><text xml:space="preserve" font-family="CircularStd-Bold" font-weight="bold" font-size="14.0" fill="#0000FF" transform="matrix(1.00, 0.00, -0.00, -1.00, 406.7, 10.0)"> </text><text xml:space="preserve" font-family="CircularStd-Bold" font-weight="bold" font-size="14.0" fill="#0000FF" transform="matrix(1.00, 0.00, -0.00, -1.00, 410.1, 10.0)">→</text><g><clipPath id="clip-182"><path d="M 279.3 6.3 L 406.5 6.3 L 406.5 9.4 L 279.3 9.4 Z M 279.3 6.3 "></path></clipPath><g clip-path="url(#clip-182)"><path d="M 282.5 67.2 L 408.7 67.2 " fill="none" stroke="#0432FF" stroke-width="1.12" stroke-miterlimit="0.00" transform="matrix(1.00, 0.00, 0.00, -1.00, -2.2, 75.1)"></path></g></g></g></svg>