<?xml version="1.0" encoding="UTF-8" standalone="no"?><svg xmlns="http://www.w3.org/2000/svg" xmlns:xlink="http://www.w3.org/1999/xlink" clip-rule="evenodd" stroke-miterlimit="4.00" viewBox="0 0 1024 768"><desc>SVG generated by Keynote</desc><defs></defs><g transform="matrix(1.00, 0.00, -0.00, -1.00, 0.0, 768.0)"><path d="M 0.0 768.0 L 1024.0 768.0 L 1024.0 0.0 L 0.0 0.0 Z M 0.0 768.0 " fill="#F4F4F4"></path><image xlink:href="6801E56512BF76CE7A5C3666AAF733A2.png" width="275.00" height="541.00" transform="matrix(2.14, 0.00, -0.00, -2.14, 203.0, 577.0)"></image><path d="M -12.3 199.6 L 974.9 199.6 L 974.9 -2.0 L -12.3 -2.0 Z M -12.3 199.6 " fill="#F4F4F4"></path><path d="M 35.9 778.0 L 1023.1 778.0 L 1023.1 584.5 L 35.9 584.5 Z M 35.9 778.0 " fill="#F4F4F4"></path><image xlink:href="../../615F7CD4-E262-41F7-8138-806EC6AB1FAB/assets/93D2A96739FFD88A3F4D5D3647EA3BF6.png" width="36.00" height="40.00" transform="matrix(1.00, 0.00, -0.00, -1.00, 64.0, 704.0)"></image><path d="M 470.9 161.6 L 529.5 161.6 L 529.5 136.2 L 470.9 136.2 Z M 470.9 161.6 " fill="#F7F9FA"></path><text xml:space="preserve" font-family="CircularStd-Book" font-size="18.0" fill="#A6AAA8" transform="matrix(1.00, 0.00, -0.00, -1.00, 766.1, 677.6)">P</text><text xml:space="preserve" font-family="CircularStd-Book" font-size="18.0" fill="#A6AAA8" transform="matrix(1.00, 0.00, -0.00, -1.00, 776.7, 677.6)">l</text><text xml:space="preserve" font-family="CircularStd-Book" font-size="18.0" fill="#A6AAA8" transform="matrix(1.00, 0.00, -0.00, -1.00, 781.3, 677.6)">e</text><text xml:space="preserve" font-family="CircularStd-Book" font-size="18.0" fill="#A6AAA8" transform="matrix(1.00, 0.00, -0.00, -1.00, 791.0, 677.6)">a</text><text xml:space="preserve" font-family="CircularStd-Book" font-size="18.0" fill="#A6AAA8" transform="matrix(1.00, 0.00, -0.00, -1.00, 800.4, 677.6)">s</text><text xml:space="preserve" font-family="CircularStd-Book" font-size="18.0" fill="#A6AAA8" transform="matrix(1.00, 0.00, -0.00, -1.00, 808.5, 677.6)">e</text><text xml:space="preserve" font-family="CircularStd-Book" font-size="18.0" fill="#A6AAA8" transform="matrix(1.00, 0.00, -0.00, -1.00, 818.2, 677.6)"> </text><text xml:space="preserve" font-family="CircularStd-Book" font-size="18.0" fill="#A6AAA8" transform="matrix(1.00, 0.00, -0.00, -1.00, 822.7, 677.6)">d</text><text xml:space="preserve" font-family="CircularStd-Book" font-size="18.0" fill="#A6AAA8" transform="matrix(1.00, 0.00, -0.00, -1.00, 833.3, 677.6)">o</text><text xml:space="preserve" font-family="CircularStd-Book" font-size="18.0" fill="#A6AAA8" transform="matrix(1.00, 0.00, -0.00, -1.00, 843.6, 677.6)"> </text><text xml:space="preserve" font-family="CircularStd-Book" font-size="18.0" fill="#A6AAA8" transform="matrix(1.00, 0.00, -0.00, -1.00, 848.1, 677.6)">n</text><text xml:space="preserve" font-family="CircularStd-Book" font-size="18.0" fill="#A6AAA8" transform="matrix(1.00, 0.00, -0.00, -1.00, 858.2, 677.6)">o</text><text xml:space="preserve" font-family="CircularStd-Book" font-size="18.0" fill="#A6AAA8" transform="matrix(1.00, 0.00, -0.00, -1.00, 868.4, 677.6)">t</text><text xml:space="preserve" font-family="CircularStd-Book" font-size="18.0" fill="#A6AAA8" transform="matrix(1.00, 0.00, -0.00, -1.00, 874.8, 677.6)"> </text><text xml:space="preserve" font-family="CircularStd-Book" font-size="18.0" fill="#A6AAA8" transform="matrix(1.00, 0.00, -0.00, -1.00, 879.3, 677.6)">d</text><text xml:space="preserve" font-family="CircularStd-Book" font-size="18.0" fill="#A6AAA8" transform="matrix(1.00, 0.00, -0.00, -1.00, 889.9, 677.6)">i</text><text xml:space="preserve" font-family="CircularStd-Book" font-size="18.0" fill="#A6AAA8" transform="matrix(1.00, 0.00, -0.00, -1.00, 894.5, 677.6)">s</text><text xml:space="preserve" font-family="CircularStd-Book" font-size="18.0" fill="#A6AAA8" transform="matrix(1.00, 0.00, -0.00, -1.00, 902.6, 677.6)">t</text><text xml:space="preserve" font-family="CircularStd-Book" font-size="18.0" fill="#A6AAA8" transform="matrix(1.00, 0.00, -0.00, -1.00, 908.8, 677.6)">r</text><text xml:space="preserve" font-family="CircularStd-Book" font-size="18.0" fill="#A6AAA8" transform="matrix(1.00, 0.00, -0.00, -1.00, 915.4, 677.6)">i</text><text xml:space="preserve" font-family="CircularStd-Book" font-size="18.0" fill="#A6AAA8" transform="matrix(1.00, 0.00, -0.00, -1.00, 920.0, 677.6)">b</text><text xml:space="preserve" font-family="CircularStd-Book" font-size="18.0" fill="#A6AAA8" transform="matrix(1.00, 0.00, -0.00, -1.00, 930.5, 677.6)">u</text><text xml:space="preserve" font-family="CircularStd-Book" font-size="18.0" fill="#A6AAA8" transform="matrix(1.00, 0.00, -0.00, -1.00, 940.7, 677.6)">t</text><text xml:space="preserve" font-family="CircularStd-Book" font-size="18.0" fill="#A6AAA8" transform="matrix(1.00, 0.00, -0.00, -1.00, 947.0, 677.6)">e</text><text xml:space="preserve" font-family="CircularStd-Book" font-size="18.0" fill="#A6AAA8" transform="matrix(1.00, 0.00, -0.00, -1.00, 956.5, 677.6)">.</text><text xml:space="preserve" font-family="CircularStd-Book" font-size="18.0" fill="#52575F" transform="matrix(1.00, 0.00, -0.00, -1.00, 107.0, 675.0)">M</text><text xml:space="preserve" font-family="CircularStd-Book" font-size="18.0" fill="#52575F" transform="matrix(1.00, 0.00, -0.00, -1.00, 124.0, 675.0)">i</text><text xml:space="preserve" font-family="CircularStd-Book" font-size="18.0" fill="#52575F" transform="matrix(1.00, 0.00, -0.00, -1.00, 128.6, 675.0)">c</text><text xml:space="preserve" font-family="CircularStd-Book" font-size="18.0" fill="#52575F" transform="matrix(1.00, 0.00, -0.00, -1.00, 138.1, 675.0)">h</text><text xml:space="preserve" font-family="CircularStd-Book" font-size="18.0" fill="#52575F" transform="matrix(1.00, 0.00, -0.00, -1.00, 148.2, 675.0)">a</text><text xml:space="preserve" font-family="CircularStd-Book" font-size="18.0" fill="#52575F" transform="matrix(1.00, 0.00, -0.00, -1.00, 157.7, 675.0)">e</text><text xml:space="preserve" font-family="CircularStd-Book" font-size="18.0" fill="#52575F" transform="matrix(1.00, 0.00, -0.00, -1.00, 167.4, 675.0)">l</text><text xml:space="preserve" font-family="CircularStd-Book" font-size="18.0" fill="#52575F" transform="matrix(1.00, 0.00, -0.00, -1.00, 172.0, 675.0)"> </text><text xml:space="preserve" font-family="CircularStd-Book" font-size="18.0" fill="#52575F" transform="matrix(1.00, 0.00, -0.00, -1.00, 176.5, 675.0)">S</text><text xml:space="preserve" font-family="CircularStd-Book" font-size="18.0" fill="#52575F" transform="matrix(1.00, 0.00, -0.00, -1.00, 186.7, 675.0)">u</text><text xml:space="preserve" font-family="CircularStd-Book" font-size="18.0" fill="#52575F" transform="matrix(1.00, 0.00, -0.00, -1.00, 196.8, 675.0)">e</text><text xml:space="preserve" font-family="CircularStd-Book" font-size="18.0" fill="#52575F" transform="matrix(1.00, 0.00, -0.00, -1.00, 206.6, 675.0)">n</text><g><clipPath id="clip-186"><path d="M 59.0 651.0 L 942.0 651.0 L 942.0 99.0 L 59.0 99.0 Z M 58.6 650.9 "></path></clipPath><g clip-path="url(#clip-186)"><image xlink:href="../../18B53B78-ECDB-47A7-AEEA-2274D68A863F/assets/736775127E128457E50D130A0CBECF5D.png" width="864.00" height="540.00" transform="matrix(1.02, 0.00, -0.00, -1.02, 59.0, 651.0)"></image></g></g><image xlink:href="7E4B7AB2539ACAF3977F02228DBC1EEF.png" width="146.00" height="298.00" transform="matrix(1.00, 0.00, -0.00, -1.00, 771.0, 434.0)"></image><path d="M 132.3 75.0 C 132.4 75.0 133.1 75.1 133.1 74.9 C 132.9 74.9 132.3 74.8 132.3 75.0 C 132.3 75.0 132.3 75.0 132.3 75.0 Z M 130.8 75.0 C 131.1 75.1 131.6 75.1 131.8 75.0 C 131.5 75.0 130.9 74.9 130.8 75.0 C 130.8 75.0 130.8 75.0 130.8 75.0 Z M 133.0 74.6 C 133.4 74.6 134.1 74.7 134.3 74.5 C 133.9 74.6 133.2 74.5 133.0 74.6 C 133.0 74.6 133.0 74.6 133.0 74.6 Z M 112.8 77.1 C 113.0 77.2 113.7 77.2 113.7 77.0 C 113.5 77.1 112.9 77.0 112.8 77.1 C 112.8 77.1 112.8 77.1 112.8 77.1 Z M 116.8 76.7 C 117.1 76.8 117.7 76.8 117.8 76.7 C 117.5 76.7 116.9 76.6 116.8 76.7 C 116.8 76.7 116.8 76.7 116.8 76.7 Z M 119.1 76.8 C 119.7 76.8 120.3 76.8 120.1 76.7 C 120.0 76.8 119.2 76.6 119.1 76.8 C 119.1 76.8 119.1 76.8 119.1 76.8 Z M 132.6 68.6 C 132.0 68.7 131.6 68.6 131.2 68.6 C 129.2 68.6 132.2 68.9 132.6 68.6 C 132.6 68.6 132.6 68.6 132.6 68.6 Z M 123.2 76.3 C 122.8 76.3 122.5 76.4 122.3 76.4 C 122.7 76.4 123.2 76.5 123.2 76.3 C 123.2 76.3 123.2 76.3 123.2 76.3 Z M 126.6 76.2 C 126.7 76.3 128.7 76.2 129.8 76.1 C 128.8 76.1 126.5 76.1 126.6 76.2 C 126.6 76.2 126.6 76.2 126.6 76.2 Z M 127.9 68.6 C 126.6 68.7 124.5 68.7 123.6 68.8 C 122.7 68.8 125.3 68.9 127.6 68.9 C 130.0 68.8 128.1 68.5 129.0 68.5 C 130.0 68.4 128.1 68.4 127.1 68.4 C 126.2 68.5 127.8 68.5 127.9 68.6 C 127.9 68.6 127.9 68.6 127.9 68.6 Z M 127.9 68.1 C 128.4 68.1 128.8 68.0 129.1 68.0 C 128.6 67.9 128.1 67.9 127.9 68.1 C 127.9 68.1 127.9 68.1 127.9 68.1 Z M 58.8 71.8 C 58.9 73.3 60.1 74.5 61.3 75.4 C 61.6 75.6 61.9 75.7 62.2 75.9 C 64.5 76.6 66.8 76.9 69.0 77.1 C 69.5 77.1 69.9 77.1 70.4 77.2 C 71.8 77.3 73.2 77.3 74.6 77.3 C 75.1 77.4 75.5 77.4 76.0 77.4 C 77.7 77.6 79.3 77.4 81.0 77.4 C 81.8 77.4 82.6 77.5 83.5 77.7 C 83.9 77.8 85.8 77.7 86.4 77.6 C 85.8 77.9 88.9 77.8 88.7 77.8 C 89.1 77.7 89.4 77.6 89.8 77.6 C 90.1 77.5 89.7 77.5 89.2 77.4 C 89.6 77.4 90.0 77.3 90.4 77.3 C 90.8 77.3 91.3 77.4 91.7 77.4 C 93.1 77.5 94.7 77.4 96.0 77.2 C 99.6 77.3 109.5 77.1 107.7 77.1 C 105.7 77.0 106.7 76.9 107.2 76.8 C 107.6 76.8 108.0 76.8 108.5 76.8 C 108.5 76.9 108.4 76.9 108.3 76.9 C 109.2 77.0 110.5 77.2 111.8 77.0 C 111.5 77.0 111.2 77.0 111.1 76.9 C 111.7 76.9 111.2 76.7 111.7 76.7 C 112.8 76.7 113.4 76.6 112.0 76.6 C 113.3 76.5 114.0 76.2 115.3 76.0 C 115.7 76.1 115.5 76.1 115.3 76.1 C 116.1 76.2 118.0 76.2 118.2 76.3 C 118.3 76.4 113.2 76.3 114.1 76.4 C 114.5 76.4 115.2 76.4 115.5 76.5 C 114.9 76.5 114.1 76.5 113.6 76.6 C 114.1 76.6 114.7 76.6 115.1 76.6 C 114.7 76.6 114.4 76.6 114.2 76.7 C 114.9 76.7 115.3 76.7 116.1 76.7 C 116.4 76.7 115.8 76.6 116.5 76.6 C 116.7 76.5 116.1 76.6 116.1 76.5 C 116.7 76.5 117.9 76.5 118.1 76.4 C 118.4 76.4 117.4 76.4 117.4 76.4 C 119.7 76.3 122.2 76.3 123.0 76.3 C 123.8 76.2 123.1 76.2 122.7 76.2 C 123.7 76.1 124.4 76.1 125.5 76.1 C 126.2 76.1 125.9 76.1 125.6 76.0 C 125.8 76.0 126.0 76.0 126.1 76.0 C 126.2 76.0 126.4 76.0 126.5 75.9 C 126.1 75.9 125.3 75.9 124.9 75.9 C 125.6 75.8 127.1 75.9 127.7 75.8 C 126.8 75.7 125.8 75.7 124.8 75.7 C 126.8 75.6 128.8 75.9 130.4 75.6 C 130.1 75.6 130.0 75.5 129.7 75.5 C 130.3 75.5 131.2 75.7 131.7 75.5 C 132.0 75.4 132.6 75.4 133.2 75.4 C 132.2 75.3 131.5 75.3 130.8 75.3 C 130.8 75.3 130.9 75.3 131.0 75.3 C 129.4 75.0 128.5 75.5 127.3 75.5 C 127.2 75.5 127.1 75.5 127.1 75.5 C 126.7 75.4 128.0 75.4 128.1 75.3 C 126.4 75.3 124.6 75.4 123.8 75.2 C 125.8 75.2 127.5 75.2 129.0 75.1 C 128.7 74.9 127.1 75.0 126.4 74.9 C 129.7 74.8 130.0 74.8 130.3 74.7 C 130.0 74.7 129.8 74.7 129.5 74.7 C 129.6 74.7 129.7 74.7 129.7 74.6 C 131.2 74.6 132.9 74.6 132.8 74.6 C 132.7 74.5 131.4 74.5 130.0 74.5 C 130.1 74.4 130.3 74.4 130.4 74.3 C 132.1 74.3 133.9 74.0 135.5 74.1 C 135.3 74.0 135.4 74.0 135.8 73.9 C 135.2 73.8 134.5 73.8 134.0 73.7 C 134.2 73.7 134.5 73.7 134.6 73.7 C 134.3 73.6 133.9 73.6 133.8 73.5 C 134.5 73.5 135.4 73.5 136.2 73.4 C 136.3 73.3 135.8 73.4 135.9 73.3 C 136.6 73.3 137.7 73.3 138.3 73.2 C 137.6 73.1 136.4 73.2 136.0 73.1 C 136.2 73.1 136.5 73.0 136.7 73.0 C 137.3 73.0 137.5 72.9 136.9 72.9 C 136.6 72.8 136.6 72.8 136.7 72.8 C 137.1 72.7 138.3 72.7 138.3 72.5 C 138.0 72.5 136.7 72.5 136.4 72.4 C 136.6 72.3 137.3 72.4 137.3 72.2 C 135.9 72.3 136.0 72.2 135.6 72.3 C 135.8 72.3 136.2 72.3 136.2 72.4 C 135.3 72.4 134.5 72.4 133.6 72.4 C 133.6 72.4 133.6 72.4 133.6 72.4 C 133.6 72.4 133.6 72.4 133.6 72.4 C 133.6 72.4 133.6 72.4 133.6 72.4 C 133.7 72.3 133.6 72.1 133.6 72.1 C 133.9 72.1 134.3 72.0 135.0 72.0 C 134.8 71.8 134.2 71.9 133.6 71.9 C 133.6 71.9 133.6 71.9 133.6 71.8 C 134.6 71.8 136.0 71.8 137.0 71.7 C 136.6 71.6 134.9 71.6 133.8 71.7 C 133.8 71.6 133.9 71.6 133.9 71.6 C 132.5 71.6 130.8 71.4 129.2 71.5 C 130.0 71.3 130.9 71.5 131.9 71.4 C 132.3 71.4 132.8 71.3 133.2 71.2 C 134.5 71.3 138.2 71.3 138.6 71.2 C 139.1 71.1 135.3 71.1 135.3 71.0 C 135.3 71.0 137.0 70.9 136.2 70.9 C 135.8 71.0 134.8 71.0 134.1 71.0 C 134.1 70.9 134.1 70.8 134.1 70.6 C 134.7 70.6 135.4 70.6 135.4 70.8 C 135.7 70.8 136.3 70.9 136.4 70.8 C 136.3 70.7 136.1 70.8 136.1 70.7 C 136.3 70.7 136.5 70.7 136.5 70.6 C 135.8 70.6 134.8 70.6 134.0 70.6 C 134.0 70.5 133.9 70.5 133.8 70.4 C 133.8 70.4 134.4 70.3 135.0 70.3 C 135.5 70.3 134.4 70.2 133.5 70.2 C 133.3 70.2 133.2 70.1 133.0 70.1 C 133.3 70.1 133.7 70.1 134.1 70.0 C 134.6 70.0 134.6 69.9 135.1 69.8 C 134.2 69.7 133.1 69.7 132.2 69.8 C 131.8 69.7 131.5 69.6 131.2 69.4 C 131.9 69.4 132.6 69.3 133.0 69.2 C 133.4 69.2 133.7 69.2 133.8 69.2 C 133.5 69.1 134.3 69.1 134.2 69.0 C 133.8 69.1 132.9 69.0 132.6 69.2 C 131.9 69.2 131.1 69.2 130.4 69.2 C 130.4 69.2 130.3 69.2 130.2 69.2 C 130.8 69.1 131.3 69.1 131.9 69.1 C 131.6 68.9 130.0 68.9 128.7 69.0 C 126.3 68.8 123.8 69.5 121.3 69.7 C 121.2 69.7 121.1 69.6 120.9 69.6 C 120.7 69.5 120.6 69.5 120.4 69.4 C 121.0 69.4 121.5 69.4 121.9 69.4 C 120.2 69.2 124.4 69.2 124.7 69.1 C 121.9 68.9 116.6 69.0 113.3 68.9 C 114.1 68.9 114.3 68.8 113.5 68.8 C 113.3 68.8 113.0 68.8 112.8 68.7 C 116.1 68.6 119.6 68.9 122.2 68.6 C 120.7 68.6 118.3 68.7 117.6 68.5 C 118.1 68.5 118.8 68.5 118.8 68.5 C 118.0 68.3 115.3 68.5 114.5 68.4 C 118.4 68.2 123.7 68.4 126.5 68.1 C 122.2 68.2 116.4 68.0 112.7 68.3 C 113.3 68.3 113.3 68.3 113.0 68.4 C 111.9 68.4 110.7 68.5 109.5 68.5 C 109.3 68.5 109.4 68.5 109.9 68.4 C 110.4 68.4 110.7 68.4 110.8 68.3 C 110.5 68.3 106.9 68.3 109.8 68.2 C 112.7 68.2 117.7 68.1 114.7 68.0 C 111.8 68.0 110.7 67.9 112.3 67.8 C 113.9 67.8 118.9 67.6 117.2 67.6 C 115.5 67.6 112.0 67.4 109.9 67.5 C 107.9 67.5 111.3 68.0 108.3 68.0 C 105.4 68.0 107.8 67.8 107.3 67.8 C 106.4 67.8 104.7 67.8 103.1 67.8 C 102.0 67.8 100.6 67.8 99.9 67.7 C 99.9 67.6 103.3 67.7 102.0 67.6 C 98.7 67.6 95.1 67.6 96.6 67.8 C 94.5 67.8 93.1 67.8 91.8 67.8 C 89.8 67.6 87.6 67.7 87.3 67.6 C 87.0 67.5 81.7 67.9 79.6 67.4 C 79.5 67.4 75.9 67.5 75.6 67.7 C 72.1 67.5 72.6 67.4 69.2 67.5 C 66.4 67.5 65.5 67.6 65.1 67.6 C 62.1 67.7 62.1 67.5 60.7 68.3 C 60.2 68.5 59.5 68.5 59.3 68.9 C 58.8 69.6 58.6 70.6 58.8 71.8 C 58.8 71.8 58.8 71.8 58.8 71.8 Z M 133.2 72.6 C 133.7 72.7 134.7 72.6 135.2 72.7 C 134.6 72.9 133.8 72.8 133.0 72.8 C 133.1 72.7 133.1 72.7 133.2 72.6 C 133.2 72.6 133.2 72.6 133.2 72.6 Z M 129.1 70.3 C 129.5 70.3 129.9 70.4 130.3 70.4 C 130.7 70.4 131.1 70.4 131.6 70.3 C 131.6 70.3 130.7 70.2 129.9 70.2 C 129.9 70.2 129.9 70.1 129.9 70.1 C 130.3 70.0 130.7 70.0 131.2 70.0 C 131.4 70.0 131.5 70.0 131.7 70.0 C 131.7 70.1 131.5 70.1 131.4 70.1 C 131.5 70.2 131.9 70.3 132.5 70.3 C 132.6 70.4 132.6 70.4 132.7 70.4 C 132.8 70.5 132.3 70.6 132.8 70.6 C 132.5 70.7 131.6 70.6 131.1 70.6 C 131.7 70.3 129.4 70.5 128.8 70.4 C 128.9 70.4 129.0 70.3 129.1 70.3 Z M 124.7 75.6 C 124.4 75.6 124.1 75.6 123.8 75.6 C 124.2 75.6 124.6 75.6 124.9 75.6 C 124.8 75.6 124.8 75.6 124.7 75.6 Z M 98.7 76.8 C 100.6 76.5 104.6 76.8 104.9 76.6 C 105.3 76.6 105.7 76.7 106.1 76.7 C 103.5 76.7 100.6 76.8 98.7 76.8 C 98.7 76.8 98.7 76.8 98.7 76.8 Z M 105.4 68.4 C 105.6 68.4 105.5 68.4 105.1 68.5 C 103.1 68.6 101.9 68.7 103.2 68.7 C 104.3 68.7 106.7 68.7 106.0 68.8 C 105.0 68.8 104.1 68.8 103.1 68.8 C 102.4 68.8 101.7 68.6 101.0 68.5 C 102.5 68.5 104.0 68.4 105.4 68.4 C 105.4 68.4 105.4 68.4 105.4 68.4 Z M 100.1 68.3 C 100.6 68.3 101.3 68.3 102.0 68.3 C 101.4 68.3 100.8 68.3 100.2 68.3 C 100.2 68.3 100.1 68.3 100.1 68.3 Z M 99.4 68.1 C 100.5 68.1 101.7 68.1 100.5 68.1 C 100.2 68.2 100.0 68.2 99.7 68.2 C 99.6 68.1 99.5 68.1 99.4 68.1 Z M 98.7 68.0 C 98.7 68.0 98.9 68.1 99.2 68.1 C 98.5 68.1 96.9 68.2 97.0 68.0 C 97.5 68.0 98.1 68.0 98.7 68.0 C 98.7 68.0 98.7 68.0 98.7 68.0 Z M 97.5 77.0 C 98.0 77.1 98.4 77.1 97.6 77.1 C 97.3 77.1 97.0 77.1 96.7 77.2 C 97.0 77.1 97.2 77.1 97.5 77.0 Z M 123.9 68.4 C 123.7 68.5 122.9 68.5 122.4 68.5 C 122.4 68.9 124.2 68.6 123.9 68.4 C 123.9 68.4 123.9 68.4 123.9 68.4 Z M 127.0 68.3 C 126.8 68.3 126.0 68.3 125.5 68.3 C 125.5 68.7 127.3 68.4 127.0 68.3 C 127.0 68.3 127.0 68.3 127.0 68.3 Z M 79.6 67.4 C 79.6 67.4 79.6 67.4 79.6 67.4 C 79.6 67.4 79.6 67.4 79.6 67.4 C 79.6 67.4 79.6 67.4 79.6 67.4 Z M 79.6 67.4 " fill="#1BFFE6"></path><text xml:space="preserve" font-family="CircularStd-Book" font-size="14.0" fill="#52575F" transform="matrix(1.00, 0.00, -0.00, -1.00, 498.0, 88.0)">W</text><text xml:space="preserve" font-family="CircularStd-Book" font-size="14.0" fill="#52575F" transform="matrix(1.00, 0.00, -0.00, -1.00, 511.6, 88.0)">e</text><text xml:space="preserve" font-family="CircularStd-Book" font-size="14.0" fill="#52575F" transform="matrix(1.00, 0.00, -0.00, -1.00, 519.2, 88.0)">b</text><text xml:space="preserve" font-family="CircularStd-Book" font-size="14.0" fill="#52575F" transform="matrix(1.00, 0.00, -0.00, -1.00, 527.5, 88.0)"> </text><text xml:space="preserve" font-family="CircularStd-Book" font-size="14.0" fill="#52575F" transform="matrix(1.00, 0.00, -0.00, -1.00, 531.0, 88.0)">d</text><text xml:space="preserve" font-family="CircularStd-Book" font-size="14.0" fill="#52575F" transform="matrix(1.00, 0.00, -0.00, -1.00, 539.2, 88.0)">e</text><text xml:space="preserve" font-family="CircularStd-Book" font-size="14.0" fill="#52575F" transform="matrix(1.00, 0.00, -0.00, -1.00, 546.8, 88.0)">s</text><text xml:space="preserve" font-family="CircularStd-Book" font-size="14.0" fill="#52575F" transform="matrix(1.00, 0.00, -0.00, -1.00, 553.1, 88.0)">i</text><text xml:space="preserve" font-family="CircularStd-Book" font-size="14.0" fill="#52575F" transform="matrix(1.00, 0.00, -0.00, -1.00, 556.6, 88.0)">g</text><text xml:space="preserve" font-family="CircularStd-Book" font-size="14.0" fill="#52575F" transform="matrix(1.00, 0.00, -0.00, -1.00, 564.7, 88.0)">n</text><text xml:space="preserve" font-family="CircularStd-Book" font-size="14.0" fill="#52575F" transform="matrix(1.00, 0.00, -0.00, -1.00, 572.6, 88.0)">,</text><text xml:space="preserve" font-family="CircularStd-Book" font-size="14.0" fill="#52575F" transform="matrix(1.00, 0.00, -0.00, -1.00, 576.7, 88.0)"> </text><text xml:space="preserve" font-family="CircularStd-Book" font-size="14.0" fill="#52575F" transform="matrix(1.00, 0.00, -0.00, -1.00, 580.2, 88.0)">i</text><text xml:space="preserve" font-family="CircularStd-Book" font-size="14.0" fill="#52575F" transform="matrix(1.00, 0.00, -0.00, -1.00, 583.8, 88.0)">O</text><text xml:space="preserve" font-family="CircularStd-Book" font-size="14.0" fill="#52575F" transform="matrix(1.00, 0.00, -0.00, -1.00, 594.9, 88.0)">S</text><text xml:space="preserve" font-family="CircularStd-Book" font-size="14.0" fill="#52575F" transform="matrix(1.00, 0.00, -0.00, -1.00, 603.2, 88.0)"> </text><text xml:space="preserve" font-family="CircularStd-Book" font-size="14.0" fill="#52575F" transform="matrix(1.00, 0.00, -0.00, -1.00, 606.7, 88.0)">m</text><text xml:space="preserve" font-family="CircularStd-Book" font-size="14.0" fill="#52575F" transform="matrix(1.00, 0.00, -0.00, -1.00, 618.7, 88.0)">o</text><text xml:space="preserve" font-family="CircularStd-Book" font-size="14.0" fill="#52575F" transform="matrix(1.00, 0.00, -0.00, -1.00, 626.7, 88.0)">b</text><text xml:space="preserve" font-family="CircularStd-Book" font-size="14.0" fill="#52575F" transform="matrix(1.00, 0.00, -0.00, -1.00, 635.0, 88.0)">i</text><text xml:space="preserve" font-family="CircularStd-Book" font-size="14.0" fill="#52575F" transform="matrix(1.00, 0.00, -0.00, -1.00, 638.6, 88.0)">l</text><text xml:space="preserve" font-family="CircularStd-Book" font-size="14.0" fill="#52575F" transform="matrix(1.00, 0.00, -0.00, -1.00, 642.1, 88.0)">e</text><text xml:space="preserve" font-family="CircularStd-Book" font-size="14.0" fill="#52575F" transform="matrix(1.00, 0.00, -0.00, -1.00, 649.7, 88.0)"> </text><text xml:space="preserve" font-family="CircularStd-Book" font-size="14.0" fill="#52575F" transform="matrix(1.00, 0.00, -0.00, -1.00, 653.2, 88.0)">d</text><text xml:space="preserve" font-family="CircularStd-Book" font-size="14.0" fill="#52575F" transform="matrix(1.00, 0.00, -0.00, -1.00, 661.5, 88.0)">e</text><text xml:space="preserve" font-family="CircularStd-Book" font-size="14.0" fill="#52575F" transform="matrix(1.00, 0.00, -0.00, -1.00, 669.0, 88.0)">s</text><text xml:space="preserve" font-family="CircularStd-Book" font-size="14.0" fill="#52575F" transform="matrix(1.00, 0.00, -0.00, -1.00, 675.4, 88.0)">i</text><text xml:space="preserve" font-family="CircularStd-Book" font-size="14.0" fill="#52575F" transform="matrix(1.00, 0.00, -0.00, -1.00, 678.9, 88.0)">g</text><text xml:space="preserve" font-family="CircularStd-Book" font-size="14.0" fill="#52575F" transform="matrix(1.00, 0.00, -0.00, -1.00, 687.0, 88.0)">n</text><text xml:space="preserve" font-family="CircularStd-Book" font-size="14.0" fill="#52575F" transform="matrix(1.00, 0.00, -0.00, -1.00, 694.9, 88.0)">,</text><text xml:space="preserve" font-family="CircularStd-Book" font-size="14.0" fill="#52575F" transform="matrix(1.00, 0.00, -0.00, -1.00, 699.0, 88.0)"> </text><text xml:space="preserve" font-family="CircularStd-Book" font-size="14.0" fill="#52575F" transform="matrix(1.00, 0.00, -0.00, -1.00, 702.5, 88.0)">a</text><text xml:space="preserve" font-family="CircularStd-Book" font-size="14.0" fill="#52575F" transform="matrix(1.00, 0.00, -0.00, -1.00, 709.8, 88.0)">n</text><text xml:space="preserve" font-family="CircularStd-Book" font-size="14.0" fill="#52575F" transform="matrix(1.00, 0.00, -0.00, -1.00, 717.7, 88.0)">d</text><text xml:space="preserve" font-family="CircularStd-Book" font-size="14.0" fill="#52575F" transform="matrix(1.00, 0.00, -0.00, -1.00, 725.9, 88.0)"> </text><text xml:space="preserve" font-family="CircularStd-Book" font-size="14.0" fill="#52575F" transform="matrix(1.00, 0.00, -0.00, -1.00, 729.4, 88.0)">f</text><text xml:space="preserve" font-family="CircularStd-Book" font-size="14.0" fill="#52575F" transform="matrix(1.00, 0.00, -0.00, -1.00, 734.2, 88.0)">r</text><text xml:space="preserve" font-family="CircularStd-Book" font-size="14.0" fill="#52575F" transform="matrix(1.00, 0.00, -0.00, -1.00, 739.3, 88.0)">o</text><text xml:space="preserve" font-family="CircularStd-Book" font-size="14.0" fill="#52575F" transform="matrix(1.00, 0.00, -0.00, -1.00, 747.3, 88.0)">n</text><text xml:space="preserve" font-family="CircularStd-Book" font-size="14.0" fill="#52575F" transform="matrix(1.00, 0.00, -0.00, -1.00, 755.2, 88.0)">t</text><text xml:space="preserve" font-family="CircularStd-Book" font-size="14.0" fill="#52575F" transform="matrix(1.00, 0.00, -0.00, -1.00, 760.1, 88.0)">-</text><text xml:space="preserve" font-family="CircularStd-Book" font-size="14.0" fill="#52575F" transform="matrix(1.00, 0.00, -0.00, -1.00, 765.2, 88.0)">e</text><text xml:space="preserve" font-family="CircularStd-Book" font-size="14.0" fill="#52575F" transform="matrix(1.00, 0.00, -0.00, -1.00, 772.8, 88.0)">n</text><text xml:space="preserve" font-family="CircularStd-Book" font-size="14.0" fill="#52575F" transform="matrix(1.00, 0.00, -0.00, -1.00, 780.6, 88.0)">d</text><text xml:space="preserve" font-family="CircularStd-Book" font-size="14.0" fill="#52575F" transform="matrix(1.00, 0.00, -0.00, -1.00, 788.9, 88.0)"> </text><text xml:space="preserve" font-family="CircularStd-Book" font-size="14.0" fill="#52575F" transform="matrix(1.00, 0.00, -0.00, -1.00, 792.4, 88.0)">d</text><text xml:space="preserve" font-family="CircularStd-Book" font-size="14.0" fill="#52575F" transform="matrix(1.00, 0.00, -0.00, -1.00, 800.6, 88.0)">e</text><text xml:space="preserve" font-family="CircularStd-Book" font-size="14.0" fill="#52575F" transform="matrix(1.00, 0.00, -0.00, -1.00, 808.0, 88.0)">v</text><text xml:space="preserve" font-family="CircularStd-Book" font-size="14.0" fill="#52575F" transform="matrix(1.00, 0.00, -0.00, -1.00, 814.9, 88.0)">e</text><text xml:space="preserve" font-family="CircularStd-Book" font-size="14.0" fill="#52575F" transform="matrix(1.00, 0.00, -0.00, -1.00, 822.5, 88.0)">l</text><text xml:space="preserve" font-family="CircularStd-Book" font-size="14.0" fill="#52575F" transform="matrix(1.00, 0.00, -0.00, -1.00, 826.0, 88.0)">o</text><text xml:space="preserve" font-family="CircularStd-Book" font-size="14.0" fill="#52575F" transform="matrix(1.00, 0.00, -0.00, -1.00, 834.0, 88.0)">p</text><text xml:space="preserve" font-family="CircularStd-Book" font-size="14.0" fill="#52575F" transform="matrix(1.00, 0.00, -0.00, -1.00, 842.3, 88.0)">m</text><text xml:space="preserve" font-family="CircularStd-Book" font-size="14.0" fill="#52575F" transform="matrix(1.00, 0.00, -0.00, -1.00, 854.3, 88.0)">e</text><text xml:space="preserve" font-family="CircularStd-Book" font-size="14.0" fill="#52575F" transform="matrix(1.00, 0.00, -0.00, -1.00, 861.9, 88.0)">n</text><text xml:space="preserve" font-family="CircularStd-Book" font-size="14.0" fill="#52575F" transform="matrix(1.00, 0.00, -0.00, -1.00, 869.8, 88.0)">t</text><text xml:space="preserve" font-family="CircularStd-Book" font-size="14.0" fill="#52575F" transform="matrix(1.00, 0.00, -0.00, -1.00, 874.7, 88.0)"> </text><text xml:space="preserve" font-family="CircularStd-Book" font-size="14.0" fill="#52575F" transform="matrix(1.00, 0.00, -0.00, -1.00, 878.2, 88.0)">f</text><text xml:space="preserve" font-family="CircularStd-Book" font-size="14.0" fill="#52575F" transform="matrix(1.00, 0.00, -0.00, -1.00, 882.8, 88.0)">o</text><text xml:space="preserve" font-family="CircularStd-Book" font-size="14.0" fill="#52575F" transform="matrix(1.00, 0.00, -0.00, -1.00, 890.8, 88.0)">r</text><text xml:space="preserve" font-family="CircularStd-Book" font-size="14.0" fill="#52575F" transform="matrix(1.00, 0.00, -0.00, -1.00, 895.9, 88.0)"> </text><text xml:space="preserve" font-family="CircularStd-Book" font-size="14.0" fill="#52575F" transform="matrix(1.00, 0.00, -0.00, -1.00, 498.0, 64.0)">V</text><text xml:space="preserve" font-family="CircularStd-Book" font-size="14.0" fill="#52575F" transform="matrix(1.00, 0.00, -0.00, -1.00, 507.2, 64.0)">i</text><text xml:space="preserve" font-family="CircularStd-Book" font-size="14.0" fill="#52575F" transform="matrix(1.00, 0.00, -0.00, -1.00, 510.7, 64.0)">m</text><text xml:space="preserve" font-family="CircularStd-Book" font-size="14.0" fill="#52575F" transform="matrix(1.00, 0.00, -0.00, -1.00, 522.7, 64.0)">p</text><text xml:space="preserve" font-family="CircularStd-Book" font-size="14.0" fill="#52575F" transform="matrix(1.00, 0.00, -0.00, -1.00, 531.0, 64.0)">a</text><text xml:space="preserve" font-family="CircularStd-Book" font-size="14.0" fill="#52575F" transform="matrix(1.00, 0.00, -0.00, -1.00, 538.4, 64.0)">c</text><text xml:space="preserve" font-family="CircularStd-Book" font-size="14.0" fill="#52575F" transform="matrix(1.00, 0.00, -0.00, -1.00, 545.8, 64.0)">t</text><text xml:space="preserve" font-family="CircularStd-Book" font-size="14.0" fill="#52575F" transform="matrix(1.00, 0.00, -0.00, -1.00, 550.4, 64.0)">’</text><text xml:space="preserve" font-family="CircularStd-Book" font-size="14.0" fill="#52575F" transform="matrix(1.00, 0.00, -0.00, -1.00, 552.8, 64.0)">s</text><text xml:space="preserve" font-family="CircularStd-Book" font-size="14.0" fill="#52575F" transform="matrix(1.00, 0.00, -0.00, -1.00, 559.1, 64.0)"> </text><text xml:space="preserve" font-family="CircularStd-Book" font-size="14.0" fill="#52575F" transform="matrix(1.00, 0.00, -0.00, -1.00, 562.6, 64.0)">m</text><text xml:space="preserve" font-family="CircularStd-Book" font-size="14.0" fill="#52575F" transform="matrix(1.00, 0.00, -0.00, -1.00, 574.6, 64.0)">o</text><text xml:space="preserve" font-family="CircularStd-Book" font-size="14.0" fill="#52575F" transform="matrix(1.00, 0.00, -0.00, -1.00, 582.6, 64.0)">b</text><text xml:space="preserve" font-family="CircularStd-Book" font-size="14.0" fill="#52575F" transform="matrix(1.00, 0.00, -0.00, -1.00, 590.9, 64.0)">i</text><text xml:space="preserve" font-family="CircularStd-Book" font-size="14.0" fill="#52575F" transform="matrix(1.00, 0.00, -0.00, -1.00, 594.4, 64.0)">l</text><text xml:space="preserve" font-family="CircularStd-Book" font-size="14.0" fill="#52575F" transform="matrix(1.00, 0.00, -0.00, -1.00, 598.0, 64.0)">e</text><text xml:space="preserve" font-family="CircularStd-Book" font-size="14.0" fill="#52575F" transform="matrix(1.00, 0.00, -0.00, -1.00, 605.6, 64.0)"> </text><text xml:space="preserve" font-family="CircularStd-Book" font-size="14.0" fill="#52575F" transform="matrix(1.00, 0.00, -0.00, -1.00, 609.1, 64.0)">v</text><text xml:space="preserve" font-family="CircularStd-Book" font-size="14.0" fill="#52575F" transform="matrix(1.00, 0.00, -0.00, -1.00, 616.1, 64.0)">i</text><text xml:space="preserve" font-family="CircularStd-Book" font-size="14.0" fill="#52575F" transform="matrix(1.00, 0.00, -0.00, -1.00, 619.7, 64.0)">d</text><text xml:space="preserve" font-family="CircularStd-Book" font-size="14.0" fill="#52575F" transform="matrix(1.00, 0.00, -0.00, -1.00, 627.9, 64.0)">e</text><text xml:space="preserve" font-family="CircularStd-Book" font-size="14.0" fill="#52575F" transform="matrix(1.00, 0.00, -0.00, -1.00, 635.5, 64.0)">o</text><text xml:space="preserve" font-family="CircularStd-Book" font-size="14.0" fill="#52575F" transform="matrix(1.00, 0.00, -0.00, -1.00, 643.5, 64.0)"> </text><text xml:space="preserve" font-family="CircularStd-Book" font-size="14.0" fill="#52575F" transform="matrix(1.00, 0.00, -0.00, -1.00, 647.0, 64.0)">c</text><text xml:space="preserve" font-family="CircularStd-Book" font-size="14.0" fill="#52575F" transform="matrix(1.00, 0.00, -0.00, -1.00, 654.4, 64.0)">r</text><text xml:space="preserve" font-family="CircularStd-Book" font-size="14.0" fill="#52575F" transform="matrix(1.00, 0.00, -0.00, -1.00, 659.5, 64.0)">o</text><text xml:space="preserve" font-family="CircularStd-Book" font-size="14.0" fill="#52575F" transform="matrix(1.00, 0.00, -0.00, -1.00, 667.3, 64.0)">w</text><text xml:space="preserve" font-family="CircularStd-Book" font-size="14.0" fill="#52575F" transform="matrix(1.00, 0.00, -0.00, -1.00, 678.3, 64.0)">d</text><text xml:space="preserve" font-family="CircularStd-Book" font-size="14.0" fill="#52575F" transform="matrix(1.00, 0.00, -0.00, -1.00, 686.5, 64.0)">f</text><text xml:space="preserve" font-family="CircularStd-Book" font-size="14.0" fill="#52575F" transform="matrix(1.00, 0.00, -0.00, -1.00, 691.3, 64.0)">u</text><text xml:space="preserve" font-family="CircularStd-Book" font-size="14.0" fill="#52575F" transform="matrix(1.00, 0.00, -0.00, -1.00, 699.2, 64.0)">n</text><text xml:space="preserve" font-family="CircularStd-Book" font-size="14.0" fill="#52575F" transform="matrix(1.00, 0.00, -0.00, -1.00, 707.1, 64.0)">d</text><text xml:space="preserve" font-family="CircularStd-Book" font-size="14.0" fill="#52575F" transform="matrix(1.00, 0.00, -0.00, -1.00, 715.3, 64.0)">i</text><text xml:space="preserve" font-family="CircularStd-Book" font-size="14.0" fill="#52575F" transform="matrix(1.00, 0.00, -0.00, -1.00, 718.8, 64.0)">n</text><text xml:space="preserve" font-family="CircularStd-Book" font-size="14.0" fill="#52575F" transform="matrix(1.00, 0.00, -0.00, -1.00, 726.7, 64.0)">g</text><text xml:space="preserve" font-family="CircularStd-Book" font-size="14.0" fill="#52575F" transform="matrix(1.00, 0.00, -0.00, -1.00, 734.8, 64.0)"> </text><text xml:space="preserve" font-family="CircularStd-Book" font-size="14.0" fill="#52575F" transform="matrix(1.00, 0.00, -0.00, -1.00, 738.3, 64.0)">p</text><text xml:space="preserve" font-family="CircularStd-Book" font-size="14.0" fill="#52575F" transform="matrix(1.00, 0.00, -0.00, -1.00, 746.6, 64.0)">l</text><text xml:space="preserve" font-family="CircularStd-Book" font-size="14.0" fill="#52575F" transform="matrix(1.00, 0.00, -0.00, -1.00, 750.2, 64.0)">a</text><text xml:space="preserve" font-family="CircularStd-Book" font-size="14.0" fill="#52575F" transform="matrix(1.00, 0.00, -0.00, -1.00, 757.5, 64.0)">t</text><text xml:space="preserve" font-family="CircularStd-Book" font-size="14.0" fill="#52575F" transform="matrix(1.00, 0.00, -0.00, -1.00, 762.4, 64.0)">f</text><text xml:space="preserve" font-family="CircularStd-Book" font-size="14.0" fill="#52575F" transform="matrix(1.00, 0.00, -0.00, -1.00, 767.0, 64.0)">o</text><text xml:space="preserve" font-family="CircularStd-Book" font-size="14.0" fill="#52575F" transform="matrix(1.00, 0.00, -0.00, -1.00, 775.0, 64.0)">r</text><text xml:space="preserve" font-family="CircularStd-Book" font-size="14.0" fill="#52575F" transform="matrix(1.00, 0.00, -0.00, -1.00, 780.1, 64.0)">m</text><text xml:space="preserve" font-family="CircularStd-Book" font-size="14.0" fill="#52575F" transform="matrix(1.00, 0.00, -0.00, -1.00, 792.1, 64.0)">,</text><text xml:space="preserve" font-family="CircularStd-Book" font-size="14.0" fill="#52575F" transform="matrix(1.00, 0.00, -0.00, -1.00, 796.2, 64.0)"> </text><text xml:space="preserve" font-family="CircularStd-Book" font-size="14.0" fill="#52575F" transform="matrix(1.00, 0.00, -0.00, -1.00, 799.7, 64.0)">c</text><text xml:space="preserve" font-family="CircularStd-Book" font-size="14.0" fill="#52575F" transform="matrix(1.00, 0.00, -0.00, -1.00, 807.1, 64.0)">u</text><text xml:space="preserve" font-family="CircularStd-Book" font-size="14.0" fill="#52575F" transform="matrix(1.00, 0.00, -0.00, -1.00, 815.0, 64.0)">r</text><text xml:space="preserve" font-family="CircularStd-Book" font-size="14.0" fill="#52575F" transform="matrix(1.00, 0.00, -0.00, -1.00, 820.1, 64.0)">r</text><text xml:space="preserve" font-family="CircularStd-Book" font-size="14.0" fill="#52575F" transform="matrix(1.00, 0.00, -0.00, -1.00, 825.2, 64.0)">e</text><text xml:space="preserve" font-family="CircularStd-Book" font-size="14.0" fill="#52575F" transform="matrix(1.00, 0.00, -0.00, -1.00, 832.8, 64.0)">n</text><text xml:space="preserve" font-family="CircularStd-Book" font-size="14.0" fill="#52575F" transform="matrix(1.00, 0.00, -0.00, -1.00, 840.7, 64.0)">t</text><text xml:space="preserve" font-family="CircularStd-Book" font-size="14.0" fill="#52575F" transform="matrix(1.00, 0.00, -0.00, -1.00, 845.6, 64.0)">l</text><text xml:space="preserve" font-family="CircularStd-Book" font-size="14.0" fill="#52575F" transform="matrix(1.00, 0.00, -0.00, -1.00, 849.2, 64.0)">y</text><text xml:space="preserve" font-family="CircularStd-Book" font-size="14.0" fill="#52575F" transform="matrix(1.00, 0.00, -0.00, -1.00, 856.5, 64.0)"> </text><text xml:space="preserve" font-family="CircularStd-Book" font-size="14.0" fill="#52575F" transform="matrix(1.00, 0.00, -0.00, -1.00, 860.0, 64.0)">u</text><text xml:space="preserve" font-family="CircularStd-Book" font-size="14.0" fill="#52575F" transform="matrix(1.00, 0.00, -0.00, -1.00, 867.9, 64.0)">n</text><text xml:space="preserve" font-family="CircularStd-Book" font-size="14.0" fill="#52575F" transform="matrix(1.00, 0.00, -0.00, -1.00, 875.8, 64.0)">d</text><text xml:space="preserve" font-family="CircularStd-Book" font-size="14.0" fill="#52575F" transform="matrix(1.00, 0.00, -0.00, -1.00, 884.0, 64.0)">e</text><text xml:space="preserve" font-family="CircularStd-Book" font-size="14.0" fill="#52575F" transform="matrix(1.00, 0.00, -0.00, -1.00, 891.6, 64.0)">r</text><text xml:space="preserve" font-family="CircularStd-Book" font-size="14.0" fill="#52575F" transform="matrix(1.00, 0.00, -0.00, -1.00, 896.8, 64.0)"> </text><text xml:space="preserve" font-family="CircularStd-Book" font-size="14.0" fill="#52575F" transform="matrix(1.00, 0.00, -0.00, -1.00, 498.0, 41.0)">d</text><text xml:space="preserve" font-family="CircularStd-Book" font-size="14.0" fill="#52575F" transform="matrix(1.00, 0.00, -0.00, -1.00, 506.2, 41.0)">e</text><text xml:space="preserve" font-family="CircularStd-Book" font-size="14.0" fill="#52575F" transform="matrix(1.00, 0.00, -0.00, -1.00, 513.7, 41.0)">v</text><text xml:space="preserve" font-family="CircularStd-Book" font-size="14.0" fill="#52575F" transform="matrix(1.00, 0.00, -0.00, -1.00, 520.5, 41.0)">e</text><text xml:space="preserve" font-family="CircularStd-Book" font-size="14.0" fill="#52575F" transform="matrix(1.00, 0.00, -0.00, -1.00, 528.1, 41.0)">l</text><text xml:space="preserve" font-family="CircularStd-Book" font-size="14.0" fill="#52575F" transform="matrix(1.00, 0.00, -0.00, -1.00, 531.6, 41.0)">o</text><text xml:space="preserve" font-family="CircularStd-Book" font-size="14.0" fill="#52575F" transform="matrix(1.00, 0.00, -0.00, -1.00, 539.6, 41.0)">p</text><text xml:space="preserve" font-family="CircularStd-Book" font-size="14.0" fill="#52575F" transform="matrix(1.00, 0.00, -0.00, -1.00, 548.0, 41.0)">m</text><text xml:space="preserve" font-family="CircularStd-Book" font-size="14.0" fill="#52575F" transform="matrix(1.00, 0.00, -0.00, -1.00, 560.0, 41.0)">e</text><text xml:space="preserve" font-family="CircularStd-Book" font-size="14.0" fill="#52575F" transform="matrix(1.00, 0.00, -0.00, -1.00, 567.5, 41.0)">n</text><text xml:space="preserve" font-family="CircularStd-Book" font-size="14.0" fill="#52575F" transform="matrix(1.00, 0.00, -0.00, -1.00, 575.4, 41.0)">t</text><text xml:space="preserve" font-family="CircularStd-Book" font-size="14.0" fill="#52575F" transform="matrix(1.00, 0.00, -0.00, -1.00, 580.4, 41.0)">.</text><text xml:space="preserve" font-family="CircularStd-Book" font-size="14.0" fill="#52575F" transform="matrix(1.00, 0.00, -0.00, -1.00, 584.3, 41.0)"> </text><text xml:space="preserve" font-family="CircularStd-Bold" font-weight="bold" font-size="14.0" fill="#0000FF" transform="matrix(1.00, 0.00, -0.00, -1.00, 587.8, 41.0)">V</text><text xml:space="preserve" font-family="CircularStd-Bold" font-weight="bold" font-size="14.0" fill="#0000FF" transform="matrix(1.00, 0.00, -0.00, -1.00, 597.4, 41.0)">i</text><text xml:space="preserve" font-family="CircularStd-Bold" font-weight="bold" font-size="14.0" fill="#0000FF" transform="matrix(1.00, 0.00, -0.00, -1.00, 601.2, 41.0)">s</text><text xml:space="preserve" font-family="CircularStd-Bold" font-weight="bold" font-size="14.0" fill="#0000FF" transform="matrix(1.00, 0.00, -0.00, -1.00, 607.7, 41.0)">i</text><text xml:space="preserve" font-family="CircularStd-Bold" font-weight="bold" font-size="14.0" fill="#0000FF" transform="matrix(1.00, 0.00, -0.00, -1.00, 611.6, 41.0)">t</text><text xml:space="preserve" font-family="CircularStd-Bold" font-weight="bold" font-size="14.0" fill="#0000FF" transform="matrix(1.00, 0.00, -0.00, -1.00, 616.8, 41.0)"> </text><text xml:space="preserve" font-family="CircularStd-Bold" font-weight="bold" font-size="14.0" fill="#0000FF" transform="matrix(1.00, 0.00, -0.00, -1.00, 620.2, 41.0)">t</text><text xml:space="preserve" font-family="CircularStd-Bold" font-weight="bold" font-size="14.0" fill="#0000FF" transform="matrix(1.00, 0.00, -0.00, -1.00, 625.2, 41.0)">h</text><text xml:space="preserve" font-family="CircularStd-Bold" font-weight="bold" font-size="14.0" fill="#0000FF" transform="matrix(1.00, 0.00, -0.00, -1.00, 633.3, 41.0)">e</text><text xml:space="preserve" font-family="CircularStd-Bold" font-weight="bold" font-size="14.0" fill="#0000FF" transform="matrix(1.00, 0.00, -0.00, -1.00, 640.9, 41.0)">v</text><text xml:space="preserve" font-family="CircularStd-Bold" font-weight="bold" font-size="14.0" fill="#0000FF" transform="matrix(1.00, 0.00, -0.00, -1.00, 648.6, 41.0)">i</text><text xml:space="preserve" font-family="CircularStd-Bold" font-weight="bold" font-size="14.0" fill="#0000FF" transform="matrix(1.00, 0.00, -0.00, -1.00, 652.4, 41.0)">m</text><text xml:space="preserve" font-family="CircularStd-Bold" font-weight="bold" font-size="14.0" fill="#0000FF" transform="matrix(1.00, 0.00, -0.00, -1.00, 664.8, 41.0)">p</text><text xml:space="preserve" font-family="CircularStd-Bold" font-weight="bold" font-size="14.0" fill="#0000FF" transform="matrix(1.00, 0.00, -0.00, -1.00, 673.4, 41.0)">a</text><text xml:space="preserve" font-family="CircularStd-Bold" font-weight="bold" font-size="14.0" fill="#0000FF" transform="matrix(1.00, 0.00, -0.00, -1.00, 680.9, 41.0)">c</text><text xml:space="preserve" font-family="CircularStd-Bold" font-weight="bold" font-size="14.0" fill="#0000FF" transform="matrix(1.00, 0.00, -0.00, -1.00, 688.6, 41.0)">t</text><text xml:space="preserve" font-family="CircularStd-Bold" font-weight="bold" font-size="14.0" fill="#0000FF" transform="matrix(1.00, 0.00, -0.00, -1.00, 693.8, 41.0)">.</text><text xml:space="preserve" font-family="CircularStd-Bold" font-weight="bold" font-size="14.0" fill="#0000FF" transform="matrix(1.00, 0.00, -0.00, -1.00, 697.9, 41.0)">c</text><text xml:space="preserve" font-family="CircularStd-Bold" font-weight="bold" font-size="14.0" fill="#0000FF" transform="matrix(1.00, 0.00, -0.00, -1.00, 705.6, 41.0)">o</text><text xml:space="preserve" font-family="CircularStd-Bold" font-weight="bold" font-size="14.0" fill="#0000FF" transform="matrix(1.00, 0.00, -0.00, -1.00, 713.7, 41.0)">m</text><text xml:space="preserve" font-family="CircularStd-Bold" font-weight="bold" font-size="14.0" fill="#0000FF" transform="matrix(1.00, 0.00, -0.00, -1.00, 726.1, 41.0)"> </text><text xml:space="preserve" font-family="CircularStd-Bold" font-weight="bold" font-size="14.0" fill="#0000FF" transform="matrix(1.00, 0.00, -0.00, -1.00, 729.6, 41.0)">→</text><g><clipPath id="clip-187"><path d="M 619.0 37.3 L 725.9 37.3 L 725.9 40.4 L 619.0 40.4 Z M 619.0 37.3 "></path></clipPath><g clip-path="url(#clip-187)"><path d="M 126.2 67.2 L 232.1 67.2 " fill="none" stroke="#0000FF" stroke-width="1.12" stroke-miterlimit="0.00" transform="matrix(1.00, 0.00, 0.00, -1.00, 493.8, 106.1)"></path></g></g><text xml:space="preserve" font-family="CircularStd-Bold" font-weight="bold" font-size="12.0" fill="#52575F" transform="matrix(1.00, 0.00, -0.00, -1.00, 65.0, 88.0)">C</text><text xml:space="preserve" font-family="CircularStd-Bold" font-weight="bold" font-size="12.0" fill="#52575F" transform="matrix(1.00, 0.00, -0.00, -1.00, 74.2, 88.0)">L</text><text xml:space="preserve" font-family="CircularStd-Bold" font-weight="bold" font-size="12.0" fill="#52575F" transform="matrix(1.00, 0.00, -0.00, -1.00, 80.9, 88.0)">I</text><text xml:space="preserve" font-family="CircularStd-Bold" font-weight="bold" font-size="12.0" fill="#52575F" transform="matrix(1.00, 0.00, -0.00, -1.00, 84.5, 88.0)">E</text><text xml:space="preserve" font-family="CircularStd-Bold" font-weight="bold" font-size="12.0" fill="#52575F" transform="matrix(1.00, 0.00, -0.00, -1.00, 91.5, 88.0)">N</text><text xml:space="preserve" font-family="CircularStd-Bold" font-weight="bold" font-size="12.0" fill="#52575F" transform="matrix(1.00, 0.00, -0.00, -1.00, 100.7, 88.0)">T</text><text xml:space="preserve" font-family="CircularStd-Bold" font-weight="bold" font-size="12.0" fill="#52575F" transform="matrix(1.00, 0.00, -0.00, -1.00, 240.0, 88.0)">S</text><text xml:space="preserve" font-family="CircularStd-Bold" font-weight="bold" font-size="12.0" fill="#52575F" transform="matrix(1.00, 0.00, -0.00, -1.00, 247.2, 88.0)">E</text><text xml:space="preserve" font-family="CircularStd-Bold" font-weight="bold" font-size="12.0" fill="#52575F" transform="matrix(1.00, 0.00, -0.00, -1.00, 254.2, 88.0)">R</text><text xml:space="preserve" font-family="CircularStd-Bold" font-weight="bold" font-size="12.0" fill="#52575F" transform="matrix(1.00, 0.00, -0.00, -1.00, 261.7, 88.0)">V</text><text xml:space="preserve" font-family="CircularStd-Bold" font-weight="bold" font-size="12.0" fill="#52575F" transform="matrix(1.00, 0.00, -0.00, -1.00, 269.9, 88.0)">I</text><text xml:space="preserve" font-family="CircularStd-Bold" font-weight="bold" font-size="12.0" fill="#52575F" transform="matrix(1.00, 0.00, -0.00, -1.00, 273.5, 88.0)">C</text><text xml:space="preserve" font-family="CircularStd-Bold" font-weight="bold" font-size="12.0" fill="#52575F" transform="matrix(1.00, 0.00, -0.00, -1.00, 282.7, 88.0)">E</text><text xml:space="preserve" font-family="CircularStd-Bold" font-weight="bold" font-size="12.0" fill="#52575F" transform="matrix(1.00, 0.00, -0.00, -1.00, 289.7, 88.0)">S</text><text xml:space="preserve" font-family="CircularStd-Book" font-size="16.0" fill="#52575F" transform="matrix(1.00, 0.00, -0.00, -1.00, 65.0, 67.0)">V</text><text xml:space="preserve" font-family="CircularStd-Book" font-size="16.0" fill="#52575F" transform="matrix(1.00, 0.00, -0.00, -1.00, 75.5, 67.0)">i</text><text xml:space="preserve" font-family="CircularStd-Book" font-size="16.0" fill="#52575F" transform="matrix(1.00, 0.00, -0.00, -1.00, 79.6, 67.0)">m</text><text xml:space="preserve" font-family="CircularStd-Book" font-size="16.0" fill="#52575F" transform="matrix(1.00, 0.00, -0.00, -1.00, 93.3, 67.0)">p</text><text xml:space="preserve" font-family="CircularStd-Book" font-size="16.0" fill="#52575F" transform="matrix(1.00, 0.00, -0.00, -1.00, 102.8, 67.0)">a</text><text xml:space="preserve" font-family="CircularStd-Book" font-size="16.0" fill="#52575F" transform="matrix(1.00, 0.00, -0.00, -1.00, 111.1, 67.0)">c</text><text xml:space="preserve" font-family="CircularStd-Book" font-size="16.0" fill="#52575F" transform="matrix(1.00, 0.00, -0.00, -1.00, 119.6, 67.0)">t</text><text xml:space="preserve" font-family="CircularStd-Book" font-size="16.0" fill="#52575F" transform="matrix(1.00, 0.00, -0.00, -1.00, 240.0, 67.0)">U</text><text xml:space="preserve" font-family="CircularStd-Book" font-size="16.0" fill="#52575F" transform="matrix(1.00, 0.00, -0.00, -1.00, 250.7, 67.0)">X</text><text xml:space="preserve" font-family="CircularStd-Book" font-size="16.0" fill="#52575F" transform="matrix(1.00, 0.00, -0.00, -1.00, 260.8, 67.0)">/</text><text xml:space="preserve" font-family="CircularStd-Book" font-size="16.0" fill="#52575F" transform="matrix(1.00, 0.00, -0.00, -1.00, 267.7, 67.0)">U</text><text xml:space="preserve" font-family="CircularStd-Book" font-size="16.0" fill="#52575F" transform="matrix(1.00, 0.00, -0.00, -1.00, 278.4, 67.0)">I</text><text xml:space="preserve" font-family="CircularStd-Book" font-size="16.0" fill="#52575F" transform="matrix(1.00, 0.00, -0.00, -1.00, 282.9, 67.0)"> </text><text xml:space="preserve" font-family="CircularStd-Book" font-size="16.0" fill="#52575F" transform="matrix(1.00, 0.00, -0.00, -1.00, 286.9, 67.0)">D</text><text xml:space="preserve" font-family="CircularStd-Book" font-size="16.0" fill="#52575F" transform="matrix(1.00, 0.00, -0.00, -1.00, 298.4, 67.0)">e</text><text xml:space="preserve" font-family="CircularStd-Book" font-size="16.0" fill="#52575F" transform="matrix(1.00, 0.00, -0.00, -1.00, 307.1, 67.0)">s</text><text xml:space="preserve" font-family="CircularStd-Book" font-size="16.0" fill="#52575F" transform="matrix(1.00, 0.00, -0.00, -1.00, 314.3, 67.0)">i</text><text xml:space="preserve" font-family="CircularStd-Book" font-size="16.0" fill="#52575F" transform="matrix(1.00, 0.00, -0.00, -1.00, 318.4, 67.0)">g</text><text xml:space="preserve" font-family="CircularStd-Book" font-size="16.0" fill="#52575F" transform="matrix(1.00, 0.00, -0.00, -1.00, 327.6, 67.0)">n</text><text xml:space="preserve" font-family="CircularStd-Book" font-size="16.0" fill="#52575F" transform="matrix(1.00, 0.00, -0.00, -1.00, 336.6, 67.0)">,</text><text xml:space="preserve" font-family="CircularStd-Book" font-size="16.0" fill="#52575F" transform="matrix(1.00, 0.00, -0.00, -1.00, 341.3, 67.0)"> </text><text xml:space="preserve" font-family="CircularStd-Book" font-size="16.0" fill="#52575F" transform="matrix(1.00, 0.00, -0.00, -1.00, 345.3, 67.0)">i</text><text xml:space="preserve" font-family="CircularStd-Book" font-size="16.0" fill="#52575F" transform="matrix(1.00, 0.00, -0.00, -1.00, 349.4, 67.0)">O</text><text xml:space="preserve" font-family="CircularStd-Book" font-size="16.0" fill="#52575F" transform="matrix(1.00, 0.00, -0.00, -1.00, 362.1, 67.0)">S</text><text xml:space="preserve" font-family="CircularStd-Book" font-size="16.0" fill="#52575F" transform="matrix(1.00, 0.00, -0.00, -1.00, 371.6, 67.0)"> </text><text xml:space="preserve" font-family="CircularStd-Book" font-size="16.0" fill="#52575F" transform="matrix(1.00, 0.00, -0.00, -1.00, 375.6, 67.0)">D</text><text xml:space="preserve" font-family="CircularStd-Book" font-size="16.0" fill="#52575F" transform="matrix(1.00, 0.00, -0.00, -1.00, 387.1, 67.0)">e</text><text xml:space="preserve" font-family="CircularStd-Book" font-size="16.0" fill="#52575F" transform="matrix(1.00, 0.00, -0.00, -1.00, 395.8, 67.0)">s</text><text xml:space="preserve" font-family="CircularStd-Book" font-size="16.0" fill="#52575F" transform="matrix(1.00, 0.00, -0.00, -1.00, 403.0, 67.0)">i</text><text xml:space="preserve" font-family="CircularStd-Book" font-size="16.0" fill="#52575F" transform="matrix(1.00, 0.00, -0.00, -1.00, 407.1, 67.0)">g</text><text xml:space="preserve" font-family="CircularStd-Book" font-size="16.0" fill="#52575F" transform="matrix(1.00, 0.00, -0.00, -1.00, 416.3, 67.0)">n</text><text xml:space="preserve" font-family="CircularStd-Book" font-size="16.0" fill="#52575F" transform="matrix(1.00, 0.00, -0.00, -1.00, 425.3, 67.0)">,</text><text xml:space="preserve" font-family="CircularStd-Book" font-size="16.0" fill="#52575F" transform="matrix(1.00, 0.00, -0.00, -1.00, 430.0, 67.0)"> </text><text xml:space="preserve" font-family="CircularStd-Book" font-size="16.0" fill="#52575F" transform="matrix(1.00, 0.00, -0.00, -1.00, 240.0, 47.0)">W</text><text xml:space="preserve" font-family="CircularStd-Book" font-size="16.0" fill="#52575F" transform="matrix(1.00, 0.00, -0.00, -1.00, 255.5, 47.0)">e</text><text xml:space="preserve" font-family="CircularStd-Book" font-size="16.0" fill="#52575F" transform="matrix(1.00, 0.00, -0.00, -1.00, 264.2, 47.0)">b</text><text xml:space="preserve" font-family="CircularStd-Book" font-size="16.0" fill="#52575F" transform="matrix(1.00, 0.00, -0.00, -1.00, 273.7, 47.0)"> </text><text xml:space="preserve" font-family="CircularStd-Book" font-size="16.0" fill="#52575F" transform="matrix(1.00, 0.00, -0.00, -1.00, 277.7, 47.0)">D</text><text xml:space="preserve" font-family="CircularStd-Book" font-size="16.0" fill="#52575F" transform="matrix(1.00, 0.00, -0.00, -1.00, 289.2, 47.0)">e</text><text xml:space="preserve" font-family="CircularStd-Book" font-size="16.0" fill="#52575F" transform="matrix(1.00, 0.00, -0.00, -1.00, 297.7, 47.0)">v</text><text xml:space="preserve" font-family="CircularStd-Book" font-size="16.0" fill="#52575F" transform="matrix(1.00, 0.00, -0.00, -1.00, 305.5, 47.0)">e</text><text xml:space="preserve" font-family="CircularStd-Book" font-size="16.0" fill="#52575F" transform="matrix(1.00, 0.00, -0.00, -1.00, 314.2, 47.0)">l</text><text xml:space="preserve" font-family="CircularStd-Book" font-size="16.0" fill="#52575F" transform="matrix(1.00, 0.00, -0.00, -1.00, 318.2, 47.0)">o</text><text xml:space="preserve" font-family="CircularStd-Book" font-size="16.0" fill="#52575F" transform="matrix(1.00, 0.00, -0.00, -1.00, 327.4, 47.0)">p</text><text xml:space="preserve" font-family="CircularStd-Book" font-size="16.0" fill="#52575F" transform="matrix(1.00, 0.00, -0.00, -1.00, 336.9, 47.0)">m</text><text xml:space="preserve" font-family="CircularStd-Book" font-size="16.0" fill="#52575F" transform="matrix(1.00, 0.00, -0.00, -1.00, 350.6, 47.0)">e</text><text xml:space="preserve" font-family="CircularStd-Book" font-size="16.0" fill="#52575F" transform="matrix(1.00, 0.00, -0.00, -1.00, 359.2, 47.0)">n</text><text xml:space="preserve" font-family="CircularStd-Book" font-size="16.0" fill="#52575F" transform="matrix(1.00, 0.00, -0.00, -1.00, 368.2, 47.0)">t</text></g></svg>