<?xml version="1.0" encoding="UTF-8" standalone="no"?><svg xmlns="http://www.w3.org/2000/svg" xmlns:xlink="http://www.w3.org/1999/xlink" clip-rule="evenodd" stroke-miterlimit="4.00" viewBox="0 0 1024 768"><desc>SVG generated by Keynote</desc><defs></defs><g transform="matrix(1.00, 0.00, -0.00, -1.00, 0.0, 768.0)"><path d="M 0.0 768.0 L 1024.0 768.0 L 1024.0 0.0 L 0.0 0.0 Z M 0.0 768.0 " fill="#F4F4F4"></path><g><clipPath id="clip-168"><path d="M 198.0 -332.0 L 792.0 -332.0 L 792.0 584.0 L 198.0 584.0 Z M 198.0 -332.0 "></path></clipPath><g clip-path="url(#clip-168)"><image xlink:href="D912EDB817B98857AD71C20B0E6B6B09.png" width="800.00" height="1234.00" transform="matrix(0.74, 0.00, -0.00, -0.74, 198.0, 584.0)"></image></g></g><path d="M -12.3 199.6 L 974.9 199.6 L 974.9 -2.0 L -12.3 -2.0 Z M -12.3 199.6 " fill="#F4F4F4"></path><path d="M 35.9 778.0 L 1023.1 778.0 L 1023.1 584.5 L 35.9 584.5 Z M 35.9 778.0 " fill="#F4F4F4"></path><image xlink:href="../../615F7CD4-E262-41F7-8138-806EC6AB1FAB/assets/93D2A96739FFD88A3F4D5D3647EA3BF6.png" width="36.00" height="40.00" transform="matrix(1.00, 0.00, -0.00, -1.00, 64.0, 704.0)"></image><path d="M 470.9 161.6 L 529.5 161.6 L 529.5 136.2 L 470.9 136.2 Z M 470.9 161.6 " fill="#F7F9FA"></path><text xml:space="preserve" font-family="CircularStd-Book" font-size="18.0" fill="#A6AAA8" transform="matrix(1.00, 0.00, -0.00, -1.00, 766.1, 677.6)">P</text><text xml:space="preserve" font-family="CircularStd-Book" font-size="18.0" fill="#A6AAA8" transform="matrix(1.00, 0.00, -0.00, -1.00, 776.7, 677.6)">l</text><text xml:space="preserve" font-family="CircularStd-Book" font-size="18.0" fill="#A6AAA8" transform="matrix(1.00, 0.00, -0.00, -1.00, 781.3, 677.6)">e</text><text xml:space="preserve" font-family="CircularStd-Book" font-size="18.0" fill="#A6AAA8" transform="matrix(1.00, 0.00, -0.00, -1.00, 791.0, 677.6)">a</text><text xml:space="preserve" font-family="CircularStd-Book" font-size="18.0" fill="#A6AAA8" transform="matrix(1.00, 0.00, -0.00, -1.00, 800.4, 677.6)">s</text><text xml:space="preserve" font-family="CircularStd-Book" font-size="18.0" fill="#A6AAA8" transform="matrix(1.00, 0.00, -0.00, -1.00, 808.5, 677.6)">e</text><text xml:space="preserve" font-family="CircularStd-Book" font-size="18.0" fill="#A6AAA8" transform="matrix(1.00, 0.00, -0.00, -1.00, 818.2, 677.6)"> </text><text xml:space="preserve" font-family="CircularStd-Book" font-size="18.0" fill="#A6AAA8" transform="matrix(1.00, 0.00, -0.00, -1.00, 822.7, 677.6)">d</text><text xml:space="preserve" font-family="CircularStd-Book" font-size="18.0" fill="#A6AAA8" transform="matrix(1.00, 0.00, -0.00, -1.00, 833.3, 677.6)">o</text><text xml:space="preserve" font-family="CircularStd-Book" font-size="18.0" fill="#A6AAA8" transform="matrix(1.00, 0.00, -0.00, -1.00, 843.6, 677.6)"> </text><text xml:space="preserve" font-family="CircularStd-Book" font-size="18.0" fill="#A6AAA8" transform="matrix(1.00, 0.00, -0.00, -1.00, 848.1, 677.6)">n</text><text xml:space="preserve" font-family="CircularStd-Book" font-size="18.0" fill="#A6AAA8" transform="matrix(1.00, 0.00, -0.00, -1.00, 858.2, 677.6)">o</text><text xml:space="preserve" font-family="CircularStd-Book" font-size="18.0" fill="#A6AAA8" transform="matrix(1.00, 0.00, -0.00, -1.00, 868.4, 677.6)">t</text><text xml:space="preserve" font-family="CircularStd-Book" font-size="18.0" fill="#A6AAA8" transform="matrix(1.00, 0.00, -0.00, -1.00, 874.8, 677.6)"> </text><text xml:space="preserve" font-family="CircularStd-Book" font-size="18.0" fill="#A6AAA8" transform="matrix(1.00, 0.00, -0.00, -1.00, 879.3, 677.6)">d</text><text xml:space="preserve" font-family="CircularStd-Book" font-size="18.0" fill="#A6AAA8" transform="matrix(1.00, 0.00, -0.00, -1.00, 889.9, 677.6)">i</text><text xml:space="preserve" font-family="CircularStd-Book" font-size="18.0" fill="#A6AAA8" transform="matrix(1.00, 0.00, -0.00, -1.00, 894.5, 677.6)">s</text><text xml:space="preserve" font-family="CircularStd-Book" font-size="18.0" fill="#A6AAA8" transform="matrix(1.00, 0.00, -0.00, -1.00, 902.6, 677.6)">t</text><text xml:space="preserve" font-family="CircularStd-Book" font-size="18.0" fill="#A6AAA8" transform="matrix(1.00, 0.00, -0.00, -1.00, 908.8, 677.6)">r</text><text xml:space="preserve" font-family="CircularStd-Book" font-size="18.0" fill="#A6AAA8" transform="matrix(1.00, 0.00, -0.00, -1.00, 915.4, 677.6)">i</text><text xml:space="preserve" font-family="CircularStd-Book" font-size="18.0" fill="#A6AAA8" transform="matrix(1.00, 0.00, -0.00, -1.00, 920.0, 677.6)">b</text><text xml:space="preserve" font-family="CircularStd-Book" font-size="18.0" fill="#A6AAA8" transform="matrix(1.00, 0.00, -0.00, -1.00, 930.5, 677.6)">u</text><text xml:space="preserve" font-family="CircularStd-Book" font-size="18.0" fill="#A6AAA8" transform="matrix(1.00, 0.00, -0.00, -1.00, 940.7, 677.6)">t</text><text xml:space="preserve" font-family="CircularStd-Book" font-size="18.0" fill="#A6AAA8" transform="matrix(1.00, 0.00, -0.00, -1.00, 947.0, 677.6)">e</text><text xml:space="preserve" font-family="CircularStd-Book" font-size="18.0" fill="#A6AAA8" transform="matrix(1.00, 0.00, -0.00, -1.00, 956.5, 677.6)">.</text><text xml:space="preserve" font-family="CircularStd-Book" font-size="18.0" fill="#52575F" transform="matrix(1.00, 0.00, -0.00, -1.00, 107.0, 675.0)">M</text><text xml:space="preserve" font-family="CircularStd-Book" font-size="18.0" fill="#52575F" transform="matrix(1.00, 0.00, -0.00, -1.00, 124.0, 675.0)">i</text><text xml:space="preserve" font-family="CircularStd-Book" font-size="18.0" fill="#52575F" transform="matrix(1.00, 0.00, -0.00, -1.00, 128.6, 675.0)">c</text><text xml:space="preserve" font-family="CircularStd-Book" font-size="18.0" fill="#52575F" transform="matrix(1.00, 0.00, -0.00, -1.00, 138.1, 675.0)">h</text><text xml:space="preserve" font-family="CircularStd-Book" font-size="18.0" fill="#52575F" transform="matrix(1.00, 0.00, -0.00, -1.00, 148.2, 675.0)">a</text><text xml:space="preserve" font-family="CircularStd-Book" font-size="18.0" fill="#52575F" transform="matrix(1.00, 0.00, -0.00, -1.00, 157.7, 675.0)">e</text><text xml:space="preserve" font-family="CircularStd-Book" font-size="18.0" fill="#52575F" transform="matrix(1.00, 0.00, -0.00, -1.00, 167.4, 675.0)">l</text><text xml:space="preserve" font-family="CircularStd-Book" font-size="18.0" fill="#52575F" transform="matrix(1.00, 0.00, -0.00, -1.00, 172.0, 675.0)"> </text><text xml:space="preserve" font-family="CircularStd-Book" font-size="18.0" fill="#52575F" transform="matrix(1.00, 0.00, -0.00, -1.00, 176.5, 675.0)">S</text><text xml:space="preserve" font-family="CircularStd-Book" font-size="18.0" fill="#52575F" transform="matrix(1.00, 0.00, -0.00, -1.00, 186.7, 675.0)">u</text><text xml:space="preserve" font-family="CircularStd-Book" font-size="18.0" fill="#52575F" transform="matrix(1.00, 0.00, -0.00, -1.00, 196.8, 675.0)">e</text><text xml:space="preserve" font-family="CircularStd-Book" font-size="18.0" fill="#52575F" transform="matrix(1.00, 0.00, -0.00, -1.00, 206.6, 675.0)">n</text><g><clipPath id="clip-169"><path d="M 59.0 651.0 L 942.0 651.0 L 942.0 99.0 L 59.0 99.0 Z M 58.6 650.9 "></path></clipPath><g clip-path="url(#clip-169)"><image xlink:href="../../18B53B78-ECDB-47A7-AEEA-2274D68A863F/assets/736775127E128457E50D130A0CBECF5D.png" width="864.00" height="540.00" transform="matrix(1.02, 0.00, -0.00, -1.02, 59.0, 651.0)"></image></g></g><path d="M 171.5 55.0 C 171.7 55.0 172.8 55.1 172.8 54.9 C 172.4 54.9 171.5 54.8 171.5 55.0 C 171.5 55.0 171.5 55.0 171.5 55.0 Z M 169.3 55.0 C 169.7 55.1 170.6 55.1 170.8 55.0 C 170.4 55.0 169.5 54.9 169.3 55.0 C 169.3 55.0 169.3 55.0 169.3 55.0 Z M 172.6 54.6 C 173.2 54.6 174.2 54.7 174.5 54.5 C 173.9 54.6 172.9 54.5 172.6 54.6 C 172.6 54.6 172.6 54.6 172.6 54.6 Z M 142.5 57.1 C 142.8 57.2 143.8 57.2 143.8 57.0 C 143.4 57.1 142.6 57.0 142.5 57.1 C 142.5 57.1 142.5 57.1 142.5 57.1 Z M 148.5 56.7 C 148.9 56.8 149.7 56.8 150.0 56.7 C 149.5 56.7 148.6 56.6 148.5 56.7 C 148.5 56.7 148.5 56.7 148.5 56.7 Z M 151.9 56.8 C 152.7 56.8 153.6 56.8 153.4 56.7 C 153.2 56.8 152.0 56.6 151.9 56.8 C 151.9 56.8 151.9 56.8 151.9 56.8 Z M 171.9 48.6 C 171.1 48.7 170.4 48.6 169.9 48.6 C 166.9 48.6 171.4 48.9 171.9 48.6 C 171.9 48.6 171.9 48.6 171.9 48.6 Z M 158.0 56.3 C 157.4 56.3 157.0 56.4 156.7 56.4 C 157.2 56.4 158.0 56.5 158.0 56.3 C 158.0 56.3 158.0 56.3 158.0 56.3 Z M 163.0 56.2 C 163.1 56.3 166.1 56.2 167.7 56.1 C 166.4 56.1 162.9 56.1 163.0 56.2 C 163.0 56.2 163.0 56.2 163.0 56.2 Z M 165.0 48.6 C 163.0 48.7 160.0 48.7 158.6 48.8 C 157.2 48.8 161.0 48.9 164.6 48.9 C 168.1 48.8 165.2 48.5 166.7 48.5 C 168.1 48.4 165.3 48.4 163.8 48.4 C 162.4 48.5 164.8 48.5 165.0 48.6 C 165.0 48.6 165.0 48.6 165.0 48.6 Z M 165.0 48.1 C 165.7 48.1 166.4 48.0 166.7 48.0 C 166.0 47.9 165.3 47.9 165.0 48.1 C 165.0 48.1 165.0 48.1 165.0 48.1 Z M 61.9 51.8 C 62.2 53.3 63.8 54.5 65.7 55.4 C 66.1 55.6 66.6 55.7 67.1 55.9 C 70.4 56.6 73.8 56.9 77.2 57.1 C 77.9 57.1 78.5 57.1 79.2 57.2 C 81.3 57.3 83.4 57.3 85.5 57.3 C 86.2 57.4 86.9 57.4 87.6 57.4 C 90.1 57.6 92.5 57.4 95.0 57.4 C 96.2 57.4 97.5 57.5 98.8 57.7 C 99.4 57.8 102.2 57.7 103.2 57.6 C 102.2 57.9 106.8 57.8 106.6 57.8 C 107.1 57.7 107.6 57.6 108.1 57.6 C 108.6 57.5 108.0 57.5 107.3 57.4 C 107.9 57.4 108.5 57.3 109.1 57.3 C 109.7 57.3 110.4 57.4 111.0 57.4 C 113.1 57.5 115.4 57.4 117.4 57.2 C 122.8 57.3 137.5 57.1 134.8 57.1 C 131.8 57.0 133.4 56.9 134.2 56.8 C 134.7 56.8 135.3 56.8 136.0 56.8 C 136.0 56.9 135.9 56.9 135.8 56.9 C 137.2 57.0 139.1 57.2 140.9 57.0 C 140.6 57.0 140.1 57.0 140.0 56.9 C 140.9 56.9 140.2 56.7 140.8 56.7 C 142.5 56.7 143.3 56.6 141.3 56.6 C 143.2 56.5 144.3 56.2 146.1 56.0 C 146.8 56.1 146.5 56.1 146.3 56.1 C 147.5 56.2 150.2 56.2 150.5 56.3 C 150.7 56.4 143.0 56.3 144.4 56.4 C 144.9 56.4 146.1 56.4 146.5 56.5 C 145.6 56.5 144.3 56.5 143.7 56.6 C 144.4 56.6 145.4 56.6 145.9 56.6 C 145.2 56.6 144.8 56.6 144.6 56.7 C 145.5 56.7 146.3 56.7 147.4 56.7 C 147.9 56.7 147.0 56.6 148.0 56.6 C 148.2 56.5 147.3 56.6 147.4 56.5 C 148.3 56.5 150.0 56.5 150.4 56.4 C 150.9 56.4 149.4 56.4 149.3 56.4 C 152.7 56.3 156.5 56.3 157.7 56.3 C 158.9 56.2 157.8 56.2 157.3 56.2 C 158.7 56.1 159.7 56.1 161.4 56.1 C 162.4 56.1 162.0 56.1 161.6 56.0 C 161.9 56.0 162.1 56.0 162.3 56.0 C 162.4 56.0 162.7 56.0 162.9 55.9 C 162.3 55.9 161.1 55.9 160.5 55.9 C 161.5 55.8 163.8 55.9 164.7 55.8 C 163.3 55.7 161.9 55.7 160.4 55.7 C 163.3 55.6 166.3 55.9 168.6 55.6 C 168.2 55.6 168.0 55.5 167.7 55.5 C 168.6 55.5 169.9 55.7 170.7 55.5 C 171.1 55.4 172.0 55.4 172.9 55.4 C 171.4 55.3 170.3 55.3 169.3 55.3 C 169.3 55.3 169.4 55.3 169.6 55.3 C 167.2 55.0 165.8 55.5 164.1 55.5 C 164.0 55.5 163.9 55.5 163.7 55.5 C 163.2 55.4 165.1 55.4 165.3 55.3 C 162.8 55.3 160.0 55.4 158.8 55.2 C 161.8 55.2 164.4 55.2 166.7 55.1 C 166.1 54.9 163.8 55.0 162.8 54.9 C 167.7 54.8 168.2 54.8 168.6 54.7 C 168.2 54.7 167.8 54.7 167.4 54.7 C 167.5 54.7 167.6 54.7 167.7 54.6 C 169.9 54.6 172.4 54.6 172.3 54.6 C 172.2 54.5 170.2 54.5 168.1 54.5 C 168.3 54.4 168.5 54.4 168.8 54.3 C 171.2 54.3 174.0 54.0 176.4 54.1 C 176.0 54.0 176.2 54.0 176.7 53.9 C 175.9 53.8 174.8 53.8 174.0 53.7 C 174.3 53.7 174.8 53.7 175.0 53.7 C 174.6 53.6 173.9 53.6 173.7 53.5 C 174.9 53.5 176.1 53.5 177.3 53.4 C 177.6 53.3 176.8 53.4 176.9 53.3 C 178.0 53.3 179.6 53.3 180.5 53.2 C 179.5 53.1 177.6 53.2 177.0 53.1 C 177.4 53.1 177.8 53.0 178.2 53.0 C 179.0 53.0 179.3 52.9 178.4 52.9 C 178.0 52.8 178.0 52.8 178.1 52.8 C 178.6 52.7 180.5 52.7 180.5 52.5 C 180.0 52.5 178.1 52.5 177.6 52.4 C 178.0 52.3 179.0 52.4 179.1 52.2 C 177.0 52.3 177.1 52.2 176.5 52.3 C 176.8 52.3 177.4 52.3 177.3 52.4 C 176.1 52.4 174.8 52.4 173.5 52.4 C 173.5 52.4 173.5 52.4 173.5 52.4 C 173.5 52.4 173.5 52.4 173.5 52.4 C 173.5 52.4 173.5 52.4 173.5 52.4 C 173.6 52.3 173.5 52.1 173.4 52.1 C 174.0 52.1 174.6 52.0 175.6 52.0 C 175.3 51.8 174.4 51.9 173.5 51.9 C 173.5 51.9 173.5 51.9 173.5 51.8 C 174.9 51.8 177.1 51.8 178.6 51.7 C 177.9 51.6 175.4 51.6 173.8 51.7 C 173.8 51.6 173.9 51.6 173.9 51.6 C 171.8 51.6 169.4 51.4 167.0 51.5 C 168.1 51.3 169.5 51.5 170.9 51.4 C 171.6 51.4 172.2 51.3 172.9 51.2 C 174.8 51.3 180.3 51.3 181.0 51.2 C 181.7 51.1 176.0 51.1 176.0 51.0 C 176.0 51.0 178.6 50.9 177.3 50.9 C 176.7 51.0 175.3 51.0 174.3 51.0 C 174.2 50.9 174.2 50.8 174.2 50.6 C 175.1 50.6 176.1 50.6 176.1 50.8 C 176.6 50.8 177.5 50.9 177.7 50.8 C 177.5 50.7 177.3 50.8 177.3 50.7 C 177.5 50.7 177.8 50.7 177.8 50.6 C 176.8 50.6 175.3 50.6 174.1 50.6 C 174.0 50.5 173.9 50.5 173.8 50.4 C 173.8 50.4 174.7 50.3 175.5 50.3 C 176.4 50.3 174.6 50.2 173.3 50.2 C 173.0 50.2 172.8 50.1 172.6 50.1 C 173.1 50.1 173.6 50.1 174.3 50.0 C 175.0 50.0 175.0 49.9 175.8 49.8 C 174.4 49.7 172.7 49.7 171.4 49.8 C 170.9 49.7 170.4 49.6 169.9 49.4 C 171.0 49.4 172.0 49.3 172.6 49.2 C 173.1 49.2 173.6 49.2 173.8 49.2 C 173.4 49.1 174.6 49.1 174.4 49.0 C 173.7 49.1 172.4 49.0 171.9 49.2 C 170.9 49.2 169.8 49.2 168.8 49.2 C 168.7 49.2 168.5 49.2 168.4 49.2 C 169.2 49.1 170.0 49.1 171.0 49.1 C 170.5 48.9 168.0 48.9 166.2 49.0 C 162.6 48.8 158.8 49.5 155.2 49.7 C 155.0 49.7 154.8 49.6 154.6 49.6 C 154.3 49.5 154.0 49.5 153.8 49.4 C 154.6 49.4 155.4 49.4 156.1 49.4 C 153.5 49.2 159.8 49.2 160.2 49.1 C 156.0 48.9 148.1 49.0 143.2 48.9 C 144.4 48.9 144.8 48.8 143.5 48.8 C 143.2 48.8 142.8 48.8 142.5 48.7 C 147.4 48.6 152.6 48.9 156.5 48.6 C 154.2 48.6 150.6 48.7 149.6 48.5 C 150.3 48.5 151.3 48.5 151.5 48.5 C 150.3 48.3 146.2 48.5 145.1 48.4 C 150.8 48.2 158.7 48.4 163.0 48.1 C 156.5 48.2 147.8 48.0 142.3 48.3 C 143.3 48.3 143.3 48.3 142.8 48.4 C 141.1 48.4 139.3 48.5 137.6 48.5 C 137.2 48.5 137.3 48.5 138.2 48.4 C 138.9 48.4 139.3 48.4 139.5 48.3 C 139.1 48.3 133.6 48.3 137.9 48.2 C 142.3 48.2 149.7 48.1 145.4 48.0 C 141.0 48.0 139.3 47.9 141.6 47.8 C 144.0 47.8 151.6 47.6 149.1 47.6 C 146.6 47.6 141.2 47.4 138.2 47.5 C 135.2 47.5 140.2 48.0 135.8 48.0 C 131.4 48.0 135.1 47.8 134.2 47.8 C 132.9 47.8 130.4 47.8 128.1 47.8 C 126.4 47.8 124.3 47.8 123.2 47.7 C 123.3 47.6 128.3 47.7 126.3 47.6 C 121.5 47.6 116.0 47.6 118.3 47.8 C 115.2 47.8 113.0 47.8 111.1 47.8 C 108.2 47.6 104.8 47.7 104.4 47.6 C 104.0 47.5 96.0 47.9 93.0 47.4 C 92.8 47.4 87.4 47.5 87.0 47.7 C 81.8 47.5 82.6 47.4 77.5 47.5 C 73.3 47.5 72.0 47.6 71.3 47.6 C 66.9 47.7 66.9 47.5 64.7 48.3 C 64.1 48.5 63.1 48.5 62.7 48.9 C 62.0 49.6 61.7 50.6 61.9 51.8 C 61.9 51.8 61.9 51.8 61.9 51.8 Z M 172.9 52.6 C 173.7 52.7 175.1 52.6 175.9 52.7 C 175.0 52.9 173.8 52.8 172.6 52.8 C 172.7 52.7 172.8 52.7 172.9 52.6 C 172.9 52.6 172.9 52.6 172.9 52.6 Z M 166.8 50.3 C 167.3 50.3 168.0 50.4 168.6 50.4 C 169.1 50.4 169.7 50.4 170.6 50.3 C 170.5 50.3 169.1 50.2 168.0 50.2 C 168.0 50.2 168.0 50.1 168.0 50.1 C 168.5 50.0 169.1 50.0 169.9 50.0 C 170.1 50.0 170.4 50.0 170.7 50.0 C 170.7 50.1 170.3 50.1 170.1 50.1 C 170.3 50.2 171.0 50.3 171.8 50.3 C 171.9 50.4 172.0 50.4 172.1 50.4 C 172.3 50.5 171.6 50.6 172.3 50.6 C 171.8 50.7 170.5 50.6 169.7 50.6 C 170.6 50.3 167.2 50.5 166.3 50.4 C 166.5 50.4 166.6 50.3 166.8 50.3 Z M 160.2 55.6 C 159.7 55.6 159.3 55.6 158.8 55.6 C 159.5 55.6 160.0 55.6 160.5 55.6 C 160.4 55.6 160.3 55.6 160.2 55.6 Z M 121.5 56.8 C 124.3 56.5 130.2 56.8 130.6 56.6 C 131.2 56.6 131.8 56.7 132.5 56.7 C 128.5 56.7 124.3 56.8 121.5 56.8 C 121.5 56.8 121.5 56.8 121.5 56.8 Z M 131.5 48.4 C 131.7 48.4 131.6 48.4 131.0 48.5 C 128.0 48.6 126.2 48.7 128.1 48.7 C 129.8 48.7 133.3 48.7 132.3 48.8 C 130.9 48.8 129.5 48.8 128.1 48.8 C 127.0 48.8 125.9 48.6 124.8 48.5 C 127.2 48.5 129.4 48.4 131.5 48.4 C 131.5 48.4 131.5 48.4 131.5 48.4 Z M 123.5 48.3 C 124.3 48.3 125.3 48.3 126.4 48.3 C 125.5 48.3 124.6 48.3 123.7 48.3 C 123.6 48.3 123.6 48.3 123.5 48.3 Z M 122.4 48.1 C 124.1 48.1 125.8 48.1 124.1 48.1 C 123.7 48.2 123.4 48.2 123.0 48.2 C 122.8 48.1 122.6 48.1 122.4 48.1 Z M 121.4 48.0 C 121.4 48.0 121.7 48.1 122.3 48.1 C 121.1 48.1 118.8 48.2 118.9 48.0 C 119.7 48.0 120.5 48.0 121.4 48.0 C 121.4 48.0 121.4 48.0 121.4 48.0 Z M 119.6 57.0 C 120.4 57.1 121.1 57.1 119.9 57.1 C 119.4 57.1 119.0 57.1 118.5 57.2 C 118.9 57.1 119.2 57.1 119.6 57.0 Z M 159.1 48.4 C 158.8 48.5 157.5 48.5 156.8 48.5 C 156.7 48.9 159.5 48.6 159.1 48.4 C 159.1 48.4 159.1 48.4 159.1 48.4 Z M 163.7 48.3 C 163.4 48.3 162.1 48.3 161.4 48.3 C 161.3 48.7 164.1 48.4 163.7 48.3 C 163.7 48.3 163.7 48.3 163.7 48.3 Z M 93.0 47.4 C 93.0 47.4 93.0 47.4 93.0 47.4 C 93.0 47.4 93.0 47.4 93.0 47.4 C 93.0 47.4 93.0 47.4 93.0 47.4 Z M 93.0 47.4 " fill="#1BFFE6"></path><path d="M 123.0 73.7 C 123.1 73.7 123.8 73.8 123.8 73.6 C 123.5 73.6 123.0 73.6 123.0 73.7 C 123.0 73.7 123.0 73.7 123.0 73.7 Z M 121.7 73.8 C 122.0 73.9 122.5 73.8 122.6 73.7 C 122.4 73.7 121.8 73.7 121.7 73.8 C 121.7 73.8 121.7 73.8 121.7 73.8 Z M 123.6 73.3 C 124.0 73.3 124.6 73.4 124.8 73.2 C 124.4 73.3 123.8 73.2 123.6 73.3 C 123.6 73.3 123.6 73.3 123.6 73.3 Z M 106.1 76.2 C 106.2 76.2 106.8 76.2 106.8 76.1 C 106.6 76.1 106.1 76.0 106.1 76.2 C 106.1 76.2 106.1 76.2 106.1 76.2 Z M 109.5 75.7 C 109.8 75.8 110.3 75.8 110.4 75.7 C 110.2 75.7 109.6 75.6 109.5 75.7 C 109.5 75.7 109.5 75.7 109.5 75.7 Z M 111.6 75.8 C 112.0 75.7 112.5 75.7 112.4 75.6 C 112.3 75.7 111.6 75.6 111.6 75.8 C 111.6 75.8 111.6 75.8 111.6 75.8 Z M 123.1 67.4 C 122.6 67.4 122.3 67.3 121.9 67.3 C 120.2 67.4 122.8 67.6 123.1 67.4 C 123.1 67.4 123.1 67.4 123.1 67.4 Z M 115.1 75.2 C 114.8 75.2 114.5 75.3 114.4 75.3 C 114.7 75.3 115.1 75.4 115.1 75.2 C 115.1 75.2 115.1 75.2 115.1 75.2 Z M 118.1 75.0 C 118.1 75.1 119.9 75.0 120.8 74.9 C 120.0 74.9 118.0 74.9 118.1 75.0 C 118.1 75.0 118.1 75.0 118.1 75.0 Z M 119.0 67.4 C 117.9 67.5 116.1 67.5 115.3 67.6 C 114.5 67.7 116.8 67.7 118.8 67.7 C 120.9 67.6 119.2 67.3 120.0 67.3 C 120.9 67.2 119.2 67.2 118.4 67.2 C 117.5 67.3 118.9 67.3 119.0 67.4 C 119.0 67.4 119.0 67.4 119.0 67.4 Z M 119.1 66.9 C 119.5 66.9 119.9 66.8 120.1 66.7 C 119.7 66.7 119.3 66.7 119.1 66.9 C 119.1 66.9 119.1 66.9 119.1 66.9 Z M 58.7 71.8 C 58.9 73.3 59.9 74.5 61.0 75.3 C 61.3 75.5 61.5 75.7 61.8 75.9 C 63.8 76.5 65.8 76.8 67.8 76.9 C 68.2 76.9 68.6 76.9 69.0 77.0 C 70.2 77.0 71.4 77.1 72.6 77.1 C 73.1 77.1 73.5 77.1 73.9 77.1 C 75.4 77.2 76.8 77.0 78.2 77.0 C 78.9 77.0 79.7 77.0 80.4 77.2 C 80.8 77.3 82.4 77.3 83.0 77.1 C 82.5 77.4 85.1 77.3 85.0 77.2 C 85.3 77.1 85.6 77.1 85.9 77.0 C 86.2 77.0 85.8 76.9 85.4 76.9 C 85.8 76.8 86.1 76.8 86.5 76.8 C 86.9 76.8 87.2 76.8 87.6 76.8 C 88.8 76.9 90.2 76.8 91.3 76.6 C 94.5 76.6 103.1 76.3 101.6 76.2 C 99.8 76.2 100.7 76.0 101.2 76.0 C 101.5 76.0 101.8 76.0 102.2 76.0 C 102.2 76.0 102.2 76.1 102.1 76.1 C 102.9 76.1 104.0 76.3 105.1 76.1 C 104.9 76.1 104.7 76.1 104.6 76.0 C 105.1 76.0 104.7 75.8 105.0 75.8 C 106.0 75.7 106.5 75.7 105.3 75.7 C 106.4 75.5 107.1 75.3 108.2 75.1 C 108.6 75.1 108.4 75.1 108.2 75.2 C 108.9 75.2 110.6 75.2 110.7 75.2 C 110.9 75.3 106.3 75.4 107.1 75.4 C 107.5 75.5 108.1 75.4 108.4 75.5 C 107.8 75.5 107.1 75.5 106.8 75.6 C 107.2 75.6 107.7 75.6 108.0 75.6 C 107.6 75.7 107.4 75.7 107.3 75.7 C 107.8 75.7 108.3 75.8 108.9 75.7 C 109.2 75.7 108.7 75.6 109.3 75.6 C 109.4 75.5 108.9 75.6 108.9 75.5 C 109.4 75.4 110.4 75.4 110.7 75.4 C 110.9 75.3 110.1 75.4 110.1 75.4 C 112.0 75.3 114.3 75.2 115.0 75.1 C 115.7 75.1 115.0 75.1 114.7 75.1 C 115.5 75.0 116.1 75.0 117.1 74.9 C 117.7 74.9 117.5 74.9 117.2 74.9 C 117.4 74.8 117.5 74.8 117.6 74.8 C 117.7 74.8 117.9 74.8 118.0 74.8 C 117.6 74.7 116.9 74.8 116.6 74.7 C 117.2 74.6 118.5 74.7 119.0 74.6 C 118.2 74.5 117.4 74.5 116.5 74.5 C 118.2 74.4 120.0 74.7 121.3 74.4 C 121.1 74.4 121.0 74.3 120.8 74.2 C 121.3 74.3 122.1 74.4 122.6 74.2 C 122.8 74.2 123.3 74.1 123.8 74.1 C 122.9 74.0 122.3 74.0 121.7 74.1 C 121.7 74.1 121.8 74.0 121.9 74.0 C 120.5 73.8 119.7 74.2 118.7 74.3 C 118.6 74.3 118.5 74.3 118.5 74.3 C 118.1 74.2 119.3 74.2 119.4 74.1 C 117.9 74.1 116.3 74.2 115.6 74.1 C 117.3 74.0 118.9 74.0 120.2 73.9 C 119.8 73.7 118.5 73.8 117.9 73.8 C 120.8 73.6 121.0 73.5 121.3 73.5 C 121.1 73.5 120.8 73.5 120.6 73.5 C 120.7 73.5 120.7 73.4 120.8 73.4 C 122.0 73.4 123.5 73.3 123.4 73.3 C 123.4 73.2 122.2 73.2 121.0 73.3 C 121.1 73.2 121.3 73.1 121.4 73.1 C 122.8 73.0 124.4 72.7 125.9 72.8 C 125.6 72.6 125.7 72.7 126.0 72.6 C 125.6 72.5 124.9 72.5 124.5 72.4 C 124.6 72.4 124.9 72.4 125.0 72.3 C 124.8 72.3 124.4 72.3 124.3 72.2 C 125.0 72.2 125.7 72.1 126.4 72.1 C 126.5 71.9 126.1 72.1 126.1 72.0 C 126.8 71.9 127.7 72.0 128.2 71.8 C 127.7 71.7 126.5 71.8 126.2 71.8 C 126.4 71.7 126.6 71.7 126.9 71.6 C 127.3 71.6 127.6 71.6 127.0 71.5 C 126.8 71.5 126.8 71.5 126.8 71.5 C 127.1 71.4 128.2 71.4 128.2 71.2 C 127.9 71.2 126.8 71.2 126.6 71.1 C 126.8 70.9 127.3 71.0 127.4 70.9 C 126.2 70.9 126.2 70.9 125.9 71.0 C 126.0 71.0 126.4 71.0 126.4 71.0 C 125.6 71.0 124.9 71.1 124.1 71.1 C 124.1 71.1 124.1 71.1 124.1 71.1 C 124.1 71.1 124.1 71.1 124.1 71.1 C 124.1 71.1 124.1 71.1 124.1 71.1 C 124.2 71.0 124.1 70.8 124.1 70.8 C 124.4 70.8 124.7 70.7 125.4 70.7 C 125.2 70.5 124.6 70.6 124.1 70.6 C 124.1 70.6 124.1 70.6 124.1 70.5 C 125.0 70.5 126.2 70.4 127.1 70.3 C 126.7 70.3 125.3 70.3 124.3 70.4 C 124.3 70.3 124.3 70.3 124.4 70.3 C 123.1 70.3 121.7 70.2 120.3 70.3 C 121.0 70.0 121.7 70.2 122.6 70.1 C 123.0 70.1 123.4 70.0 123.7 69.9 C 124.8 70.0 128.1 69.9 128.5 69.8 C 128.9 69.7 125.6 69.8 125.6 69.7 C 125.5 69.7 127.1 69.6 126.3 69.6 C 126.0 69.6 125.1 69.7 124.5 69.7 C 124.5 69.6 124.5 69.5 124.5 69.3 C 125.0 69.3 125.6 69.2 125.6 69.5 C 125.9 69.4 126.4 69.5 126.5 69.4 C 126.4 69.4 126.3 69.4 126.3 69.4 C 126.4 69.3 126.6 69.4 126.6 69.3 C 126.0 69.3 125.1 69.2 124.4 69.3 C 124.4 69.2 124.3 69.2 124.3 69.1 C 124.3 69.1 124.8 69.0 125.3 69.0 C 125.8 68.9 124.7 68.9 123.9 68.9 C 123.8 68.9 123.7 68.8 123.6 68.8 C 123.8 68.8 124.2 68.8 124.5 68.7 C 125.0 68.7 125.0 68.5 125.4 68.5 C 124.6 68.4 123.6 68.4 122.8 68.5 C 122.5 68.4 122.2 68.3 121.9 68.2 C 122.6 68.1 123.2 68.0 123.6 67.9 C 123.8 67.9 124.1 68.0 124.3 67.9 C 124.0 67.8 124.7 67.8 124.6 67.7 C 124.2 67.8 123.4 67.8 123.2 67.9 C 122.5 68.0 121.9 68.0 121.3 68.0 C 121.2 68.0 121.1 67.9 121.1 67.9 C 121.6 67.9 122.0 67.9 122.6 67.8 C 122.3 67.6 120.9 67.6 119.8 67.8 C 117.6 67.7 115.5 68.4 113.3 68.6 C 113.2 68.6 113.1 68.6 113.0 68.5 C 112.8 68.5 112.7 68.4 112.5 68.4 C 113.0 68.3 113.5 68.3 113.9 68.3 C 112.3 68.1 116.0 68.1 116.3 68.0 C 113.8 67.8 109.2 68.0 106.3 67.9 C 107.0 67.9 107.2 67.9 106.5 67.8 C 106.3 67.8 106.1 67.8 105.9 67.8 C 108.8 67.6 111.8 67.9 114.1 67.5 C 112.7 67.5 110.7 67.7 110.1 67.5 C 110.5 67.5 111.1 67.5 111.1 67.4 C 110.4 67.3 108.1 67.5 107.4 67.4 C 110.8 67.2 115.4 67.3 117.9 66.9 C 114.1 67.1 109.0 67.0 105.8 67.3 C 106.3 67.3 106.3 67.4 106.0 67.5 C 105.0 67.5 104.0 67.6 103.0 67.6 C 102.8 67.6 102.9 67.6 103.4 67.5 C 103.8 67.5 104.0 67.5 104.1 67.4 C 103.9 67.4 100.7 67.5 103.2 67.4 C 105.7 67.3 110.1 67.1 107.6 67.1 C 105.0 67.1 104.0 67.0 105.4 66.9 C 106.8 66.8 111.2 66.6 109.7 66.6 C 108.2 66.6 105.1 66.5 103.3 66.6 C 101.6 66.7 104.6 67.1 102.0 67.1 C 99.3 67.2 101.5 67.0 101.0 67.0 C 100.2 67.0 98.8 67.0 97.4 67.1 C 96.4 67.1 95.2 67.1 94.6 67.0 C 94.6 66.9 97.6 66.9 96.4 66.9 C 93.5 66.9 90.3 67.0 91.7 67.1 C 89.9 67.1 88.6 67.2 87.5 67.2 C 85.8 67.1 83.8 67.2 83.6 67.1 C 83.3 67.0 78.6 67.5 76.9 67.0 C 76.7 67.0 73.6 67.2 73.3 67.4 C 70.3 67.3 70.7 67.1 67.8 67.3 C 65.3 67.4 64.6 67.5 64.1 67.5 C 61.5 67.7 61.6 67.5 60.3 68.2 C 59.9 68.5 59.3 68.5 59.1 68.9 C 58.7 69.6 58.6 70.6 58.7 71.8 C 58.7 71.8 58.7 71.8 58.7 71.8 Z M 123.8 71.3 C 124.2 71.4 125.1 71.3 125.5 71.4 C 125.0 71.5 124.3 71.5 123.6 71.5 C 123.7 71.4 123.7 71.4 123.8 71.3 C 123.8 71.3 123.8 71.3 123.8 71.3 Z M 120.2 69.1 C 120.5 69.1 120.9 69.2 121.2 69.2 C 121.5 69.1 121.9 69.2 122.4 69.1 C 122.3 69.0 121.5 68.9 120.9 69.0 C 120.9 68.9 120.9 68.9 120.9 68.8 C 121.2 68.8 121.5 68.7 122.0 68.7 C 122.1 68.7 122.3 68.7 122.4 68.7 C 122.4 68.8 122.2 68.9 122.1 68.9 C 122.2 69.0 122.6 69.0 123.1 69.1 C 123.2 69.1 123.2 69.1 123.3 69.1 C 123.4 69.2 123.0 69.3 123.4 69.3 C 123.1 69.4 122.3 69.3 121.9 69.4 C 122.4 69.1 120.4 69.3 119.9 69.2 C 120.0 69.2 120.1 69.1 120.2 69.1 Z M 116.4 74.5 C 116.1 74.5 115.9 74.5 115.6 74.5 C 116.0 74.5 116.3 74.4 116.6 74.4 C 116.5 74.4 116.5 74.5 116.4 74.5 Z M 93.8 76.1 C 95.4 75.8 98.9 76.0 99.1 75.8 C 99.4 75.8 99.8 75.8 100.2 75.8 C 97.9 75.9 95.4 76.0 93.8 76.1 C 93.8 76.1 93.8 76.1 93.8 76.1 Z M 99.4 67.6 C 99.6 67.6 99.5 67.6 99.2 67.7 C 97.4 67.8 96.3 67.9 97.5 67.9 C 98.4 67.9 100.5 67.9 99.9 67.9 C 99.1 68.0 98.3 68.0 97.4 68.1 C 96.8 68.0 96.2 67.9 95.5 67.7 C 96.9 67.7 98.2 67.7 99.4 67.6 C 99.4 67.6 99.4 67.6 99.4 67.6 Z M 94.7 67.5 C 95.2 67.5 95.8 67.5 96.4 67.5 C 95.9 67.6 95.4 67.6 94.9 67.6 C 94.8 67.6 94.8 67.6 94.7 67.5 Z M 94.1 67.4 C 95.1 67.3 96.1 67.4 95.1 67.4 C 94.9 67.4 94.7 67.5 94.4 67.5 C 94.3 67.4 94.2 67.4 94.1 67.4 Z M 93.5 67.3 C 93.5 67.4 93.7 67.4 94.0 67.4 C 93.3 67.4 92.0 67.5 92.0 67.4 C 92.5 67.3 93.0 67.3 93.5 67.3 C 93.5 67.3 93.5 67.3 93.5 67.3 Z M 92.7 76.4 C 93.1 76.4 93.5 76.4 92.8 76.4 C 92.5 76.5 92.3 76.5 92.0 76.5 C 92.2 76.5 92.4 76.4 92.7 76.4 Z M 115.6 67.3 C 115.4 67.3 114.7 67.3 114.3 67.4 C 114.2 67.8 115.9 67.5 115.6 67.3 C 115.6 67.3 115.6 67.3 115.6 67.3 Z M 118.3 67.1 C 118.1 67.1 117.4 67.1 117.0 67.2 C 116.9 67.6 118.6 67.3 118.3 67.1 C 118.3 67.1 118.3 67.1 118.3 67.1 Z M 76.9 67.0 C 76.9 67.0 76.9 67.0 76.9 67.0 C 76.9 67.0 76.9 67.0 76.9 67.0 C 76.9 67.0 76.9 67.0 76.9 67.0 Z M 76.9 67.0 " fill="#1BFFE6"></path><text xml:space="preserve" font-family="CircularStd-Book" font-size="14.0" fill="#52575F" transform="matrix(1.00, 0.00, -0.00, -1.00, 498.0, 88.0)">D</text><text xml:space="preserve" font-family="CircularStd-Book" font-size="14.0" fill="#52575F" transform="matrix(1.00, 0.00, -0.00, -1.00, 508.1, 88.0)">e</text><text xml:space="preserve" font-family="CircularStd-Book" font-size="14.0" fill="#52575F" transform="matrix(1.00, 0.00, -0.00, -1.00, 515.7, 88.0)">s</text><text xml:space="preserve" font-family="CircularStd-Book" font-size="14.0" fill="#52575F" transform="matrix(1.00, 0.00, -0.00, -1.00, 522.0, 88.0)">i</text><text xml:space="preserve" font-family="CircularStd-Book" font-size="14.0" fill="#52575F" transform="matrix(1.00, 0.00, -0.00, -1.00, 525.5, 88.0)">g</text><text xml:space="preserve" font-family="CircularStd-Book" font-size="14.0" fill="#52575F" transform="matrix(1.00, 0.00, -0.00, -1.00, 533.6, 88.0)">n</text><text xml:space="preserve" font-family="CircularStd-Book" font-size="14.0" fill="#52575F" transform="matrix(1.00, 0.00, -0.00, -1.00, 541.5, 88.0)"> </text><text xml:space="preserve" font-family="CircularStd-Book" font-size="14.0" fill="#52575F" transform="matrix(1.00, 0.00, -0.00, -1.00, 545.0, 88.0)">a</text><text xml:space="preserve" font-family="CircularStd-Book" font-size="14.0" fill="#52575F" transform="matrix(1.00, 0.00, -0.00, -1.00, 552.3, 88.0)">n</text><text xml:space="preserve" font-family="CircularStd-Book" font-size="14.0" fill="#52575F" transform="matrix(1.00, 0.00, -0.00, -1.00, 560.2, 88.0)">d</text><text xml:space="preserve" font-family="CircularStd-Book" font-size="14.0" fill="#52575F" transform="matrix(1.00, 0.00, -0.00, -1.00, 568.4, 88.0)"> </text><text xml:space="preserve" font-family="CircularStd-Book" font-size="14.0" fill="#52575F" transform="matrix(1.00, 0.00, -0.00, -1.00, 571.9, 88.0)">d</text><text xml:space="preserve" font-family="CircularStd-Book" font-size="14.0" fill="#52575F" transform="matrix(1.00, 0.00, -0.00, -1.00, 580.2, 88.0)">e</text><text xml:space="preserve" font-family="CircularStd-Book" font-size="14.0" fill="#52575F" transform="matrix(1.00, 0.00, -0.00, -1.00, 587.6, 88.0)">v</text><text xml:space="preserve" font-family="CircularStd-Book" font-size="14.0" fill="#52575F" transform="matrix(1.00, 0.00, -0.00, -1.00, 594.4, 88.0)">e</text><text xml:space="preserve" font-family="CircularStd-Book" font-size="14.0" fill="#52575F" transform="matrix(1.00, 0.00, -0.00, -1.00, 602.0, 88.0)">l</text><text xml:space="preserve" font-family="CircularStd-Book" font-size="14.0" fill="#52575F" transform="matrix(1.00, 0.00, -0.00, -1.00, 605.6, 88.0)">o</text><text xml:space="preserve" font-family="CircularStd-Book" font-size="14.0" fill="#52575F" transform="matrix(1.00, 0.00, -0.00, -1.00, 613.6, 88.0)">p</text><text xml:space="preserve" font-family="CircularStd-Book" font-size="14.0" fill="#52575F" transform="matrix(1.00, 0.00, -0.00, -1.00, 621.9, 88.0)">m</text><text xml:space="preserve" font-family="CircularStd-Book" font-size="14.0" fill="#52575F" transform="matrix(1.00, 0.00, -0.00, -1.00, 633.9, 88.0)">e</text><text xml:space="preserve" font-family="CircularStd-Book" font-size="14.0" fill="#52575F" transform="matrix(1.00, 0.00, -0.00, -1.00, 641.5, 88.0)">n</text><text xml:space="preserve" font-family="CircularStd-Book" font-size="14.0" fill="#52575F" transform="matrix(1.00, 0.00, -0.00, -1.00, 649.3, 88.0)">t</text><text xml:space="preserve" font-family="CircularStd-Book" font-size="14.0" fill="#52575F" transform="matrix(1.00, 0.00, -0.00, -1.00, 654.3, 88.0)"> </text><text xml:space="preserve" font-family="CircularStd-Book" font-size="14.0" fill="#52575F" transform="matrix(1.00, 0.00, -0.00, -1.00, 657.8, 88.0)">f</text><text xml:space="preserve" font-family="CircularStd-Book" font-size="14.0" fill="#52575F" transform="matrix(1.00, 0.00, -0.00, -1.00, 662.3, 88.0)">o</text><text xml:space="preserve" font-family="CircularStd-Book" font-size="14.0" fill="#52575F" transform="matrix(1.00, 0.00, -0.00, -1.00, 670.3, 88.0)">r</text><text xml:space="preserve" font-family="CircularStd-Book" font-size="14.0" fill="#52575F" transform="matrix(1.00, 0.00, -0.00, -1.00, 675.5, 88.0)"> </text><text xml:space="preserve" font-family="CircularStd-Book" font-size="14.0" fill="#52575F" transform="matrix(1.00, 0.00, -0.00, -1.00, 679.0, 88.0)">M</text><text xml:space="preserve" font-family="CircularStd-Book" font-size="14.0" fill="#52575F" transform="matrix(1.00, 0.00, -0.00, -1.00, 692.2, 88.0)">i</text><text xml:space="preserve" font-family="CircularStd-Book" font-size="14.0" fill="#52575F" transform="matrix(1.00, 0.00, -0.00, -1.00, 695.8, 88.0)">z</text><text xml:space="preserve" font-family="CircularStd-Book" font-size="14.0" fill="#52575F" transform="matrix(1.00, 0.00, -0.00, -1.00, 702.3, 88.0)">i</text><text xml:space="preserve" font-family="CircularStd-Book" font-size="14.0" fill="#52575F" transform="matrix(1.00, 0.00, -0.00, -1.00, 705.8, 88.0)">k</text><text xml:space="preserve" font-family="CircularStd-Book" font-size="14.0" fill="#52575F" transform="matrix(1.00, 0.00, -0.00, -1.00, 712.8, 88.0)">e</text><text xml:space="preserve" font-family="CircularStd-Book" font-size="14.0" fill="#52575F" transform="matrix(1.00, 0.00, -0.00, -1.00, 720.4, 88.0)">r</text><text xml:space="preserve" font-family="CircularStd-Book" font-size="14.0" fill="#52575F" transform="matrix(1.00, 0.00, -0.00, -1.00, 724.3, 88.0)">,</text><text xml:space="preserve" font-family="CircularStd-Book" font-size="14.0" fill="#52575F" transform="matrix(1.00, 0.00, -0.00, -1.00, 728.4, 88.0)"> </text><text xml:space="preserve" font-family="CircularStd-Book" font-size="14.0" fill="#52575F" transform="matrix(1.00, 0.00, -0.00, -1.00, 731.9, 88.0)">a</text><text xml:space="preserve" font-family="CircularStd-Book" font-size="14.0" fill="#52575F" transform="matrix(1.00, 0.00, -0.00, -1.00, 739.2, 88.0)"> </text><text xml:space="preserve" font-family="CircularStd-Book" font-size="14.0" fill="#52575F" transform="matrix(1.00, 0.00, -0.00, -1.00, 742.7, 88.0)">s</text><text xml:space="preserve" font-family="CircularStd-Book" font-size="14.0" fill="#52575F" transform="matrix(1.00, 0.00, -0.00, -1.00, 749.0, 88.0)">t</text><text xml:space="preserve" font-family="CircularStd-Book" font-size="14.0" fill="#52575F" transform="matrix(1.00, 0.00, -0.00, -1.00, 754.0, 88.0)">u</text><text xml:space="preserve" font-family="CircularStd-Book" font-size="14.0" fill="#52575F" transform="matrix(1.00, 0.00, -0.00, -1.00, 761.9, 88.0)">d</text><text xml:space="preserve" font-family="CircularStd-Book" font-size="14.0" fill="#52575F" transform="matrix(1.00, 0.00, -0.00, -1.00, 770.1, 88.0)">i</text><text xml:space="preserve" font-family="CircularStd-Book" font-size="14.0" fill="#52575F" transform="matrix(1.00, 0.00, -0.00, -1.00, 773.6, 88.0)">o</text><text xml:space="preserve" font-family="CircularStd-Book" font-size="14.0" fill="#52575F" transform="matrix(1.00, 0.00, -0.00, -1.00, 781.7, 88.0)"> </text><text xml:space="preserve" font-family="CircularStd-Book" font-size="14.0" fill="#52575F" transform="matrix(1.00, 0.00, -0.00, -1.00, 785.2, 88.0)">t</text><text xml:space="preserve" font-family="CircularStd-Book" font-size="14.0" fill="#52575F" transform="matrix(1.00, 0.00, -0.00, -1.00, 790.1, 88.0)">h</text><text xml:space="preserve" font-family="CircularStd-Book" font-size="14.0" fill="#52575F" transform="matrix(1.00, 0.00, -0.00, -1.00, 798.0, 88.0)">a</text><text xml:space="preserve" font-family="CircularStd-Book" font-size="14.0" fill="#52575F" transform="matrix(1.00, 0.00, -0.00, -1.00, 805.3, 88.0)">t</text><text xml:space="preserve" font-family="CircularStd-Book" font-size="14.0" fill="#52575F" transform="matrix(1.00, 0.00, -0.00, -1.00, 809.9, 88.0)">’</text><text xml:space="preserve" font-family="CircularStd-Book" font-size="14.0" fill="#52575F" transform="matrix(1.00, 0.00, -0.00, -1.00, 812.3, 88.0)">s</text><text xml:space="preserve" font-family="CircularStd-Book" font-size="14.0" fill="#52575F" transform="matrix(1.00, 0.00, -0.00, -1.00, 818.6, 88.0)"> </text><text xml:space="preserve" font-family="CircularStd-Book" font-size="14.0" fill="#52575F" transform="matrix(1.00, 0.00, -0.00, -1.00, 822.1, 88.0)">p</text><text xml:space="preserve" font-family="CircularStd-Book" font-size="14.0" fill="#52575F" transform="matrix(1.00, 0.00, -0.00, -1.00, 830.4, 88.0)">r</text><text xml:space="preserve" font-family="CircularStd-Book" font-size="14.0" fill="#52575F" transform="matrix(1.00, 0.00, -0.00, -1.00, 835.5, 88.0)">o</text><text xml:space="preserve" font-family="CircularStd-Book" font-size="14.0" fill="#52575F" transform="matrix(1.00, 0.00, -0.00, -1.00, 843.5, 88.0)">d</text><text xml:space="preserve" font-family="CircularStd-Book" font-size="14.0" fill="#52575F" transform="matrix(1.00, 0.00, -0.00, -1.00, 851.7, 88.0)">u</text><text xml:space="preserve" font-family="CircularStd-Book" font-size="14.0" fill="#52575F" transform="matrix(1.00, 0.00, -0.00, -1.00, 859.5, 88.0)">c</text><text xml:space="preserve" font-family="CircularStd-Book" font-size="14.0" fill="#52575F" transform="matrix(1.00, 0.00, -0.00, -1.00, 866.9, 88.0)">e</text><text xml:space="preserve" font-family="CircularStd-Book" font-size="14.0" fill="#52575F" transform="matrix(1.00, 0.00, -0.00, -1.00, 874.5, 88.0)">d</text><text xml:space="preserve" font-family="CircularStd-Book" font-size="14.0" fill="#52575F" transform="matrix(1.00, 0.00, -0.00, -1.00, 882.7, 88.0)"> </text><text xml:space="preserve" font-family="CircularStd-Book" font-size="14.0" fill="#52575F" transform="matrix(1.00, 0.00, -0.00, -1.00, 886.2, 88.0)">s</text><text xml:space="preserve" font-family="CircularStd-Book" font-size="14.0" fill="#52575F" transform="matrix(1.00, 0.00, -0.00, -1.00, 892.5, 88.0)">h</text><text xml:space="preserve" font-family="CircularStd-Book" font-size="14.0" fill="#52575F" transform="matrix(1.00, 0.00, -0.00, -1.00, 900.4, 88.0)">o</text><text xml:space="preserve" font-family="CircularStd-Book" font-size="14.0" fill="#52575F" transform="matrix(1.00, 0.00, -0.00, -1.00, 908.3, 88.0)">w</text><text xml:space="preserve" font-family="CircularStd-Book" font-size="14.0" fill="#52575F" transform="matrix(1.00, 0.00, -0.00, -1.00, 919.4, 88.0)">s</text><text xml:space="preserve" font-family="CircularStd-Book" font-size="14.0" fill="#52575F" transform="matrix(1.00, 0.00, -0.00, -1.00, 925.7, 88.0)"> </text><text xml:space="preserve" font-family="CircularStd-Book" font-size="14.0" fill="#52575F" transform="matrix(1.00, 0.00, -0.00, -1.00, 929.2, 88.0)">a</text><text xml:space="preserve" font-family="CircularStd-Book" font-size="14.0" fill="#52575F" transform="matrix(1.00, 0.00, -0.00, -1.00, 936.5, 88.0)">n</text><text xml:space="preserve" font-family="CircularStd-Book" font-size="14.0" fill="#52575F" transform="matrix(1.00, 0.00, -0.00, -1.00, 944.4, 88.0)">d</text><text xml:space="preserve" font-family="CircularStd-Book" font-size="14.0" fill="#52575F" transform="matrix(1.00, 0.00, -0.00, -1.00, 952.6, 88.0)"> </text><text xml:space="preserve" font-family="CircularStd-Book" font-size="14.0" fill="#52575F" transform="matrix(1.00, 0.00, -0.00, -1.00, 498.0, 64.0)">m</text><text xml:space="preserve" font-family="CircularStd-Book" font-size="14.0" fill="#52575F" transform="matrix(1.00, 0.00, -0.00, -1.00, 510.0, 64.0)">e</text><text xml:space="preserve" font-family="CircularStd-Book" font-size="14.0" fill="#52575F" transform="matrix(1.00, 0.00, -0.00, -1.00, 517.6, 64.0)">d</text><text xml:space="preserve" font-family="CircularStd-Book" font-size="14.0" fill="#52575F" transform="matrix(1.00, 0.00, -0.00, -1.00, 525.8, 64.0)">i</text><text xml:space="preserve" font-family="CircularStd-Book" font-size="14.0" fill="#52575F" transform="matrix(1.00, 0.00, -0.00, -1.00, 529.4, 64.0)">a</text><text xml:space="preserve" font-family="CircularStd-Book" font-size="14.0" fill="#52575F" transform="matrix(1.00, 0.00, -0.00, -1.00, 536.7, 64.0)"> </text><text xml:space="preserve" font-family="CircularStd-Book" font-size="14.0" fill="#52575F" transform="matrix(1.00, 0.00, -0.00, -1.00, 540.2, 64.0)">a</text><text xml:space="preserve" font-family="CircularStd-Book" font-size="14.0" fill="#52575F" transform="matrix(1.00, 0.00, -0.00, -1.00, 547.5, 64.0)">t</text><text xml:space="preserve" font-family="CircularStd-Book" font-size="14.0" fill="#52575F" transform="matrix(1.00, 0.00, -0.00, -1.00, 552.5, 64.0)">t</text><text xml:space="preserve" font-family="CircularStd-Book" font-size="14.0" fill="#52575F" transform="matrix(1.00, 0.00, -0.00, -1.00, 557.3, 64.0)">r</text><text xml:space="preserve" font-family="CircularStd-Book" font-size="14.0" fill="#52575F" transform="matrix(1.00, 0.00, -0.00, -1.00, 562.4, 64.0)">a</text><text xml:space="preserve" font-family="CircularStd-Book" font-size="14.0" fill="#52575F" transform="matrix(1.00, 0.00, -0.00, -1.00, 569.8, 64.0)">c</text><text xml:space="preserve" font-family="CircularStd-Book" font-size="14.0" fill="#52575F" transform="matrix(1.00, 0.00, -0.00, -1.00, 577.2, 64.0)">t</text><text xml:space="preserve" font-family="CircularStd-Book" font-size="14.0" fill="#52575F" transform="matrix(1.00, 0.00, -0.00, -1.00, 582.2, 64.0)">i</text><text xml:space="preserve" font-family="CircularStd-Book" font-size="14.0" fill="#52575F" transform="matrix(1.00, 0.00, -0.00, -1.00, 585.7, 64.0)">o</text><text xml:space="preserve" font-family="CircularStd-Book" font-size="14.0" fill="#52575F" transform="matrix(1.00, 0.00, -0.00, -1.00, 593.7, 64.0)">n</text><text xml:space="preserve" font-family="CircularStd-Book" font-size="14.0" fill="#52575F" transform="matrix(1.00, 0.00, -0.00, -1.00, 601.6, 64.0)">s</text><text xml:space="preserve" font-family="CircularStd-Book" font-size="14.0" fill="#52575F" transform="matrix(1.00, 0.00, -0.00, -1.00, 607.9, 64.0)"> </text><text xml:space="preserve" font-family="CircularStd-Book" font-size="14.0" fill="#52575F" transform="matrix(1.00, 0.00, -0.00, -1.00, 611.4, 64.0)">f</text><text xml:space="preserve" font-family="CircularStd-Book" font-size="14.0" fill="#52575F" transform="matrix(1.00, 0.00, -0.00, -1.00, 615.9, 64.0)">o</text><text xml:space="preserve" font-family="CircularStd-Book" font-size="14.0" fill="#52575F" transform="matrix(1.00, 0.00, -0.00, -1.00, 623.9, 64.0)">r</text><text xml:space="preserve" font-family="CircularStd-Book" font-size="14.0" fill="#52575F" transform="matrix(1.00, 0.00, -0.00, -1.00, 629.1, 64.0)"> </text><text xml:space="preserve" font-family="CircularStd-Book" font-size="14.0" fill="#52575F" transform="matrix(1.00, 0.00, -0.00, -1.00, 632.6, 64.0)">t</text><text xml:space="preserve" font-family="CircularStd-Book" font-size="14.0" fill="#52575F" transform="matrix(1.00, 0.00, -0.00, -1.00, 637.5, 64.0)">h</text><text xml:space="preserve" font-family="CircularStd-Book" font-size="14.0" fill="#52575F" transform="matrix(1.00, 0.00, -0.00, -1.00, 645.4, 64.0)">e</text><text xml:space="preserve" font-family="CircularStd-Book" font-size="14.0" fill="#52575F" transform="matrix(1.00, 0.00, -0.00, -1.00, 653.0, 64.0)"> </text><text xml:space="preserve" font-family="CircularStd-Book" font-size="14.0" fill="#52575F" transform="matrix(1.00, 0.00, -0.00, -1.00, 656.5, 64.0)">l</text><text xml:space="preserve" font-family="CircularStd-Book" font-size="14.0" fill="#52575F" transform="matrix(1.00, 0.00, -0.00, -1.00, 660.0, 64.0)">i</text><text xml:space="preserve" font-family="CircularStd-Book" font-size="14.0" fill="#52575F" transform="matrix(1.00, 0.00, -0.00, -1.00, 663.6, 64.0)">k</text><text xml:space="preserve" font-family="CircularStd-Book" font-size="14.0" fill="#52575F" transform="matrix(1.00, 0.00, -0.00, -1.00, 670.6, 64.0)">e</text><text xml:space="preserve" font-family="CircularStd-Book" font-size="14.0" fill="#52575F" transform="matrix(1.00, 0.00, -0.00, -1.00, 678.2, 64.0)">s</text><text xml:space="preserve" font-family="CircularStd-Book" font-size="14.0" fill="#52575F" transform="matrix(1.00, 0.00, -0.00, -1.00, 684.5, 64.0)"> </text><text xml:space="preserve" font-family="CircularStd-Book" font-size="14.0" fill="#52575F" transform="matrix(1.00, 0.00, -0.00, -1.00, 688.0, 64.0)">o</text><text xml:space="preserve" font-family="CircularStd-Book" font-size="14.0" fill="#52575F" transform="matrix(1.00, 0.00, -0.00, -1.00, 696.0, 64.0)">f</text><text xml:space="preserve" font-family="CircularStd-Book" font-size="14.0" fill="#52575F" transform="matrix(1.00, 0.00, -0.00, -1.00, 700.8, 64.0)"> </text><text xml:space="preserve" font-family="CircularStd-Book" font-size="14.0" fill="#52575F" transform="matrix(1.00, 0.00, -0.00, -1.00, 704.3, 64.0)">D</text><text xml:space="preserve" font-family="CircularStd-Book" font-size="14.0" fill="#52575F" transform="matrix(1.00, 0.00, -0.00, -1.00, 714.4, 64.0)">i</text><text xml:space="preserve" font-family="CircularStd-Book" font-size="14.0" fill="#52575F" transform="matrix(1.00, 0.00, -0.00, -1.00, 717.9, 64.0)">s</text><text xml:space="preserve" font-family="CircularStd-Book" font-size="14.0" fill="#52575F" transform="matrix(1.00, 0.00, -0.00, -1.00, 724.3, 64.0)">n</text><text xml:space="preserve" font-family="CircularStd-Book" font-size="14.0" fill="#52575F" transform="matrix(1.00, 0.00, -0.00, -1.00, 732.1, 64.0)">e</text><text xml:space="preserve" font-family="CircularStd-Book" font-size="14.0" fill="#52575F" transform="matrix(1.00, 0.00, -0.00, -1.00, 739.6, 64.0)">y</text><text xml:space="preserve" font-family="CircularStd-Book" font-size="14.0" fill="#52575F" transform="matrix(1.00, 0.00, -0.00, -1.00, 746.9, 64.0)"> </text><text xml:space="preserve" font-family="CircularStd-Book" font-size="14.0" fill="#52575F" transform="matrix(1.00, 0.00, -0.00, -1.00, 750.4, 64.0)">a</text><text xml:space="preserve" font-family="CircularStd-Book" font-size="14.0" fill="#52575F" transform="matrix(1.00, 0.00, -0.00, -1.00, 757.7, 64.0)">n</text><text xml:space="preserve" font-family="CircularStd-Book" font-size="14.0" fill="#52575F" transform="matrix(1.00, 0.00, -0.00, -1.00, 765.6, 64.0)">d</text><text xml:space="preserve" font-family="CircularStd-Book" font-size="14.0" fill="#52575F" transform="matrix(1.00, 0.00, -0.00, -1.00, 773.8, 64.0)"> </text><text xml:space="preserve" font-family="CircularStd-Book" font-size="14.0" fill="#52575F" transform="matrix(1.00, 0.00, -0.00, -1.00, 777.3, 64.0)">t</text><text xml:space="preserve" font-family="CircularStd-Book" font-size="14.0" fill="#52575F" transform="matrix(1.00, 0.00, -0.00, -1.00, 782.3, 64.0)">h</text><text xml:space="preserve" font-family="CircularStd-Book" font-size="14.0" fill="#52575F" transform="matrix(1.00, 0.00, -0.00, -1.00, 790.2, 64.0)">e</text><text xml:space="preserve" font-family="CircularStd-Book" font-size="14.0" fill="#52575F" transform="matrix(1.00, 0.00, -0.00, -1.00, 797.8, 64.0)"> </text><text xml:space="preserve" font-family="CircularStd-Book" font-size="14.0" fill="#52575F" transform="matrix(1.00, 0.00, -0.00, -1.00, 801.3, 64.0)">N</text><text xml:space="preserve" font-family="CircularStd-Book" font-size="14.0" fill="#52575F" transform="matrix(1.00, 0.00, -0.00, -1.00, 811.9, 64.0)">F</text><text xml:space="preserve" font-family="CircularStd-Book" font-size="14.0" fill="#52575F" transform="matrix(1.00, 0.00, -0.00, -1.00, 819.7, 64.0)">L</text><text xml:space="preserve" font-family="CircularStd-Book" font-size="14.0" fill="#52575F" transform="matrix(1.00, 0.00, -0.00, -1.00, 827.5, 64.0)">.</text><text xml:space="preserve" font-family="CircularStd-Book" font-size="14.0" fill="#52575F" transform="matrix(1.00, 0.00, -0.00, -1.00, 831.4, 64.0)"> </text><text xml:space="preserve" font-family="CircularStd-Book" font-size="14.0" fill="#52575F" transform="matrix(1.00, 0.00, -0.00, -1.00, 834.9, 64.0)">W</text><text xml:space="preserve" font-family="CircularStd-Book" font-size="14.0" fill="#52575F" transform="matrix(1.00, 0.00, -0.00, -1.00, 848.4, 64.0)">e</text><text xml:space="preserve" font-family="CircularStd-Book" font-size="14.0" fill="#52575F" transform="matrix(1.00, 0.00, -0.00, -1.00, 856.0, 64.0)"> </text><text xml:space="preserve" font-family="CircularStd-Book" font-size="14.0" fill="#52575F" transform="matrix(1.00, 0.00, -0.00, -1.00, 859.5, 64.0)">u</text><text xml:space="preserve" font-family="CircularStd-Book" font-size="14.0" fill="#52575F" transform="matrix(1.00, 0.00, -0.00, -1.00, 867.4, 64.0)">p</text><text xml:space="preserve" font-family="CircularStd-Book" font-size="14.0" fill="#52575F" transform="matrix(1.00, 0.00, -0.00, -1.00, 875.7, 64.0)">d</text><text xml:space="preserve" font-family="CircularStd-Book" font-size="14.0" fill="#52575F" transform="matrix(1.00, 0.00, -0.00, -1.00, 884.0, 64.0)">a</text><text xml:space="preserve" font-family="CircularStd-Book" font-size="14.0" fill="#52575F" transform="matrix(1.00, 0.00, -0.00, -1.00, 891.3, 64.0)">t</text><text xml:space="preserve" font-family="CircularStd-Book" font-size="14.0" fill="#52575F" transform="matrix(1.00, 0.00, -0.00, -1.00, 896.2, 64.0)">e</text><text xml:space="preserve" font-family="CircularStd-Book" font-size="14.0" fill="#52575F" transform="matrix(1.00, 0.00, -0.00, -1.00, 903.8, 64.0)">d</text><text xml:space="preserve" font-family="CircularStd-Book" font-size="14.0" fill="#52575F" transform="matrix(1.00, 0.00, -0.00, -1.00, 912.0, 64.0)"> </text><text xml:space="preserve" font-family="CircularStd-Book" font-size="14.0" fill="#52575F" transform="matrix(1.00, 0.00, -0.00, -1.00, 915.5, 64.0)">t</text><text xml:space="preserve" font-family="CircularStd-Book" font-size="14.0" fill="#52575F" transform="matrix(1.00, 0.00, -0.00, -1.00, 920.5, 64.0)">h</text><text xml:space="preserve" font-family="CircularStd-Book" font-size="14.0" fill="#52575F" transform="matrix(1.00, 0.00, -0.00, -1.00, 928.4, 64.0)">e</text><text xml:space="preserve" font-family="CircularStd-Book" font-size="14.0" fill="#52575F" transform="matrix(1.00, 0.00, -0.00, -1.00, 935.9, 64.0)">i</text><text xml:space="preserve" font-family="CircularStd-Book" font-size="14.0" fill="#52575F" transform="matrix(1.00, 0.00, -0.00, -1.00, 939.5, 64.0)">r</text><text xml:space="preserve" font-family="CircularStd-Book" font-size="14.0" fill="#52575F" transform="matrix(1.00, 0.00, -0.00, -1.00, 944.6, 64.0)"> </text><text xml:space="preserve" font-family="CircularStd-Book" font-size="14.0" fill="#52575F" transform="matrix(1.00, 0.00, -0.00, -1.00, 498.0, 41.0)">p</text><text xml:space="preserve" font-family="CircularStd-Book" font-size="14.0" fill="#52575F" transform="matrix(1.00, 0.00, -0.00, -1.00, 506.3, 41.0)">o</text><text xml:space="preserve" font-family="CircularStd-Book" font-size="14.0" fill="#52575F" transform="matrix(1.00, 0.00, -0.00, -1.00, 514.3, 41.0)">r</text><text xml:space="preserve" font-family="CircularStd-Book" font-size="14.0" fill="#52575F" transform="matrix(1.00, 0.00, -0.00, -1.00, 519.8, 41.0)">t</text><text xml:space="preserve" font-family="CircularStd-Book" font-size="14.0" fill="#52575F" transform="matrix(1.00, 0.00, -0.00, -1.00, 524.8, 41.0)">f</text><text xml:space="preserve" font-family="CircularStd-Book" font-size="14.0" fill="#52575F" transform="matrix(1.00, 0.00, -0.00, -1.00, 529.3, 41.0)">o</text><text xml:space="preserve" font-family="CircularStd-Book" font-size="14.0" fill="#52575F" transform="matrix(1.00, 0.00, -0.00, -1.00, 537.3, 41.0)">l</text><text xml:space="preserve" font-family="CircularStd-Book" font-size="14.0" fill="#52575F" transform="matrix(1.00, 0.00, -0.00, -1.00, 540.9, 41.0)">i</text><text xml:space="preserve" font-family="CircularStd-Book" font-size="14.0" fill="#52575F" transform="matrix(1.00, 0.00, -0.00, -1.00, 544.4, 41.0)">o</text><text xml:space="preserve" font-family="CircularStd-Book" font-size="14.0" fill="#52575F" transform="matrix(1.00, 0.00, -0.00, -1.00, 552.4, 41.0)"> </text><text xml:space="preserve" font-family="CircularStd-Book" font-size="14.0" fill="#52575F" transform="matrix(1.00, 0.00, -0.00, -1.00, 555.9, 41.0)">t</text><text xml:space="preserve" font-family="CircularStd-Book" font-size="14.0" fill="#52575F" transform="matrix(1.00, 0.00, -0.00, -1.00, 560.8, 41.0)">o</text><text xml:space="preserve" font-family="CircularStd-Book" font-size="14.0" fill="#52575F" transform="matrix(1.00, 0.00, -0.00, -1.00, 568.8, 41.0)"> </text><text xml:space="preserve" font-family="CircularStd-Book" font-size="14.0" fill="#52575F" transform="matrix(1.00, 0.00, -0.00, -1.00, 572.3, 41.0)">e</text><text xml:space="preserve" font-family="CircularStd-Book" font-size="14.0" fill="#52575F" transform="matrix(1.00, 0.00, -0.00, -1.00, 579.9, 41.0)">n</text><text xml:space="preserve" font-family="CircularStd-Book" font-size="14.0" fill="#52575F" transform="matrix(1.00, 0.00, -0.00, -1.00, 587.8, 41.0)">a</text><text xml:space="preserve" font-family="CircularStd-Book" font-size="14.0" fill="#52575F" transform="matrix(1.00, 0.00, -0.00, -1.00, 595.1, 41.0)">b</text><text xml:space="preserve" font-family="CircularStd-Book" font-size="14.0" fill="#52575F" transform="matrix(1.00, 0.00, -0.00, -1.00, 603.4, 41.0)">l</text><text xml:space="preserve" font-family="CircularStd-Book" font-size="14.0" fill="#52575F" transform="matrix(1.00, 0.00, -0.00, -1.00, 606.9, 41.0)">e</text><text xml:space="preserve" font-family="CircularStd-Book" font-size="14.0" fill="#52575F" transform="matrix(1.00, 0.00, -0.00, -1.00, 614.5, 41.0)"> </text><text xml:space="preserve" font-family="CircularStd-Book" font-size="14.0" fill="#52575F" transform="matrix(1.00, 0.00, -0.00, -1.00, 618.0, 41.0)">n</text><text xml:space="preserve" font-family="CircularStd-Book" font-size="14.0" fill="#52575F" transform="matrix(1.00, 0.00, -0.00, -1.00, 625.9, 41.0)">e</text><text xml:space="preserve" font-family="CircularStd-Book" font-size="14.0" fill="#52575F" transform="matrix(1.00, 0.00, -0.00, -1.00, 633.4, 41.0)">w</text><text xml:space="preserve" font-family="CircularStd-Book" font-size="14.0" fill="#52575F" transform="matrix(1.00, 0.00, -0.00, -1.00, 644.5, 41.0)"> </text><text xml:space="preserve" font-family="CircularStd-Book" font-size="14.0" fill="#52575F" transform="matrix(1.00, 0.00, -0.00, -1.00, 648.0, 41.0)">b</text><text xml:space="preserve" font-family="CircularStd-Book" font-size="14.0" fill="#52575F" transform="matrix(1.00, 0.00, -0.00, -1.00, 656.3, 41.0)">u</text><text xml:space="preserve" font-family="CircularStd-Book" font-size="14.0" fill="#52575F" transform="matrix(1.00, 0.00, -0.00, -1.00, 664.2, 41.0)">s</text><text xml:space="preserve" font-family="CircularStd-Book" font-size="14.0" fill="#52575F" transform="matrix(1.00, 0.00, -0.00, -1.00, 670.5, 41.0)">i</text><text xml:space="preserve" font-family="CircularStd-Book" font-size="14.0" fill="#52575F" transform="matrix(1.00, 0.00, -0.00, -1.00, 674.0, 41.0)">n</text><text xml:space="preserve" font-family="CircularStd-Book" font-size="14.0" fill="#52575F" transform="matrix(1.00, 0.00, -0.00, -1.00, 681.9, 41.0)">e</text><text xml:space="preserve" font-family="CircularStd-Book" font-size="14.0" fill="#52575F" transform="matrix(1.00, 0.00, -0.00, -1.00, 689.5, 41.0)">s</text><text xml:space="preserve" font-family="CircularStd-Book" font-size="14.0" fill="#52575F" transform="matrix(1.00, 0.00, -0.00, -1.00, 695.8, 41.0)">s</text><text xml:space="preserve" font-family="CircularStd-Book" font-size="14.0" fill="#52575F" transform="matrix(1.00, 0.00, -0.00, -1.00, 702.2, 41.0)"> </text><text xml:space="preserve" font-family="CircularStd-Book" font-size="14.0" fill="#52575F" transform="matrix(1.00, 0.00, -0.00, -1.00, 705.7, 41.0)">o</text><text xml:space="preserve" font-family="CircularStd-Book" font-size="14.0" fill="#52575F" transform="matrix(1.00, 0.00, -0.00, -1.00, 713.7, 41.0)">n</text><text xml:space="preserve" font-family="CircularStd-Book" font-size="14.0" fill="#52575F" transform="matrix(1.00, 0.00, -0.00, -1.00, 721.5, 41.0)">l</text><text xml:space="preserve" font-family="CircularStd-Book" font-size="14.0" fill="#52575F" transform="matrix(1.00, 0.00, -0.00, -1.00, 725.1, 41.0)">i</text><text xml:space="preserve" font-family="CircularStd-Book" font-size="14.0" fill="#52575F" transform="matrix(1.00, 0.00, -0.00, -1.00, 728.6, 41.0)">n</text><text xml:space="preserve" font-family="CircularStd-Book" font-size="14.0" fill="#52575F" transform="matrix(1.00, 0.00, -0.00, -1.00, 736.5, 41.0)">e</text><text xml:space="preserve" font-family="CircularStd-Book" font-size="14.0" fill="#52575F" transform="matrix(1.00, 0.00, -0.00, -1.00, 743.9, 41.0)">.</text><text xml:space="preserve" font-family="CircularStd-Book" font-size="14.0" fill="#52575F" transform="matrix(1.00, 0.00, -0.00, -1.00, 747.8, 41.0)"> </text><text xml:space="preserve" font-family="CircularStd-Bold" font-weight="bold" font-size="14.0" fill="#0000FF" transform="matrix(1.00, 0.00, -0.00, -1.00, 751.3, 41.0)">V</text><text xml:space="preserve" font-family="CircularStd-Bold" font-weight="bold" font-size="14.0" fill="#0000FF" transform="matrix(1.00, 0.00, -0.00, -1.00, 760.9, 41.0)">i</text><text xml:space="preserve" font-family="CircularStd-Bold" font-weight="bold" font-size="14.0" fill="#0000FF" transform="matrix(1.00, 0.00, -0.00, -1.00, 764.8, 41.0)">s</text><text xml:space="preserve" font-family="CircularStd-Bold" font-weight="bold" font-size="14.0" fill="#0000FF" transform="matrix(1.00, 0.00, -0.00, -1.00, 771.2, 41.0)">i</text><text xml:space="preserve" font-family="CircularStd-Bold" font-weight="bold" font-size="14.0" fill="#0000FF" transform="matrix(1.00, 0.00, -0.00, -1.00, 775.1, 41.0)">t</text><text xml:space="preserve" font-family="CircularStd-Bold" font-weight="bold" font-size="14.0" fill="#0000FF" transform="matrix(1.00, 0.00, -0.00, -1.00, 780.3, 41.0)"> </text><text xml:space="preserve" font-family="CircularStd-Bold" font-weight="bold" font-size="14.0" fill="#0000FF" transform="matrix(1.00, 0.00, -0.00, -1.00, 783.7, 41.0)">m</text><text xml:space="preserve" font-family="CircularStd-Bold" font-weight="bold" font-size="14.0" fill="#0000FF" transform="matrix(1.00, 0.00, -0.00, -1.00, 796.1, 41.0)">i</text><text xml:space="preserve" font-family="CircularStd-Bold" font-weight="bold" font-size="14.0" fill="#0000FF" transform="matrix(1.00, 0.00, -0.00, -1.00, 800.0, 41.0)">z</text><text xml:space="preserve" font-family="CircularStd-Bold" font-weight="bold" font-size="14.0" fill="#0000FF" transform="matrix(1.00, 0.00, -0.00, -1.00, 806.7, 41.0)">i</text><text xml:space="preserve" font-family="CircularStd-Bold" font-weight="bold" font-size="14.0" fill="#0000FF" transform="matrix(1.00, 0.00, -0.00, -1.00, 810.6, 41.0)">k</text><text xml:space="preserve" font-family="CircularStd-Bold" font-weight="bold" font-size="14.0" fill="#0000FF" transform="matrix(1.00, 0.00, -0.00, -1.00, 818.1, 41.0)">e</text><text xml:space="preserve" font-family="CircularStd-Bold" font-weight="bold" font-size="14.0" fill="#0000FF" transform="matrix(1.00, 0.00, -0.00, -1.00, 825.8, 41.0)">r</text><text xml:space="preserve" font-family="CircularStd-Bold" font-weight="bold" font-size="14.0" fill="#0000FF" transform="matrix(1.00, 0.00, -0.00, -1.00, 830.2, 41.0)">.</text><text xml:space="preserve" font-family="CircularStd-Bold" font-weight="bold" font-size="14.0" fill="#0000FF" transform="matrix(1.00, 0.00, -0.00, -1.00, 834.3, 41.0)">c</text><text xml:space="preserve" font-family="CircularStd-Bold" font-weight="bold" font-size="14.0" fill="#0000FF" transform="matrix(1.00, 0.00, -0.00, -1.00, 842.0, 41.0)">o</text><text xml:space="preserve" font-family="CircularStd-Bold" font-weight="bold" font-size="14.0" fill="#0000FF" transform="matrix(1.00, 0.00, -0.00, -1.00, 850.1, 41.0)">m</text><text xml:space="preserve" font-family="CircularStd-Bold" font-weight="bold" font-size="14.0" fill="#0000FF" transform="matrix(1.00, 0.00, -0.00, -1.00, 862.5, 41.0)"> </text><text xml:space="preserve" font-family="CircularStd-Bold" font-weight="bold" font-size="14.0" fill="#0000FF" transform="matrix(1.00, 0.00, -0.00, -1.00, 866.0, 41.0)">→</text><g><clipPath id="clip-170"><path d="M 782.5 37.3 L 862.3 37.3 L 862.3 40.4 L 782.5 40.4 Z M 782.5 37.3 "></path></clipPath><g clip-path="url(#clip-170)"><path d="M 289.7 67.2 L 368.5 67.2 " fill="none" stroke="#0000FF" stroke-width="1.12" stroke-miterlimit="0.00" transform="matrix(1.00, 0.00, 0.00, -1.00, 493.8, 106.1)"></path></g></g><text xml:space="preserve" font-family="CircularStd-Bold" font-weight="bold" font-size="12.0" fill="#52575F" transform="matrix(1.00, 0.00, -0.00, -1.00, 65.0, 88.0)">C</text><text xml:space="preserve" font-family="CircularStd-Bold" font-weight="bold" font-size="12.0" fill="#52575F" transform="matrix(1.00, 0.00, -0.00, -1.00, 74.2, 88.0)">L</text><text xml:space="preserve" font-family="CircularStd-Bold" font-weight="bold" font-size="12.0" fill="#52575F" transform="matrix(1.00, 0.00, -0.00, -1.00, 80.9, 88.0)">I</text><text xml:space="preserve" font-family="CircularStd-Bold" font-weight="bold" font-size="12.0" fill="#52575F" transform="matrix(1.00, 0.00, -0.00, -1.00, 84.5, 88.0)">E</text><text xml:space="preserve" font-family="CircularStd-Bold" font-weight="bold" font-size="12.0" fill="#52575F" transform="matrix(1.00, 0.00, -0.00, -1.00, 91.5, 88.0)">N</text><text xml:space="preserve" font-family="CircularStd-Bold" font-weight="bold" font-size="12.0" fill="#52575F" transform="matrix(1.00, 0.00, -0.00, -1.00, 100.7, 88.0)">T</text><text xml:space="preserve" font-family="CircularStd-Bold" font-weight="bold" font-size="12.0" fill="#52575F" transform="matrix(1.00, 0.00, -0.00, -1.00, 240.0, 88.0)">S</text><text xml:space="preserve" font-family="CircularStd-Bold" font-weight="bold" font-size="12.0" fill="#52575F" transform="matrix(1.00, 0.00, -0.00, -1.00, 247.2, 88.0)">E</text><text xml:space="preserve" font-family="CircularStd-Bold" font-weight="bold" font-size="12.0" fill="#52575F" transform="matrix(1.00, 0.00, -0.00, -1.00, 254.2, 88.0)">R</text><text xml:space="preserve" font-family="CircularStd-Bold" font-weight="bold" font-size="12.0" fill="#52575F" transform="matrix(1.00, 0.00, -0.00, -1.00, 261.7, 88.0)">V</text><text xml:space="preserve" font-family="CircularStd-Bold" font-weight="bold" font-size="12.0" fill="#52575F" transform="matrix(1.00, 0.00, -0.00, -1.00, 269.9, 88.0)">I</text><text xml:space="preserve" font-family="CircularStd-Bold" font-weight="bold" font-size="12.0" fill="#52575F" transform="matrix(1.00, 0.00, -0.00, -1.00, 273.5, 88.0)">C</text><text xml:space="preserve" font-family="CircularStd-Bold" font-weight="bold" font-size="12.0" fill="#52575F" transform="matrix(1.00, 0.00, -0.00, -1.00, 282.7, 88.0)">E</text><text xml:space="preserve" font-family="CircularStd-Bold" font-weight="bold" font-size="12.0" fill="#52575F" transform="matrix(1.00, 0.00, -0.00, -1.00, 289.7, 88.0)">S</text><text xml:space="preserve" font-family="CircularStd-Book" font-size="16.0" fill="#52575F" transform="matrix(1.00, 0.00, -0.00, -1.00, 65.0, 67.0)">M</text><text xml:space="preserve" font-family="CircularStd-Book" font-size="16.0" fill="#52575F" transform="matrix(1.00, 0.00, -0.00, -1.00, 80.1, 67.0)">i</text><text xml:space="preserve" font-family="CircularStd-Book" font-size="16.0" fill="#52575F" transform="matrix(1.00, 0.00, -0.00, -1.00, 84.2, 67.0)">z</text><text xml:space="preserve" font-family="CircularStd-Book" font-size="16.0" fill="#52575F" transform="matrix(1.00, 0.00, -0.00, -1.00, 91.6, 67.0)">i</text><text xml:space="preserve" font-family="CircularStd-Book" font-size="16.0" fill="#52575F" transform="matrix(1.00, 0.00, -0.00, -1.00, 95.7, 67.0)">k</text><text xml:space="preserve" font-family="CircularStd-Book" font-size="16.0" fill="#52575F" transform="matrix(1.00, 0.00, -0.00, -1.00, 103.7, 67.0)">e</text><text xml:space="preserve" font-family="CircularStd-Book" font-size="16.0" fill="#52575F" transform="matrix(1.00, 0.00, -0.00, -1.00, 112.4, 67.0)">r</text><text xml:space="preserve" font-family="CircularStd-Book" font-size="16.0" fill="#52575F" transform="matrix(1.00, 0.00, -0.00, -1.00, 118.2, 67.0)"> </text><text xml:space="preserve" font-family="CircularStd-Book" font-size="16.0" fill="#52575F" transform="matrix(1.00, 0.00, -0.00, -1.00, 65.0, 47.0)">E</text><text xml:space="preserve" font-family="CircularStd-Book" font-size="16.0" fill="#52575F" transform="matrix(1.00, 0.00, -0.00, -1.00, 74.1, 47.0)">n</text><text xml:space="preserve" font-family="CircularStd-Book" font-size="16.0" fill="#52575F" transform="matrix(1.00, 0.00, -0.00, -1.00, 83.0, 47.0)">t</text><text xml:space="preserve" font-family="CircularStd-Book" font-size="16.0" fill="#52575F" transform="matrix(1.00, 0.00, -0.00, -1.00, 88.6, 47.0)">e</text><text xml:space="preserve" font-family="CircularStd-Book" font-size="16.0" fill="#52575F" transform="matrix(1.00, 0.00, -0.00, -1.00, 97.3, 47.0)">r</text><text xml:space="preserve" font-family="CircularStd-Book" font-size="16.0" fill="#52575F" transform="matrix(1.00, 0.00, -0.00, -1.00, 103.6, 47.0)">t</text><text xml:space="preserve" font-family="CircularStd-Book" font-size="16.0" fill="#52575F" transform="matrix(1.00, 0.00, -0.00, -1.00, 109.3, 47.0)">a</text><text xml:space="preserve" font-family="CircularStd-Book" font-size="16.0" fill="#52575F" transform="matrix(1.00, 0.00, -0.00, -1.00, 117.6, 47.0)">i</text><text xml:space="preserve" font-family="CircularStd-Book" font-size="16.0" fill="#52575F" transform="matrix(1.00, 0.00, -0.00, -1.00, 121.7, 47.0)">n</text><text xml:space="preserve" font-family="CircularStd-Book" font-size="16.0" fill="#52575F" transform="matrix(1.00, 0.00, -0.00, -1.00, 130.7, 47.0)">m</text><text xml:space="preserve" font-family="CircularStd-Book" font-size="16.0" fill="#52575F" transform="matrix(1.00, 0.00, -0.00, -1.00, 144.4, 47.0)">e</text><text xml:space="preserve" font-family="CircularStd-Book" font-size="16.0" fill="#52575F" transform="matrix(1.00, 0.00, -0.00, -1.00, 153.1, 47.0)">n</text><text xml:space="preserve" font-family="CircularStd-Book" font-size="16.0" fill="#52575F" transform="matrix(1.00, 0.00, -0.00, -1.00, 162.1, 47.0)">t</text><text xml:space="preserve" font-family="CircularStd-Book" font-size="16.0" fill="#52575F" transform="matrix(1.00, 0.00, -0.00, -1.00, 240.0, 67.0)">U</text><text xml:space="preserve" font-family="CircularStd-Book" font-size="16.0" fill="#52575F" transform="matrix(1.00, 0.00, -0.00, -1.00, 250.7, 67.0)">I</text><text xml:space="preserve" font-family="CircularStd-Book" font-size="16.0" fill="#52575F" transform="matrix(1.00, 0.00, -0.00, -1.00, 255.2, 67.0)">/</text><text xml:space="preserve" font-family="CircularStd-Book" font-size="16.0" fill="#52575F" transform="matrix(1.00, 0.00, -0.00, -1.00, 262.1, 67.0)">U</text><text xml:space="preserve" font-family="CircularStd-Book" font-size="16.0" fill="#52575F" transform="matrix(1.00, 0.00, -0.00, -1.00, 272.9, 67.0)">X</text><text xml:space="preserve" font-family="CircularStd-Book" font-size="16.0" fill="#52575F" transform="matrix(1.00, 0.00, -0.00, -1.00, 282.7, 67.0)"> </text><text xml:space="preserve" font-family="CircularStd-Book" font-size="16.0" fill="#52575F" transform="matrix(1.00, 0.00, -0.00, -1.00, 286.7, 67.0)">D</text><text xml:space="preserve" font-family="CircularStd-Book" font-size="16.0" fill="#52575F" transform="matrix(1.00, 0.00, -0.00, -1.00, 298.3, 67.0)">e</text><text xml:space="preserve" font-family="CircularStd-Book" font-size="16.0" fill="#52575F" transform="matrix(1.00, 0.00, -0.00, -1.00, 306.9, 67.0)">s</text><text xml:space="preserve" font-family="CircularStd-Book" font-size="16.0" fill="#52575F" transform="matrix(1.00, 0.00, -0.00, -1.00, 314.2, 67.0)">i</text><text xml:space="preserve" font-family="CircularStd-Book" font-size="16.0" fill="#52575F" transform="matrix(1.00, 0.00, -0.00, -1.00, 318.2, 67.0)">g</text><text xml:space="preserve" font-family="CircularStd-Book" font-size="16.0" fill="#52575F" transform="matrix(1.00, 0.00, -0.00, -1.00, 327.5, 67.0)">n</text><text xml:space="preserve" font-family="CircularStd-Book" font-size="16.0" fill="#52575F" transform="matrix(1.00, 0.00, -0.00, -1.00, 336.4, 67.0)">,</text><text xml:space="preserve" font-family="CircularStd-Book" font-size="16.0" fill="#52575F" transform="matrix(1.00, 0.00, -0.00, -1.00, 341.2, 67.0)"> </text><text xml:space="preserve" font-family="CircularStd-Book" font-size="16.0" fill="#52575F" transform="matrix(1.00, 0.00, -0.00, -1.00, 345.2, 67.0)">B</text><text xml:space="preserve" font-family="CircularStd-Book" font-size="16.0" fill="#52575F" transform="matrix(1.00, 0.00, -0.00, -1.00, 354.7, 67.0)">r</text><text xml:space="preserve" font-family="CircularStd-Book" font-size="16.0" fill="#52575F" transform="matrix(1.00, 0.00, -0.00, -1.00, 360.6, 67.0)">a</text><text xml:space="preserve" font-family="CircularStd-Book" font-size="16.0" fill="#52575F" transform="matrix(1.00, 0.00, -0.00, -1.00, 368.9, 67.0)">n</text><text xml:space="preserve" font-family="CircularStd-Book" font-size="16.0" fill="#52575F" transform="matrix(1.00, 0.00, -0.00, -1.00, 377.9, 67.0)">d</text><text xml:space="preserve" font-family="CircularStd-Book" font-size="16.0" fill="#52575F" transform="matrix(1.00, 0.00, -0.00, -1.00, 387.3, 67.0)"> </text><text xml:space="preserve" font-family="CircularStd-Book" font-size="16.0" fill="#52575F" transform="matrix(1.00, 0.00, -0.00, -1.00, 391.3, 67.0)">D</text><text xml:space="preserve" font-family="CircularStd-Book" font-size="16.0" fill="#52575F" transform="matrix(1.00, 0.00, -0.00, -1.00, 402.9, 67.0)">e</text><text xml:space="preserve" font-family="CircularStd-Book" font-size="16.0" fill="#52575F" transform="matrix(1.00, 0.00, -0.00, -1.00, 411.5, 67.0)">s</text><text xml:space="preserve" font-family="CircularStd-Book" font-size="16.0" fill="#52575F" transform="matrix(1.00, 0.00, -0.00, -1.00, 418.8, 67.0)">i</text><text xml:space="preserve" font-family="CircularStd-Book" font-size="16.0" fill="#52575F" transform="matrix(1.00, 0.00, -0.00, -1.00, 422.8, 67.0)">g</text><text xml:space="preserve" font-family="CircularStd-Book" font-size="16.0" fill="#52575F" transform="matrix(1.00, 0.00, -0.00, -1.00, 432.1, 67.0)">n</text><text xml:space="preserve" font-family="CircularStd-Book" font-size="16.0" fill="#52575F" transform="matrix(1.00, 0.00, -0.00, -1.00, 441.1, 67.0)">,</text><text xml:space="preserve" font-family="CircularStd-Book" font-size="16.0" fill="#52575F" transform="matrix(1.00, 0.00, -0.00, -1.00, 445.8, 67.0)"> </text><text xml:space="preserve" font-family="CircularStd-Book" font-size="16.0" fill="#52575F" transform="matrix(1.00, 0.00, -0.00, -1.00, 240.0, 47.0)">W</text><text xml:space="preserve" font-family="CircularStd-Book" font-size="16.0" fill="#52575F" transform="matrix(1.00, 0.00, -0.00, -1.00, 255.5, 47.0)">e</text><text xml:space="preserve" font-family="CircularStd-Book" font-size="16.0" fill="#52575F" transform="matrix(1.00, 0.00, -0.00, -1.00, 264.2, 47.0)">b</text><text xml:space="preserve" font-family="CircularStd-Book" font-size="16.0" fill="#52575F" transform="matrix(1.00, 0.00, -0.00, -1.00, 273.7, 47.0)"> </text><text xml:space="preserve" font-family="CircularStd-Book" font-size="16.0" fill="#52575F" transform="matrix(1.00, 0.00, -0.00, -1.00, 277.7, 47.0)">D</text><text xml:space="preserve" font-family="CircularStd-Book" font-size="16.0" fill="#52575F" transform="matrix(1.00, 0.00, -0.00, -1.00, 289.2, 47.0)">e</text><text xml:space="preserve" font-family="CircularStd-Book" font-size="16.0" fill="#52575F" transform="matrix(1.00, 0.00, -0.00, -1.00, 297.7, 47.0)">v</text><text xml:space="preserve" font-family="CircularStd-Book" font-size="16.0" fill="#52575F" transform="matrix(1.00, 0.00, -0.00, -1.00, 305.5, 47.0)">e</text><text xml:space="preserve" font-family="CircularStd-Book" font-size="16.0" fill="#52575F" transform="matrix(1.00, 0.00, -0.00, -1.00, 314.2, 47.0)">l</text><text xml:space="preserve" font-family="CircularStd-Book" font-size="16.0" fill="#52575F" transform="matrix(1.00, 0.00, -0.00, -1.00, 318.2, 47.0)">o</text><text xml:space="preserve" font-family="CircularStd-Book" font-size="16.0" fill="#52575F" transform="matrix(1.00, 0.00, -0.00, -1.00, 327.4, 47.0)">p</text><text xml:space="preserve" font-family="CircularStd-Book" font-size="16.0" fill="#52575F" transform="matrix(1.00, 0.00, -0.00, -1.00, 336.9, 47.0)">m</text><text xml:space="preserve" font-family="CircularStd-Book" font-size="16.0" fill="#52575F" transform="matrix(1.00, 0.00, -0.00, -1.00, 350.6, 47.0)">e</text><text xml:space="preserve" font-family="CircularStd-Book" font-size="16.0" fill="#52575F" transform="matrix(1.00, 0.00, -0.00, -1.00, 359.2, 47.0)">n</text><text xml:space="preserve" font-family="CircularStd-Book" font-size="16.0" fill="#52575F" transform="matrix(1.00, 0.00, -0.00, -1.00, 368.2, 47.0)">t</text></g></svg>