<?xml version="1.0" encoding="UTF-8" standalone="no"?><svg xmlns="http://www.w3.org/2000/svg" xmlns:xlink="http://www.w3.org/1999/xlink" clip-rule="evenodd" stroke-miterlimit="4.00" viewBox="0 0 142 14"><desc>SVG generated by Keynote</desc><defs></defs><g transform="matrix(1.00, 0.00, -0.00, -1.00, 0.0, 14.0)"><path d="M 123.5 9.0 C 123.8 9.0 124.9 9.1 124.9 8.9 C 124.5 8.9 123.6 8.8 123.5 9.0 C 123.5 9.0 123.5 9.0 123.5 9.0 Z M 121.3 9.0 C 121.7 9.1 122.6 9.1 122.9 9.0 C 122.4 9.0 121.4 8.9 121.3 9.0 C 121.3 9.0 121.3 9.0 121.3 9.0 Z M 124.8 8.6 C 125.4 8.6 126.5 8.7 126.7 8.5 C 126.1 8.6 125.0 8.5 124.8 8.6 C 124.8 8.6 124.8 8.6 124.8 8.6 Z M 93.0 11.1 C 93.3 11.2 94.4 11.2 94.4 11.0 C 94.0 11.1 93.1 11.0 93.0 11.1 C 93.0 11.1 93.0 11.1 93.0 11.1 Z M 99.3 10.7 C 99.7 10.8 100.6 10.8 100.9 10.7 C 100.4 10.7 99.4 10.6 99.3 10.7 C 99.3 10.7 99.3 10.7 99.3 10.7 Z M 102.9 10.8 C 103.8 10.8 104.7 10.8 104.5 10.7 C 104.2 10.8 103.0 10.6 102.9 10.8 C 102.9 10.8 102.9 10.8 102.9 10.8 Z M 124.0 2.6 C 123.1 2.7 122.5 2.6 121.8 2.6 C 118.8 2.6 123.4 2.9 124.0 2.6 C 124.0 2.6 124.0 2.6 124.0 2.6 Z M 109.3 10.3 C 108.7 10.3 108.2 10.4 107.9 10.4 C 108.5 10.4 109.3 10.5 109.3 10.3 C 109.3 10.3 109.3 10.3 109.3 10.3 Z M 114.6 10.2 C 114.8 10.3 117.9 10.2 119.6 10.1 C 118.1 10.1 114.5 10.1 114.6 10.2 C 114.6 10.2 114.6 10.2 114.6 10.2 Z M 116.7 2.6 C 114.7 2.7 111.4 2.7 109.9 2.8 C 108.5 2.8 112.5 2.9 116.3 2.9 C 120.0 2.8 116.9 2.5 118.5 2.5 C 120.0 2.4 117.0 2.4 115.5 2.4 C 114.0 2.5 116.5 2.5 116.7 2.6 C 116.7 2.6 116.7 2.6 116.7 2.6 Z M 116.8 2.1 C 117.5 2.1 118.1 2.0 118.6 2.0 C 117.8 1.9 117.1 1.9 116.8 2.1 C 116.8 2.1 116.8 2.1 116.8 2.1 Z M 7.9 5.8 C 8.2 7.3 10.0 8.5 11.9 9.4 C 12.4 9.6 12.9 9.7 13.4 9.9 C 16.9 10.6 20.5 10.9 24.1 11.1 C 24.8 11.1 25.5 11.1 26.2 11.2 C 28.4 11.3 30.6 11.3 32.8 11.3 C 33.5 11.4 34.3 11.4 35.0 11.4 C 37.7 11.6 40.2 11.4 42.8 11.4 C 44.2 11.4 45.5 11.5 46.8 11.7 C 47.5 11.8 50.4 11.7 51.5 11.6 C 50.5 11.9 55.3 11.8 55.0 11.8 C 55.6 11.7 56.1 11.6 56.7 11.6 C 57.2 11.5 56.5 11.5 55.8 11.4 C 56.5 11.4 57.1 11.3 57.7 11.3 C 58.4 11.3 59.1 11.4 59.7 11.4 C 62.0 11.5 64.4 11.4 66.5 11.2 C 72.1 11.3 87.7 11.1 84.9 11.1 C 81.7 11.0 83.4 10.9 84.2 10.8 C 84.7 10.8 85.4 10.8 86.1 10.8 C 86.1 10.9 86.0 10.9 85.9 10.9 C 87.3 11.0 89.3 11.2 91.3 11.0 C 90.9 11.0 90.5 11.0 90.3 10.9 C 91.3 10.9 90.5 10.7 91.1 10.7 C 93.0 10.7 93.8 10.6 91.7 10.6 C 93.7 10.5 94.9 10.2 96.8 10.0 C 97.5 10.1 97.2 10.1 96.9 10.1 C 98.2 10.2 101.1 10.2 101.4 10.3 C 101.7 10.4 93.5 10.3 94.9 10.4 C 95.5 10.4 96.8 10.4 97.2 10.5 C 96.2 10.5 94.9 10.5 94.3 10.6 C 95.0 10.6 96.0 10.6 96.5 10.6 C 95.9 10.6 95.4 10.6 95.2 10.7 C 96.2 10.7 96.9 10.7 98.1 10.7 C 98.7 10.7 97.7 10.6 98.8 10.6 C 99.0 10.5 98.1 10.6 98.1 10.5 C 99.1 10.5 100.9 10.5 101.4 10.4 C 101.8 10.4 100.2 10.4 100.2 10.4 C 103.8 10.3 107.8 10.3 109.0 10.3 C 110.3 10.2 109.1 10.2 108.6 10.2 C 110.1 10.1 111.2 10.1 112.9 10.1 C 114.0 10.1 113.6 10.1 113.1 10.0 C 113.4 10.0 113.7 10.0 113.9 10.0 C 114.0 10.0 114.3 10.0 114.5 9.9 C 113.8 9.9 112.6 9.9 112.0 9.9 C 113.0 9.8 115.5 9.9 116.4 9.8 C 114.9 9.7 113.4 9.7 111.9 9.7 C 114.9 9.6 118.1 9.9 120.6 9.6 C 120.1 9.6 119.9 9.5 119.6 9.5 C 120.5 9.5 121.9 9.7 122.7 9.5 C 123.2 9.4 124.1 9.4 125.0 9.4 C 123.4 9.3 122.4 9.3 121.2 9.3 C 121.3 9.3 121.4 9.3 121.6 9.3 C 119.0 9.0 117.6 9.5 115.8 9.5 C 115.7 9.5 115.5 9.5 115.4 9.5 C 114.8 9.4 116.8 9.4 117.0 9.3 C 114.4 9.3 111.5 9.4 110.2 9.2 C 113.3 9.2 116.1 9.2 118.5 9.1 C 117.9 8.9 115.5 9.0 114.4 8.9 C 119.5 8.8 120.1 8.8 120.5 8.7 C 120.1 8.7 119.7 8.7 119.3 8.7 C 119.4 8.7 119.5 8.7 119.6 8.6 C 121.8 8.6 124.5 8.6 124.4 8.6 C 124.3 8.5 122.2 8.5 120.0 8.5 C 120.2 8.4 120.5 8.4 120.7 8.3 C 123.3 8.3 126.2 8.0 128.7 8.1 C 128.3 8.0 128.5 8.0 129.1 7.9 C 128.3 7.8 127.1 7.8 126.2 7.7 C 126.5 7.7 127.1 7.7 127.2 7.7 C 126.8 7.6 126.1 7.6 125.9 7.5 C 127.1 7.5 128.4 7.5 129.7 7.4 C 130.0 7.3 129.2 7.4 129.2 7.3 C 130.4 7.3 132.2 7.3 133.0 7.2 C 132.0 7.1 130.0 7.2 129.4 7.1 C 129.8 7.1 130.2 7.0 130.6 7.0 C 131.4 7.0 131.8 6.9 130.9 6.9 C 130.4 6.8 130.4 6.8 130.6 6.8 C 131.1 6.7 133.1 6.7 133.0 6.5 C 132.5 6.5 130.6 6.5 130.1 6.4 C 130.4 6.3 131.4 6.4 131.5 6.2 C 129.4 6.3 129.4 6.2 128.9 6.3 C 129.1 6.3 129.8 6.3 129.7 6.4 C 128.4 6.4 127.0 6.4 125.6 6.4 C 125.6 6.4 125.6 6.4 125.6 6.4 C 125.6 6.4 125.6 6.4 125.6 6.4 C 125.6 6.4 125.6 6.4 125.6 6.4 C 125.8 6.3 125.7 6.1 125.6 6.1 C 126.2 6.1 126.8 6.0 127.9 6.0 C 127.6 5.8 126.6 5.9 125.7 5.9 C 125.7 5.9 125.7 5.9 125.7 5.8 C 127.2 5.8 129.5 5.8 131.1 5.7 C 130.3 5.6 127.7 5.6 126.0 5.7 C 126.0 5.6 126.1 5.6 126.1 5.6 C 123.9 5.6 121.3 5.4 118.8 5.5 C 120.0 5.3 121.4 5.5 123.0 5.4 C 123.7 5.4 124.4 5.3 125.0 5.2 C 127.0 5.3 132.9 5.3 133.6 5.2 C 134.3 5.1 128.3 5.1 128.3 5.0 C 128.3 5.0 131.1 4.9 129.7 4.9 C 129.1 5.0 127.6 5.0 126.5 5.0 C 126.5 4.9 126.4 4.8 126.4 4.6 C 127.3 4.6 128.4 4.6 128.5 4.8 C 129.0 4.8 129.9 4.9 130.1 4.8 C 129.9 4.7 129.7 4.8 129.7 4.7 C 129.9 4.7 130.2 4.7 130.3 4.6 C 129.1 4.6 127.6 4.6 126.3 4.6 C 126.2 4.5 126.1 4.5 126.0 4.4 C 126.0 4.4 127.0 4.3 127.8 4.3 C 128.7 4.3 126.9 4.2 125.4 4.2 C 125.2 4.2 125.0 4.1 124.8 4.1 C 125.3 4.1 125.8 4.1 126.5 4.0 C 127.3 4.0 127.3 3.9 128.1 3.8 C 126.6 3.7 124.8 3.7 123.4 3.8 C 122.9 3.7 122.4 3.6 121.9 3.4 C 123.0 3.4 124.1 3.3 124.8 3.2 C 125.3 3.2 125.8 3.2 126.0 3.2 C 125.5 3.1 126.8 3.1 126.6 3.0 C 125.9 3.1 124.5 3.0 124.0 3.2 C 123.0 3.2 121.8 3.2 120.7 3.2 C 120.6 3.2 120.4 3.2 120.3 3.2 C 121.2 3.1 122.1 3.1 123.0 3.1 C 122.6 2.9 119.9 2.9 118.0 3.0 C 114.2 2.8 110.2 3.5 106.3 3.7 C 106.2 3.7 106.0 3.6 105.7 3.6 C 105.4 3.5 105.1 3.5 104.9 3.4 C 105.8 3.4 106.6 3.4 107.3 3.4 C 104.6 3.2 111.2 3.2 111.7 3.1 C 107.2 2.9 98.9 3.0 93.7 2.9 C 95.0 2.9 95.4 2.8 94.0 2.8 C 93.7 2.8 93.3 2.8 93.0 2.7 C 98.2 2.6 103.6 2.9 107.8 2.6 C 105.3 2.6 101.6 2.7 100.5 2.5 C 101.2 2.5 102.3 2.5 102.5 2.5 C 101.2 2.3 96.9 2.5 95.7 2.4 C 101.8 2.2 110.1 2.4 114.6 2.1 C 107.8 2.2 98.6 2.0 92.8 2.3 C 93.8 2.3 93.8 2.3 93.3 2.4 C 91.5 2.4 89.6 2.5 87.8 2.5 C 87.4 2.5 87.5 2.5 88.4 2.4 C 89.2 2.4 89.6 2.4 89.8 2.3 C 89.3 2.3 83.6 2.3 88.2 2.2 C 92.7 2.2 100.6 2.1 96.0 2.0 C 91.4 2.0 89.6 1.9 92.1 1.8 C 94.6 1.8 102.6 1.6 99.9 1.6 C 97.3 1.6 91.6 1.4 88.4 1.5 C 85.3 1.5 90.6 2.0 85.9 2.0 C 81.2 2.0 85.1 1.8 84.2 1.8 C 82.8 1.8 80.2 1.8 77.7 1.8 C 76.0 1.8 73.8 1.8 72.6 1.7 C 72.7 1.6 78.0 1.7 75.9 1.6 C 70.8 1.6 65.0 1.6 67.4 1.8 C 64.2 1.8 61.9 1.8 59.9 1.8 C 56.8 1.6 53.2 1.7 52.8 1.6 C 52.4 1.5 43.9 1.9 40.8 1.4 C 40.5 1.4 34.9 1.5 34.4 1.7 C 29.0 1.5 29.7 1.4 24.4 1.5 C 20.0 1.5 18.6 1.6 17.8 1.6 C 13.2 1.7 13.2 1.5 10.9 2.3 C 10.2 2.5 9.1 2.5 8.8 2.9 C 8.1 3.6 7.7 4.6 7.9 5.8 C 7.9 5.8 7.9 5.8 7.9 5.8 Z M 125.0 6.6 C 125.9 6.7 127.4 6.6 128.2 6.7 C 127.2 6.9 126.0 6.8 124.7 6.8 C 124.8 6.7 124.9 6.7 125.0 6.6 C 125.0 6.6 125.0 6.6 125.0 6.6 Z M 118.6 4.3 C 119.2 4.3 119.9 4.4 120.5 4.4 C 121.1 4.4 121.7 4.4 122.6 4.3 C 122.5 4.3 121.0 4.2 119.9 4.2 C 119.9 4.2 119.9 4.1 119.9 4.1 C 120.4 4.0 121.1 4.0 121.9 4.0 C 122.1 4.0 122.4 4.0 122.7 4.0 C 122.7 4.1 122.3 4.1 122.1 4.1 C 122.3 4.2 123.0 4.3 123.9 4.3 C 124.0 4.4 124.1 4.4 124.3 4.4 C 124.4 4.5 123.7 4.6 124.5 4.6 C 123.9 4.7 122.5 4.6 121.7 4.6 C 122.6 4.3 119.0 4.5 118.1 4.4 C 118.3 4.4 118.5 4.3 118.6 4.3 Z M 111.7 9.6 C 111.2 9.6 110.7 9.6 110.2 9.6 C 110.9 9.6 111.5 9.6 112.0 9.6 C 111.9 9.6 111.8 9.6 111.7 9.6 Z M 70.8 10.8 C 73.8 10.5 80.0 10.8 80.5 10.6 C 81.1 10.6 81.7 10.7 82.4 10.7 C 78.2 10.7 73.8 10.8 70.8 10.8 C 70.8 10.8 70.8 10.8 70.8 10.8 Z M 81.3 2.4 C 81.6 2.4 81.5 2.4 80.9 2.5 C 77.7 2.6 75.8 2.7 77.8 2.7 C 79.5 2.7 83.3 2.7 82.2 2.8 C 80.7 2.8 79.3 2.8 77.7 2.8 C 76.6 2.8 75.5 2.6 74.3 2.5 C 76.8 2.5 79.2 2.4 81.3 2.4 C 81.3 2.4 81.3 2.4 81.3 2.4 Z M 72.9 2.3 C 73.8 2.3 74.9 2.3 75.9 2.3 C 75.0 2.3 74.1 2.3 73.1 2.3 C 73.1 2.3 73.0 2.3 72.9 2.3 Z M 71.8 2.1 C 73.6 2.1 75.4 2.1 73.6 2.1 C 73.2 2.2 72.8 2.2 72.4 2.2 C 72.2 2.1 72.0 2.1 71.8 2.1 Z M 70.7 2.0 C 70.7 2.0 71.0 2.1 71.6 2.1 C 70.4 2.1 67.9 2.2 68.1 2.0 C 68.9 2.0 69.8 2.0 70.7 2.0 C 70.7 2.0 70.7 2.0 70.7 2.0 Z M 68.9 11.0 C 69.7 11.1 70.3 11.1 69.1 11.1 C 68.6 11.1 68.1 11.1 67.6 11.2 C 68.0 11.1 68.4 11.1 68.9 11.0 Z M 110.5 2.4 C 110.1 2.5 108.8 2.5 108.1 2.5 C 108.0 2.9 111.0 2.6 110.5 2.4 C 110.5 2.4 110.5 2.4 110.5 2.4 Z M 115.3 2.3 C 115.0 2.3 113.7 2.3 112.9 2.3 C 112.9 2.7 115.8 2.4 115.3 2.3 C 115.3 2.3 115.3 2.3 115.3 2.3 Z M 40.8 1.4 C 40.8 1.4 40.8 1.4 40.8 1.4 C 40.8 1.4 40.8 1.4 40.8 1.4 C 40.8 1.4 40.8 1.4 40.8 1.4 Z M 40.8 1.4 " fill="#1BFFE6"></path></g></svg>