<?xml version="1.0" encoding="UTF-8" standalone="no"?><svg xmlns="http://www.w3.org/2000/svg" xmlns:xlink="http://www.w3.org/1999/xlink" clip-rule="evenodd" stroke-miterlimit="4.00" viewBox="0 0 460 69"><desc>SVG generated by Keynote</desc><defs></defs><g transform="matrix(1.00, 0.00, -0.00, -1.00, 0.0, 69.0)"><text xml:space="preserve" font-family="CircularStd-Book" font-size="14.0" fill="#52575F" transform="matrix(1.00, 0.00, -0.00, -1.00, 2.0, 57.0)">W</text><text xml:space="preserve" font-family="CircularStd-Book" font-size="14.0" fill="#52575F" transform="matrix(1.00, 0.00, -0.00, -1.00, 15.6, 57.0)">e</text><text xml:space="preserve" font-family="CircularStd-Book" font-size="14.0" fill="#52575F" transform="matrix(1.00, 0.00, -0.00, -1.00, 23.2, 57.0)">b</text><text xml:space="preserve" font-family="CircularStd-Book" font-size="14.0" fill="#52575F" transform="matrix(1.00, 0.00, -0.00, -1.00, 31.5, 57.0)"> </text><text xml:space="preserve" font-family="CircularStd-Book" font-size="14.0" fill="#52575F" transform="matrix(1.00, 0.00, -0.00, -1.00, 35.0, 57.0)">d</text><text xml:space="preserve" font-family="CircularStd-Book" font-size="14.0" fill="#52575F" transform="matrix(1.00, 0.00, -0.00, -1.00, 43.2, 57.0)">e</text><text xml:space="preserve" font-family="CircularStd-Book" font-size="14.0" fill="#52575F" transform="matrix(1.00, 0.00, -0.00, -1.00, 50.8, 57.0)">s</text><text xml:space="preserve" font-family="CircularStd-Book" font-size="14.0" fill="#52575F" transform="matrix(1.00, 0.00, -0.00, -1.00, 57.1, 57.0)">i</text><text xml:space="preserve" font-family="CircularStd-Book" font-size="14.0" fill="#52575F" transform="matrix(1.00, 0.00, -0.00, -1.00, 60.6, 57.0)">g</text><text xml:space="preserve" font-family="CircularStd-Book" font-size="14.0" fill="#52575F" transform="matrix(1.00, 0.00, -0.00, -1.00, 68.7, 57.0)">n</text><text xml:space="preserve" font-family="CircularStd-Book" font-size="14.0" fill="#52575F" transform="matrix(1.00, 0.00, -0.00, -1.00, 76.6, 57.0)">,</text><text xml:space="preserve" font-family="CircularStd-Book" font-size="14.0" fill="#52575F" transform="matrix(1.00, 0.00, -0.00, -1.00, 80.7, 57.0)"> </text><text xml:space="preserve" font-family="CircularStd-Book" font-size="14.0" fill="#52575F" transform="matrix(1.00, 0.00, -0.00, -1.00, 84.2, 57.0)">f</text><text xml:space="preserve" font-family="CircularStd-Book" font-size="14.0" fill="#52575F" transform="matrix(1.00, 0.00, -0.00, -1.00, 89.0, 57.0)">r</text><text xml:space="preserve" font-family="CircularStd-Book" font-size="14.0" fill="#52575F" transform="matrix(1.00, 0.00, -0.00, -1.00, 94.1, 57.0)">o</text><text xml:space="preserve" font-family="CircularStd-Book" font-size="14.0" fill="#52575F" transform="matrix(1.00, 0.00, -0.00, -1.00, 102.1, 57.0)">n</text><text xml:space="preserve" font-family="CircularStd-Book" font-size="14.0" fill="#52575F" transform="matrix(1.00, 0.00, -0.00, -1.00, 110.0, 57.0)">t</text><text xml:space="preserve" font-family="CircularStd-Book" font-size="14.0" fill="#52575F" transform="matrix(1.00, 0.00, -0.00, -1.00, 114.9, 57.0)">-</text><text xml:space="preserve" font-family="CircularStd-Book" font-size="14.0" fill="#52575F" transform="matrix(1.00, 0.00, -0.00, -1.00, 120.0, 57.0)">e</text><text xml:space="preserve" font-family="CircularStd-Book" font-size="14.0" fill="#52575F" transform="matrix(1.00, 0.00, -0.00, -1.00, 127.6, 57.0)">n</text><text xml:space="preserve" font-family="CircularStd-Book" font-size="14.0" fill="#52575F" transform="matrix(1.00, 0.00, -0.00, -1.00, 135.4, 57.0)">d</text><text xml:space="preserve" font-family="CircularStd-Book" font-size="14.0" fill="#52575F" transform="matrix(1.00, 0.00, -0.00, -1.00, 143.7, 57.0)"> </text><text xml:space="preserve" font-family="CircularStd-Book" font-size="14.0" fill="#52575F" transform="matrix(1.00, 0.00, -0.00, -1.00, 147.2, 57.0)">d</text><text xml:space="preserve" font-family="CircularStd-Book" font-size="14.0" fill="#52575F" transform="matrix(1.00, 0.00, -0.00, -1.00, 155.4, 57.0)">e</text><text xml:space="preserve" font-family="CircularStd-Book" font-size="14.0" fill="#52575F" transform="matrix(1.00, 0.00, -0.00, -1.00, 162.9, 57.0)">v</text><text xml:space="preserve" font-family="CircularStd-Book" font-size="14.0" fill="#52575F" transform="matrix(1.00, 0.00, -0.00, -1.00, 169.7, 57.0)">e</text><text xml:space="preserve" font-family="CircularStd-Book" font-size="14.0" fill="#52575F" transform="matrix(1.00, 0.00, -0.00, -1.00, 177.3, 57.0)">l</text><text xml:space="preserve" font-family="CircularStd-Book" font-size="14.0" fill="#52575F" transform="matrix(1.00, 0.00, -0.00, -1.00, 180.8, 57.0)">o</text><text xml:space="preserve" font-family="CircularStd-Book" font-size="14.0" fill="#52575F" transform="matrix(1.00, 0.00, -0.00, -1.00, 188.8, 57.0)">p</text><text xml:space="preserve" font-family="CircularStd-Book" font-size="14.0" fill="#52575F" transform="matrix(1.00, 0.00, -0.00, -1.00, 197.1, 57.0)">m</text><text xml:space="preserve" font-family="CircularStd-Book" font-size="14.0" fill="#52575F" transform="matrix(1.00, 0.00, -0.00, -1.00, 209.1, 57.0)">e</text><text xml:space="preserve" font-family="CircularStd-Book" font-size="14.0" fill="#52575F" transform="matrix(1.00, 0.00, -0.00, -1.00, 216.7, 57.0)">n</text><text xml:space="preserve" font-family="CircularStd-Book" font-size="14.0" fill="#52575F" transform="matrix(1.00, 0.00, -0.00, -1.00, 224.6, 57.0)">t</text><text xml:space="preserve" font-family="CircularStd-Book" font-size="14.0" fill="#52575F" transform="matrix(1.00, 0.00, -0.00, -1.00, 229.6, 57.0)">,</text><text xml:space="preserve" font-family="CircularStd-Book" font-size="14.0" fill="#52575F" transform="matrix(1.00, 0.00, -0.00, -1.00, 233.7, 57.0)"> </text><text xml:space="preserve" font-family="CircularStd-Book" font-size="14.0" fill="#52575F" transform="matrix(1.00, 0.00, -0.00, -1.00, 237.2, 57.0)">a</text><text xml:space="preserve" font-family="CircularStd-Book" font-size="14.0" fill="#52575F" transform="matrix(1.00, 0.00, -0.00, -1.00, 244.5, 57.0)">n</text><text xml:space="preserve" font-family="CircularStd-Book" font-size="14.0" fill="#52575F" transform="matrix(1.00, 0.00, -0.00, -1.00, 252.4, 57.0)">d</text><text xml:space="preserve" font-family="CircularStd-Book" font-size="14.0" fill="#52575F" transform="matrix(1.00, 0.00, -0.00, -1.00, 260.6, 57.0)"> </text><text xml:space="preserve" font-family="CircularStd-Book" font-size="14.0" fill="#52575F" transform="matrix(1.00, 0.00, -0.00, -1.00, 264.1, 57.0)">a</text><text xml:space="preserve" font-family="CircularStd-Book" font-size="14.0" fill="#52575F" transform="matrix(1.00, 0.00, -0.00, -1.00, 271.4, 57.0)"> </text><text xml:space="preserve" font-family="CircularStd-Book" font-size="14.0" fill="#52575F" transform="matrix(1.00, 0.00, -0.00, -1.00, 274.9, 57.0)">c</text><text xml:space="preserve" font-family="CircularStd-Book" font-size="14.0" fill="#52575F" transform="matrix(1.00, 0.00, -0.00, -1.00, 282.3, 57.0)">u</text><text xml:space="preserve" font-family="CircularStd-Book" font-size="14.0" fill="#52575F" transform="matrix(1.00, 0.00, -0.00, -1.00, 290.2, 57.0)">s</text><text xml:space="preserve" font-family="CircularStd-Book" font-size="14.0" fill="#52575F" transform="matrix(1.00, 0.00, -0.00, -1.00, 296.5, 57.0)">t</text><text xml:space="preserve" font-family="CircularStd-Book" font-size="14.0" fill="#52575F" transform="matrix(1.00, 0.00, -0.00, -1.00, 301.4, 57.0)">o</text><text xml:space="preserve" font-family="CircularStd-Book" font-size="14.0" fill="#52575F" transform="matrix(1.00, 0.00, -0.00, -1.00, 309.4, 57.0)">m</text><text xml:space="preserve" font-family="CircularStd-Book" font-size="14.0" fill="#52575F" transform="matrix(1.00, 0.00, -0.00, -1.00, 321.4, 57.0)"> </text><text xml:space="preserve" font-family="CircularStd-Book" font-size="14.0" fill="#52575F" transform="matrix(1.00, 0.00, -0.00, -1.00, 324.9, 57.0)">W</text><text xml:space="preserve" font-family="CircularStd-Book" font-size="14.0" fill="#52575F" transform="matrix(1.00, 0.00, -0.00, -1.00, 338.5, 57.0)">o</text><text xml:space="preserve" font-family="CircularStd-Book" font-size="14.0" fill="#52575F" transform="matrix(1.00, 0.00, -0.00, -1.00, 346.5, 57.0)">r</text><text xml:space="preserve" font-family="CircularStd-Book" font-size="14.0" fill="#52575F" transform="matrix(1.00, 0.00, -0.00, -1.00, 351.6, 57.0)">d</text><text xml:space="preserve" font-family="CircularStd-Book" font-size="14.0" fill="#52575F" transform="matrix(1.00, 0.00, -0.00, -1.00, 359.8, 57.0)">p</text><text xml:space="preserve" font-family="CircularStd-Book" font-size="14.0" fill="#52575F" transform="matrix(1.00, 0.00, -0.00, -1.00, 368.1, 57.0)">r</text><text xml:space="preserve" font-family="CircularStd-Book" font-size="14.0" fill="#52575F" transform="matrix(1.00, 0.00, -0.00, -1.00, 373.2, 57.0)">e</text><text xml:space="preserve" font-family="CircularStd-Book" font-size="14.0" fill="#52575F" transform="matrix(1.00, 0.00, -0.00, -1.00, 380.8, 57.0)">s</text><text xml:space="preserve" font-family="CircularStd-Book" font-size="14.0" fill="#52575F" transform="matrix(1.00, 0.00, -0.00, -1.00, 387.1, 57.0)">s</text><text xml:space="preserve" font-family="CircularStd-Book" font-size="14.0" fill="#52575F" transform="matrix(1.00, 0.00, -0.00, -1.00, 393.4, 57.0)"> </text><text xml:space="preserve" font-family="CircularStd-Book" font-size="14.0" fill="#52575F" transform="matrix(1.00, 0.00, -0.00, -1.00, 396.9, 57.0)">t</text><text xml:space="preserve" font-family="CircularStd-Book" font-size="14.0" fill="#52575F" transform="matrix(1.00, 0.00, -0.00, -1.00, 401.9, 57.0)">h</text><text xml:space="preserve" font-family="CircularStd-Book" font-size="14.0" fill="#52575F" transform="matrix(1.00, 0.00, -0.00, -1.00, 409.7, 57.0)">e</text><text xml:space="preserve" font-family="CircularStd-Book" font-size="14.0" fill="#52575F" transform="matrix(1.00, 0.00, -0.00, -1.00, 417.3, 57.0)">m</text><text xml:space="preserve" font-family="CircularStd-Book" font-size="14.0" fill="#52575F" transform="matrix(1.00, 0.00, -0.00, -1.00, 429.3, 57.0)">e</text><text xml:space="preserve" font-family="CircularStd-Book" font-size="14.0" fill="#52575F" transform="matrix(1.00, 0.00, -0.00, -1.00, 436.9, 57.0)"> </text><text xml:space="preserve" font-family="CircularStd-Book" font-size="14.0" fill="#52575F" transform="matrix(1.00, 0.00, -0.00, -1.00, 440.4, 57.0)">f</text><text xml:space="preserve" font-family="CircularStd-Book" font-size="14.0" fill="#52575F" transform="matrix(1.00, 0.00, -0.00, -1.00, 444.9, 57.0)">o</text><text xml:space="preserve" font-family="CircularStd-Book" font-size="14.0" fill="#52575F" transform="matrix(1.00, 0.00, -0.00, -1.00, 453.0, 57.0)">r</text><text xml:space="preserve" font-family="CircularStd-Book" font-size="14.0" fill="#52575F" transform="matrix(1.00, 0.00, -0.00, -1.00, 458.1, 57.0)"> </text><text xml:space="preserve" font-family="CircularStd-Book" font-size="14.0" fill="#52575F" transform="matrix(1.00, 0.00, -0.00, -1.00, 2.0, 33.0)">2</text><text xml:space="preserve" font-family="CircularStd-Book" font-size="14.0" fill="#52575F" transform="matrix(1.00, 0.00, -0.00, -1.00, 9.5, 33.0)">1</text><text xml:space="preserve" font-family="CircularStd-Book" font-size="14.0" fill="#52575F" transform="matrix(1.00, 0.00, -0.00, -1.00, 14.5, 33.0)">C</text><text xml:space="preserve" font-family="CircularStd-Book" font-size="14.0" fill="#52575F" transform="matrix(1.00, 0.00, -0.00, -1.00, 25.0, 33.0)">L</text><text xml:space="preserve" font-family="CircularStd-Book" font-size="14.0" fill="#52575F" transform="matrix(1.00, 0.00, -0.00, -1.00, 32.8, 33.0)">,</text><text xml:space="preserve" font-family="CircularStd-Book" font-size="14.0" fill="#52575F" transform="matrix(1.00, 0.00, -0.00, -1.00, 36.9, 33.0)"> </text><text xml:space="preserve" font-family="CircularStd-Book" font-size="14.0" fill="#52575F" transform="matrix(1.00, 0.00, -0.00, -1.00, 40.4, 33.0)">a</text><text xml:space="preserve" font-family="CircularStd-Book" font-size="14.0" fill="#52575F" transform="matrix(1.00, 0.00, -0.00, -1.00, 47.7, 33.0)">n</text><text xml:space="preserve" font-family="CircularStd-Book" font-size="14.0" fill="#52575F" transform="matrix(1.00, 0.00, -0.00, -1.00, 55.6, 33.0)"> </text><text xml:space="preserve" font-family="CircularStd-Book" font-size="14.0" fill="#52575F" transform="matrix(1.00, 0.00, -0.00, -1.00, 59.1, 33.0)">i</text><text xml:space="preserve" font-family="CircularStd-Book" font-size="14.0" fill="#52575F" transform="matrix(1.00, 0.00, -0.00, -1.00, 62.6, 33.0)">n</text><text xml:space="preserve" font-family="CircularStd-Book" font-size="14.0" fill="#52575F" transform="matrix(1.00, 0.00, -0.00, -1.00, 70.5, 33.0)">t</text><text xml:space="preserve" font-family="CircularStd-Book" font-size="14.0" fill="#52575F" transform="matrix(1.00, 0.00, -0.00, -1.00, 75.4, 33.0)">e</text><text xml:space="preserve" font-family="CircularStd-Book" font-size="14.0" fill="#52575F" transform="matrix(1.00, 0.00, -0.00, -1.00, 83.0, 33.0)">r</text><text xml:space="preserve" font-family="CircularStd-Book" font-size="14.0" fill="#52575F" transform="matrix(1.00, 0.00, -0.00, -1.00, 88.1, 33.0)">n</text><text xml:space="preserve" font-family="CircularStd-Book" font-size="14.0" fill="#52575F" transform="matrix(1.00, 0.00, -0.00, -1.00, 96.0, 33.0)">a</text><text xml:space="preserve" font-family="CircularStd-Book" font-size="14.0" fill="#52575F" transform="matrix(1.00, 0.00, -0.00, -1.00, 103.3, 33.0)">t</text><text xml:space="preserve" font-family="CircularStd-Book" font-size="14.0" fill="#52575F" transform="matrix(1.00, 0.00, -0.00, -1.00, 108.3, 33.0)">i</text><text xml:space="preserve" font-family="CircularStd-Book" font-size="14.0" fill="#52575F" transform="matrix(1.00, 0.00, -0.00, -1.00, 111.8, 33.0)">o</text><text xml:space="preserve" font-family="CircularStd-Book" font-size="14.0" fill="#52575F" transform="matrix(1.00, 0.00, -0.00, -1.00, 119.9, 33.0)">n</text><text xml:space="preserve" font-family="CircularStd-Book" font-size="14.0" fill="#52575F" transform="matrix(1.00, 0.00, -0.00, -1.00, 127.7, 33.0)">a</text><text xml:space="preserve" font-family="CircularStd-Book" font-size="14.0" fill="#52575F" transform="matrix(1.00, 0.00, -0.00, -1.00, 135.0, 33.0)">l</text><text xml:space="preserve" font-family="CircularStd-Book" font-size="14.0" fill="#52575F" transform="matrix(1.00, 0.00, -0.00, -1.00, 138.6, 33.0)"> </text><text xml:space="preserve" font-family="CircularStd-Book" font-size="14.0" fill="#52575F" transform="matrix(1.00, 0.00, -0.00, -1.00, 142.1, 33.0)">e</text><text xml:space="preserve" font-family="CircularStd-Book" font-size="14.0" fill="#52575F" transform="matrix(1.00, 0.00, -0.00, -1.00, 149.7, 33.0)">d</text><text xml:space="preserve" font-family="CircularStd-Book" font-size="14.0" fill="#52575F" transform="matrix(1.00, 0.00, -0.00, -1.00, 157.8, 33.0)">u</text><text xml:space="preserve" font-family="CircularStd-Book" font-size="14.0" fill="#52575F" transform="matrix(1.00, 0.00, -0.00, -1.00, 165.7, 33.0)">c</text><text xml:space="preserve" font-family="CircularStd-Book" font-size="14.0" fill="#52575F" transform="matrix(1.00, 0.00, -0.00, -1.00, 173.1, 33.0)">a</text><text xml:space="preserve" font-family="CircularStd-Book" font-size="14.0" fill="#52575F" transform="matrix(1.00, 0.00, -0.00, -1.00, 180.4, 33.0)">t</text><text xml:space="preserve" font-family="CircularStd-Book" font-size="14.0" fill="#52575F" transform="matrix(1.00, 0.00, -0.00, -1.00, 185.3, 33.0)">i</text><text xml:space="preserve" font-family="CircularStd-Book" font-size="14.0" fill="#52575F" transform="matrix(1.00, 0.00, -0.00, -1.00, 188.9, 33.0)">o</text><text xml:space="preserve" font-family="CircularStd-Book" font-size="14.0" fill="#52575F" transform="matrix(1.00, 0.00, -0.00, -1.00, 196.9, 33.0)">n</text><text xml:space="preserve" font-family="CircularStd-Book" font-size="14.0" fill="#52575F" transform="matrix(1.00, 0.00, -0.00, -1.00, 204.8, 33.0)"> </text><text xml:space="preserve" font-family="CircularStd-Book" font-size="14.0" fill="#52575F" transform="matrix(1.00, 0.00, -0.00, -1.00, 208.3, 33.0)">c</text><text xml:space="preserve" font-family="CircularStd-Book" font-size="14.0" fill="#52575F" transform="matrix(1.00, 0.00, -0.00, -1.00, 215.6, 33.0)">o</text><text xml:space="preserve" font-family="CircularStd-Book" font-size="14.0" fill="#52575F" transform="matrix(1.00, 0.00, -0.00, -1.00, 223.6, 33.0)">n</text><text xml:space="preserve" font-family="CircularStd-Book" font-size="14.0" fill="#52575F" transform="matrix(1.00, 0.00, -0.00, -1.00, 231.5, 33.0)">s</text><text xml:space="preserve" font-family="CircularStd-Book" font-size="14.0" fill="#52575F" transform="matrix(1.00, 0.00, -0.00, -1.00, 237.7, 33.0)">u</text><text xml:space="preserve" font-family="CircularStd-Book" font-size="14.0" fill="#52575F" transform="matrix(1.00, 0.00, -0.00, -1.00, 245.7, 33.0)">l</text><text xml:space="preserve" font-family="CircularStd-Book" font-size="14.0" fill="#52575F" transform="matrix(1.00, 0.00, -0.00, -1.00, 249.2, 33.0)">t</text><text xml:space="preserve" font-family="CircularStd-Book" font-size="14.0" fill="#52575F" transform="matrix(1.00, 0.00, -0.00, -1.00, 254.2, 33.0)">a</text><text xml:space="preserve" font-family="CircularStd-Book" font-size="14.0" fill="#52575F" transform="matrix(1.00, 0.00, -0.00, -1.00, 261.5, 33.0)">n</text><text xml:space="preserve" font-family="CircularStd-Book" font-size="14.0" fill="#52575F" transform="matrix(1.00, 0.00, -0.00, -1.00, 269.4, 33.0)">c</text><text xml:space="preserve" font-family="CircularStd-Book" font-size="14.0" fill="#52575F" transform="matrix(1.00, 0.00, -0.00, -1.00, 276.7, 33.0)">y</text><text xml:space="preserve" font-family="CircularStd-Book" font-size="14.0" fill="#52575F" transform="matrix(1.00, 0.00, -0.00, -1.00, 284.1, 33.0)"> </text><text xml:space="preserve" font-family="CircularStd-Book" font-size="14.0" fill="#52575F" transform="matrix(1.00, 0.00, -0.00, -1.00, 287.6, 33.0)">a</text><text xml:space="preserve" font-family="CircularStd-Book" font-size="14.0" fill="#52575F" transform="matrix(1.00, 0.00, -0.00, -1.00, 294.9, 33.0)">d</text><text xml:space="preserve" font-family="CircularStd-Book" font-size="14.0" fill="#52575F" transform="matrix(1.00, 0.00, -0.00, -1.00, 303.1, 33.0)">v</text><text xml:space="preserve" font-family="CircularStd-Book" font-size="14.0" fill="#52575F" transform="matrix(1.00, 0.00, -0.00, -1.00, 310.1, 33.0)">i</text><text xml:space="preserve" font-family="CircularStd-Book" font-size="14.0" fill="#52575F" transform="matrix(1.00, 0.00, -0.00, -1.00, 313.7, 33.0)">s</text><text xml:space="preserve" font-family="CircularStd-Book" font-size="14.0" fill="#52575F" transform="matrix(1.00, 0.00, -0.00, -1.00, 320.0, 33.0)">i</text><text xml:space="preserve" font-family="CircularStd-Book" font-size="14.0" fill="#52575F" transform="matrix(1.00, 0.00, -0.00, -1.00, 323.6, 33.0)">n</text><text xml:space="preserve" font-family="CircularStd-Book" font-size="14.0" fill="#52575F" transform="matrix(1.00, 0.00, -0.00, -1.00, 331.4, 33.0)">g</text><text xml:space="preserve" font-family="CircularStd-Book" font-size="14.0" fill="#52575F" transform="matrix(1.00, 0.00, -0.00, -1.00, 339.5, 33.0)"> </text><text xml:space="preserve" font-family="CircularStd-Book" font-size="14.0" fill="#52575F" transform="matrix(1.00, 0.00, -0.00, -1.00, 343.0, 33.0)">s</text><text xml:space="preserve" font-family="CircularStd-Book" font-size="14.0" fill="#52575F" transform="matrix(1.00, 0.00, -0.00, -1.00, 349.3, 33.0)">c</text><text xml:space="preserve" font-family="CircularStd-Book" font-size="14.0" fill="#52575F" transform="matrix(1.00, 0.00, -0.00, -1.00, 356.7, 33.0)">h</text><text xml:space="preserve" font-family="CircularStd-Book" font-size="14.0" fill="#52575F" transform="matrix(1.00, 0.00, -0.00, -1.00, 364.6, 33.0)">o</text><text xml:space="preserve" font-family="CircularStd-Book" font-size="14.0" fill="#52575F" transform="matrix(1.00, 0.00, -0.00, -1.00, 372.6, 33.0)">o</text><text xml:space="preserve" font-family="CircularStd-Book" font-size="14.0" fill="#52575F" transform="matrix(1.00, 0.00, -0.00, -1.00, 380.6, 33.0)">l</text><text xml:space="preserve" font-family="CircularStd-Book" font-size="14.0" fill="#52575F" transform="matrix(1.00, 0.00, -0.00, -1.00, 384.1, 33.0)">s</text><text xml:space="preserve" font-family="CircularStd-Book" font-size="14.0" fill="#52575F" transform="matrix(1.00, 0.00, -0.00, -1.00, 390.5, 33.0)"> </text><text xml:space="preserve" font-family="CircularStd-Book" font-size="14.0" fill="#52575F" transform="matrix(1.00, 0.00, -0.00, -1.00, 394.0, 33.0)">o</text><text xml:space="preserve" font-family="CircularStd-Book" font-size="14.0" fill="#52575F" transform="matrix(1.00, 0.00, -0.00, -1.00, 402.0, 33.0)">n</text><text xml:space="preserve" font-family="CircularStd-Book" font-size="14.0" fill="#52575F" transform="matrix(1.00, 0.00, -0.00, -1.00, 409.8, 33.0)"> </text><text xml:space="preserve" font-family="CircularStd-Book" font-size="14.0" fill="#52575F" transform="matrix(1.00, 0.00, -0.00, -1.00, 413.3, 33.0)">e</text><text xml:space="preserve" font-family="CircularStd-Book" font-size="14.0" fill="#52575F" transform="matrix(1.00, 0.00, -0.00, -1.00, 420.9, 33.0)">d</text><text xml:space="preserve" font-family="CircularStd-Book" font-size="14.0" fill="#52575F" transform="matrix(1.00, 0.00, -0.00, -1.00, 429.2, 33.0)">t</text><text xml:space="preserve" font-family="CircularStd-Book" font-size="14.0" fill="#52575F" transform="matrix(1.00, 0.00, -0.00, -1.00, 434.1, 33.0)">e</text><text xml:space="preserve" font-family="CircularStd-Book" font-size="14.0" fill="#52575F" transform="matrix(1.00, 0.00, -0.00, -1.00, 441.6, 33.0)">c</text><text xml:space="preserve" font-family="CircularStd-Book" font-size="14.0" fill="#52575F" transform="matrix(1.00, 0.00, -0.00, -1.00, 449.1, 33.0)">h</text><text xml:space="preserve" font-family="CircularStd-Book" font-size="14.0" fill="#52575F" transform="matrix(1.00, 0.00, -0.00, -1.00, 456.9, 33.0)"> </text><text xml:space="preserve" font-family="CircularStd-Book" font-size="14.0" fill="#52575F" transform="matrix(1.00, 0.00, -0.00, -1.00, 2.0, 10.0)">p</text><text xml:space="preserve" font-family="CircularStd-Book" font-size="14.0" fill="#52575F" transform="matrix(1.00, 0.00, -0.00, -1.00, 10.3, 10.0)">o</text><text xml:space="preserve" font-family="CircularStd-Book" font-size="14.0" fill="#52575F" transform="matrix(1.00, 0.00, -0.00, -1.00, 18.3, 10.0)">l</text><text xml:space="preserve" font-family="CircularStd-Book" font-size="14.0" fill="#52575F" transform="matrix(1.00, 0.00, -0.00, -1.00, 21.9, 10.0)">i</text><text xml:space="preserve" font-family="CircularStd-Book" font-size="14.0" fill="#52575F" transform="matrix(1.00, 0.00, -0.00, -1.00, 25.4, 10.0)">c</text><text xml:space="preserve" font-family="CircularStd-Book" font-size="14.0" fill="#52575F" transform="matrix(1.00, 0.00, -0.00, -1.00, 32.8, 10.0)">y</text><text xml:space="preserve" font-family="CircularStd-Book" font-size="14.0" fill="#52575F" transform="matrix(1.00, 0.00, -0.00, -1.00, 40.1, 10.0)"> </text><text xml:space="preserve" font-family="CircularStd-Book" font-size="14.0" fill="#52575F" transform="matrix(1.00, 0.00, -0.00, -1.00, 43.6, 10.0)">a</text><text xml:space="preserve" font-family="CircularStd-Book" font-size="14.0" fill="#52575F" transform="matrix(1.00, 0.00, -0.00, -1.00, 50.9, 10.0)">n</text><text xml:space="preserve" font-family="CircularStd-Book" font-size="14.0" fill="#52575F" transform="matrix(1.00, 0.00, -0.00, -1.00, 58.8, 10.0)">d</text><text xml:space="preserve" font-family="CircularStd-Book" font-size="14.0" fill="#52575F" transform="matrix(1.00, 0.00, -0.00, -1.00, 67.0, 10.0)"> </text><text xml:space="preserve" font-family="CircularStd-Book" font-size="14.0" fill="#52575F" transform="matrix(1.00, 0.00, -0.00, -1.00, 70.5, 10.0)">i</text><text xml:space="preserve" font-family="CircularStd-Book" font-size="14.0" fill="#52575F" transform="matrix(1.00, 0.00, -0.00, -1.00, 74.0, 10.0)">m</text><text xml:space="preserve" font-family="CircularStd-Book" font-size="14.0" fill="#52575F" transform="matrix(1.00, 0.00, -0.00, -1.00, 86.0, 10.0)">p</text><text xml:space="preserve" font-family="CircularStd-Book" font-size="14.0" fill="#52575F" transform="matrix(1.00, 0.00, -0.00, -1.00, 94.3, 10.0)">l</text><text xml:space="preserve" font-family="CircularStd-Book" font-size="14.0" fill="#52575F" transform="matrix(1.00, 0.00, -0.00, -1.00, 97.9, 10.0)">e</text><text xml:space="preserve" font-family="CircularStd-Book" font-size="14.0" fill="#52575F" transform="matrix(1.00, 0.00, -0.00, -1.00, 105.5, 10.0)">m</text><text xml:space="preserve" font-family="CircularStd-Book" font-size="14.0" fill="#52575F" transform="matrix(1.00, 0.00, -0.00, -1.00, 117.5, 10.0)">e</text><text xml:space="preserve" font-family="CircularStd-Book" font-size="14.0" fill="#52575F" transform="matrix(1.00, 0.00, -0.00, -1.00, 125.1, 10.0)">n</text><text xml:space="preserve" font-family="CircularStd-Book" font-size="14.0" fill="#52575F" transform="matrix(1.00, 0.00, -0.00, -1.00, 132.9, 10.0)">t</text><text xml:space="preserve" font-family="CircularStd-Book" font-size="14.0" fill="#52575F" transform="matrix(1.00, 0.00, -0.00, -1.00, 137.9, 10.0)">a</text><text xml:space="preserve" font-family="CircularStd-Book" font-size="14.0" fill="#52575F" transform="matrix(1.00, 0.00, -0.00, -1.00, 145.2, 10.0)">t</text><text xml:space="preserve" font-family="CircularStd-Book" font-size="14.0" fill="#52575F" transform="matrix(1.00, 0.00, -0.00, -1.00, 150.2, 10.0)">i</text><text xml:space="preserve" font-family="CircularStd-Book" font-size="14.0" fill="#52575F" transform="matrix(1.00, 0.00, -0.00, -1.00, 153.7, 10.0)">o</text><text xml:space="preserve" font-family="CircularStd-Book" font-size="14.0" fill="#52575F" transform="matrix(1.00, 0.00, -0.00, -1.00, 161.8, 10.0)">n</text><text xml:space="preserve" font-family="CircularStd-Book" font-size="14.0" fill="#52575F" transform="matrix(1.00, 0.00, -0.00, -1.00, 169.6, 10.0)">.</text><text xml:space="preserve" font-family="CircularStd-Book" font-size="14.0" fill="#52575F" transform="matrix(1.00, 0.00, -0.00, -1.00, 173.5, 10.0)"> </text><text xml:space="preserve" font-family="CircularStd-Bold" font-weight="bold" font-size="14.0" fill="#0000DE" transform="matrix(1.00, 0.00, -0.00, -1.00, 177.0, 10.0)">V</text><text xml:space="preserve" font-family="CircularStd-Bold" font-weight="bold" font-size="14.0" fill="#0000DE" transform="matrix(1.00, 0.00, -0.00, -1.00, 186.6, 10.0)">i</text><text xml:space="preserve" font-family="CircularStd-Bold" font-weight="bold" font-size="14.0" fill="#0000DE" transform="matrix(1.00, 0.00, -0.00, -1.00, 190.5, 10.0)">s</text><text xml:space="preserve" font-family="CircularStd-Bold" font-weight="bold" font-size="14.0" fill="#0000DE" transform="matrix(1.00, 0.00, -0.00, -1.00, 196.9, 10.0)">i</text><text xml:space="preserve" font-family="CircularStd-Bold" font-weight="bold" font-size="14.0" fill="#0000DE" transform="matrix(1.00, 0.00, -0.00, -1.00, 200.8, 10.0)">t</text><text xml:space="preserve" font-family="CircularStd-Bold" font-weight="bold" font-size="14.0" fill="#0000FF" transform="matrix(1.00, 0.00, -0.00, -1.00, 206.0, 10.0)"> </text><text xml:space="preserve" font-family="CircularStd-Bold" font-weight="bold" font-size="14.0" fill="#0000FF" transform="matrix(1.00, 0.00, -0.00, -1.00, 209.5, 10.0)">2</text><text xml:space="preserve" font-family="CircularStd-Bold" font-weight="bold" font-size="14.0" fill="#0000FF" transform="matrix(1.00, 0.00, -0.00, -1.00, 217.1, 10.0)">1</text><text xml:space="preserve" font-family="CircularStd-Bold" font-weight="bold" font-size="14.0" fill="#0000FF" transform="matrix(1.00, 0.00, -0.00, -1.00, 222.6, 10.0)">c</text><text xml:space="preserve" font-family="CircularStd-Bold" font-weight="bold" font-size="14.0" fill="#0000FF" transform="matrix(1.00, 0.00, -0.00, -1.00, 230.3, 10.0)">-</text><text xml:space="preserve" font-family="CircularStd-Bold" font-weight="bold" font-size="14.0" fill="#0000FF" transform="matrix(1.00, 0.00, -0.00, -1.00, 235.6, 10.0)">l</text><text xml:space="preserve" font-family="CircularStd-Bold" font-weight="bold" font-size="14.0" fill="#0000FF" transform="matrix(1.00, 0.00, -0.00, -1.00, 239.5, 10.0)">e</text><text xml:space="preserve" font-family="CircularStd-Bold" font-weight="bold" font-size="14.0" fill="#0000FF" transform="matrix(1.00, 0.00, -0.00, -1.00, 247.2, 10.0)">a</text><text xml:space="preserve" font-family="CircularStd-Bold" font-weight="bold" font-size="14.0" fill="#0000FF" transform="matrix(1.00, 0.00, -0.00, -1.00, 254.8, 10.0)">r</text><text xml:space="preserve" font-family="CircularStd-Bold" font-weight="bold" font-size="14.0" fill="#0000FF" transform="matrix(1.00, 0.00, -0.00, -1.00, 260.3, 10.0)">n</text><text xml:space="preserve" font-family="CircularStd-Bold" font-weight="bold" font-size="14.0" fill="#0000FF" transform="matrix(1.00, 0.00, -0.00, -1.00, 268.4, 10.0)">i</text><text xml:space="preserve" font-family="CircularStd-Bold" font-weight="bold" font-size="14.0" fill="#0000FF" transform="matrix(1.00, 0.00, -0.00, -1.00, 272.3, 10.0)">n</text><text xml:space="preserve" font-family="CircularStd-Bold" font-weight="bold" font-size="14.0" fill="#0000FF" transform="matrix(1.00, 0.00, -0.00, -1.00, 280.5, 10.0)">g</text><text xml:space="preserve" font-family="CircularStd-Bold" font-weight="bold" font-size="14.0" fill="#0000FF" transform="matrix(1.00, 0.00, -0.00, -1.00, 288.7, 10.0)">.</text><text xml:space="preserve" font-family="CircularStd-Bold" font-weight="bold" font-size="14.0" fill="#0000FF" transform="matrix(1.00, 0.00, -0.00, -1.00, 292.8, 10.0)">c</text><text xml:space="preserve" font-family="CircularStd-Bold" font-weight="bold" font-size="14.0" fill="#0000FF" transform="matrix(1.00, 0.00, -0.00, -1.00, 300.5, 10.0)">o</text><text xml:space="preserve" font-family="CircularStd-Bold" font-weight="bold" font-size="14.0" fill="#0000FF" transform="matrix(1.00, 0.00, -0.00, -1.00, 308.7, 10.0)">m</text><text xml:space="preserve" font-family="CircularStd-Bold" font-weight="bold" font-size="14.0" fill="#0000DE" transform="matrix(1.00, 0.00, -0.00, -1.00, 321.1, 10.0)"> </text><text xml:space="preserve" font-family="CircularStd-Bold" font-weight="bold" font-size="14.0" fill="#0000DE" transform="matrix(1.00, 0.00, -0.00, -1.00, 324.5, 10.0)">→</text><g><clipPath id="clip-155"><path d="M 208.3 6.3 L 320.8 6.3 L 320.8 9.4 L 208.3 9.4 Z M 208.3 6.3 "></path></clipPath><g clip-path="url(#clip-155)"><path d="M 211.5 67.2 L 323.1 67.2 " fill="none" stroke="#0000FF" stroke-width="1.12" stroke-miterlimit="0.00" transform="matrix(1.00, 0.00, 0.00, -1.00, -2.2, 75.1)"></path></g></g></g></svg>