<?xml version="1.0" encoding="UTF-8" standalone="no"?><svg xmlns="http://www.w3.org/2000/svg" xmlns:xlink="http://www.w3.org/1999/xlink" clip-rule="evenodd" stroke-miterlimit="4.00" viewBox="0 0 141 38"><desc>SVG generated by Keynote</desc><defs></defs><g transform="matrix(1.00, 0.00, -0.00, -1.00, 0.0, 38.0)"><text xml:space="preserve" font-family="CircularStd-Book" font-size="16.0" fill="#52575F" transform="matrix(1.00, 0.00, -0.00, -1.00, 1.0, 24.0)">U</text><text xml:space="preserve" font-family="CircularStd-Book" font-size="16.0" fill="#52575F" transform="matrix(1.00, 0.00, -0.00, -1.00, 11.7, 24.0)">X</text><text xml:space="preserve" font-family="CircularStd-Book" font-size="16.0" fill="#52575F" transform="matrix(1.00, 0.00, -0.00, -1.00, 21.8, 24.0)">/</text><text xml:space="preserve" font-family="CircularStd-Book" font-size="16.0" fill="#52575F" transform="matrix(1.00, 0.00, -0.00, -1.00, 28.7, 24.0)">U</text><text xml:space="preserve" font-family="CircularStd-Book" font-size="16.0" fill="#52575F" transform="matrix(1.00, 0.00, -0.00, -1.00, 39.4, 24.0)">I</text><text xml:space="preserve" font-family="CircularStd-Book" font-size="16.0" fill="#52575F" transform="matrix(1.00, 0.00, -0.00, -1.00, 43.9, 24.0)"> </text><text xml:space="preserve" font-family="CircularStd-Book" font-size="16.0" fill="#52575F" transform="matrix(1.00, 0.00, -0.00, -1.00, 47.9, 24.0)">D</text><text xml:space="preserve" font-family="CircularStd-Book" font-size="16.0" fill="#52575F" transform="matrix(1.00, 0.00, -0.00, -1.00, 59.4, 24.0)">e</text><text xml:space="preserve" font-family="CircularStd-Book" font-size="16.0" fill="#52575F" transform="matrix(1.00, 0.00, -0.00, -1.00, 68.1, 24.0)">s</text><text xml:space="preserve" font-family="CircularStd-Book" font-size="16.0" fill="#52575F" transform="matrix(1.00, 0.00, -0.00, -1.00, 75.3, 24.0)">i</text><text xml:space="preserve" font-family="CircularStd-Book" font-size="16.0" fill="#52575F" transform="matrix(1.00, 0.00, -0.00, -1.00, 79.4, 24.0)">g</text><text xml:space="preserve" font-family="CircularStd-Book" font-size="16.0" fill="#52575F" transform="matrix(1.00, 0.00, -0.00, -1.00, 88.6, 24.0)">n</text><text xml:space="preserve" font-family="CircularStd-Book" font-size="16.0" fill="#52575F" transform="matrix(1.00, 0.00, -0.00, -1.00, 97.6, 24.0)">,</text><text xml:space="preserve" font-family="CircularStd-Book" font-size="16.0" fill="#52575F" transform="matrix(1.00, 0.00, -0.00, -1.00, 102.3, 24.0)"> </text><text xml:space="preserve" font-family="CircularStd-Book" font-size="16.0" fill="#52575F" transform="matrix(1.00, 0.00, -0.00, -1.00, 106.3, 24.0)">W</text><text xml:space="preserve" font-family="CircularStd-Book" font-size="16.0" fill="#52575F" transform="matrix(1.00, 0.00, -0.00, -1.00, 121.8, 24.0)">e</text><text xml:space="preserve" font-family="CircularStd-Book" font-size="16.0" fill="#52575F" transform="matrix(1.00, 0.00, -0.00, -1.00, 130.5, 24.0)">b</text><text xml:space="preserve" font-family="CircularStd-Book" font-size="16.0" fill="#52575F" transform="matrix(1.00, 0.00, -0.00, -1.00, 140.0, 24.0)"> </text><text xml:space="preserve" font-family="CircularStd-Book" font-size="16.0" fill="#52575F" transform="matrix(1.00, 0.00, -0.00, -1.00, 1.0, 4.0)">D</text><text xml:space="preserve" font-family="CircularStd-Book" font-size="16.0" fill="#52575F" transform="matrix(1.00, 0.00, -0.00, -1.00, 12.5, 4.0)">e</text><text xml:space="preserve" font-family="CircularStd-Book" font-size="16.0" fill="#52575F" transform="matrix(1.00, 0.00, -0.00, -1.00, 21.0, 4.0)">v</text><text xml:space="preserve" font-family="CircularStd-Book" font-size="16.0" fill="#52575F" transform="matrix(1.00, 0.00, -0.00, -1.00, 28.8, 4.0)">e</text><text xml:space="preserve" font-family="CircularStd-Book" font-size="16.0" fill="#52575F" transform="matrix(1.00, 0.00, -0.00, -1.00, 37.5, 4.0)">l</text><text xml:space="preserve" font-family="CircularStd-Book" font-size="16.0" fill="#52575F" transform="matrix(1.00, 0.00, -0.00, -1.00, 41.6, 4.0)">o</text><text xml:space="preserve" font-family="CircularStd-Book" font-size="16.0" fill="#52575F" transform="matrix(1.00, 0.00, -0.00, -1.00, 50.7, 4.0)">p</text><text xml:space="preserve" font-family="CircularStd-Book" font-size="16.0" fill="#52575F" transform="matrix(1.00, 0.00, -0.00, -1.00, 60.2, 4.0)">m</text><text xml:space="preserve" font-family="CircularStd-Book" font-size="16.0" fill="#52575F" transform="matrix(1.00, 0.00, -0.00, -1.00, 73.9, 4.0)">e</text><text xml:space="preserve" font-family="CircularStd-Book" font-size="16.0" fill="#52575F" transform="matrix(1.00, 0.00, -0.00, -1.00, 82.6, 4.0)">n</text><text xml:space="preserve" font-family="CircularStd-Book" font-size="16.0" fill="#52575F" transform="matrix(1.00, 0.00, -0.00, -1.00, 91.6, 4.0)">t</text></g></svg>