<?xml version="1.0" encoding="UTF-8" standalone="no"?><svg xmlns="http://www.w3.org/2000/svg" xmlns:xlink="http://www.w3.org/1999/xlink" clip-rule="evenodd" stroke-miterlimit="4.00" viewBox="0 0 68 16"><desc>SVG generated by Keynote</desc><defs></defs><g transform="matrix(1.00, 0.00, -0.00, -1.00, 0.0, 16.0)"><path d="M 56.5 10.9 C 56.6 11.0 57.1 11.0 57.1 10.9 C 56.9 10.9 56.5 10.8 56.5 10.9 C 56.5 10.9 56.5 10.9 56.5 10.9 Z M 55.5 11.0 C 55.7 11.1 56.1 11.0 56.2 10.9 C 56.0 11.0 55.6 10.8 55.5 11.0 C 55.5 11.0 55.5 11.0 55.5 11.0 Z M 57.0 10.6 C 57.2 10.5 57.7 10.6 57.8 10.5 C 57.6 10.6 57.1 10.4 57.0 10.6 C 57.0 10.6 57.0 10.6 57.0 10.6 Z M 43.5 12.8 C 43.6 12.9 44.1 12.9 44.1 12.8 C 43.9 12.8 43.6 12.7 43.5 12.8 C 43.5 12.8 43.5 12.8 43.5 12.8 Z M 46.2 12.5 C 46.4 12.6 46.7 12.5 46.9 12.5 C 46.7 12.5 46.3 12.4 46.2 12.5 C 46.2 12.5 46.2 12.5 46.2 12.5 Z M 47.7 12.6 C 48.1 12.6 48.5 12.6 48.4 12.4 C 48.3 12.6 47.8 12.4 47.7 12.6 C 47.7 12.6 47.7 12.6 47.7 12.6 Z M 56.8 4.6 C 56.4 4.7 56.1 4.5 55.9 4.5 C 54.6 4.5 56.5 4.8 56.8 4.6 C 56.8 4.6 56.8 4.6 56.8 4.6 Z M 50.4 12.2 C 50.2 12.2 50.0 12.2 49.9 12.3 C 50.1 12.3 50.4 12.3 50.4 12.2 C 50.4 12.2 50.4 12.2 50.4 12.2 Z M 52.7 12.1 C 52.7 12.2 54.1 12.1 54.8 12.0 C 54.2 12.0 52.6 12.0 52.7 12.1 C 52.7 12.1 52.7 12.1 52.7 12.1 Z M 53.7 4.5 C 52.8 4.6 51.5 4.5 50.8 4.6 C 50.2 4.6 51.9 4.8 53.5 4.8 C 55.1 4.8 53.8 4.4 54.5 4.4 C 55.1 4.4 53.8 4.3 53.2 4.3 C 52.6 4.4 53.6 4.4 53.7 4.5 C 53.7 4.5 53.7 4.5 53.7 4.5 Z M 53.8 4.0 C 54.1 4.0 54.3 4.0 54.5 3.9 C 54.2 3.8 53.9 3.8 53.8 4.0 C 53.8 4.0 53.8 4.0 53.8 4.0 Z M 7.7 6.8 C 7.8 8.3 8.5 9.5 9.3 10.4 C 9.5 10.6 9.7 10.8 9.9 11.0 C 11.4 11.7 12.9 12.0 14.4 12.2 C 14.7 12.3 15.0 12.3 15.3 12.3 C 16.2 12.4 17.2 12.5 18.1 12.6 C 18.4 12.6 18.7 12.6 19.0 12.6 C 20.2 12.8 21.2 12.6 22.3 12.7 C 22.9 12.7 23.4 12.8 24.0 13.0 C 24.3 13.1 25.5 13.1 26.0 13.0 C 25.5 13.3 27.6 13.2 27.5 13.2 C 27.7 13.1 27.9 13.0 28.2 13.0 C 28.4 12.9 28.1 12.9 27.8 12.8 C 28.1 12.8 28.4 12.8 28.6 12.8 C 28.9 12.8 29.2 12.8 29.5 12.8 C 30.4 12.9 31.4 12.9 32.3 12.7 C 34.7 12.8 41.3 12.8 40.1 12.7 C 38.8 12.6 39.5 12.5 39.8 12.5 C 40.0 12.5 40.3 12.5 40.6 12.5 C 40.6 12.5 40.6 12.6 40.5 12.6 C 41.1 12.6 42.0 12.8 42.8 12.7 C 42.7 12.7 42.5 12.7 42.4 12.6 C 42.8 12.6 42.5 12.4 42.8 12.4 C 43.5 12.4 43.9 12.3 43.0 12.3 C 43.8 12.2 44.4 12.0 45.2 11.8 C 45.5 11.8 45.3 11.8 45.2 11.9 C 45.7 12.0 47.0 12.0 47.1 12.0 C 47.2 12.1 43.8 12.0 44.4 12.1 C 44.6 12.2 45.1 12.2 45.3 12.2 C 44.9 12.2 44.4 12.2 44.1 12.3 C 44.4 12.3 44.8 12.3 45.0 12.4 C 44.7 12.3 44.5 12.4 44.5 12.4 C 44.9 12.4 45.2 12.5 45.7 12.5 C 45.9 12.4 45.5 12.3 46.0 12.3 C 46.1 12.3 45.7 12.3 45.7 12.2 C 46.1 12.2 46.9 12.2 47.1 12.2 C 47.3 12.1 46.6 12.2 46.6 12.1 C 48.1 12.1 49.8 12.1 50.3 12.1 C 50.9 12.1 50.4 12.1 50.1 12.0 C 50.8 12.0 51.2 12.0 52.0 12.0 C 52.4 12.0 52.2 11.9 52.1 11.9 C 52.2 11.9 52.3 11.9 52.4 11.9 C 52.4 11.8 52.6 11.8 52.6 11.8 C 52.4 11.8 51.8 11.8 51.6 11.7 C 52.0 11.6 53.0 11.8 53.4 11.7 C 52.8 11.6 52.2 11.6 51.5 11.5 C 52.8 11.5 54.2 11.8 55.2 11.6 C 55.0 11.5 54.9 11.4 54.8 11.4 C 55.2 11.5 55.8 11.6 56.1 11.4 C 56.3 11.4 56.7 11.3 57.1 11.3 C 56.4 11.3 56.0 11.2 55.5 11.3 C 55.5 11.2 55.5 11.2 55.6 11.2 C 54.6 11.0 54.0 11.4 53.2 11.4 C 53.1 11.4 53.1 11.4 53.0 11.4 C 52.8 11.2 53.6 11.3 53.7 11.2 C 52.6 11.1 51.4 11.2 50.8 11.0 C 52.2 11.0 53.3 11.1 54.3 11.0 C 54.1 10.8 53.1 10.9 52.6 10.8 C 54.8 10.7 55.0 10.7 55.2 10.7 C 55.0 10.7 54.8 10.6 54.7 10.6 C 54.7 10.6 54.8 10.6 54.8 10.5 C 55.8 10.5 56.9 10.6 56.8 10.5 C 56.8 10.5 55.9 10.4 55.0 10.4 C 55.1 10.4 55.2 10.3 55.3 10.2 C 56.4 10.2 57.6 10.0 58.7 10.1 C 58.5 10.0 58.6 10.0 58.8 9.9 C 58.5 9.8 58.0 9.8 57.6 9.7 C 57.8 9.7 58.0 9.7 58.1 9.6 C 57.9 9.6 57.6 9.6 57.5 9.5 C 58.0 9.5 58.6 9.5 59.1 9.4 C 59.2 9.3 58.9 9.4 58.9 9.3 C 59.4 9.3 60.1 9.3 60.5 9.2 C 60.1 9.1 59.2 9.2 59.0 9.1 C 59.2 9.1 59.3 9.0 59.5 9.0 C 59.9 9.0 60.0 9.0 59.6 8.9 C 59.4 8.9 59.4 8.8 59.5 8.8 C 59.7 8.7 60.6 8.8 60.5 8.6 C 60.3 8.6 59.5 8.6 59.3 8.4 C 59.4 8.3 59.9 8.4 59.9 8.2 C 59.0 8.3 59.0 8.2 58.8 8.3 C 58.9 8.3 59.2 8.3 59.1 8.4 C 58.6 8.4 58.0 8.4 57.4 8.3 C 57.4 8.3 57.4 8.3 57.4 8.3 C 57.4 8.3 57.4 8.3 57.4 8.3 C 57.4 8.3 57.4 8.3 57.4 8.3 C 57.5 8.2 57.5 8.1 57.4 8.0 C 57.7 8.0 57.9 8.0 58.4 8.0 C 58.3 7.8 57.8 7.8 57.4 7.9 C 57.4 7.9 57.4 7.8 57.4 7.8 C 58.1 7.8 59.1 7.8 59.7 7.7 C 59.4 7.6 58.3 7.6 57.6 7.6 C 57.6 7.6 57.6 7.6 57.6 7.5 C 56.7 7.6 55.6 7.4 54.5 7.4 C 55.1 7.2 55.7 7.4 56.3 7.4 C 56.6 7.3 56.9 7.3 57.2 7.2 C 58.0 7.2 60.5 7.3 60.8 7.2 C 61.1 7.1 58.6 7.1 58.6 7.0 C 58.6 7.0 59.7 6.9 59.2 6.9 C 58.9 7.0 58.3 7.0 57.8 7.0 C 57.8 6.9 57.8 6.7 57.8 6.6 C 58.2 6.6 58.6 6.6 58.6 6.8 C 58.8 6.8 59.3 6.9 59.3 6.8 C 59.3 6.7 59.2 6.8 59.2 6.7 C 59.2 6.7 59.4 6.7 59.4 6.7 C 58.9 6.6 58.3 6.6 57.7 6.5 C 57.7 6.5 57.7 6.4 57.6 6.4 C 57.6 6.4 58.0 6.3 58.4 6.3 C 58.7 6.3 58.0 6.2 57.4 6.2 C 57.3 6.1 57.2 6.1 57.1 6.0 C 57.3 6.0 57.5 6.0 57.8 6.0 C 58.2 6.0 58.2 5.8 58.5 5.8 C 57.9 5.7 57.1 5.7 56.5 5.7 C 56.3 5.6 56.1 5.5 55.9 5.4 C 56.4 5.3 56.8 5.3 57.1 5.2 C 57.3 5.2 57.6 5.2 57.6 5.1 C 57.4 5.1 58.0 5.1 57.9 4.9 C 57.6 5.1 57.0 5.0 56.8 5.2 C 56.3 5.2 55.8 5.2 55.4 5.2 C 55.3 5.1 55.3 5.1 55.2 5.1 C 55.6 5.1 56.0 5.1 56.4 5.0 C 56.2 4.8 55.1 4.8 54.3 4.9 C 52.6 4.7 51.0 5.4 49.3 5.5 C 49.2 5.5 49.2 5.4 49.0 5.4 C 48.9 5.4 48.8 5.3 48.7 5.2 C 49.1 5.2 49.4 5.2 49.7 5.2 C 48.6 5.0 51.4 5.1 51.6 5.0 C 49.7 4.7 46.2 4.8 44.0 4.6 C 44.5 4.6 44.7 4.6 44.1 4.5 C 44.0 4.5 43.8 4.5 43.7 4.4 C 45.9 4.4 48.2 4.7 49.9 4.4 C 48.9 4.4 47.3 4.5 46.9 4.3 C 47.2 4.3 47.6 4.3 47.7 4.2 C 47.2 4.1 45.4 4.2 44.8 4.1 C 47.4 4.0 50.9 4.2 52.8 4.0 C 49.9 4.0 46.1 3.8 43.6 4.0 C 44.0 4.0 44.0 4.0 43.8 4.1 C 43.0 4.1 42.3 4.2 41.5 4.2 C 41.3 4.1 41.4 4.1 41.8 4.1 C 42.1 4.0 42.3 4.1 42.4 4.0 C 42.2 4.0 39.7 3.9 41.7 3.9 C 43.6 3.9 46.9 3.9 45.0 3.8 C 43.0 3.7 42.3 3.6 43.3 3.5 C 44.4 3.5 47.8 3.4 46.6 3.3 C 45.5 3.3 43.1 3.1 41.8 3.1 C 40.4 3.1 42.7 3.7 40.7 3.6 C 38.7 3.6 40.4 3.5 40.0 3.5 C 39.4 3.5 38.3 3.4 37.3 3.4 C 36.5 3.4 35.6 3.4 35.1 3.3 C 35.1 3.2 37.4 3.3 36.5 3.2 C 34.3 3.1 31.9 3.1 32.9 3.3 C 31.6 3.2 30.6 3.2 29.7 3.2 C 28.4 3.0 26.9 3.0 26.7 3.0 C 26.5 2.9 23.0 3.2 21.7 2.7 C 21.6 2.7 19.2 2.8 18.9 2.9 C 16.7 2.7 17.0 2.6 14.7 2.6 C 12.9 2.6 12.3 2.7 12.0 2.7 C 10.0 2.8 10.0 2.6 9.0 3.3 C 8.7 3.5 8.3 3.5 8.1 3.9 C 7.8 4.6 7.6 5.6 7.7 6.8 C 7.7 6.8 7.7 6.8 7.7 6.8 Z M 57.2 8.6 C 57.5 8.7 58.1 8.6 58.5 8.7 C 58.1 8.8 57.6 8.8 57.0 8.7 C 57.1 8.7 57.1 8.6 57.2 8.6 C 57.2 8.6 57.2 8.6 57.2 8.6 Z M 54.5 6.2 C 54.7 6.2 55.0 6.4 55.3 6.3 C 55.5 6.3 55.8 6.4 56.2 6.3 C 56.1 6.2 55.5 6.1 55.0 6.1 C 55.0 6.1 55.0 6.0 55.0 6.0 C 55.3 5.9 55.5 5.9 55.9 5.9 C 56.0 5.9 56.1 5.9 56.2 6.0 C 56.2 6.0 56.0 6.1 56.0 6.1 C 56.1 6.2 56.3 6.2 56.7 6.3 C 56.8 6.3 56.8 6.3 56.9 6.4 C 56.9 6.5 56.6 6.5 56.9 6.5 C 56.7 6.6 56.1 6.5 55.8 6.6 C 56.2 6.3 54.6 6.4 54.3 6.3 C 54.3 6.3 54.4 6.3 54.5 6.2 Z M 51.4 11.5 C 51.2 11.5 51.0 11.5 50.8 11.5 C 51.1 11.5 51.4 11.4 51.6 11.4 C 51.5 11.4 51.5 11.5 51.4 11.5 Z M 34.2 12.3 C 35.4 12.0 38.1 12.4 38.2 12.2 C 38.5 12.2 38.8 12.3 39.1 12.3 C 37.3 12.3 35.4 12.3 34.2 12.3 C 34.2 12.3 34.2 12.3 34.2 12.3 Z M 38.8 4.0 C 38.9 4.0 38.8 4.1 38.6 4.1 C 37.2 4.1 36.4 4.2 37.3 4.3 C 38.0 4.3 39.6 4.3 39.1 4.4 C 38.5 4.4 37.9 4.4 37.2 4.4 C 36.8 4.4 36.3 4.2 35.8 4.0 C 36.9 4.0 37.9 4.0 38.8 4.0 C 38.8 4.0 38.8 4.0 38.8 4.0 Z M 35.2 3.8 C 35.6 3.8 36.0 3.8 36.5 3.9 C 36.1 3.9 35.7 3.9 35.3 3.9 C 35.3 3.8 35.3 3.8 35.2 3.8 Z M 34.7 3.6 C 35.5 3.6 36.3 3.7 35.5 3.7 C 35.3 3.7 35.2 3.7 35.0 3.7 C 34.9 3.7 34.8 3.6 34.7 3.6 Z M 34.3 3.5 C 34.3 3.6 34.4 3.6 34.7 3.6 C 34.2 3.6 33.1 3.7 33.2 3.5 C 33.5 3.5 33.9 3.5 34.3 3.5 C 34.3 3.5 34.3 3.5 34.3 3.5 Z M 33.3 12.5 C 33.7 12.6 34.0 12.6 33.4 12.6 C 33.2 12.6 33.0 12.6 32.8 12.7 C 33.0 12.6 33.2 12.6 33.3 12.5 Z M 51.1 4.3 C 50.9 4.3 50.4 4.3 50.1 4.3 C 50.0 4.7 51.3 4.5 51.1 4.3 C 51.1 4.3 51.1 4.3 51.1 4.3 Z M 53.1 4.2 C 53.0 4.2 52.4 4.2 52.1 4.2 C 52.1 4.6 53.3 4.3 53.1 4.2 C 53.1 4.2 53.1 4.2 53.1 4.2 Z M 21.7 2.7 C 21.7 2.7 21.7 2.7 21.7 2.7 C 21.7 2.7 21.7 2.7 21.7 2.7 C 21.7 2.7 21.7 2.7 21.7 2.7 Z M 21.7 2.7 " fill="#1BFFE6"></path></g></svg>